<svg width="20" height="20" viewBox="0 0 20 20" fill="none" xmlns="http://www.w3.org/2000/svg">
<path d="M14.5833 18.3329C14.1385 18.3381 13.6986 18.2402 13.2979 18.0471C12.8971 17.8539 12.5466 17.5706 12.2736 17.2194C12.0005 16.8682 11.8125 16.4585 11.7241 16.0226C11.6358 15.5866 11.6495 15.1361 11.7642 14.7063L6.54752 11.7246C6.10745 12.1278 5.55413 12.386 4.96245 12.4642C4.37078 12.5425 3.76935 12.4371 3.23959 12.1622C2.70983 11.8873 2.27734 11.4563 2.00068 10.9274C1.72402 10.3986 1.61655 9.79754 1.69282 9.20561C1.7691 8.61368 2.02544 8.05948 2.42712 7.61806C2.82881 7.17665 3.35645 6.86933 3.93858 6.73773C4.52072 6.60613 5.12924 6.65659 5.68174 6.8823C6.23424 7.10801 6.70404 7.49805 7.02752 7.99961L11.7634 5.29211C11.7021 5.06059 11.6696 4.82241 11.6667 4.58294C11.6609 3.90647 11.8884 3.24866 12.3108 2.72027C12.7333 2.19189 13.3249 1.8252 13.986 1.68196C14.6472 1.53871 15.3375 1.62766 15.9408 1.93382C16.544 2.23998 17.0233 2.74466 17.2981 3.36287C17.5728 3.98108 17.6261 4.67507 17.449 5.32798C17.2719 5.98089 16.8752 6.55284 16.3258 6.94753C15.7764 7.34222 15.1077 7.53554 14.4325 7.49493C13.7572 7.45433 13.1165 7.18229 12.6184 6.72461L7.49335 9.65378C7.48752 9.87044 7.45752 10.0846 7.40252 10.2938L12.6192 13.2746C12.9683 12.9542 13.3904 12.7238 13.8488 12.6034C14.3071 12.4831 14.7879 12.4764 15.2495 12.5839C15.711 12.6915 16.1393 12.91 16.4972 13.2206C16.8552 13.5312 17.1319 13.9244 17.3035 14.3662C17.475 14.808 17.5361 15.2849 17.4816 15.7557C17.4271 16.2264 17.2585 16.6767 16.9905 17.0676C16.7225 17.4584 16.3631 17.7779 15.9437 17.9984C15.5242 18.219 15.0572 18.3338 14.5833 18.3329ZM14.5833 14.1663C14.2518 14.1663 13.9339 14.298 13.6995 14.5324C13.465 14.7668 13.3334 15.0848 13.3334 15.4163C13.3334 15.7478 13.465 16.0657 13.6995 16.3002C13.9339 16.5346 14.2518 16.6663 14.5833 16.6663C14.9149 16.6663 15.2328 16.5346 15.4672 16.3002C15.7017 16.0657 15.8333 15.7478 15.8333 15.4163C15.8333 15.0848 15.7017 14.7668 15.4672 14.5324C15.2328 14.298 14.9149 14.1663 14.5833 14.1663ZM4.58335 8.33294C4.25183 8.33294 3.93389 8.46464 3.69947 8.69906C3.46505 8.93348 3.33335 9.25142 3.33335 9.58294C3.33335 9.91446 3.46505 10.2324 3.69947 10.4668C3.93389 10.7012 4.25183 10.8329 4.58335 10.8329C4.91487 10.8329 5.23281 10.7012 5.46723 10.4668C5.70166 10.2324 5.83335 9.91446 5.83335 9.58294C5.83335 9.25142 5.70166 8.93348 5.46723 8.69906C5.23281 8.46464 4.91487 8.33294 4.58335 8.33294ZM14.5833 3.33294C14.4192 3.33294 14.2567 3.36527 14.105 3.42809C13.9533 3.49091 13.8155 3.58298 13.6995 3.69906C13.5834 3.81513 13.4913 3.95293 13.4285 4.10459C13.3657 4.25624 13.3334 4.41879 13.3334 4.58294C13.3334 4.74709 13.3657 4.90964 13.4285 5.06129C13.4913 5.21295 13.5834 5.35075 13.6995 5.46682C13.8155 5.5829 13.9533 5.67497 14.105 5.73779C14.2567 5.80061 14.4192 5.83294 14.5833 5.83294C14.9149 5.83294 15.2328 5.70124 15.4672 5.46682C15.7017 5.2324 15.8333 4.91446 15.8333 4.58294C15.8333 4.25142 15.7017 3.93348 15.4672 3.69906C15.2328 3.46464 14.9149 3.33294 14.5833 3.33294Z" fill="#333333"/>
</svg>
