<svg width="108" height="30" viewBox="0 0 108 30" fill="none" xmlns="http://www.w3.org/2000/svg">
<path d="M17.4995 27.5005H4.99951C4.6681 27.512 4.33786 27.4552 4.02934 27.3336C3.72081 27.2121 3.4406 27.0284 3.20612 26.7939C2.97163 26.5594 2.7879 26.2792 2.66634 25.9706C2.54478 25.6621 2.48799 25.3319 2.49951 25.0005V12.5005C2.48799 12.1691 2.54478 11.8388 2.66634 11.5303C2.7879 11.2218 2.97163 10.9416 3.20612 10.7071C3.4406 10.4726 3.72081 10.2889 4.02934 10.1673C4.33786 10.0458 4.6681 9.98897 4.99951 10.0005H9.99951V5.00048C9.98799 4.66907 10.0448 4.33884 10.1663 4.03032C10.2879 3.72179 10.4716 3.44158 10.7061 3.20709C10.9406 2.97261 11.2208 2.78888 11.5293 2.66731C11.8379 2.54575 12.1681 2.48897 12.4995 2.50048H24.9995C25.3309 2.48897 25.6611 2.54575 25.9697 2.66731C26.2782 2.78888 26.5584 2.97261 26.7929 3.20709C27.0274 3.44158 27.2111 3.72179 27.3327 4.03032C27.4542 4.33884 27.511 4.66907 27.4995 5.00048V17.5005C27.5108 17.8318 27.4539 18.162 27.3323 18.4704C27.2107 18.7789 27.0269 19.059 26.7925 19.2935C26.558 19.5279 26.2779 19.7116 25.9695 19.8333C25.661 19.9549 25.3309 20.0118 24.9995 20.0005H19.9995V25.0005C20.0108 25.3318 19.9539 25.662 19.8323 25.9704C19.7107 26.2789 19.5269 26.559 19.2925 26.7935C19.058 27.0279 18.7779 27.2116 18.4695 27.3333C18.161 27.4549 17.8309 27.5118 17.4995 27.5005ZM4.99951 12.5005V25.0005H17.4995V20.0005H12.4995C12.1681 20.0118 11.838 19.9549 11.5296 19.8333C11.2211 19.7116 10.941 19.5279 10.7065 19.2935C10.4721 19.059 10.2883 18.7789 10.1667 18.4704C10.0451 18.162 9.98817 17.8318 9.99951 17.5005V12.5005H4.99951ZM12.4995 5.00048V17.5005H24.9995V5.00048H12.4995Z" fill="#258D00"/>
<path d="M22.8506 7.20701C22.9127 7.14147 22.9867 7.0894 23.0684 7.05385C23.1502 7.01831 23.2379 7 23.3265 7C23.4152 7 23.5029 7.01831 23.5847 7.05385C23.6664 7.0894 23.7404 7.14147 23.8025 7.20701C24.0625 7.47903 24.0661 7.91859 23.8116 8.19532L18.436 14.7746C18.375 14.844 18.3009 14.8998 18.2183 14.9385C18.1358 14.9772 18.0464 14.9981 17.9558 14.9999C17.8652 15.0016 17.7752 14.9842 17.6912 14.9487C17.6073 14.9132 17.5313 14.8604 17.4678 14.7934L14.1968 11.3617C14.0707 11.2285 14 11.0493 14 10.8628C14 10.6762 14.0707 10.4971 14.1968 10.3639C14.2589 10.2984 14.3329 10.2463 14.4146 10.2108C14.4963 10.1752 14.5841 10.1569 14.6727 10.1569C14.7614 10.1569 14.8491 10.1752 14.9308 10.2108C15.0126 10.2463 15.0866 10.2984 15.1487 10.3639L17.9233 13.2752L22.8324 7.22772C22.8381 7.22044 22.8442 7.21353 22.8506 7.20701Z" fill="#258D00"/>
<path d="M44.18 13.1C43.4733 13.1 42.8333 12.9467 42.26 12.64C41.6933 12.3267 41.2467 11.8967 40.92 11.35C40.6 10.8033 40.44 10.1867 40.44 9.5C40.44 8.81333 40.6033 8.19667 40.93 7.65C41.2567 7.10333 41.7033 6.67667 42.27 6.37C42.8433 6.05667 43.4833 5.9 44.19 5.9C44.7633 5.9 45.2867 6 45.76 6.2C46.2333 6.4 46.6333 6.69 46.96 7.07L46.12 7.86C45.6133 7.31333 44.99 7.04 44.25 7.04C43.77 7.04 43.34 7.14667 42.96 7.36C42.58 7.56667 42.2833 7.85667 42.07 8.23C41.8567 8.60333 41.75 9.02667 41.75 9.5C41.75 9.97333 41.8567 10.3967 42.07 10.77C42.2833 11.1433 42.58 11.4367 42.96 11.65C43.34 11.8567 43.77 11.96 44.25 11.96C44.99 11.96 45.6133 11.6833 46.12 11.13L46.96 11.93C46.6333 12.31 46.23 12.6 45.75 12.8C45.2767 13 44.7533 13.1 44.18 13.1ZM50.2903 13.07C49.7503 13.07 49.2636 12.9533 48.8303 12.72C48.397 12.4867 48.057 12.1633 47.8103 11.75C47.5703 11.33 47.4503 10.8567 47.4503 10.33C47.4503 9.80333 47.5703 9.33333 47.8103 8.92C48.057 8.50667 48.397 8.18333 48.8303 7.95C49.2636 7.71667 49.7503 7.6 50.2903 7.6C50.837 7.6 51.327 7.71667 51.7603 7.95C52.1936 8.18333 52.5303 8.50667 52.7703 8.92C53.017 9.33333 53.1403 9.80333 53.1403 10.33C53.1403 10.8567 53.017 11.33 52.7703 11.75C52.5303 12.1633 52.1936 12.4867 51.7603 12.72C51.327 12.9533 50.837 13.07 50.2903 13.07ZM50.2903 12C50.7503 12 51.1303 11.8467 51.4303 11.54C51.7303 11.2333 51.8803 10.83 51.8803 10.33C51.8803 9.83 51.7303 9.42667 51.4303 9.12C51.1303 8.81333 50.7503 8.66 50.2903 8.66C49.8303 8.66 49.4503 8.81333 49.1503 9.12C48.857 9.42667 48.7103 9.83 48.7103 10.33C48.7103 10.83 48.857 11.2333 49.1503 11.54C49.4503 11.8467 49.8303 12 50.2903 12ZM57.2956 7.6C57.8156 7.6 58.279 7.71333 58.6856 7.94C59.099 8.16667 59.4223 8.48667 59.6556 8.9C59.889 9.31333 60.0056 9.79 60.0056 10.33C60.0056 10.87 59.889 11.35 59.6556 11.77C59.4223 12.1833 59.099 12.5033 58.6856 12.73C58.279 12.9567 57.8156 13.07 57.2956 13.07C56.5756 13.07 56.0056 12.83 55.5856 12.35V14.94H54.3356V7.66H55.5256V8.36C55.7323 8.10667 55.9856 7.91667 56.2856 7.79C56.5923 7.66333 56.929 7.6 57.2956 7.6ZM57.1556 12C57.6156 12 57.9923 11.8467 58.2856 11.54C58.5856 11.2333 58.7356 10.83 58.7356 10.33C58.7356 9.83 58.5856 9.42667 58.2856 9.12C57.9923 8.81333 57.6156 8.66 57.1556 8.66C56.8556 8.66 56.5856 8.73 56.3456 8.87C56.1056 9.00333 55.9156 9.19667 55.7756 9.45C55.6356 9.70333 55.5656 9.99667 55.5656 10.33C55.5656 10.6633 55.6356 10.9567 55.7756 11.21C55.9156 11.4633 56.1056 11.66 56.3456 11.8C56.5856 11.9333 56.8556 12 57.1556 12ZM61.1911 7.66H62.4411V13H61.1911V7.66ZM61.8211 6.78C61.5944 6.78 61.4044 6.71 61.2511 6.57C61.0978 6.42333 61.0211 6.24333 61.0211 6.03C61.0211 5.81667 61.0978 5.64 61.2511 5.5C61.4044 5.35333 61.5944 5.28 61.8211 5.28C62.0478 5.28 62.2378 5.35 62.3911 5.49C62.5444 5.62333 62.6211 5.79333 62.6211 6C62.6211 6.22 62.5444 6.40667 62.3911 6.56C62.2444 6.70667 62.0544 6.78 61.8211 6.78ZM66.1217 7.6C66.9084 7.6 67.5084 7.79 67.9217 8.17C68.3417 8.54333 68.5517 9.11 68.5517 9.87V13H67.3717V12.35C67.2184 12.5833 66.9984 12.7633 66.7117 12.89C66.4317 13.01 66.0917 13.07 65.6917 13.07C65.2917 13.07 64.9417 13.0033 64.6417 12.87C64.3417 12.73 64.1084 12.54 63.9417 12.3C63.7817 12.0533 63.7017 11.7767 63.7017 11.47C63.7017 10.99 63.8784 10.6067 64.2317 10.32C64.5917 10.0267 65.1551 9.88 65.9217 9.88H67.3017V9.8C67.3017 9.42667 67.1884 9.14 66.9617 8.94C66.7417 8.74 66.4117 8.64 65.9717 8.64C65.6717 8.64 65.3751 8.68667 65.0817 8.78C64.7951 8.87333 64.5517 9.00333 64.3517 9.17L63.8617 8.26C64.1417 8.04667 64.4784 7.88333 64.8717 7.77C65.2651 7.65667 65.6817 7.6 66.1217 7.6ZM65.9517 12.16C66.2651 12.16 66.5417 12.09 66.7817 11.95C67.0284 11.8033 67.2017 11.5967 67.3017 11.33V10.71H66.0117C65.2917 10.71 64.9317 10.9467 64.9317 11.42C64.9317 11.6467 65.0217 11.8267 65.2017 11.96C65.3817 12.0933 65.6317 12.16 65.9517 12.16ZM75.4348 5.58V13H74.2348V12.31C74.0281 12.5633 73.7714 12.7533 73.4648 12.88C73.1648 13.0067 72.8314 13.07 72.4648 13.07C71.9514 13.07 71.4881 12.9567 71.0748 12.73C70.6681 12.5033 70.3481 12.1833 70.1148 11.77C69.8814 11.35 69.7648 10.87 69.7648 10.33C69.7648 9.79 69.8814 9.31333 70.1148 8.9C70.3481 8.48667 70.6681 8.16667 71.0748 7.94C71.4881 7.71333 71.9514 7.6 72.4648 7.6C72.8181 7.6 73.1414 7.66 73.4348 7.78C73.7281 7.9 73.9781 8.08 74.1848 8.32V5.58H75.4348ZM72.6148 12C72.9148 12 73.1848 11.9333 73.4248 11.8C73.6648 11.66 73.8548 11.4633 73.9948 11.21C74.1348 10.9567 74.2048 10.6633 74.2048 10.33C74.2048 9.99667 74.1348 9.70333 73.9948 9.45C73.8548 9.19667 73.6648 9.00333 73.4248 8.87C73.1848 8.73 72.9148 8.66 72.6148 8.66C72.3148 8.66 72.0448 8.73 71.8048 8.87C71.5648 9.00333 71.3748 9.19667 71.2348 9.45C71.0948 9.70333 71.0248 9.99667 71.0248 10.33C71.0248 10.6633 71.0948 10.9567 71.2348 11.21C71.3748 11.4633 71.5648 11.66 71.8048 11.8C72.0448 11.9333 72.3148 12 72.6148 12ZM79.47 13.07C78.93 13.07 78.4433 12.9533 78.01 12.72C77.5767 12.4867 77.2367 12.1633 76.99 11.75C76.75 11.33 76.63 10.8567 76.63 10.33C76.63 9.80333 76.75 9.33333 76.99 8.92C77.2367 8.50667 77.5767 8.18333 78.01 7.95C78.4433 7.71667 78.93 7.6 79.47 7.6C80.0167 7.6 80.5067 7.71667 80.94 7.95C81.3733 8.18333 81.71 8.50667 81.95 8.92C82.1967 9.33333 82.32 9.80333 82.32 10.33C82.32 10.8567 82.1967 11.33 81.95 11.75C81.71 12.1633 81.3733 12.4867 80.94 12.72C80.5067 12.9533 80.0167 13.07 79.47 13.07ZM79.47 12C79.93 12 80.31 11.8467 80.61 11.54C80.91 11.2333 81.06 10.83 81.06 10.33C81.06 9.83 80.91 9.42667 80.61 9.12C80.31 8.81333 79.93 8.66 79.47 8.66C79.01 8.66 78.63 8.81333 78.33 9.12C78.0367 9.42667 77.89 9.83 77.89 10.33C77.89 10.83 78.0367 11.2333 78.33 11.54C78.63 11.8467 79.01 12 79.47 12ZM88.319 7.6C89.1057 7.6 89.7057 7.79 90.119 8.17C90.539 8.54333 90.749 9.11 90.749 9.87V13H89.569V12.35C89.4157 12.5833 89.1957 12.7633 88.909 12.89C88.629 13.01 88.289 13.07 87.889 13.07C87.489 13.07 87.139 13.0033 86.839 12.87C86.539 12.73 86.3057 12.54 86.139 12.3C85.979 12.0533 85.899 11.7767 85.899 11.47C85.899 10.99 86.0757 10.6067 86.429 10.32C86.789 10.0267 87.3523 9.88 88.119 9.88H89.499V9.8C89.499 9.42667 89.3857 9.14 89.159 8.94C88.939 8.74 88.609 8.64 88.169 8.64C87.869 8.64 87.5723 8.68667 87.279 8.78C86.9923 8.87333 86.749 9.00333 86.549 9.17L86.059 8.26C86.339 8.04667 86.6757 7.88333 87.069 7.77C87.4623 7.65667 87.879 7.6 88.319 7.6ZM88.149 12.16C88.4623 12.16 88.739 12.09 88.979 11.95C89.2257 11.8033 89.399 11.5967 89.499 11.33V10.71H88.209C87.489 10.71 87.129 10.9467 87.129 11.42C87.129 11.6467 87.219 11.8267 87.399 11.96C87.579 12.0933 87.829 12.16 88.149 12.16ZM92.3532 5.58H93.6032V13H92.3532V5.58ZM43.78 19.6C44.3 19.6 44.7633 19.7133 45.17 19.94C45.5833 20.1667 45.9067 20.4867 46.14 20.9C46.3733 21.3133 46.49 21.79 46.49 22.33C46.49 22.87 46.3733 23.35 46.14 23.77C45.9067 24.1833 45.5833 24.5033 45.17 24.73C44.7633 24.9567 44.3 25.07 43.78 25.07C43.06 25.07 42.49 24.83 42.07 24.35V26.94H40.82V19.66H42.01V20.36C42.2167 20.1067 42.47 19.9167 42.77 19.79C43.0767 19.6633 43.4133 19.6 43.78 19.6ZM43.64 24C44.1 24 44.4767 23.8467 44.77 23.54C45.07 23.2333 45.22 22.83 45.22 22.33C45.22 21.83 45.07 21.4267 44.77 21.12C44.4767 20.8133 44.1 20.66 43.64 20.66C43.34 20.66 43.07 20.73 42.83 20.87C42.59 21.0033 42.4 21.1967 42.26 21.45C42.12 21.7033 42.05 21.9967 42.05 22.33C42.05 22.6633 42.12 22.9567 42.26 23.21C42.4 23.4633 42.59 23.66 42.83 23.8C43.07 23.9333 43.34 24 43.64 24ZM50.0755 25.07C49.5355 25.07 49.0488 24.9533 48.6155 24.72C48.1821 24.4867 47.8421 24.1633 47.5955 23.75C47.3555 23.33 47.2355 22.8567 47.2355 22.33C47.2355 21.8033 47.3555 21.3333 47.5955 20.92C47.8421 20.5067 48.1821 20.1833 48.6155 19.95C49.0488 19.7167 49.5355 19.6 50.0755 19.6C50.6221 19.6 51.1121 19.7167 51.5455 19.95C51.9788 20.1833 52.3155 20.5067 52.5555 20.92C52.8021 21.3333 52.9255 21.8033 52.9255 22.33C52.9255 22.8567 52.8021 23.33 52.5555 23.75C52.3155 24.1633 51.9788 24.4867 51.5455 24.72C51.1121 24.9533 50.6221 25.07 50.0755 25.07ZM50.0755 24C50.5355 24 50.9155 23.8467 51.2155 23.54C51.5155 23.2333 51.6655 22.83 51.6655 22.33C51.6655 21.83 51.5155 21.4267 51.2155 21.12C50.9155 20.8133 50.5355 20.66 50.0755 20.66C49.6155 20.66 49.2355 20.8133 48.9355 21.12C48.6421 21.4267 48.4955 21.83 48.4955 22.33C48.4955 22.83 48.6421 23.2333 48.9355 23.54C49.2355 23.8467 49.6155 24 50.0755 24ZM55.3108 20.44C55.6708 19.88 56.3041 19.6 57.2108 19.6V20.79C57.1041 20.77 57.0074 20.76 56.9208 20.76C56.4341 20.76 56.0541 20.9033 55.7808 21.19C55.5074 21.47 55.3708 21.8767 55.3708 22.41V25H54.1208V19.66H55.3108V20.44ZM61.6765 24.71C61.5298 24.83 61.3498 24.92 61.1365 24.98C60.9298 25.04 60.7098 25.07 60.4765 25.07C59.8898 25.07 59.4365 24.9167 59.1165 24.61C58.7965 24.3033 58.6365 23.8567 58.6365 23.27V20.7H57.7565V19.7H58.6365V18.48H59.8865V19.7H61.3165V20.7H59.8865V23.24C59.8865 23.5 59.9498 23.7 60.0765 23.84C60.2032 23.9733 60.3865 24.04 60.6265 24.04C60.9065 24.04 61.1398 23.9667 61.3265 23.82L61.6765 24.71ZM64.7448 19.6C65.5314 19.6 66.1314 19.79 66.5448 20.17C66.9648 20.5433 67.1748 21.11 67.1748 21.87V25H65.9948V24.35C65.8414 24.5833 65.6214 24.7633 65.3348 24.89C65.0548 25.01 64.7148 25.07 64.3148 25.07C63.9148 25.07 63.5648 25.0033 63.2648 24.87C62.9648 24.73 62.7314 24.54 62.5648 24.3C62.4048 24.0533 62.3248 23.7767 62.3248 23.47C62.3248 22.99 62.5014 22.6067 62.8548 22.32C63.2148 22.0267 63.7781 21.88 64.5448 21.88H65.9248V21.8C65.9248 21.4267 65.8114 21.14 65.5848 20.94C65.3648 20.74 65.0348 20.64 64.5948 20.64C64.2948 20.64 63.9981 20.6867 63.7048 20.78C63.4181 20.8733 63.1748 21.0033 62.9748 21.17L62.4848 20.26C62.7648 20.0467 63.1014 19.8833 63.4948 19.77C63.8881 19.6567 64.3048 19.6 64.7448 19.6ZM64.5748 24.16C64.8881 24.16 65.1648 24.09 65.4048 23.95C65.6514 23.8033 65.8248 23.5967 65.9248 23.33V22.71H64.6348C63.9148 22.71 63.5548 22.9467 63.5548 23.42C63.5548 23.6467 63.6448 23.8267 63.8248 23.96C64.0048 24.0933 64.2548 24.16 64.5748 24.16ZM71.739 19.6C72.259 19.6 72.7223 19.7133 73.129 19.94C73.5423 20.1667 73.8657 20.4867 74.099 20.9C74.3323 21.3133 74.449 21.79 74.449 22.33C74.449 22.87 74.3323 23.35 74.099 23.77C73.8657 24.1833 73.5423 24.5033 73.129 24.73C72.7223 24.9567 72.259 25.07 71.739 25.07C71.019 25.07 70.449 24.83 70.029 24.35V26.94H68.779V19.66H69.969V20.36C70.1757 20.1067 70.429 19.9167 70.729 19.79C71.0357 19.6633 71.3723 19.6 71.739 19.6ZM71.599 24C72.059 24 72.4357 23.8467 72.729 23.54C73.029 23.2333 73.179 22.83 73.179 22.33C73.179 21.83 73.029 21.4267 72.729 21.12C72.4357 20.8133 72.059 20.66 71.599 20.66C71.299 20.66 71.029 20.73 70.789 20.87C70.549 21.0033 70.359 21.1967 70.219 21.45C70.079 21.7033 70.009 21.9967 70.009 22.33C70.009 22.6633 70.079 22.9567 70.219 23.21C70.359 23.4633 70.549 23.66 70.789 23.8C71.029 23.9333 71.299 24 71.599 24ZM77.6061 19.6C78.3928 19.6 78.9928 19.79 79.4061 20.17C79.8261 20.5433 80.0361 21.11 80.0361 21.87V25H78.8561V24.35C78.7028 24.5833 78.4828 24.7633 78.1961 24.89C77.9161 25.01 77.5761 25.07 77.1761 25.07C76.7761 25.07 76.4261 25.0033 76.1261 24.87C75.8261 24.73 75.5928 24.54 75.4261 24.3C75.2661 24.0533 75.1861 23.7767 75.1861 23.47C75.1861 22.99 75.3628 22.6067 75.7161 22.32C76.0761 22.0267 76.6394 21.88 77.4061 21.88H78.7861V21.8C78.7861 21.4267 78.6728 21.14 78.4461 20.94C78.2261 20.74 77.8961 20.64 77.4561 20.64C77.1561 20.64 76.8594 20.6867 76.5661 20.78C76.2794 20.8733 76.0361 21.0033 75.8361 21.17L75.3461 20.26C75.6261 20.0467 75.9628 19.8833 76.3561 19.77C76.7494 19.6567 77.1661 19.6 77.6061 19.6ZM77.4361 24.16C77.7494 24.16 78.0261 24.09 78.2661 23.95C78.5128 23.8033 78.6861 23.5967 78.7861 23.33V22.71H77.4961C76.7761 22.71 76.4161 22.9467 76.4161 23.42C76.4161 23.6467 76.5061 23.8267 76.6861 23.96C76.8661 24.0933 77.1161 24.16 77.4361 24.16ZM84.6003 19.6C85.1203 19.6 85.5836 19.7133 85.9903 19.94C86.4036 20.1667 86.727 20.4867 86.9603 20.9C87.1936 21.3133 87.3103 21.79 87.3103 22.33C87.3103 22.87 87.1936 23.35 86.9603 23.77C86.727 24.1833 86.4036 24.5033 85.9903 24.73C85.5836 24.9567 85.1203 25.07 84.6003 25.07C83.8803 25.07 83.3103 24.83 82.8903 24.35V26.94H81.6403V19.66H82.8303V20.36C83.037 20.1067 83.2903 19.9167 83.5903 19.79C83.897 19.6633 84.2336 19.6 84.6003 19.6ZM84.4603 24C84.9203 24 85.297 23.8467 85.5903 23.54C85.8903 23.2333 86.0403 22.83 86.0403 22.33C86.0403 21.83 85.8903 21.4267 85.5903 21.12C85.297 20.8133 84.9203 20.66 84.4603 20.66C84.1603 20.66 83.8903 20.73 83.6503 20.87C83.4103 21.0033 83.2203 21.1967 83.0803 21.45C82.9403 21.7033 82.8703 21.9967 82.8703 22.33C82.8703 22.6633 82.9403 22.9567 83.0803 23.21C83.2203 23.4633 83.4103 23.66 83.6503 23.8C83.8903 23.9333 84.1603 24 84.4603 24ZM93.5158 22.36C93.5158 22.4467 93.5091 22.57 93.4958 22.73H89.3058C89.3791 23.1233 89.5691 23.4367 89.8758 23.67C90.1891 23.8967 90.5758 24.01 91.0358 24.01C91.6224 24.01 92.1058 23.8167 92.4858 23.43L93.1558 24.2C92.9158 24.4867 92.6124 24.7033 92.2458 24.85C91.8791 24.9967 91.4658 25.07 91.0058 25.07C90.4191 25.07 89.9024 24.9533 89.4558 24.72C89.0091 24.4867 88.6624 24.1633 88.4158 23.75C88.1758 23.33 88.0558 22.8567 88.0558 22.33C88.0558 21.81 88.1724 21.3433 88.4058 20.93C88.6458 20.51 88.9758 20.1833 89.3958 19.95C89.8158 19.7167 90.2891 19.6 90.8158 19.6C91.3358 19.6 91.7991 19.7167 92.2058 19.95C92.6191 20.1767 92.9391 20.5 93.1658 20.92C93.3991 21.3333 93.5158 21.8133 93.5158 22.36ZM90.8158 20.6C90.4158 20.6 90.0758 20.72 89.7958 20.96C89.5224 21.1933 89.3558 21.5067 89.2958 21.9H92.3258C92.2724 21.5133 92.1091 21.2 91.8358 20.96C91.5624 20.72 91.2224 20.6 90.8158 20.6ZM94.7165 17.58H95.9665V25H94.7165V17.58ZM102.627 22.36C102.627 22.4467 102.62 22.57 102.607 22.73H98.4171C98.4904 23.1233 98.6804 23.4367 98.9871 23.67C99.3004 23.8967 99.6871 24.01 100.147 24.01C100.734 24.01 101.217 23.8167 101.597 23.43L102.267 24.2C102.027 24.4867 101.724 24.7033 101.357 24.85C100.99 24.9967 100.577 25.07 100.117 25.07C99.5304 25.07 99.0138 24.9533 98.5671 24.72C98.1204 24.4867 97.7738 24.1633 97.5271 23.75C97.2871 23.33 97.1671 22.8567 97.1671 22.33C97.1671 21.81 97.2838 21.3433 97.5171 20.93C97.7571 20.51 98.0871 20.1833 98.5071 19.95C98.9271 19.7167 99.4004 19.6 99.9271 19.6C100.447 19.6 100.91 19.7167 101.317 19.95C101.73 20.1767 102.05 20.5 102.277 20.92C102.51 21.3333 102.627 21.8133 102.627 22.36ZM99.9271 20.6C99.5271 20.6 99.1871 20.72 98.9071 20.96C98.6338 21.1933 98.4671 21.5067 98.4071 21.9H101.437C101.384 21.5133 101.22 21.2 100.947 20.96C100.674 20.72 100.334 20.6 99.9271 20.6ZM105.478 25.07C105.044 25.07 104.621 25.0133 104.208 24.9C103.794 24.7867 103.464 24.6433 103.218 24.47L103.698 23.52C103.938 23.68 104.224 23.81 104.558 23.91C104.898 24.0033 105.231 24.05 105.558 24.05C106.304 24.05 106.678 23.8533 106.678 23.46C106.678 23.2733 106.581 23.1433 106.388 23.07C106.201 22.9967 105.898 22.9267 105.478 22.86C105.038 22.7933 104.678 22.7167 104.398 22.63C104.124 22.5433 103.884 22.3933 103.678 22.18C103.478 21.96 103.378 21.6567 103.378 21.27C103.378 20.7633 103.588 20.36 104.008 20.06C104.434 19.7533 105.008 19.6 105.728 19.6C106.094 19.6 106.461 19.6433 106.828 19.73C107.194 19.81 107.494 19.92 107.728 20.06L107.248 21.01C106.794 20.7433 106.284 20.61 105.718 20.61C105.351 20.61 105.071 20.6667 104.878 20.78C104.691 20.8867 104.598 21.03 104.598 21.21C104.598 21.41 104.698 21.5533 104.898 21.64C105.104 21.72 105.421 21.7967 105.848 21.87C106.274 21.9367 106.624 22.0133 106.898 22.1C107.171 22.1867 107.404 22.3333 107.598 22.54C107.798 22.7467 107.898 23.04 107.898 23.42C107.898 23.92 107.681 24.32 107.248 24.62C106.814 24.92 106.224 25.07 105.478 25.07Z" fill="#258D00"/>
<path d="M40 14H94.4232V14.5H40V14ZM40 26H108.158V26.5H40V26Z" fill="#258D00"/>
</svg>
