<svg width="30" height="30" viewBox="0 0 30 30" fill="none" xmlns="http://www.w3.org/2000/svg">
<path d="M15 27.5C8.09625 27.5 2.5 21.9037 2.5 15C2.5 8.09625 8.09625 2.5 15 2.5C21.9037 2.5 27.5 8.09625 27.5 15C27.4925 21.9 21.9 27.4925 15 27.5ZM5 15.215C5.02841 17.8577 6.10181 20.3817 7.98559 22.2353C9.86938 24.089 12.4104 25.1216 15.0532 25.1074C17.696 25.0931 20.2257 24.0333 22.0895 22.1595C23.9532 20.2857 24.9994 17.7504 24.9994 15.1075C24.9994 12.4646 23.9532 9.92926 22.0895 8.05546C20.2257 6.18167 17.696 5.12185 15.0532 5.10764C12.4104 5.09344 9.86938 6.126 7.98559 7.97965C6.10181 9.8333 5.02841 12.3573 5 15V15.215ZM17.5 21.25H13.75V16.25H12.5V13.75H16.25V18.75H17.5V21.25ZM16.25 11.25H13.75V8.75H16.25V11.25Z" fill="#333333"/>
</svg>
