<svg width="25" height="10" viewBox="0 0 25 10" fill="none" xmlns="http://www.w3.org/2000/svg">
<g opacity="0.5" clip-path="url(#clip0_1082_7343)">
<path d="M16.0042 8.76145C15.8191 9.94973 15.0201 10.0267 14.0806 9.99408C12.6381 9.94471 11.1923 9.95475 9.74987 9.99408C9.08541 10.0117 8.68672 9.75559 8.46215 9.15726C8.4201 9.04764 8.40581 8.90622 8.23759 8.82254C8.11731 9.08613 7.98525 9.34056 7.88432 9.6075C7.78339 9.87445 7.63955 9.99326 7.33087 9.98489C6.48979 9.96062 5.6487 9.96397 4.80761 9.98489C4.47117 9.99159 4.39296 9.933 4.54604 9.60162C5.16424 8.25852 5.74459 6.89871 6.37204 5.5598C6.5596 5.15896 6.60756 4.81166 6.3628 4.43258C6.24337 4.24848 6.21139 4.01417 6.05158 3.84178C5.88336 3.96228 5.85563 4.1506 5.78414 4.31127C4.99015 6.0803 4.1953 7.84849 3.41981 9.62589C3.29954 9.90121 3.14985 9.99077 2.85631 9.98575C1.90504 9.96818 0.953755 9.97905 0.0058481 9.97905C-0.0252722 9.79327 0.0621862 9.67611 0.116857 9.55226C1.48727 6.48392 2.85547 3.41308 4.22139 0.339722C4.3383 0.0752868 4.47791 -0.00170064 4.75463 0.00499392C5.62263 0.0222882 6.49176 0.0222882 7.362 0.00499392C7.62611 -2.69987e-05 7.77161 0.0769474 7.86161 0.32632C7.96338 0.610002 8.10385 0.879458 8.26954 1.24682C8.40159 0.966487 8.48654 0.767324 8.58663 0.577366C8.78429 0.203307 9.07196 0.00162703 9.52699 0.00581113C11.2226 0.0208739 12.9191 0.0359514 14.6147 -3.19021e-05C15.259 -0.013421 15.656 0.217551 15.8713 0.804999C15.9355 0.950106 16.0074 1.09171 16.0866 1.22925C16.2489 0.87444 16.3945 0.591603 16.5072 0.296206C16.5913 0.0828166 16.7023 0.00164664 16.9403 0.00499392C17.8509 0.0200567 18.7618 0.0200567 19.673 0.00499392C19.9094 0.000809821 20.017 0.0886514 20.1087 0.293672C21.4948 3.4178 22.8868 6.53913 24.2847 9.65768C24.4042 9.92212 24.3646 9.99242 24.0719 9.98489C23.2031 9.97066 22.3334 9.96732 21.4645 9.98489C21.1769 9.99159 21.0507 9.88449 20.9397 9.63178C20.1491 7.83094 19.3416 6.03344 18.5384 4.2418C18.4778 4.10708 18.4492 3.95059 18.286 3.82339C18.0203 4.4259 17.625 4.91125 18.0203 5.67024C18.6932 6.95392 19.2172 8.31127 19.8185 9.63178C19.9422 9.90207 19.9253 9.98993 19.6007 9.98407C18.7184 9.96817 17.8344 9.97319 16.9521 9.98407C16.7208 9.98407 16.5938 9.9096 16.5113 9.69286C16.3986 9.39663 16.254 9.1121 16.1236 8.82172L16.0042 8.76145ZM14.6526 5.53136C14.5003 5.64014 14.4717 5.78238 14.4162 5.90539C14.1067 6.59159 13.7983 7.2786 13.491 7.96647C13.3661 8.28005 13.1377 8.54211 12.8434 8.7096C12.0864 9.12299 11.231 8.80078 10.8458 7.94052C9.76807 5.53718 8.69598 3.13106 7.62948 0.722134C7.51594 0.464393 7.38136 0.36482 7.09875 0.374862C6.50999 0.396619 5.92123 0.39913 5.33247 0.374862C4.97416 0.361473 4.98088 0.474421 5.10704 0.748898C5.58478 1.78739 6.04403 2.83343 6.50999 3.87778C7.2765 5.59605 8.04274 7.31433 8.80869 9.0326C8.94831 9.34724 9.10055 9.62423 9.52699 9.61837C11.2933 9.60666 13.0596 9.61084 14.8208 9.61837C14.9471 9.62758 15.0731 9.59739 15.1813 9.53199C15.2896 9.4666 15.3746 9.36927 15.4247 9.25353C15.5576 8.97654 15.677 8.69454 15.8065 8.41671C15.8291 8.37346 15.8415 8.32562 15.8427 8.27689C15.8438 8.22815 15.8338 8.17978 15.8133 8.13551L14.6526 5.53136ZM12.1764 8.52213C12.6356 8.4828 12.9553 8.27109 13.1369 7.86105C13.5289 6.98323 13.9166 6.10373 14.3145 5.22842C14.3509 5.15447 14.3696 5.07307 14.3688 4.99069C14.3681 4.90832 14.348 4.82725 14.3102 4.75395C13.9183 3.89119 13.5381 3.0234 13.1495 2.15981C12.9637 1.7414 12.6558 1.4853 12.1806 1.48447C11.7054 1.48363 11.3967 1.73551 11.21 2.15392C10.8236 3.01919 10.4368 3.88391 10.0493 4.74806C9.98453 4.89116 9.94497 5.01835 10.019 5.18237C10.4395 6.0945 10.8323 7.01585 11.2504 7.92798C11.4295 8.31878 11.7685 8.49535 12.1764 8.52213V8.52213ZM17.5384 4.54474C18.1523 3.17068 18.7159 1.91043 19.2802 0.653529C19.3719 0.450182 19.3239 0.378196 19.1027 0.38238C18.6822 0.389075 18.2532 0.435927 17.8411 0.372329C17.0909 0.256011 16.6451 0.51878 16.4836 1.25937C16.4416 1.45602 16.2313 1.61418 16.3339 1.84514C16.7174 2.70706 17.1035 3.56734 17.5384 4.54474V4.54474Z" fill="#333333"/>
</g>
<defs>
<clipPath id="clip0_1082_7343">
<rect width="24.3478" height="10" fill="white"/>
</clipPath>
</defs>
</svg>
