<svg width="20" height="20" viewBox="0 0 20 20" fill="none" xmlns="http://www.w3.org/2000/svg">
<path d="M3.33301 6.66634V4.99967C3.33301 4.55765 3.5086 4.13372 3.82116 3.82116C4.13372 3.5086 4.55765 3.33301 4.99967 3.33301H6.66634M3.33301 13.333V14.9997C3.33301 15.4417 3.5086 15.8656 3.82116 16.1782C4.13372 16.4907 4.55765 16.6663 4.99967 16.6663H6.66634M13.333 3.33301H14.9997C15.4417 3.33301 15.8656 3.5086 16.1782 3.82116C16.4907 4.13372 16.6663 4.55765 16.6663 4.99967V6.66634M13.333 16.6663H14.9997C15.4417 16.6663 15.8656 16.4907 16.1782 16.1782C16.4907 15.8656 16.6663 15.4417 16.6663 14.9997V13.333" stroke="#333333" stroke-width="2" stroke-linecap="round" stroke-linejoin="round"/>
<path d="M10 12.5C11.3807 12.5 12.5 11.3807 12.5 10C12.5 8.61929 11.3807 7.5 10 7.5C8.61929 7.5 7.5 8.61929 7.5 10C7.5 11.3807 8.61929 12.5 10 12.5Z" stroke="#333333" stroke-width="2" stroke-linecap="round" stroke-linejoin="round"/>
</svg>
