<?xml version="1.0" encoding="utf-8"?>
<!-- Generator: Adobe Illustrator 27.0.0, SVG Export Plug-In . SVG Version: 6.00 Build 0)  -->
<svg version="1.1" id="Capa_1" xmlns="http://www.w3.org/2000/svg" xmlns:xlink="http://www.w3.org/1999/xlink" x="0px" y="0px"
	 viewBox="0 0 30 30" style="enable-background:new 0 0 30 30;" xml:space="preserve">
<style type="text/css">
	.st0{fill:#333333;}
</style>
<path class="st0" d="M15,28.8C15,28.8,15,28.7,15,28.8C15,28.8,15,28.8,15,28.8c-0.2,0-0.5-0.1-0.7-0.2L3.8,22.3
	c-0.2-0.1-0.3-0.3-0.5-0.5c-0.1-0.2-0.2-0.4-0.2-0.6c0,0,0,0,0,0V8.8c0-0.2,0.1-0.5,0.2-0.7c0.1-0.2,0.3-0.3,0.4-0.4l10.6-6.2
	c0.2-0.1,0.4-0.2,0.6-0.2c0,0,0,0,0,0c0,0,0,0,0,0c0,0,0,0,0,0c0,0,0,0,0,0c0.2,0,0.4,0.1,0.6,0.2l10.6,6.2c0.2,0.1,0.3,0.2,0.4,0.4
	c0.1,0.2,0.2,0.4,0.2,0.7c0,0,0,0,0,0v12.5c0,0,0,0,0,0c0,0.2-0.1,0.4-0.2,0.6c-0.1,0.2-0.3,0.4-0.5,0.5l-10.6,6.2
	C15.5,28.7,15.2,28.7,15,28.8C15,28.8,15,28.8,15,28.8C15,28.7,15,28.8,15,28.8z M16.2,21.2v4.1l6.9-4.1L15,16.5l-8.2,4.8l6.9,4.1
	v-4.1c0-0.7,0.6-1.2,1.2-1.2S16.2,20.6,16.2,21.2z M16.2,14.3l8.1,4.8V11l-3.1,1.9c-0.6,0.4-1.4,0.2-1.7-0.4
	c-0.1-0.2-0.2-0.4-0.2-0.7c0-0.4,0.2-0.8,0.6-1.1l3.3-2l-7-4.1V14.3z M5.6,11v8.1l8.1-4.8V4.7l-7,4.1l3.3,2c0.6,0.4,0.8,1.1,0.4,1.7
	c-0.4,0.6-1.1,0.8-1.7,0.4L5.6,11z"/>
</svg>
