<svg width="30" height="30" viewBox="0 0 30 30" fill="none" xmlns="http://www.w3.org/2000/svg">
<path d="M26.25 27.6377C26.319 27.6377 26.375 27.5817 26.375 27.5127V25.0127C26.375 24.9437 26.319 24.8877 26.25 24.8877H7.51665C7.24016 24.8803 6.95512 24.8216 6.74141 24.6598C6.534 24.5027 6.375 24.2341 6.375 23.7627C6.375 23.6443 6.38551 23.5396 6.40282 23.4447C6.46614 23.1205 6.62699 22.927 6.824 22.8096C7.02573 22.6894 7.27445 22.6438 7.51532 22.6377H25C25.0319 22.6377 25.0576 22.6294 25.0673 22.6264C25.0689 22.6259 25.0703 22.6255 25.0713 22.6252H26.25C26.319 22.6252 26.375 22.5692 26.375 22.5002V5.0127C26.375 3.56491 25.1978 2.3877 23.75 2.3877H7.5C6.72209 2.3877 5.75617 2.64456 4.98205 3.25801C4.20343 3.87503 3.625 4.84844 3.625 6.2627V23.7627C3.625 25.177 4.20343 26.1504 4.98205 26.7674C5.75617 27.3808 6.72209 27.6377 7.5 27.6377H26.25ZM7.50169 5.1377H16.125V13.7627C16.125 13.806 16.1474 13.8463 16.1843 13.869C16.2211 13.8918 16.2672 13.8939 16.3059 13.8745L18.75 12.6525L21.1941 13.8745C21.2328 13.8939 21.2789 13.8918 21.3157 13.869C21.3526 13.8463 21.375 13.806 21.375 13.7627V5.1377H23.625V19.8877H6.375V6.2627C6.375 5.79062 6.53407 5.52184 6.73986 5.36491C6.95177 5.2033 7.23304 5.14507 7.50169 5.1377Z" fill="#333333" stroke="#333333" stroke-width="0.25" stroke-linejoin="round"/>
</svg>
