<svg width="30" height="30" viewBox="0 0 30 30" fill="none" xmlns="http://www.w3.org/2000/svg">
<path d="M18.9649 8.75008L10.7324 16.9826C10.4936 17.2132 10.3032 17.4891 10.1721 17.7941C10.0411 18.0991 9.97216 18.4271 9.96928 18.7591C9.96639 19.091 10.0296 19.4202 10.1553 19.7275C10.2811 20.0347 10.4667 20.3138 10.7014 20.5486C10.9361 20.7833 11.2153 20.9689 11.5225 21.0946C11.8298 21.2203 12.159 21.2836 12.4909 21.2807C12.8229 21.2778 13.1509 21.2089 13.4559 21.0778C13.7609 20.9468 14.0368 20.7564 14.2674 20.5176L22.2849 12.2851C23.1957 11.3421 23.6997 10.0791 23.6883 8.76808C23.6769 7.45709 23.151 6.20303 22.224 5.27599C21.297 4.34895 20.0429 3.8231 18.7319 3.81171C17.4209 3.80032 16.1579 4.30429 15.2149 5.21508L7.19615 13.4463C5.78951 14.853 4.99927 16.7608 4.99927 18.7501C4.99927 20.7394 5.78951 22.6472 7.19615 24.0538C8.60279 25.4605 10.5106 26.2507 12.4999 26.2507C14.4892 26.2507 16.397 25.4605 17.8037 24.0538L25.6249 16.2501" stroke="black" stroke-width="2" stroke-linecap="round" stroke-linejoin="round"/>
</svg>
