<?xml version="1.0" encoding="utf-8"?>
<!-- Generator: Adobe Illustrator 27.0.0, SVG Export Plug-In . SVG Version: 6.00 Build 0)  -->
<svg version="1.1" id="Capa_1" xmlns="http://www.w3.org/2000/svg" xmlns:xlink="http://www.w3.org/1999/xlink" x="0px" y="0px"
	 viewBox="0 0 30 30" style="enable-background:new 0 0 30 30;" xml:space="preserve">
<style type="text/css">
	.st0{fill:#333333;}
</style>
<path class="st0" d="M12.5,27.3c-2.3,0-4.4-0.9-6-2.5C4.9,23.2,4,21,4,18.8c0-2.3,0.9-4.4,2.5-6l8-8.2c1.2-1.1,2.7-1.7,4.2-1.7
	c1.6,0,3.1,0.6,4.2,1.8c1.1,1.1,1.7,2.6,1.8,4.2c0,1.6-0.6,3.1-1.7,4.2l-8,8.2c-0.3,0.3-0.7,0.6-1.1,0.8c-0.4,0.2-0.9,0.3-1.4,0.3
	c-0.5,0-0.9-0.1-1.4-0.3c-0.4-0.2-0.8-0.4-1.1-0.8c-0.3-0.3-0.6-0.7-0.8-1.2C9.1,19.7,9,19.2,9,18.8c0-0.5,0.1-0.9,0.3-1.4
	c0.2-0.4,0.4-0.8,0.8-1.1L18.3,8c0.4-0.4,1-0.4,1.4,0s0.4,1,0,1.4l-8.2,8.2c-0.2,0.2-0.3,0.3-0.3,0.5C11,18.4,11,18.6,11,18.8
	s0,0.4,0.1,0.6c0.1,0.2,0.2,0.4,0.3,0.5c0.1,0.1,0.3,0.2,0.5,0.3c0.2,0.1,0.4,0.1,0.6,0.1c0.2,0,0.4,0,0.6-0.1
	c0.2-0.1,0.3-0.2,0.5-0.3l8-8.2c0.7-0.8,1.1-1.8,1.1-2.8c0-1.1-0.4-2-1.2-2.8c-0.7-0.7-1.7-1.2-2.8-1.2c-1.1,0-2.1,0.4-2.8,1.1
	l-8,8.2C6.7,15.4,6,17,6,18.8c0,1.7,0.7,3.4,1.9,4.6s2.9,1.9,4.6,1.9c1.7,0,3.4-0.7,4.6-1.9l7.8-7.8c0.4-0.4,1-0.4,1.4,0
	c0.4,0.4,0.4,1,0,1.4l-7.8,7.8C16.9,26.4,14.8,27.3,12.5,27.3z"/>
</svg>
