<?xml version="1.0" encoding="utf-8"?>
<!-- Generator: Adobe Illustrator 27.0.0, SVG Export Plug-In . SVG Version: 6.00 Build 0)  -->
<svg version="1.1" id="Capa_1" xmlns="http://www.w3.org/2000/svg" xmlns:xlink="http://www.w3.org/1999/xlink" x="0px" y="0px"
	 viewBox="0 0 30 30" style="enable-background:new 0 0 30 30;" xml:space="preserve">
<style type="text/css">
	.st0{fill:#333333;}
</style>
<path class="st0" d="M12.8,26.4c-0.3,0-0.6-0.1-0.9-0.2c-0.5-0.2-0.9-0.6-1.2-1l-3.9-5H5c-0.7,0-1.4-0.3-1.9-0.8s-0.8-1.2-0.8-1.9
	v-5c0-0.7,0.3-1.4,0.8-1.9C3.6,10,4.3,9.8,5,9.8h1.8l3.9-5c0.3-0.5,0.7-0.8,1.2-1c0.6-0.2,1.2-0.2,1.7-0.1c0.6,0.2,1,0.6,1.4,1.1
	c0.3,0.5,0.4,1,0.3,1.6v17.3c0.1,0.5-0.1,1.1-0.3,1.6c-0.3,0.5-0.8,0.9-1.4,1.1C13.3,26.4,13,26.4,12.8,26.4z M13.2,23.7L13.2,23.7
	L13.2,23.7z M5.2,17.2h2.2c0.5,0,0.9,0.2,1.2,0.6l3.6,4.6V7.6l-3.6,4.6c-0.3,0.4-0.7,0.6-1.2,0.6H5.2V17.2z M22.1,25.2
	c-0.4,0-0.9-0.2-1.2-0.6c-0.5-0.6-0.4-1.6,0.2-2.1c1.1-0.9,2-2.1,2.7-3.4c0.6-1.3,1-2.8,1-4.2c0-1.4-0.3-2.9-1-4.2
	c-0.6-1.3-1.5-2.5-2.7-3.4C20.5,6.9,20.4,6,21,5.3c0.5-0.6,1.5-0.7,2.1-0.2c1.5,1.2,2.7,2.7,3.5,4.4c0.8,1.7,1.2,3.6,1.2,5.5
	c0,1.9-0.4,3.8-1.2,5.5c-0.8,1.7-2,3.2-3.5,4.4C22.8,25.1,22.5,25.2,22.1,25.2z M18.8,21.5c-0.5,0-0.9-0.2-1.2-0.6
	c-0.5-0.7-0.4-1.6,0.3-2.1c0.6-0.4,1.1-1,1.4-1.7c0.3-0.7,0.5-1.4,0.5-2.1c0-0.7-0.2-1.5-0.5-2.1c-0.3-0.7-0.8-1.2-1.4-1.7
	c-0.7-0.5-0.8-1.4-0.3-2.1C18,8.4,19,8.3,19.6,8.8c1,0.7,1.7,1.7,2.3,2.7c0.5,1.1,0.8,2.3,0.8,3.5c0,1.2-0.3,2.4-0.8,3.5
	c-0.5,1.1-1.3,2-2.3,2.7C19.4,21.4,19.1,21.5,18.8,21.5z"/>
</svg>
