<svg width="30" height="30" viewBox="0 0 30 30" fill="none" xmlns="http://www.w3.org/2000/svg">
<path d="M26.25 26.375H26.375V26.25V22.625H28.75H28.875V22.5V18.75V18.625H28.75H21.25H21.125V18.75V22.5V22.625H21.25H23.625V26.25V26.375H23.75H26.25ZM6.25 26.375H6.375V26.25V22.625H8.75H8.875V22.5V18.75V18.625H8.75H1.25H1.125V18.75V22.5V22.625H1.25H3.625V26.25V26.375H3.75H6.25ZM13.75 3.625H13.625V3.75V7.375H11.25H11.125V7.5V11.25V11.375H11.25H18.75H18.875V11.25V7.5V7.375H18.75H16.375V3.75V3.625H16.25H13.75ZM13.75 13.625H13.625V13.75V26.25V26.375H13.75H16.25H16.375V26.25V13.75V13.625H16.25H13.75ZM3.625 16.25V16.375H3.75H6.25H6.375V16.25V3.75V3.625H6.25H3.75H3.625V3.75V16.25ZM23.625 16.25V16.375H23.75H26.25H26.375V16.25V3.75V3.625H26.25H23.75H23.625V3.75V16.25Z" fill="#333333" stroke="#333333" stroke-width="0.25"/>
</svg>
