<svg width="30" height="30" viewBox="0 0 30 30" fill="none" xmlns="http://www.w3.org/2000/svg">
<path d="M13.6922 15.3838L13.6922 15.3838L13.6988 15.4075C14.4829 18.1952 15.2504 20.9242 16.2919 22.957C17.3355 24.9939 18.6771 26.375 20.625 26.375C24.1304 26.375 25.887 23.6036 26.7645 20.8362C27.6438 18.0628 27.6625 15.2347 27.6625 15C27.6625 14.931 27.6065 14.875 27.5375 14.875H25.0375C24.9685 14.875 24.9125 14.931 24.9125 15L24.9125 15.0007L24.9125 15.0025L24.9124 15.0087L24.9121 15.0305C24.9117 15.0491 24.9112 15.0755 24.9102 15.1093C24.9084 15.1767 24.9051 15.2735 24.8994 15.3953C24.888 15.6388 24.8669 15.9824 24.8283 16.3924C24.7509 17.2128 24.6033 18.2967 24.3228 19.3764C24.0418 20.4577 23.6298 21.5251 23.0288 22.3197C22.4304 23.111 21.6507 23.625 20.625 23.625C20.2173 23.625 19.8068 23.3383 19.3954 22.7945C18.9875 22.2553 18.6001 21.4912 18.2344 20.5994C17.5128 18.84 16.8873 16.6143 16.3538 14.7158L16.3329 14.6412C15.5464 11.8388 14.7713 9.09393 13.7205 7.05065C12.6707 5.00915 11.3229 3.625 9.375 3.625C5.88791 3.625 4.1409 6.39703 3.26829 9.16397C2.39365 11.9373 2.375 14.7653 2.375 15C2.375 15.069 2.43096 15.125 2.5 15.125H5C5.06904 15.125 5.125 15.069 5.125 15V15C5.125 14.9999 5.125 14.9992 5.12502 14.9977L5.1251 14.9916L5.1255 14.9698C5.12588 14.9512 5.12651 14.9248 5.12752 14.8911C5.12954 14.8236 5.13306 14.7268 5.13903 14.605C5.15099 14.3614 5.17278 14.0178 5.21212 13.6078C5.29085 12.7873 5.43962 11.7033 5.71944 10.6235C5.99971 9.54205 6.40906 8.47446 7.00379 7.67978C7.59617 6.88823 8.36565 6.375 9.375 6.375C9.78441 6.375 10.1927 6.65145 10.6005 7.17881C11.0055 7.70252 11.3899 8.44839 11.7548 9.32909C12.4842 11.0896 13.1228 13.3568 13.6922 15.3838Z" fill="#333333" stroke="#333333" stroke-width="0.25" stroke-linejoin="round"/>
</svg>
