<?xml version="1.0" encoding="utf-8"?>
<!-- Generator: Adobe Illustrator 27.0.0, SVG Export Plug-In . SVG Version: 6.00 Build 0)  -->
<svg version="1.1" id="Capa_1" xmlns="http://www.w3.org/2000/svg" xmlns:xlink="http://www.w3.org/1999/xlink" x="0px" y="0px"
	 viewBox="0 0 30 30" style="enable-background:new 0 0 30 30;" xml:space="preserve">
<style type="text/css">
	.st0{fill:#333333;}
</style>
<path class="st0" d="M18.8,29h-7.5c-0.7,0-1.4-0.3-1.9-0.8c-0.5-0.5-0.8-1.2-0.8-1.9v-4.8H3.8c-0.7,0-1.4-0.3-1.9-0.8
	C1.3,20.2,1,19.5,1,18.8v-7.5c0-0.7,0.3-1.4,0.8-1.9S3,8.5,3.8,8.5h4.8V3.8c0-0.7,0.3-1.4,0.8-1.9S10.5,1,11.2,1h7.5
	c0.7,0,1.4,0.3,1.9,0.8c0.5,0.5,0.8,1.2,0.8,1.9v4.8h4.8c0.7,0,1.4,0.3,1.9,0.8c0.5,0.5,0.8,1.2,0.8,1.9v7.5c0,0.7-0.3,1.4-0.8,1.9
	s-1.2,0.8-1.9,0.8h-4.8v4.8c0,0.7-0.3,1.4-0.8,1.9S19.5,29,18.8,29z M11.5,26h7v-6c0-0.8,0.7-1.5,1.5-1.5h6v-7h-6
	c-0.8,0-1.5-0.7-1.5-1.5V4h-7v6c0,0.8-0.7,1.5-1.5,1.5H4v7h6c0.8,0,1.5,0.7,1.5,1.5V26z M26.2,11.5L26.2,11.5L26.2,11.5z"/>
</svg>
