<svg width="30" height="30" viewBox="0 0 30 30" fill="none" xmlns="http://www.w3.org/2000/svg">
<path d="M14.9997 1.625L15.0003 1.625C17.8006 1.62818 20.4853 2.742 22.4654 4.72211C24.4455 6.70222 25.5593 9.38692 25.5625 12.1872V12.1875C25.5625 14.1828 25.1899 15.5569 24.6553 16.5833C24.1277 17.5963 23.45 18.2536 22.8688 18.8173L22.8498 18.8357L22.8491 18.8365C22.3874 19.2804 22.0202 19.6364 21.7601 20.1011C21.5044 20.558 21.3438 21.1376 21.3438 22.0313C21.3436 23.3374 20.9403 24.6117 20.1889 25.68C19.4375 26.7484 18.3747 27.5587 17.1455 28.0005C15.9164 28.4422 14.5808 28.4938 13.3213 28.1482C12.0617 27.8025 10.9395 27.0765 10.108 26.0693L10.1063 26.0673C9.90875 25.8227 9.81512 25.5104 9.84558 25.1975C9.87604 24.8846 10.0282 24.5961 10.2692 24.3943L10.2696 24.3939C10.3893 24.2941 10.5277 24.2191 10.6767 24.1733C10.8256 24.1275 10.9822 24.1117 11.1373 24.1269C11.2925 24.1422 11.443 24.1881 11.5802 24.262C11.7171 24.3358 11.8379 24.4359 11.9358 24.5567C12.4555 25.188 13.1575 25.6434 13.9458 25.8606C14.7344 26.0779 15.5709 26.0462 16.3408 25.7699C17.1107 25.4935 17.7764 24.986 18.2468 24.3168C18.7172 23.6476 18.9694 22.8494 18.9688 22.0314V22.0313C18.9688 20.6679 19.2651 19.6873 19.7014 18.9169C20.126 18.1671 20.677 17.6291 21.1706 17.147L21.2003 17.118L21.2249 17.094C21.7225 16.6081 22.199 16.1428 22.5615 15.4327C22.9288 14.7133 23.1875 13.7234 23.1875 12.1875C23.1875 10.016 22.3249 7.93352 20.7894 6.39806C19.254 4.86261 17.1715 4 15 4C12.8285 4 10.746 4.86261 9.21056 6.39806C7.67511 7.93352 6.8125 10.016 6.8125 12.1875C6.8125 12.5024 6.68739 12.8045 6.46469 13.0272C6.24199 13.2499 5.93995 13.375 5.625 13.375C5.31005 13.375 5.00801 13.2499 4.78531 13.0272C4.56261 12.8045 4.4375 12.5024 4.4375 12.1875V12.1872C4.44068 9.38692 5.5545 6.70222 7.53461 4.72211C9.51472 2.742 12.1994 1.62818 14.9997 1.625ZM8.75303 20.3095C8.09079 19.6472 7.71875 18.749 7.71875 17.8125C7.71875 17.4976 7.84386 17.1955 8.06656 16.9728C8.28926 16.7501 8.59131 16.625 8.90625 16.625C9.22119 16.625 9.52324 16.7501 9.74594 16.9728C9.96864 17.1955 10.0938 17.4976 10.0938 17.8125C10.0938 18.1192 10.2156 18.4133 10.4324 18.6301C10.6492 18.8469 10.9433 18.9688 11.25 18.9688C11.5567 18.9688 11.8508 18.8469 12.0676 18.6301C12.2844 18.4133 12.4062 18.1192 12.4062 17.8125C12.4062 17.3963 12.3111 17.1099 12.1241 16.8402C11.9274 16.5564 11.6253 16.2837 11.1815 15.905L11.1806 15.9043C10.3015 15.1541 9.125 14.1502 9.125 12.1875C9.125 10.6294 9.74397 9.13503 10.8457 8.03325C11.9475 6.93147 13.4419 6.3125 15 6.3125C16.5581 6.3125 18.0525 6.93147 19.1543 8.03325C20.256 9.13502 20.875 10.6294 20.875 12.1875C20.875 12.5024 20.7499 12.8045 20.5272 13.0272C20.3045 13.2499 20.0024 13.375 19.6875 13.375C19.3726 13.375 19.0705 13.2499 18.8478 13.0272C18.6251 12.8045 18.5 12.5024 18.5 12.1875C18.5 11.2592 18.1313 10.369 17.4749 9.71263C16.8185 9.05625 15.9283 8.6875 15 8.6875C14.0717 8.6875 13.1815 9.05625 12.5251 9.71263C11.8687 10.369 11.5 11.2592 11.5 12.1875C11.5 12.6037 11.5952 12.8901 11.7821 13.1598C11.9788 13.4436 12.281 13.7163 12.7248 14.095L12.7256 14.0957C13.6047 14.8459 14.7812 15.8498 14.7812 17.8125C14.7812 18.749 14.4092 19.6472 13.747 20.3095C13.0847 20.9717 12.1865 21.3438 11.25 21.3438C10.3135 21.3438 9.41527 20.9717 8.75303 20.3095Z" fill="#333333" stroke="#333333" stroke-width="0.5"/>
</svg>
