<svg width="20" height="20" viewBox="0 0 20 20" fill="none" xmlns="http://www.w3.org/2000/svg">
<path d="M10.7031 9.13634C10.5751 9.00815 10.423 8.90646 10.2556 8.83707C10.0883 8.76768 9.90885 8.73195 9.72766 8.73193C9.54648 8.73191 9.36706 8.7676 9.19967 8.83695C9.03228 8.9063 8.8802 9.00796 8.75211 9.13611C8.6239 9.26413 8.52218 9.41617 8.45278 9.58354C8.38338 9.7509 8.34766 9.93031 8.34766 10.1115C8.34766 10.2927 8.38338 10.4721 8.45278 10.6395C8.52218 10.8068 8.6239 10.9589 8.75211 11.0869C8.88015 11.2151 9.0322 11.3168 9.19958 11.3862C9.36695 11.4556 9.54637 11.4913 9.72755 11.4912C9.90874 11.4912 10.0881 11.4555 10.2555 11.386C10.4229 11.3166 10.5749 11.2149 10.7029 11.0867C10.9615 10.828 11.1068 10.4773 11.1069 10.1115C11.1069 9.7458 10.9617 9.39502 10.7031 9.13634Z" fill="#333333"/>
<path d="M8.16452 13.0777L8.16883 13.0734L8.12621 13.0308L8.12553 13.0299L8.12485 13.0292L7.78411 12.6883L7.77799 12.6944C7.773 12.6892 7.7696 12.683 7.76461 12.6781C6.34591 11.2593 6.33797 8.95831 7.73764 7.52781L7.74058 7.53076L8.1253 7.14627L8.12076 7.14174C8.20254 7.03955 8.24439 6.91112 8.23851 6.78037C8.23263 6.64961 8.17942 6.52546 8.0888 6.43102L8.08971 6.43012L7.40552 5.74615L7.40098 5.75069C7.30557 5.67556 7.18757 5.63489 7.06613 5.63526C6.94469 5.63563 6.82694 5.67702 6.73198 5.75273L6.72767 5.74842L6.68437 5.79172L6.3713 6.1048L6.34296 6.13314L6.34364 6.13382C4.1759 8.33261 4.18475 11.8841 6.37152 14.0709C6.37651 14.0759 6.38263 14.0793 6.38785 14.0843L6.38649 14.0857L6.7712 14.4706L6.77574 14.4661C6.87796 14.5477 7.00638 14.5895 7.1371 14.5837C7.26782 14.5778 7.39197 14.5246 7.48645 14.4341L7.48713 14.4348L7.4937 14.4282L7.49484 14.4273L7.49574 14.4262L8.12485 13.7971L8.12553 13.7966L8.12598 13.7962L8.17109 13.751L8.16656 13.7465C8.2417 13.6511 8.2824 13.5332 8.28202 13.4118C8.28165 13.2904 8.24024 13.1726 8.16452 13.0777Z" fill="#333333"/>
<path d="M5.5298 15.7136L5.53411 15.7092L5.49103 15.6662L5.49081 15.6659L5.49058 15.6657L5.14917 15.3245L5.14304 15.3307C5.13806 15.3254 5.13466 15.3193 5.12967 15.3141C2.25779 12.442 2.24918 7.77554 5.10224 4.89188L5.10587 4.89551L5.44683 4.55454L5.44751 4.55409L5.44796 4.55341L5.49058 4.51079L5.48627 4.50648C5.56812 4.40428 5.61 4.2758 5.60412 4.145C5.59824 4.01419 5.54499 3.88999 5.45431 3.79554L5.45521 3.79464L5.13012 3.46954L5.1299 3.46932L5.12967 3.46909L4.77125 3.11067L4.76672 3.11543C4.6713 3.04031 4.5533 2.99963 4.43186 3C4.31042 3.00037 4.19267 3.04177 4.09772 3.11747L4.09318 3.11294L3.70869 3.49765L3.70937 3.49833C0.0880184 7.15052 0.0966333 13.0672 3.73681 16.7072C3.74202 16.7124 3.74814 16.7156 3.75335 16.7206L3.75177 16.7222L4.13648 17.1071L4.14102 17.1026C4.24329 17.1843 4.37176 17.2261 4.50254 17.2201C4.63332 17.2142 4.75749 17.161 4.85196 17.0704L4.85264 17.0711L4.86012 17.0636L5.4899 16.4336L5.49103 16.4327L5.49194 16.4315L5.53637 16.3871L5.53184 16.3826C5.60697 16.2871 5.64764 16.1691 5.64727 16.0477C5.6469 15.9263 5.6055 15.8085 5.5298 15.7136Z" fill="#333333"/>
<path d="M8.95997 9.15233C8.83462 9.27805 8.73517 9.42731 8.66731 9.59159C8.59944 9.75587 8.56449 9.93196 8.56445 10.1098C8.56441 10.2876 8.59928 10.4637 8.66707 10.6281C8.73485 10.7924 8.83423 10.9417 8.95953 11.0675C9.08482 11.1934 9.23362 11.2932 9.39741 11.3614C9.5612 11.4295 9.73677 11.4646 9.91409 11.4646C10.0914 11.4647 10.267 11.4296 10.4308 11.3615C10.5946 11.2934 10.7434 11.1935 10.8687 11.0677C10.9943 10.942 11.0939 10.7926 11.1618 10.6282C11.2298 10.4639 11.2648 10.2876 11.2648 10.1097C11.2648 9.9317 11.2298 9.75548 11.1618 9.59109C11.0939 9.4267 10.9943 9.27738 10.8687 9.15166C10.7434 9.02584 10.5946 8.92604 10.4308 8.85796C10.267 8.78989 10.0915 8.75489 9.91422 8.75495C9.73694 8.75501 9.56141 8.79014 9.39767 8.85833C9.23394 8.92651 9.0852 9.02642 8.95997 9.15233ZM15.8044 16.6027C19.3477 13.0166 19.3393 7.20693 15.7773 3.63268C15.7722 3.62756 15.7662 3.62445 15.7611 3.61955L15.7625 3.61821L15.3862 3.24022L15.3818 3.24467C15.2818 3.16431 15.156 3.12318 15.028 3.12895C14.9 3.13473 14.7785 3.18701 14.6861 3.27606L14.6854 3.27539L14.6796 3.28118L14.6778 3.28274L14.6765 3.28452L14.0613 3.9016L14.0609 3.90204C14.0609 3.90216 14.0608 3.90227 14.0608 3.90236C14.0607 3.90244 14.0606 3.90249 14.0604 3.90249L14.0161 3.94701L14.0205 3.95146C13.947 4.04518 13.9073 4.16107 13.9077 4.28031C13.9081 4.39956 13.9486 4.51517 14.0227 4.60839L14.0185 4.61262L14.0607 4.65491V4.65514H14.0609L14.395 4.99017L14.401 4.98416C14.4059 4.98928 14.4092 4.99529 14.4143 5.00041C17.2244 7.82045 17.2333 12.4031 14.4414 15.2347L14.4376 15.231L14.1039 15.5658L14.1033 15.5662L14.1028 15.5669L14.0611 15.6087L14.0653 15.613C13.9852 15.7133 13.9443 15.8395 13.95 15.9679C13.9558 16.0964 14.0079 16.2183 14.0966 16.3111L14.0959 16.3117L14.1028 16.3186L14.1033 16.3193L14.1039 16.3197L14.4136 16.6305L14.4141 16.6312L14.4147 16.6316L14.72 16.9379L14.7204 16.9386L14.7211 16.939L14.765 16.9831L14.7695 16.9787C14.8629 17.0525 14.9784 17.0924 15.0973 17.092C15.2161 17.0917 15.3314 17.051 15.4244 16.9767L15.4286 16.9809L15.7762 16.6318C15.7765 16.6315 15.7769 16.6312 15.7773 16.631L15.7813 16.6267L15.8051 16.6029L15.8044 16.6027Z" fill="#333333"/>
<path d="M13.1109 14.2464C15.5923 11.9591 15.5825 8.26464 13.079 5.99008C13.073 5.98466 13.066 5.98136 13.0601 5.97594L13.0619 5.97429L12.6214 5.57385L12.6163 5.57857C12.4992 5.49353 12.3521 5.45002 12.2024 5.45613C12.0527 5.46225 11.9105 5.51758 11.8024 5.61182L11.8016 5.61111L11.7941 5.61795L11.7928 5.61889L11.7917 5.62007L11.0718 6.27426L11.0707 6.27496L11.0699 6.27591L11.0186 6.3226L11.0238 6.32732C10.9377 6.42657 10.8912 6.54932 10.8916 6.67565C10.892 6.80198 10.9394 6.92447 11.0261 7.02324L11.0212 7.02772L11.0702 7.0723L11.0707 7.07277L11.0712 7.07324L11.4616 7.42816L11.4686 7.42179C11.4743 7.42722 11.4782 7.43358 11.4842 7.43901C13.1083 8.91458 13.1174 11.3082 11.5151 12.7963L11.5117 12.7932L11.1211 13.1481L11.1206 13.1484L11.1203 13.1489L11.0712 13.1934L11.0762 13.1979C10.9826 13.3042 10.9346 13.4378 10.9414 13.5738C10.9481 13.7098 11.009 13.839 11.1128 13.9372L11.1117 13.9382L11.8426 14.602L11.8947 14.6494L11.8999 14.6447C12.0092 14.7228 12.1443 14.765 12.2833 14.7647C12.4223 14.7643 12.5571 14.7213 12.6658 14.6426L12.671 14.6473L13.079 14.2766L13.1114 14.2471L13.1109 14.2464Z" fill="#333333"/>
</svg>
