<svg width="20" height="20" viewBox="0 0 20 20" fill="none" xmlns="http://www.w3.org/2000/svg">
<path d="M2.50015 10.8328H3.33348V16.6662C3.33348 17.5853 4.08098 18.3328 5.00015 18.3328H15.0001C15.9193 18.3328 16.6668 17.5853 16.6668 16.6662V10.8328H17.5001C17.6649 10.8328 17.826 10.7839 17.963 10.6923C18.1 10.6008 18.2068 10.4706 18.2699 10.3184C18.3329 10.1661 18.3494 9.99862 18.3173 9.83699C18.2852 9.67536 18.2058 9.52689 18.0893 9.41035L10.5893 1.91035C10.512 1.8329 10.4202 1.77145 10.3191 1.72952C10.218 1.6876 10.1096 1.66602 10.0001 1.66602C9.8907 1.66602 9.78233 1.6876 9.68124 1.72952C9.58014 1.77145 9.4883 1.8329 9.41098 1.91035L1.91098 9.41035C1.79447 9.52689 1.71513 9.67536 1.683 9.83699C1.65086 9.99862 1.66736 10.1661 1.73042 10.3184C1.79347 10.4706 1.90026 10.6008 2.03727 10.6923C2.17427 10.7839 2.33536 10.8328 2.50015 10.8328ZM8.33348 16.6662V12.4995H11.6668V16.6662H8.33348ZM10.0001 3.67785L15.0001 8.67785V12.4995L15.001 16.6662H13.3335V12.4995C13.3335 11.5803 12.586 10.8328 11.6668 10.8328H8.33348C7.41431 10.8328 6.66681 11.5803 6.66681 12.4995V16.6662H5.00015V8.67785L10.0001 3.67785Z" fill="#333333"/>
</svg>
