<?xml version="1.0" encoding="utf-8"?>
<!-- Generator: Adobe Illustrator 26.0.1, SVG Export Plug-In . SVG Version: 6.00 Build 0)  -->
<svg version="1.1" id="Capa_1" xmlns="http://www.w3.org/2000/svg" xmlns:xlink="http://www.w3.org/1999/xlink" x="0px" y="0px"
	 viewBox="0 0 30 30" style="enable-background:new 0 0 30 30;" xml:space="preserve">
<style type="text/css">
	.st0{fill:#333333;}
</style>
<g>
	<path class="st0" d="M13.8,16.6c0-2.9,0-5.9,0-8.8c0-0.2-0.1-0.3-0.3-0.2c-0.6,0-1.2,0-1.8,0c-0.2,0-0.3,0-0.4,0.1
		c-0.6,0.4-1.2,0.8-1.8,1.2C8.9,9.4,8.3,9.5,7.5,9.5c-0.4,0-0.4,0-0.3,0.4c1.3,3,2.6,6,3.9,9c0.3,0.7,0.2,1.3-0.5,1.7
		C9.6,21.4,8.3,21.8,7,22c-1.8,0.2-3.5,0-5.2-0.8C1.4,21,1,20.8,0.6,20.5c-0.6-0.4-0.7-1-0.4-1.6c1.2-2.8,2.4-5.5,3.6-8.3
		C3.9,10.3,4,10,4.2,9.7C4.3,9.5,4.3,9.5,4,9.5c-0.5,0-0.9,0-1.4,0C2,9.5,1.5,9,1.4,8.4C1.4,7.8,1.7,7.3,2.3,7.1
		c0.1,0,0.3-0.1,0.5-0.1c1.7,0,3.3,0,5,0c0.2,0,0.3,0,0.4-0.1c0.7-0.5,1.3-0.9,2-1.4c0.4-0.3,0.9-0.4,1.4-0.4c0.7,0,1.4,0,2.1,0
		c0.1,0,0.2,0,0.2-0.2c0-0.6,0-1.2,0-1.8c0-0.9,1-1.5,1.8-1c0.4,0.2,0.6,0.6,0.6,1c0,0.6,0,1.2,0,1.8c0,0.1,0,0.2,0.2,0.2
		c0.7,0,1.4,0,2,0c0.6,0,1.1,0.2,1.5,0.5c0.7,0.5,1.3,0.9,2,1.4c0.1,0.1,0.2,0.1,0.3,0.1c1.7,0,3.3,0,5,0c0.7,0,1.2,0.5,1.3,1.1
		c0.1,0.7-0.5,1.3-1.2,1.3c-0.5,0-0.9,0-1.4,0c-0.2,0-0.2,0-0.1,0.2c1.3,3.1,2.7,6.1,4,9.2c0.3,0.6,0.1,1.2-0.5,1.6
		c-1.1,0.7-2.3,1.2-3.6,1.4c-2,0.3-4,0-5.8-0.9c-0.3-0.1-0.5-0.3-0.8-0.5c-0.6-0.4-0.7-1-0.5-1.6c0.7-1.7,1.5-3.4,2.2-5.1
		c0.6-1.4,1.2-2.8,1.8-4.2c0.1-0.2,0-0.2-0.1-0.2c-0.6,0-1.1,0-1.6-0.2c-0.4-0.2-0.7-0.5-1-0.7c-0.4-0.3-0.9-0.6-1.3-0.9
		c-0.1-0.1-0.2-0.1-0.3-0.1c-0.6,0-1.2,0-1.9,0c-0.2,0-0.3,0-0.3,0.3c0,3,0,6.1,0,9.1c0,2.8,0,5.7,0,8.5c0,0.3,0,0.3,0.3,0.3
		c1.7,0,3.5,0,5.2,0c0.7,0,1.2,0.4,1.3,1.1c0.1,0.6-0.4,1.3-1.1,1.4c-0.1,0-0.1,0-0.2,0c-4.5,0-8.9,0-13.4,0c-0.5,0-0.9-0.2-1.1-0.7
		C7,26.9,7,26.5,7.4,26.1c0.3-0.3,0.6-0.4,1-0.4c1.7,0,3.5,0,5.2,0c0.2,0,0.3,0,0.3-0.2C13.8,22.5,13.8,19.5,13.8,16.6z M5.7,12.3
		c0,0.1-0.1,0.1-0.1,0.1c-0.9,2.1-1.9,4.3-2.8,6.4c-0.1,0.1,0,0.2,0.1,0.2c1.8,0.8,3.7,0.8,5.5,0C8.6,19,8.7,19,8.6,18.8
		C8,17.4,7.4,16,6.8,14.6C6.4,13.9,6.1,13.1,5.7,12.3z M24.3,12.3c0,0.1-0.1,0.1-0.1,0.2c-0.9,2.1-1.9,4.2-2.8,6.4
		c-0.1,0.2,0,0.2,0.1,0.3c1.8,0.7,3.7,0.7,5.5,0c0.2-0.1,0.2-0.1,0.1-0.3c-0.5-1.2-1.1-2.4-1.6-3.6C25.1,14.2,24.7,13.2,24.3,12.3z"
		/>
</g>
</svg>
