<svg width="20" height="20" viewBox="0 0 20 20" fill="none" xmlns="http://www.w3.org/2000/svg">
<g clip-path="url(#clip0_1799_2057)">
<path d="M2.90872 20.001C3.57293 20.001 4.11138 19.4626 4.11138 18.7984C4.11138 18.1342 3.57293 17.5957 2.90872 17.5957C2.24451 17.5957 1.70605 18.1342 1.70605 18.7984C1.70605 19.4626 2.24451 20.001 2.90872 20.001Z" fill="#333333"/>
<path d="M18.7915 4.11627C19.4557 4.11627 19.9942 3.57781 19.9942 2.9136C19.9942 2.24939 19.4557 1.71094 18.7915 1.71094C18.1273 1.71094 17.5889 2.24939 17.5889 2.9136C17.5889 3.57781 18.1273 4.11627 18.7915 4.11627Z" fill="#333333"/>
<path d="M14.8218 4.11627C15.486 4.11627 16.0245 3.57781 16.0245 2.9136C16.0245 2.24939 15.486 1.71094 14.8218 1.71094C14.1576 1.71094 13.6191 2.24939 13.6191 2.9136C13.6191 3.57781 14.1576 4.11627 14.8218 4.11627Z" fill="#333333"/>
<path d="M10.8501 4.11627C11.5143 4.11627 12.0528 3.57781 12.0528 2.9136C12.0528 2.24939 11.5143 1.71094 10.8501 1.71094C10.1859 1.71094 9.64746 2.24939 9.64746 2.9136C9.64746 3.57781 10.1859 4.11627 10.8501 4.11627Z" fill="#333333"/>
<path d="M6.87942 4.11627C7.54364 4.11627 8.08209 3.57781 8.08209 2.9136C8.08209 2.24939 7.54364 1.71094 6.87942 1.71094C6.21521 1.71094 5.67676 2.24939 5.67676 2.9136C5.67676 3.57781 6.21521 4.11627 6.87942 4.11627Z" fill="#333333"/>
<path d="M2.90872 4.11627C3.57293 4.11627 4.11138 3.57781 4.11138 2.9136C4.11138 2.24939 3.57293 1.71094 2.90872 1.71094C2.24451 1.71094 1.70605 2.24939 1.70605 2.9136C1.70605 3.57781 2.24451 4.11627 2.90872 4.11627Z" fill="#333333"/>
<path d="M18.7915 20.001C19.4557 20.001 19.9942 19.4626 19.9942 18.7984C19.9942 18.1342 19.4557 17.5957 18.7915 17.5957C18.1273 17.5957 17.5889 18.1342 17.5889 18.7984C17.5889 19.4626 18.1273 20.001 18.7915 20.001Z" fill="#333333"/>
<path d="M18.7915 16.0294C19.4557 16.0294 19.9942 15.4909 19.9942 14.8267C19.9942 14.1625 19.4557 13.624 18.7915 13.624C18.1273 13.624 17.5889 14.1625 17.5889 14.8267C17.5889 15.4909 18.1273 16.0294 18.7915 16.0294Z" fill="#333333"/>
<path d="M18.7915 12.0582C19.4557 12.0582 19.9942 11.5197 19.9942 10.8555C19.9942 10.1913 19.4557 9.65283 18.7915 9.65283C18.1273 9.65283 17.5889 10.1913 17.5889 10.8555C17.5889 11.5197 18.1273 12.0582 18.7915 12.0582Z" fill="#333333"/>
<path d="M18.7915 8.08746C19.4557 8.08746 19.9942 7.54901 19.9942 6.88479C19.9942 6.22058 19.4557 5.68213 18.7915 5.68213C18.1273 5.68213 17.5889 6.22058 17.5889 6.88479C17.5889 7.54901 18.1273 8.08746 18.7915 8.08746Z" fill="#333333"/>
<path d="M14.8706 20.001C15.5348 20.001 16.0733 19.4626 16.0733 18.7984C16.0733 18.1342 15.5348 17.5957 14.8706 17.5957C14.2064 17.5957 13.668 18.1342 13.668 18.7984C13.668 19.4626 14.2064 20.001 14.8706 20.001Z" fill="#333333"/>
<path d="M14.8706 16.0294C15.5348 16.0294 16.0733 15.4909 16.0733 14.8267C16.0733 14.1625 15.5348 13.624 14.8706 13.624C14.2064 13.624 13.668 14.1625 13.668 14.8267C13.668 15.4909 14.2064 16.0294 14.8706 16.0294Z" fill="#333333"/>
<path d="M14.8706 12.0582C15.5348 12.0582 16.0733 11.5197 16.0733 10.8555C16.0733 10.1913 15.5348 9.65283 14.8706 9.65283C14.2064 9.65283 13.668 10.1913 13.668 10.8555C13.668 11.5197 14.2064 12.0582 14.8706 12.0582Z" fill="#333333"/>
<path d="M14.8706 8.08746C15.5348 8.08746 16.0733 7.54901 16.0733 6.88479C16.0733 6.22058 15.5348 5.68213 14.8706 5.68213C14.2064 5.68213 13.668 6.22058 13.668 6.88479C13.668 7.54901 14.2064 8.08746 14.8706 8.08746Z" fill="#333333"/>
<path d="M10.9488 20.001C11.613 20.001 12.1514 19.4626 12.1514 18.7984C12.1514 18.1342 11.613 17.5957 10.9488 17.5957C10.2845 17.5957 9.74609 18.1342 9.74609 18.7984C9.74609 19.4626 10.2845 20.001 10.9488 20.001Z" fill="#333333"/>
<path d="M10.9488 16.0294C11.613 16.0294 12.1514 15.4909 12.1514 14.8267C12.1514 14.1625 11.613 13.624 10.9488 13.624C10.2845 13.624 9.74609 14.1625 9.74609 14.8267C9.74609 15.4909 10.2845 16.0294 10.9488 16.0294Z" fill="#333333"/>
<path d="M10.9488 12.0582C11.613 12.0582 12.1514 11.5197 12.1514 10.8555C12.1514 10.1913 11.613 9.65283 10.9488 9.65283C10.2845 9.65283 9.74609 10.1913 9.74609 10.8555C9.74609 11.5197 10.2845 12.0582 10.9488 12.0582Z" fill="#333333"/>
<path d="M10.9488 8.08746C11.613 8.08746 12.1514 7.54901 12.1514 6.88479C12.1514 6.22058 11.613 5.68213 10.9488 5.68213C10.2845 5.68213 9.74609 6.22058 9.74609 6.88479C9.74609 7.54901 10.2845 8.08746 10.9488 8.08746Z" fill="#333333"/>
<path d="M6.81887 20.001C7.48309 20.001 8.02154 19.4626 8.02154 18.7984C8.02154 18.1342 7.48309 17.5957 6.81887 17.5957C6.15466 17.5957 5.61621 18.1342 5.61621 18.7984C5.61621 19.4626 6.15466 20.001 6.81887 20.001Z" fill="#333333"/>
<path d="M6.81887 16.0294C7.48309 16.0294 8.02154 15.4909 8.02154 14.8267C8.02154 14.1625 7.48309 13.624 6.81887 13.624C6.15466 13.624 5.61621 14.1625 5.61621 14.8267C5.61621 15.4909 6.15466 16.0294 6.81887 16.0294Z" fill="#333333"/>
<path d="M6.81887 12.0582C7.48309 12.0582 8.02154 11.5197 8.02154 10.8555C8.02154 10.1913 7.48309 9.65283 6.81887 9.65283C6.15466 9.65283 5.61621 10.1913 5.61621 10.8555C5.61621 11.5197 6.15466 12.0582 6.81887 12.0582Z" fill="#333333"/>
<path d="M6.81887 8.08746C7.48309 8.08746 8.02154 7.54901 8.02154 6.88479C8.02154 6.22058 7.48309 5.68213 6.81887 5.68213C6.15466 5.68213 5.61621 6.22058 5.61621 6.88479C5.61621 7.54901 6.15466 8.08746 6.81887 8.08746Z" fill="#333333"/>
<path d="M2.897 16.0294C3.56121 16.0294 4.09966 15.4909 4.09966 14.8267C4.09966 14.1625 3.56121 13.624 2.897 13.624C2.23279 13.624 1.69434 14.1625 1.69434 14.8267C1.69434 15.4909 2.23279 16.0294 2.897 16.0294Z" fill="#333333"/>
<path d="M2.897 12.0582C3.56121 12.0582 4.09966 11.5197 4.09966 10.8555C4.09966 10.1913 3.56121 9.65283 2.897 9.65283C2.23279 9.65283 1.69434 10.1913 1.69434 10.8555C1.69434 11.5197 2.23279 12.0582 2.897 12.0582Z" fill="#333333"/>
<path d="M2.897 8.08746C3.56121 8.08746 4.09966 7.54901 4.09966 6.88479C4.09966 6.22058 3.56121 5.68213 2.897 5.68213C2.23279 5.68213 1.69434 6.22058 1.69434 6.88479C1.69434 7.54901 2.23279 8.08746 2.897 8.08746Z" fill="#333333"/>
<path d="M18.7915 4.11627C19.4557 4.11627 19.9942 3.57781 19.9942 2.9136C19.9942 2.24939 19.4557 1.71094 18.7915 1.71094C18.1273 1.71094 17.5889 2.24939 17.5889 2.9136C17.5889 3.57781 18.1273 4.11627 18.7915 4.11627Z" fill="#333333"/>
<path d="M14.8218 4.11627C15.486 4.11627 16.0245 3.57781 16.0245 2.9136C16.0245 2.24939 15.486 1.71094 14.8218 1.71094C14.1576 1.71094 13.6191 2.24939 13.6191 2.9136C13.6191 3.57781 14.1576 4.11627 14.8218 4.11627Z" fill="#333333"/>
<path d="M10.8501 4.11627C11.5143 4.11627 12.0528 3.57781 12.0528 2.9136C12.0528 2.24939 11.5143 1.71094 10.8501 1.71094C10.1859 1.71094 9.64746 2.24939 9.64746 2.9136C9.64746 3.57781 10.1859 4.11627 10.8501 4.11627Z" fill="#333333"/>
<path d="M6.87942 4.11627C7.54364 4.11627 8.08209 3.57781 8.08209 2.9136C8.08209 2.24939 7.54364 1.71094 6.87942 1.71094C6.21521 1.71094 5.67676 2.24939 5.67676 2.9136C5.67676 3.57781 6.21521 4.11627 6.87942 4.11627Z" fill="#333333"/>
<path d="M2.90872 4.11627C3.57293 4.11627 4.11138 3.57781 4.11138 2.9136C4.11138 2.24939 3.57293 1.71094 2.90872 1.71094C2.24451 1.71094 1.70605 2.24939 1.70605 2.9136C1.70605 3.57781 2.24451 4.11627 2.90872 4.11627Z" fill="#333333"/>
</g>
<defs>
<clipPath id="clip0_1799_2057">
<rect width="20" height="20" fill="white"/>
</clipPath>
</defs>
</svg>
