<svg width="40" height="40" viewBox="0 0 40 40" fill="none" xmlns="http://www.w3.org/2000/svg">
<path d="M4.99967 24.9997C4.52745 24.9997 4.1319 24.8397 3.81301 24.5197C3.49301 24.2008 3.33301 23.8052 3.33301 23.333C3.33301 22.8608 3.49301 22.4647 3.81301 22.1447C4.1319 21.8258 4.52745 21.6663 4.99967 21.6663H11.6663V19.9997H8.33301C7.86079 19.9997 7.46467 19.8397 7.14467 19.5197C6.82579 19.2008 6.66634 18.8052 6.66634 18.333C6.66634 17.8608 6.82579 17.4647 7.14467 17.1447C7.46467 16.8258 7.86079 16.6663 8.33301 16.6663H11.6663C12.583 16.6663 13.3675 16.9925 14.0197 17.6447C14.673 18.298 14.9997 19.083 14.9997 19.9997V21.6663H18.333V10.1663C18.333 8.24967 18.9997 6.6319 20.333 5.31301C21.6663 3.99301 23.2913 3.33301 25.208 3.33301C26.4858 3.33301 27.6663 3.66634 28.7497 4.33301C29.833 4.99967 30.6663 5.91634 31.2497 7.08301L32.4163 9.41634C32.6386 9.83301 32.6736 10.2563 32.5213 10.6863C32.368 11.1175 32.083 11.4441 31.6663 11.6663C31.2497 11.8886 30.8263 11.923 30.3963 11.7697C29.9652 11.6175 29.6386 11.333 29.4163 10.9163L28.2497 8.58301C27.9441 7.99967 27.5136 7.53412 26.958 7.18634C26.4025 6.83967 25.8052 6.66634 25.1663 6.66634C24.1941 6.66634 23.368 7.00634 22.688 7.68634C22.0069 8.36745 21.6663 9.19412 21.6663 10.1663V21.6663H24.9997V19.9997C24.9997 19.083 25.3263 18.298 25.9797 17.6447C26.6319 16.9925 27.4163 16.6663 28.333 16.6663H31.6663C32.1386 16.6663 32.5341 16.8258 32.853 17.1447C33.173 17.4647 33.333 17.8608 33.333 18.333C33.333 18.8052 33.173 19.2008 32.853 19.5197C32.5341 19.8397 32.1386 19.9997 31.6663 19.9997H28.333V21.6663H34.9997C35.4719 21.6663 35.8675 21.8258 36.1863 22.1447C36.5063 22.4647 36.6663 22.8608 36.6663 23.333C36.6663 23.8052 36.5063 24.2008 36.1863 24.5197C35.8675 24.8397 35.4719 24.9997 34.9997 24.9997H4.99967ZM9.99967 34.9997C9.08301 34.9997 8.29856 34.6736 7.64634 34.0213C6.99301 33.368 6.66634 32.583 6.66634 31.6663V24.9997H9.99967V31.6663H29.9997V24.9997H33.333V31.6663C33.333 32.583 33.0069 33.368 32.3547 34.0213C31.7013 34.6736 30.9163 34.9997 29.9997 34.9997H9.99967Z" fill="#333333"/>
</svg>
