<svg width="40" height="40" viewBox="0 0 40 40" fill="none" xmlns="http://www.w3.org/2000/svg">
<path d="M9.99301 14.9997C12.348 14.9997 13.593 13.7547 14.5013 12.8447C15.318 12.028 15.7197 11.6663 16.6547 11.6663C17.5897 11.6663 17.9913 12.028 18.808 12.8447C19.7163 13.7547 20.9613 14.9997 23.318 14.9997C25.6763 14.9997 26.923 13.7547 27.8347 12.8447C28.653 12.028 29.0547 11.6663 29.993 11.6663C30.9313 11.6663 31.333 12.028 32.1513 12.8447C33.0613 13.7547 34.308 14.9997 36.6663 14.9997V11.6663C35.728 11.6663 35.3263 11.3047 34.508 10.488C33.598 9.57801 32.3513 8.33301 29.993 8.33301C27.6347 8.33301 26.3897 9.57801 25.478 10.4863C24.6597 11.3047 24.2597 11.6663 23.318 11.6663C22.3813 11.6663 21.9813 11.3047 21.1647 10.488C20.2563 9.57801 19.0113 8.33301 16.6547 8.33301C14.298 8.33301 13.053 9.57801 12.1447 10.488C11.328 11.3047 10.928 11.6663 9.99301 11.6663C9.05801 11.6663 8.65801 11.3047 7.84134 10.488C6.93301 9.57801 5.68801 8.33301 3.33301 8.33301V11.6663C4.26801 11.6663 4.66801 12.028 5.48467 12.8447C6.39301 13.7547 7.63801 14.9997 9.99301 14.9997ZM9.99301 23.333C12.348 23.333 13.593 22.088 14.5013 21.178C15.318 20.3613 15.7197 19.9997 16.6547 19.9997C17.5897 19.9997 17.9913 20.3613 18.808 21.178C19.7163 22.088 20.9613 23.333 23.318 23.333C25.6763 23.333 26.923 22.088 27.8347 21.178C28.653 20.3613 29.0547 19.9997 29.993 19.9997C30.9313 19.9997 31.333 20.3613 32.1513 21.178C33.0613 22.088 34.308 23.333 36.6663 23.333V19.9997C35.728 19.9997 35.3263 19.638 34.508 18.8213C33.598 17.9113 32.3513 16.6663 29.993 16.6663C27.6347 16.6663 26.3897 17.9113 25.478 18.8197C24.6597 19.638 24.2597 19.9997 23.318 19.9997C22.3813 19.9997 21.9813 19.638 21.1647 18.8213C20.2563 17.9113 19.0113 16.6663 16.6547 16.6663C14.298 16.6663 13.053 17.9113 12.1447 18.8213C11.328 19.638 10.928 19.9997 9.99301 19.9997C9.05801 19.9997 8.65801 19.638 7.84134 18.8213C6.93301 17.9113 5.68801 16.6663 3.33301 16.6663V19.9997C4.26801 19.9997 4.66801 20.3613 5.48467 21.178C6.39301 22.088 7.63801 23.333 9.99301 23.333ZM9.99301 31.6663C12.348 31.6663 13.593 30.4213 14.5013 29.5113C15.318 28.6947 15.7197 28.333 16.6547 28.333C17.5897 28.333 17.9913 28.6947 18.808 29.5113C19.7163 30.4213 20.9613 31.6663 23.318 31.6663C25.6763 31.6663 26.923 30.4213 27.8347 29.5113C28.653 28.6947 29.0547 28.333 29.993 28.333C30.9313 28.333 31.333 28.6947 32.1513 29.5113C33.0613 30.4213 34.308 31.6663 36.6663 31.6663V28.333C35.728 28.333 35.3263 27.9713 34.508 27.1547C33.598 26.2447 32.3513 24.9997 29.993 24.9997C27.6347 24.9997 26.3897 26.2447 25.478 27.153C24.6597 27.9713 24.2597 28.333 23.318 28.333C22.3813 28.333 21.9813 27.9713 21.1647 27.1547C20.2563 26.2447 19.0113 24.9997 16.6547 24.9997C14.298 24.9997 13.053 26.2447 12.1447 27.1547C11.328 27.9713 10.928 28.333 9.99301 28.333C9.05801 28.333 8.65801 27.9713 7.84134 27.1547C6.93301 26.2447 5.68801 24.9997 3.33301 24.9997V28.333C4.26801 28.333 4.66801 28.6947 5.48467 29.5113C6.39301 30.4213 7.63801 31.6663 9.99301 31.6663Z" fill="#333333"/>
</svg>
