<svg width="40" height="40" viewBox="0 0 40 40" fill="none" xmlns="http://www.w3.org/2000/svg">
<path d="M27.5004 10.625C27.5004 10.9958 27.3904 11.3584 27.1844 11.6667C26.9784 11.975 26.6855 12.2154 26.3429 12.3573C26.0003 12.4992 25.6233 12.5363 25.2596 12.464C24.8959 12.3916 24.5618 12.213 24.2996 11.9508C24.0373 11.6886 23.8588 11.3545 23.7864 10.9908C23.7141 10.6271 23.7512 10.2501 23.8931 9.90747C24.035 9.56486 24.2753 9.27202 24.5837 9.06599C24.892 8.85997 25.2545 8.75 25.6254 8.75C26.1227 8.75 26.5996 8.94754 26.9512 9.29917C27.3028 9.65081 27.5004 10.1277 27.5004 10.625ZM19.5473 20.2969C19.4235 20.1892 19.2792 20.1076 19.1232 20.057C18.9671 20.0065 18.8024 19.9879 18.639 20.0025C18.4756 20.0171 18.3168 20.0645 18.1722 20.142C18.0275 20.2194 17.9 20.3252 17.7973 20.4531L11.5473 27.9531C11.4396 28.0769 11.358 28.2212 11.3074 28.3772C11.2568 28.5333 11.2383 28.698 11.2529 28.8614C11.2675 29.0248 11.3149 29.1836 11.3923 29.3282C11.4698 29.4729 11.5756 29.6004 11.7035 29.7031C11.8273 29.8108 11.9715 29.8924 12.1276 29.943C12.2837 29.9935 12.4484 30.0121 12.6118 29.9975C12.7752 29.9829 12.934 29.9355 13.0786 29.858C13.2232 29.7806 13.3508 29.6748 13.4535 29.5469L19.7035 22.0469C19.8112 21.9231 19.8928 21.7788 19.9433 21.6228C19.9939 21.4667 20.0125 21.302 19.9979 21.1386C19.9833 20.9752 19.9359 20.8164 19.8584 20.6718C19.781 20.5271 19.6752 20.3996 19.5473 20.2969Z" fill="#333333"/>
<path d="M37.4998 12.4996C37.5017 12.7073 37.4512 12.9122 37.3529 13.0952C37.2545 13.2782 37.1116 13.4334 36.9373 13.5465L33.7498 15.6715V18.7496C33.7416 23.0568 32.0269 27.1853 28.9812 30.231C25.9355 33.2766 21.8071 34.9913 17.4998 34.9996H1.24982C1.01492 34.9983 0.785143 34.9308 0.586832 34.8049C0.388521 34.679 0.229702 34.4997 0.128582 34.2877C0.0274617 34.0757 -0.0118676 33.8395 0.0151029 33.6061C0.0420733 33.3728 0.134252 33.1517 0.281071 32.9684L14.9998 14.5621V11.8746C15.0004 9.63658 15.8016 7.47259 17.2585 5.77378C18.7155 4.07496 20.7321 2.9534 22.9439 2.61181C25.1557 2.27023 27.4168 2.73116 29.3184 3.91129C31.2199 5.09143 32.6366 6.9129 33.3123 9.04648L36.9373 11.4527C37.1116 11.5658 37.2545 11.721 37.3529 11.904C37.4512 12.087 37.5017 12.2919 37.4998 12.4996ZM33.9998 12.4996L31.5467 10.859C31.2909 10.6924 31.1069 10.4359 31.0311 10.1402C30.6121 8.51911 29.6159 7.10663 28.2294 6.16785C26.843 5.22908 25.1616 4.82854 23.5008 5.04141C21.84 5.25429 20.3139 6.06594 19.2091 7.32404C18.1042 8.58215 17.4964 10.2002 17.4998 11.8746V14.9996C17.5018 15.2851 17.4021 15.5621 17.2186 15.7809L3.84357 32.4996H17.4998C21.1453 32.4955 24.6402 31.0455 27.218 28.4678C29.7957 25.89 31.2457 22.3951 31.2498 18.7496V14.9996C31.2479 14.7919 31.2985 14.587 31.3968 14.404C31.4951 14.221 31.638 14.0658 31.8123 13.9527L33.9998 12.4996Z" fill="#333333"/>
</svg>
