<svg width="40" height="40" viewBox="0 0 40 40" fill="none" xmlns="http://www.w3.org/2000/svg">
<path d="M26.6663 3.33301C27.5504 3.33301 28.3982 3.6842 29.0234 4.30932C29.6485 4.93444 29.9997 5.78229 29.9997 6.66634H6.66634V25.2947C5.78229 25.2947 4.93444 24.9435 4.30932 24.3184C3.6842 23.6932 3.33301 22.8454 3.33301 21.9613V6.66634C3.33301 5.78229 3.6842 4.93444 4.30932 4.30932C4.93444 3.6842 5.78229 3.33301 6.66634 3.33301H26.6663Z" fill="#333333"/>
<path d="M23.3333 36.6667L18.8883 31.9617H13.3333C12.4493 31.9617 11.6014 31.6105 10.9763 30.9854C10.3512 30.3602 10 29.5124 10 28.6283V13.3333C10 12.4493 10.3512 11.6014 10.9763 10.9763C11.6014 10.3512 12.4493 10 13.3333 10H33.3333C34.2174 10 35.0652 10.3512 35.6904 10.9763C36.3155 11.6014 36.6667 12.4493 36.6667 13.3333V28.6283C36.6667 29.5124 36.3155 30.3602 35.6904 30.9854C35.0652 31.6105 34.2174 31.9617 33.3333 31.9617H27.7783L23.3333 36.6667ZM26.3417 28.6283H33.3333V13.3333H13.3333V28.6283H20.325L23.3333 31.8117L26.3417 28.6283Z" fill="#333333"/>
</svg>
