<svg width="40" height="40" viewBox="0 0 40 40" fill="none" xmlns="http://www.w3.org/2000/svg">
<path d="M8.33366 6.66699H25.0003C25.4424 6.66699 25.8663 6.84259 26.1788 7.15515C26.4914 7.46771 26.667 7.89163 26.667 8.33366V11.667H35.0003C35.4424 11.667 35.8663 11.8426 36.1788 12.1551C36.4914 12.4677 36.667 12.8916 36.667 13.3337C36.667 13.7757 36.4914 14.1996 36.1788 14.5122C35.8663 14.8247 35.4424 15.0003 35.0003 15.0003H26.667V21.667C26.667 22.109 26.4914 22.5329 26.1788 22.8455C25.8663 23.1581 25.4424 23.3337 25.0003 23.3337C24.5583 23.3337 24.1344 23.1581 23.8218 22.8455C23.5093 22.5329 23.3337 22.109 23.3337 21.667V20.0003H16.667V31.667C16.667 32.109 16.4914 32.5329 16.1788 32.8455C15.8663 33.1581 15.4424 33.3337 15.0003 33.3337H11.667C10.3409 33.3337 9.06914 32.8069 8.13146 31.8692C7.19378 30.9315 6.66699 29.6597 6.66699 28.3337V19.7003C5.69441 19.3565 4.85199 18.7202 4.25522 17.8788C3.65846 17.0373 3.33656 16.0319 3.33366 15.0003V11.667C3.33366 10.3409 3.86044 9.06914 4.79812 8.13146C5.73581 7.19378 7.00758 6.66699 8.33366 6.66699ZM10.0003 28.3337C10.0003 28.7757 10.1759 29.1996 10.4885 29.5122C10.801 29.8247 11.225 30.0003 11.667 30.0003H13.3337V20.0003H10.0003V28.3337ZM6.66699 15.0003C6.66699 15.4424 6.84259 15.8663 7.15515 16.1788C7.46771 16.4914 7.89163 16.667 8.33366 16.667H23.3337V10.0003H13.3337V11.667C13.3337 12.109 13.1581 12.5329 12.8455 12.8455C12.5329 13.1581 12.109 13.3337 11.667 13.3337C11.225 13.3337 10.801 13.1581 10.4885 12.8455C10.1759 12.5329 10.0003 12.109 10.0003 11.667V10.0003H8.33366C7.89163 10.0003 7.46771 10.1759 7.15515 10.4885C6.84259 10.801 6.66699 11.225 6.66699 11.667V15.0003Z" fill="#333333"/>
</svg>
