<svg width="90" height="90" viewBox="0 0 90 90" fill="none" xmlns="http://www.w3.org/2000/svg">
<path d="M45 90C69.8528 90 90 69.8528 90 45C90 20.1472 69.8528 0 45 0C20.1472 0 0 20.1472 0 45C0 69.8528 20.1472 90 45 90Z" fill="url(#paint0_linear_1077_7631)"/>
<path d="M28.7791 50.8648C33.2395 50.8648 36.8555 47.2488 36.8555 42.7883C36.8555 38.3278 33.2395 34.7119 28.7791 34.7119C24.3186 34.7119 20.7026 38.3278 20.7026 42.7883C20.7026 47.2488 24.3186 50.8648 28.7791 50.8648Z" fill="black"/>
<path d="M59.7888 50.8648C64.2493 50.8648 67.8653 47.2488 67.8653 42.7883C67.8653 38.3278 64.2493 34.7119 59.7888 34.7119C55.3283 34.7119 51.7124 38.3278 51.7124 42.7883C51.7124 47.2488 55.3283 50.8648 59.7888 50.8648Z" fill="black"/>
<path d="M33.7574 68.0405C33.2226 67.9296 32.7216 67.6935 32.2955 67.3518C31.8694 67.01 31.5304 66.5722 31.3061 66.0742C31.0818 65.5761 30.9786 65.0321 31.005 64.4865C31.0315 63.9409 31.1867 63.4094 31.4581 62.9354C32.0126 61.9393 32.9363 61.201 34.0301 60.8797L36.3099 60.1686C41.9547 58.4059 48.0161 58.5015 53.6025 60.4414L56.0771 61.2987C56.6619 61.4854 57.2 61.7949 57.6554 62.2066C58.1107 62.6183 58.4727 63.1225 58.7173 63.6855C58.9495 64.212 59.0456 64.7886 58.9965 65.3619C58.9474 65.9353 58.7549 66.487 58.4366 66.9663C58.1183 67.4457 57.6844 67.8373 57.175 68.1051C56.6657 68.3728 56.0972 68.508 55.5219 68.4983L34.3614 68.0989C34.1586 68.0992 33.9563 68.0797 33.7574 68.0405Z" fill="black"/>
<path d="M16.2406 32.3544C15.5939 31.8476 15.1519 31.1243 14.996 30.3175C14.8401 29.5107 14.9808 28.6748 15.3922 27.9635C15.8035 27.2522 16.4579 26.7133 17.235 26.4461C18.012 26.1789 18.8594 26.2012 19.6213 26.509L38.8429 35.3551C39.6646 35.7336 40.3022 36.423 40.6156 37.2717C40.9289 38.1203 40.8923 39.0587 40.5138 39.8804C40.1353 40.7021 39.4458 41.3396 38.5971 41.653C37.7485 41.9663 36.8101 41.9297 35.9884 41.5512L16.7668 32.7052C16.5812 32.6043 16.4051 32.487 16.2406 32.3544Z" fill="black"/>
<path d="M71.2555 32.3543C71.898 31.8469 72.3365 31.1251 72.4909 30.321C72.6452 29.517 72.505 28.6842 72.096 27.9749C71.687 27.2656 71.0364 26.7273 70.2632 26.4581C69.4899 26.1889 68.6457 26.207 67.8846 26.5089L48.6532 35.3549C47.8316 35.7335 47.1939 36.4229 46.8806 37.2715C46.5672 38.1202 46.6038 39.0586 46.9824 39.8803C47.3609 40.7019 48.0504 41.3395 48.899 41.6529C49.7477 41.9662 50.6861 41.9296 51.5078 41.5511L70.7295 32.705C70.915 32.6042 71.091 32.4868 71.2555 32.3543Z" fill="black"/>
<defs>
<linearGradient id="paint0_linear_1077_7631" x1="22.4951" y1="6.02078" x2="67.5049" y2="83.9792" gradientUnits="userSpaceOnUse">
<stop stop-color="#F1322A"/>
<stop offset="1" stop-color="#B21010"/>
</linearGradient>
</defs>
</svg>
