<svg width="90" height="90" viewBox="0 0 90 90" fill="none" xmlns="http://www.w3.org/2000/svg">
<path d="M40.6842 61.1069C36.4124 59.9623 32.7703 57.1676 30.559 53.3376C28.3478 49.5076 27.7486 44.9561 28.8932 40.6843C30.0378 36.4125 32.8325 32.7704 36.6625 30.5591C40.4925 28.3479 45.044 27.7487 49.3158 28.8933C53.5876 30.0379 57.2297 32.8326 59.441 36.6626C61.6522 40.4926 62.2514 45.0441 61.1068 49.3159C59.9622 53.5877 57.1675 57.2299 53.3375 59.4411C49.5075 61.6523 44.956 62.2516 40.6842 61.1069ZM39.1248 66.9266C44.9401 68.4848 51.1362 67.6691 56.35 64.6589C61.5638 61.6487 65.3683 56.6906 66.9265 50.8753C68.4847 45.06 67.669 38.8639 64.6588 33.6501C61.6486 28.4363 56.6905 24.6318 50.8752 23.0736C45.0599 21.5154 38.8638 22.3311 33.65 25.3413C28.4362 28.3515 24.6317 33.3097 23.0735 39.1249C21.5153 44.9402 22.331 51.1363 25.3412 56.3501C28.3514 61.5639 33.3095 65.3684 39.1248 66.9266Z" fill="#88C9F9" stroke="#88C9F9" stroke-width="0.4"/>
<path d="M56.5037 1.29506C55.79 1.1538 55.0466 1.27534 54.4127 1.64136C53.7207 2.04084 53.2158 2.69883 53.0091 3.47057L50.0973 14.3372C49.8906 15.109 49.9988 15.9313 50.3983 16.6232C50.7978 17.3151 51.4558 17.82 52.2275 18.0268C52.9992 18.2336 53.8215 18.1253 54.5135 17.7258C55.2054 17.3263 55.7103 16.6684 55.9171 15.8966L58.8288 5.02995C59.0356 4.25821 58.9273 3.43593 58.5278 2.74401C58.1283 2.05209 57.4703 1.54719 56.6986 1.34041L56.5054 1.28864L56.5037 1.29506ZM39.6017 73.3773C39.2022 72.6854 38.5442 72.1805 37.7725 71.9737C37.0007 71.7669 36.1784 71.8752 35.4865 72.2747C34.7946 72.6742 34.2897 73.3322 34.0829 74.1039L31.1712 84.9706C30.9644 85.7423 31.0727 86.5646 31.4722 87.2565C31.8716 87.9484 32.5296 88.4533 33.3014 88.6601C34.0731 88.8669 34.8954 88.7586 35.5873 88.3591C36.2792 87.9597 36.7841 87.3017 36.9909 86.5299L39.9026 75.6633C40.1094 74.8915 40.0012 74.0693 39.6017 73.3773ZM87.2562 58.5281C87.9482 58.1286 88.453 57.4706 88.6598 56.6989C88.8666 55.9271 88.7584 55.1049 88.3589 54.4129C87.9594 53.721 87.3014 53.2161 86.5297 53.0093L75.663 50.0976C74.8913 49.8908 74.069 49.9991 73.3771 50.3986C72.6851 50.798 72.1803 51.456 71.9735 52.2278C71.7667 52.9995 71.8749 53.8218 72.2744 54.5137C72.6739 55.2056 73.3319 55.7105 74.1036 55.9173L84.9703 58.829C85.742 59.0358 86.5643 58.9276 87.2562 58.5281Z" fill="#88C9F9" stroke="#88C9F9" stroke-width="0.4"/>
<path d="M84.1455 22.3994L84.1455 22.3993C83.746 21.7076 83.0881 21.2028 82.3165 20.9961C81.5449 20.7894 80.7228 20.8975 80.031 21.2968L80.031 21.2968L70.2898 26.9209C69.5972 27.3201 69.0916 27.9781 68.8841 28.7501C68.7814 29.1323 68.755 29.5311 68.8064 29.9235C68.8578 30.316 68.986 30.6945 69.1836 31.0374C69.5828 31.73 70.2408 32.2356 71.0128 32.443C71.3951 32.5458 71.7938 32.5722 72.1863 32.5208C72.5787 32.4694 72.9572 32.3412 73.3001 32.1436L73.3003 32.1435L83.0431 26.5139C83.7348 26.1144 84.2395 25.4565 84.4463 24.6849C84.653 23.9133 84.5448 23.0912 84.1455 22.3994ZM20.8132 58.9643L20.8132 58.9642C20.4137 58.2725 19.7558 57.7678 18.9842 57.561C18.2126 57.3543 17.3905 57.4625 16.6987 57.8618L16.6986 57.8618L6.9573 63.4859L6.95432 63.4877C6.27722 63.8945 5.78697 64.5509 5.58917 65.3156C5.39136 66.0804 5.50183 66.8922 5.89678 67.5763C6.29173 68.2603 6.93956 68.7619 7.70074 68.973C8.46191 69.184 9.27554 69.0877 9.96638 68.7047L9.96939 68.703L19.7107 63.0788L19.7107 63.0788C20.4025 62.6793 20.9072 62.0214 21.1139 61.2498C21.3207 60.4783 21.2125 59.6561 20.8132 58.9643ZM57.8603 73.2984L57.862 73.3015L63.4862 83.0428L63.6594 82.9428L63.4862 83.0428C63.8857 83.7345 64.5436 84.2393 65.3152 84.446C66.0868 84.6527 66.9089 84.5446 67.6007 84.1453L67.6008 84.1452C68.2925 83.7457 68.7972 83.0879 69.004 82.3163C69.2107 81.5447 69.1026 80.7226 68.7033 80.0307L68.53 80.1307L68.7032 80.0307L63.0791 70.2894L63.0773 70.2864C62.6706 69.6093 62.0141 69.119 61.2494 68.9212C60.4846 68.7234 59.6728 68.8339 58.9887 69.2288C58.3047 69.6238 57.8031 70.2716 57.592 71.0328C57.381 71.794 57.4773 72.6076 57.8603 73.2984ZM16.6231 39.6016C17.315 39.2021 17.8199 38.5441 18.0267 37.7724C18.2335 37.0007 18.1252 36.1784 17.7257 35.4864C17.3263 34.7945 16.6683 34.2896 15.8965 34.0828L5.02987 31.1711C4.25813 30.9643 3.43585 31.0726 2.74393 31.4721C2.052 31.8716 1.54711 32.5296 1.34032 33.3013C1.13354 34.073 1.24179 34.8953 1.64127 35.5872C2.04076 36.2792 2.69874 36.7841 3.47048 36.9908L14.3371 39.9026C15.1089 40.1093 15.9312 40.0011 16.6231 39.6016Z" fill="#88C9F9" stroke="#88C9F9" stroke-width="0.4"/>
<path d="M26.9199 19.7152L26.9199 19.7153C27.3194 20.407 27.9773 20.9118 28.7489 21.1185C29.5204 21.3253 30.3425 21.2171 31.0343 20.8179C31.3777 20.6202 31.6787 20.3567 31.9201 20.0425C32.1616 19.7283 32.3386 19.3696 32.4412 18.9868C32.5437 18.6041 32.5698 18.2048 32.5178 17.812C32.4658 17.4192 32.3369 17.0405 32.1383 16.6976L26.5151 6.95794C26.3213 6.60874 26.0599 6.30157 25.7462 6.05431C25.4321 5.80668 25.0717 5.6241 24.6863 5.51721C24.3008 5.41033 23.8979 5.38128 23.5011 5.43177C23.1043 5.48226 22.7215 5.61127 22.3751 5.81128C22.0286 6.01129 21.7255 6.27828 21.4834 6.59669C21.2413 6.91509 21.065 7.27853 20.9648 7.6658C20.8646 8.05307 20.8426 8.45641 20.9 8.85229C20.9573 9.24757 21.0926 9.6275 21.2981 9.96999L26.9199 19.7152Z" fill="#88C9F9" stroke="#88C9F9" stroke-width="0.4"/>
</svg>
