<svg width="90" height="90" viewBox="0 0 90 90" fill="none" xmlns="http://www.w3.org/2000/svg">
<path d="M45 90C69.8528 90 90 69.8528 90 45C90 20.1472 69.8528 0 45 0C20.1472 0 0 20.1472 0 45C0 69.8528 20.1472 90 45 90Z" fill="url(#paint0_linear_1077_7659)"/>
<path d="M28.7791 50.8648C33.2395 50.8648 36.8555 47.2488 36.8555 42.7883C36.8555 38.3278 33.2395 34.7119 28.7791 34.7119C24.3186 34.7119 20.7026 38.3278 20.7026 42.7883C20.7026 47.2488 24.3186 50.8648 28.7791 50.8648Z" fill="black"/>
<path d="M59.7888 50.8648C64.2493 50.8648 67.8653 47.2488 67.8653 42.7883C67.8653 38.3278 64.2493 34.7119 59.7888 34.7119C55.3283 34.7119 51.7124 38.3278 51.7124 42.7883C51.7124 47.2488 55.3283 50.8648 59.7888 50.8648Z" fill="black"/>
<path d="M33.7574 68.0409C32.9241 67.8722 32.1838 67.3984 31.6818 66.7123C31.1798 66.0261 30.9523 65.1772 31.0437 64.332C31.1352 63.4867 31.5391 62.7061 32.1763 62.1433C32.8135 61.5804 33.638 61.276 34.488 61.2895L55.6485 61.6792C56.5528 61.696 57.4135 62.0713 58.041 62.7227C58.6686 63.374 59.0117 64.248 58.9949 65.1523C58.9782 66.0567 58.6028 66.9173 57.9515 67.5449C57.3002 68.1724 56.4262 68.5157 55.5218 68.4989L34.3614 68.1092C34.1586 68.1014 33.9567 68.0786 33.7574 68.0409Z" fill="black"/>
<path d="M16.6887 41.4443C15.7843 41.3823 14.9416 40.9636 14.346 40.2803C13.7504 39.597 13.4506 38.705 13.5127 37.8007C13.5747 36.8964 13.9934 36.0536 14.6767 35.458C15.36 34.8624 16.2519 34.5627 17.1563 34.6247L38.3265 34.235C38.7743 34.2266 39.2193 34.3066 39.6362 34.4703C40.053 34.634 40.4336 34.8781 40.7561 35.1889C41.0787 35.4996 41.3368 35.8709 41.5158 36.2814C41.6949 36.6919 41.7913 37.1337 41.7996 37.5815C41.8079 38.0293 41.728 38.4742 41.5643 38.8911C41.4006 39.308 41.1564 39.6887 40.8457 40.0112C40.5349 40.3337 40.1637 40.5918 39.7532 40.7709C39.3427 40.9499 38.9009 41.0463 38.4531 41.0546L17.2829 41.4541C17.085 41.4705 16.886 41.4672 16.6887 41.4443Z" fill="black"/>
<path d="M48.6728 41.4443C47.7685 41.3823 46.9258 40.9636 46.3302 40.2803C45.7345 39.597 45.4348 38.705 45.4968 37.8007C45.5588 36.8964 45.9775 36.0536 46.6608 35.458C47.3441 34.8624 48.2361 34.5627 49.1404 34.6247L70.3106 34.235C70.7584 34.2266 71.2034 34.3066 71.6203 34.4703C72.0372 34.634 72.4177 34.8781 72.7402 35.1889C73.0627 35.4996 73.3209 35.8709 73.4999 36.2814C73.679 36.6919 73.7755 37.1337 73.7838 37.5815C73.7921 38.0293 73.7121 38.4742 73.5484 38.8911C73.3848 39.308 73.1405 39.6887 72.8298 40.0112C72.519 40.3337 72.1478 40.5918 71.7373 40.7709C71.3268 40.9499 70.885 41.0463 70.4372 41.0546L49.2768 41.4541C49.0756 41.4705 48.8733 41.4673 48.6728 41.4443Z" fill="black"/>
<defs>
<linearGradient id="paint0_linear_1077_7659" x1="22.4951" y1="6.02078" x2="67.5049" y2="83.9792" gradientUnits="userSpaceOnUse">
<stop stop-color="#FA8402"/>
<stop offset="1" stop-color="#FA6402"/>
</linearGradient>
</defs>
</svg>
