<svg width="90" height="90" viewBox="0 0 90 90" fill="none" xmlns="http://www.w3.org/2000/svg">
<path d="M45 90C69.8528 90 90 69.8528 90 45C90 20.1472 69.8528 0 45 0C20.1472 0 0 20.1472 0 45C0 69.8528 20.1472 90 45 90Z" fill="url(#paint0_linear_2265_6416)"/>
<path d="M28.7789 50.8648C33.2394 50.8648 36.8554 47.2488 36.8554 42.7883C36.8554 38.3278 33.2394 34.7119 28.7789 34.7119C24.3185 34.7119 20.7025 38.3278 20.7025 42.7883C20.7025 47.2488 24.3185 50.8648 28.7789 50.8648Z" fill="black"/>
<path d="M59.7889 50.8648C64.2494 50.8648 67.8654 47.2488 67.8654 42.7883C67.8654 38.3278 64.2494 34.7119 59.7889 34.7119C55.3285 34.7119 51.7125 38.3278 51.7125 42.7883C51.7125 47.2488 55.3285 50.8648 59.7889 50.8648Z" fill="black"/>
<path d="M36.8554 70.155C35.9511 70.2338 35.0524 69.9501 34.3572 69.3663C33.6621 68.7826 33.2272 67.9466 33.1484 67.0423C33.0696 66.1379 33.3533 65.2393 33.937 64.5441C34.5208 63.8489 35.3567 63.4142 36.2611 63.3354L57.1098 59.643C58.0012 59.4854 58.9187 59.6883 59.6605 60.2072C60.4023 60.726 60.9075 61.5183 61.0652 62.4098C61.2228 63.3012 61.0199 64.2187 60.501 64.9605C59.9821 65.7023 59.1898 66.2076 58.2984 66.3652L37.4497 70.0478C37.2556 70.1029 37.0565 70.1389 36.8554 70.155Z" fill="black"/>
<defs>
<linearGradient id="paint0_linear_2265_6416" x1="22.4951" y1="6.02078" x2="67.5049" y2="83.9792" gradientUnits="userSpaceOnUse">
<stop stop-color="#F5F400"/>
<stop offset="1" stop-color="#EFA60B"/>
</linearGradient>
</defs>
</svg>
