<svg width="20" height="20" viewBox="0 0 20 20" fill="none" xmlns="http://www.w3.org/2000/svg">
<path d="M15.75 1C16.612 1 17.4386 1.34241 18.0481 1.9519C18.6576 2.5614 19 3.38805 19 4.25V15.75C19 16.612 18.6576 17.4386 18.0481 18.0481C17.4386 18.6576 16.612 19 15.75 19H4.25C3.38805 19 2.5614 18.6576 1.9519 18.0481C1.34241 17.4386 1 16.612 1 15.75V4.25C1 3.38805 1.34241 2.5614 1.9519 1.9519C2.5614 1.34241 3.38805 1 4.25 1H15.75ZM15.75 2.5H4.25C3.78587 2.5 3.34075 2.68437 3.01256 3.01256C2.68437 3.34075 2.5 3.78587 2.5 4.25V11H7C7.18124 11 7.35634 11.0656 7.49293 11.1848C7.62952 11.3039 7.71835 11.4684 7.743 11.648L7.75 11.75C7.74893 12.3341 7.97505 12.8958 8.38056 13.3162C8.78607 13.7366 9.33918 13.9828 9.92296 14.0028C10.5067 14.0228 11.0754 13.815 11.5087 13.4233C11.9421 13.0317 12.2061 12.4868 12.245 11.904L12.25 11.75C12.25 11.5511 12.329 11.3603 12.4697 11.2197C12.6103 11.079 12.8011 11 13 11H17.5V4.25C17.5 3.81065 17.3347 3.38739 17.037 3.06429C16.7392 2.74119 16.3309 2.5419 15.893 2.506L15.75 2.5ZM4.75 7.5H15.25C15.44 7.50006 15.6229 7.57224 15.7618 7.70197C15.9006 7.8317 15.9851 8.0093 15.998 8.19888C16.011 8.38846 15.9515 8.57589 15.8316 8.7233C15.7117 8.87071 15.5402 8.9671 15.352 8.993L15.25 9H4.75C4.55998 8.99994 4.37706 8.92776 4.23821 8.79803C4.09936 8.6683 4.01493 8.4907 4.00197 8.30112C3.98902 8.11154 4.04852 7.92411 4.16843 7.7767C4.28835 7.62929 4.45975 7.5329 4.648 7.507L4.75 7.5H15.25H4.75ZM4.75 4.5H15.25C15.44 4.50006 15.6229 4.57224 15.7618 4.70197C15.9006 4.8317 15.9851 5.0093 15.998 5.19888C16.011 5.38846 15.9515 5.57589 15.8316 5.7233C15.7117 5.87071 15.5402 5.9671 15.352 5.993L15.25 6H4.75C4.55998 5.99994 4.37706 5.92776 4.23821 5.79803C4.09936 5.6683 4.01493 5.4907 4.00197 5.30112C3.98902 5.11154 4.04852 4.92411 4.16843 4.7767C4.28835 4.62929 4.45975 4.5329 4.648 4.507L4.75 4.5H15.25H4.75Z" fill="#FFF"/>
</svg>
