<svg width="30" height="30" viewBox="0 0 30 30" fill="none" xmlns="http://www.w3.org/2000/svg">
<path d="M15.0322 0.46875C6.82734 0.46875 0.46875 6.46524 0.46875 14.5646C0.46875 18.801 2.20957 22.4619 5.04316 24.9908C5.53242 25.4309 5.43164 25.6857 5.51484 28.4027C5.5214 28.593 5.57441 28.7789 5.66927 28.944C5.76412 29.1091 5.89794 29.2485 6.05904 29.35C6.22015 29.4516 6.40364 29.5121 6.59353 29.5265C6.78342 29.5408 6.97393 29.5084 7.14844 29.4322C10.2486 28.067 10.2885 27.9592 10.8141 28.1021C19.7959 30.5742 29.5312 24.8262 29.5312 14.5646C29.5312 6.46524 23.2377 0.46875 15.0322 0.46875ZM23.7768 11.3162L19.4994 18.0879C19.3379 18.3425 19.1255 18.5611 18.8756 18.7298C18.6257 18.8985 18.3436 19.0138 18.047 19.0684C17.7505 19.123 17.4458 19.1158 17.1522 19.0472C16.8586 18.9786 16.5823 18.8501 16.3406 18.6697L12.9375 16.1227C12.7854 16.0086 12.6003 15.9469 12.4102 15.9469C12.22 15.9469 12.0349 16.0086 11.8828 16.1227L7.29082 19.6055C6.67793 20.0701 5.8752 19.3359 6.28828 18.6873L10.5656 11.9156C10.7271 11.6609 10.9394 11.4423 11.1894 11.2735C11.4393 11.1048 11.7214 10.9895 12.0179 10.9348C12.3145 10.8802 12.6192 10.8874 12.9128 10.9561C13.2065 11.0247 13.4828 11.1533 13.7244 11.3338L17.1264 13.8803C17.2785 13.9944 17.4635 14.0561 17.6537 14.0561C17.8439 14.0561 18.0289 13.9944 18.1811 13.8803L22.7754 10.401C23.3871 9.9334 24.1898 10.667 23.7768 11.3162Z" fill="white"/>
</svg>
