<svg width="40" height="40" viewBox="0 0 40 40" fill="none" xmlns="http://www.w3.org/2000/svg">
<path d="M3.75 4.64789V35.351C3.75021 35.4176 3.77007 35.4827 3.80711 35.5381C3.84415 35.5934 3.89671 35.6366 3.9582 35.6622C4.01969 35.6879 4.08738 35.6947 4.15277 35.682C4.21816 35.6693 4.27835 35.6376 4.32578 35.5909L20.3125 20.0002L4.32578 4.40805C4.27835 4.36128 4.21816 4.32956 4.15277 4.31686C4.08738 4.30416 4.01969 4.31105 3.9582 4.33666C3.89671 4.36228 3.84415 4.40547 3.80711 4.46084C3.77007 4.51621 3.75021 4.58128 3.75 4.64789ZM27.0156 13.594L6.97031 2.55023L6.95781 2.5432C6.6125 2.3557 6.28437 2.82289 6.56719 3.09476L22.2805 18.1198L27.0156 13.594ZM6.56875 36.9057C6.28438 37.1776 6.6125 37.6448 6.95938 37.4573L6.97187 37.4502L27.0156 26.4065L22.2805 21.8791L6.56875 36.9057ZM35.1078 18.0471L29.5102 14.9643L24.2469 20.0002L29.5102 25.0338L35.1078 21.9534C36.6305 21.1119 36.6305 18.8885 35.1078 18.0471Z" fill="white"/>
</svg>
