<svg width="30" height="30" viewBox="0 0 30 30" fill="none" xmlns="http://www.w3.org/2000/svg">
<path d="M29.5539 6.17147C28.5101 6.63397 27.3889 6.94647 26.2101 7.08772C27.4264 6.35996 28.3363 5.21455 28.7701 3.86522C27.6274 4.54396 26.3768 5.02171 25.0726 5.27772C24.1956 4.3413 23.034 3.72063 21.768 3.51206C20.5021 3.3035 19.2028 3.51871 18.0717 4.12428C16.9406 4.72986 16.0411 5.69192 15.5128 6.8611C14.9846 8.03028 14.8571 9.34116 15.1501 10.5902C12.8347 10.474 10.5697 9.87215 8.50192 8.82385C6.43416 7.77554 4.60994 6.30417 3.14764 4.50522C2.64764 5.36772 2.36014 6.36772 2.36014 7.43272C2.35958 8.39146 2.59568 9.33552 3.04748 10.1811C3.49929 11.0267 4.15284 11.7478 4.95014 12.2802C4.02548 12.2508 3.12123 12.0009 2.31264 11.5515V11.6265C2.31254 12.9711 2.77768 14.2744 3.62912 15.3152C4.48055 16.356 5.66585 17.0701 6.98389 17.3365C6.12612 17.5686 5.22681 17.6028 4.35389 17.4365C4.72576 18.5935 5.45013 19.6053 6.4256 20.3301C7.40106 21.055 8.57878 21.4567 9.79389 21.479C7.73118 23.0982 5.18375 23.9766 2.56139 23.9727C2.09686 23.9728 1.63273 23.9457 1.17139 23.8915C3.83323 25.6029 6.93181 26.5112 10.0964 26.5077C20.8089 26.5077 26.6651 17.6352 26.6651 9.94022C26.6651 9.69022 26.6589 9.43772 26.6476 9.18772C27.7868 8.36394 28.77 7.34384 29.5514 6.17522L29.5539 6.17147Z" fill="white"/>
</svg>
