<svg width="1920" height="3762" viewBox="0 0 1920 3762" fill="none" xmlns="http://www.w3.org/2000/svg">
<g opacity="0.03">
<path d="M1770.2 910.723C1772.02 903.036 1767.27 895.328 1759.6 893.505C1751.92 891.683 1744.22 896.436 1742.4 904.123C1740.58 911.809 1745.33 919.518 1753 921.34C1760.68 923.163 1768.38 918.409 1770.2 910.723Z" stroke="#333333" stroke-width="0.747671" stroke-miterlimit="10"/>
<path d="M1808.27 953.599C1835.49 926.348 1835.49 882.166 1808.27 854.915C1781.06 827.664 1736.94 827.664 1709.73 854.915C1682.51 882.166 1682.51 926.348 1709.73 953.599C1736.94 980.849 1781.06 980.849 1808.27 953.599Z" stroke="#333333" stroke-width="1.08" stroke-miterlimit="10"/>
<path d="M1847.42 992.797C1896.25 943.898 1896.25 864.618 1847.42 815.719C1798.59 766.82 1719.41 766.82 1670.58 815.719C1621.75 864.618 1621.75 943.898 1670.58 992.797C1719.41 1041.7 1798.59 1041.7 1847.42 992.797Z" stroke="#333333" stroke-width="1.41" stroke-miterlimit="10"/>
<path d="M1759 1084.89C1858.63 1084.89 1939.4 1004.02 1939.4 904.249C1939.4 804.481 1858.63 723.604 1759 723.604C1659.37 723.604 1578.6 804.481 1578.6 904.249C1578.6 1004.02 1659.37 1084.89 1759 1084.89Z" stroke="#333333" stroke-width="1.73" stroke-miterlimit="10"/>
<path d="M1759 1140.33C1889.2 1140.33 1994.75 1034.63 1994.75 904.249C1994.75 773.867 1889.2 668.171 1759 668.171C1628.8 668.171 1523.25 773.867 1523.25 904.249C1523.25 1034.63 1628.8 1140.33 1759 1140.33Z" stroke="#333333" stroke-width="2.06" stroke-miterlimit="10"/>
<path d="M1759 1195.75C1919.77 1195.75 2050.1 1065.24 2050.1 904.25C2050.1 743.258 1919.77 612.749 1759 612.749C1598.23 612.749 1467.9 743.258 1467.9 904.25C1467.9 1065.24 1598.23 1195.75 1759 1195.75Z" stroke="#333333" stroke-width="2.39" stroke-miterlimit="10"/>
<path d="M1759 1251.18C1950.34 1251.18 2105.45 1095.86 2105.45 904.249C2105.45 712.643 1950.34 557.315 1759 557.315C1567.66 557.315 1412.55 712.643 1412.55 904.249C1412.55 1095.86 1567.66 1251.18 1759 1251.18Z" stroke="#333333" stroke-width="2.72" stroke-miterlimit="10"/>
<path d="M1759 1306.62C1980.91 1306.62 2160.81 1126.47 2160.81 904.25C2160.81 682.029 1980.91 501.884 1759 501.884C1537.09 501.884 1357.19 682.029 1357.19 904.25C1357.19 1126.47 1537.09 1306.62 1759 1306.62Z" stroke="#333333" stroke-width="3.05" stroke-miterlimit="10"/>
<path d="M1759 1362.05C2011.48 1362.05 2216.16 1157.08 2216.16 904.249C2216.16 651.413 2011.48 446.45 1759 446.45C1506.52 446.45 1301.84 651.413 1301.84 904.249C1301.84 1157.08 1506.52 1362.05 1759 1362.05Z" stroke="#333333" stroke-width="3.38" stroke-miterlimit="10"/>
<path d="M1759 1417.48C2042.06 1417.48 2271.52 1187.7 2271.52 904.249C2271.52 620.799 2042.06 391.018 1759 391.018C1475.94 391.018 1246.48 620.799 1246.48 904.249C1246.48 1187.7 1475.94 1417.48 1759 1417.48Z" stroke="#333333" stroke-width="3.7" stroke-miterlimit="10"/>
<path d="M1759 1472.91C2072.63 1472.91 2326.88 1218.31 2326.88 904.25C2326.88 590.186 2072.63 335.586 1759 335.586C1445.37 335.586 1191.12 590.186 1191.12 904.25C1191.12 1218.31 1445.37 1472.91 1759 1472.91Z" stroke="#333333" stroke-width="4.03" stroke-miterlimit="10"/>
<path d="M1759 1528.35C2103.2 1528.35 2382.23 1248.93 2382.23 904.249C2382.23 559.57 2103.2 280.152 1759 280.152C1414.8 280.152 1135.77 559.57 1135.77 904.249C1135.77 1248.93 1414.8 1528.35 1759 1528.35Z" stroke="#333333" stroke-width="4.36" stroke-miterlimit="10"/>
<path d="M1759 1583.78C2133.77 1583.78 2437.59 1279.54 2437.59 904.25C2437.59 528.956 2133.77 224.72 1759 224.72C1384.23 224.72 1080.41 528.956 1080.41 904.25C1080.41 1279.54 1384.23 1583.78 1759 1583.78Z" stroke="#333333" stroke-width="4.69" stroke-miterlimit="10"/>
<path d="M1759 1639.21C2164.35 1639.21 2492.94 1310.16 2492.94 904.249C2492.94 498.34 2164.35 169.286 1759 169.286C1353.65 169.286 1025.06 498.34 1025.06 904.249C1025.06 1310.16 1353.65 1639.21 1759 1639.21Z" stroke="#333333" stroke-width="5.02" stroke-miterlimit="10"/>
<path d="M1759 1694.64C2194.92 1694.64 2548.3 1340.77 2548.3 904.25C2548.3 467.726 2194.92 113.854 1759 113.854C1323.08 113.854 969.701 467.726 969.701 904.25C969.701 1340.77 1323.08 1694.64 1759 1694.64Z" stroke="#333333" stroke-width="5.34" stroke-miterlimit="10"/>
<path d="M1759 1750.07C2225.48 1750.07 2603.64 1371.38 2603.64 904.249C2603.64 437.117 2225.48 58.4316 1759 58.4316C1292.52 58.4316 914.356 437.117 914.356 904.249C914.356 1371.38 1292.52 1750.07 1759 1750.07Z" stroke="#333333" stroke-width="5.67" stroke-miterlimit="10"/>
<path d="M1759 1805.5C2256.06 1805.5 2659 1402 2659 904.25C2659 406.503 2256.06 3 1759 3C1261.94 3 859 406.503 859 904.25C859 1402 1261.94 1805.5 1759 1805.5Z" stroke="#333333" stroke-width="6" stroke-miterlimit="10"/>
</g>
<g opacity="0.03">
<path d="M210.198 2863.43C212.018 2855.74 207.271 2848.04 199.595 2846.21C191.92 2844.39 184.222 2849.14 182.402 2856.83C180.582 2864.52 185.329 2872.23 193.005 2874.05C200.68 2875.87 208.378 2871.12 210.198 2863.43Z" stroke="#333333" stroke-width="0.747671" stroke-miterlimit="10"/>
<path d="M248.274 2906.31C275.487 2879.06 275.487 2834.87 248.274 2807.62C221.06 2780.37 176.939 2780.37 149.726 2807.62C122.513 2834.87 122.513 2879.06 149.726 2906.31C176.939 2933.56 221.06 2933.56 248.274 2906.31Z" stroke="#333333" stroke-width="1.08" stroke-miterlimit="10"/>
<path d="M287.416 2945.5C336.247 2896.61 336.247 2817.32 287.416 2768.43C238.585 2719.53 159.415 2719.53 110.584 2768.43C61.7532 2817.32 61.7532 2896.61 110.584 2945.5C159.415 2994.4 238.585 2994.4 287.416 2945.5Z" stroke="#333333" stroke-width="1.41" stroke-miterlimit="10"/>
<path d="M199 3037.6C298.63 3037.6 379.395 2956.72 379.395 2856.96C379.395 2757.19 298.63 2676.31 199 2676.31C99.3707 2676.31 18.605 2757.19 18.605 2856.96C18.605 2956.72 99.3707 3037.6 199 3037.6Z" stroke="#333333" stroke-width="1.73" stroke-miterlimit="10"/>
<path d="M199 3093.04C329.202 3093.04 434.751 2987.34 434.751 2856.96C434.751 2726.57 329.202 2620.88 199 2620.88C68.7984 2620.88 -36.751 2726.57 -36.751 2856.96C-36.751 2987.34 68.7984 3093.04 199 3093.04Z" stroke="#333333" stroke-width="2.06" stroke-miterlimit="10"/>
<path d="M199 3148.46C359.768 3148.46 490.096 3017.95 490.096 2856.96C490.096 2695.97 359.768 2565.46 199 2565.46C38.232 2565.46 -92.0962 2695.97 -92.0962 2856.96C-92.0962 3017.95 38.232 3148.46 199 3148.46Z" stroke="#333333" stroke-width="2.39" stroke-miterlimit="10"/>
<path d="M199 3203.89C390.34 3203.89 545.452 3048.56 545.452 2856.96C545.452 2665.35 390.34 2510.02 199 2510.02C7.65971 2510.02 -147.452 2665.35 -147.452 2856.96C-147.452 3048.56 7.65971 3203.89 199 3203.89Z" stroke="#333333" stroke-width="2.72" stroke-miterlimit="10"/>
<path d="M199 3259.32C420.913 3259.32 600.808 3079.18 600.808 2856.96C600.808 2634.74 420.913 2454.59 199 2454.59C-22.9121 2454.59 -202.808 2634.74 -202.808 2856.96C-202.808 3079.18 -22.9121 3259.32 199 3259.32Z" stroke="#333333" stroke-width="3.05" stroke-miterlimit="10"/>
<path d="M199 3314.75C451.485 3314.75 656.164 3109.79 656.164 2856.96C656.164 2604.12 451.485 2399.16 199 2399.16C-53.4844 2399.16 -258.164 2604.12 -258.164 2856.96C-258.164 3109.79 -53.4844 3314.75 199 3314.75Z" stroke="#333333" stroke-width="3.38" stroke-miterlimit="10"/>
<path d="M199 3370.19C482.057 3370.19 711.52 3140.41 711.52 2856.96C711.52 2573.51 482.057 2343.73 199 2343.73C-84.0566 2343.73 -313.52 2573.51 -313.52 2856.96C-313.52 3140.41 -84.0566 3370.19 199 3370.19Z" stroke="#333333" stroke-width="3.7" stroke-miterlimit="10"/>
<path d="M199 3425.62C512.629 3425.62 766.875 3171.02 766.875 2856.96C766.875 2542.89 512.629 2288.29 199 2288.29C-114.629 2288.29 -368.875 2542.89 -368.875 2856.96C-368.875 3171.02 -114.629 3425.62 199 3425.62Z" stroke="#333333" stroke-width="4.03" stroke-miterlimit="10"/>
<path d="M199 3481.05C543.201 3481.05 822.231 3201.64 822.231 2856.96C822.231 2512.28 543.201 2232.86 199 2232.86C-145.201 2232.86 -424.231 2512.28 -424.231 2856.96C-424.231 3201.64 -145.201 3481.05 199 3481.05Z" stroke="#333333" stroke-width="4.36" stroke-miterlimit="10"/>
<path d="M199 3536.49C573.773 3536.49 877.587 3232.25 877.587 2856.96C877.587 2481.66 573.773 2177.43 199 2177.43C-175.774 2177.43 -479.587 2481.66 -479.587 2856.96C-479.587 3232.25 -175.774 3536.49 199 3536.49Z" stroke="#333333" stroke-width="4.69" stroke-miterlimit="10"/>
<path d="M199 3591.92C604.346 3591.92 932.943 3262.87 932.943 2856.96C932.943 2451.05 604.346 2121.99 199 2121.99C-206.345 2121.99 -534.943 2451.05 -534.943 2856.96C-534.943 3262.87 -206.345 3591.92 199 3591.92Z" stroke="#333333" stroke-width="5.02" stroke-miterlimit="10"/>
<path d="M199 3647.35C634.918 3647.35 988.299 3293.48 988.299 2856.96C988.299 2420.43 634.918 2066.56 199 2066.56C-236.918 2066.56 -590.299 2420.43 -590.299 2856.96C-590.299 3293.48 -236.918 3647.35 199 3647.35Z" stroke="#333333" stroke-width="5.34" stroke-miterlimit="10"/>
<path d="M199 3702.77C665.484 3702.77 1043.64 3324.09 1043.64 2856.96C1043.64 2389.82 665.484 2011.14 199 2011.14C-267.484 2011.14 -645.644 2389.82 -645.644 2856.96C-645.644 3324.09 -267.484 3702.77 199 3702.77Z" stroke="#333333" stroke-width="5.67" stroke-miterlimit="10"/>
<path d="M199 3758.21C696.056 3758.21 1099 3354.7 1099 2856.96C1099 2359.21 696.056 1955.71 199 1955.71C-298.056 1955.71 -701 2359.21 -701 2856.96C-701 3354.7 -298.056 3758.21 199 3758.21Z" stroke="#333333" stroke-width="6" stroke-miterlimit="10"/>
</g>
</svg>
