<svg width="100" height="110" viewBox="0 0 100 110" fill="none" xmlns="http://www.w3.org/2000/svg">
<g clip-path="url(#clip0_389_1722)">
<path d="M60.2108 25.336C61.8665 25.0772 62.4087 23.8782 62.09 22.384C61.7745 20.6349 61.8231 18.8401 62.2328 17.1105C63.6322 10.2735 69.2258 5.28424 76.3982 4.59544C82.6255 3.99775 89.2192 8.07953 91.7394 14.071C94.516 20.6857 92.875 27.7923 87.2264 32.0891C82.4057 35.7591 80.1419 40.2746 80.9258 46.3535C81.3581 49.7173 78.9148 52.7057 75.6802 53.6825C72.4457 54.6592 67.5004 52.7896 66.6396 48.2158C66.3429 46.6305 65.1743 45.9963 63.6285 46.3936C62.0826 46.7908 61.8629 48.0044 62.0936 49.3784C63.0204 54.9362 69.4932 59.4662 75.0941 58.4895C82.2739 57.2285 86.2557 52.0898 85.5048 44.8629C85.1861 41.787 86.2117 39.3379 88.4023 37.2861C89.2192 36.5244 90.1166 35.8502 90.9665 35.0994C94.0113 32.3883 96.1606 28.8242 97.1321 24.8754C98.1036 20.9266 97.8518 16.7778 96.4099 12.974C94.9978 9.14838 92.4335 5.84944 89.0671 3.52745C85.7006 1.20546 81.696 -0.0264723 77.5997 -0.000201838C65.8044 -0.448469 55.4377 10.3537 57.4708 23.1238C57.7235 24.7201 58.5807 25.5911 60.2108 25.336Z" fill="white"/>
<path d="M15.5172 38.7367C19.0412 38.2811 23.2428 40.5589 25.8473 36.284C25.8803 36.2293 26.1147 36.284 26.2905 36.3058C26.9536 37.9349 27.6313 39.5858 28.2833 41.2149C28.5617 41.9438 28.8401 42.7201 29.7485 42.6472C30.4812 42.5889 30.7522 41.9183 30.961 41.2258C31.3412 39.8708 31.8149 38.5435 32.3787 37.2534C32.8036 36.335 32.5655 34.9865 34.0234 34.4763C34.507 36.7322 34.9722 38.8861 35.4411 41.0363C36.0052 43.636 36.5717 46.2333 37.1408 48.8281C37.2726 49.4258 37.4448 49.9798 38.2653 49.9215C39.0309 49.885 39.2764 49.4222 39.4082 48.7881C39.4815 48.4236 39.617 48.0592 39.6683 47.6947C40.3496 42.7929 40.9504 37.8802 41.7453 32.9967C41.9358 31.8305 41.6977 30.3982 42.9139 29.2575C43.9212 33.7292 44.8773 37.9677 45.8444 42.2025C45.9909 42.8658 46.1447 43.5583 46.9982 43.6275C47.9543 43.7077 48.2144 43.0153 48.5111 42.2864C49.3939 40.0997 50.3427 37.9495 51.3464 35.5624C52.7054 37.5814 53.0388 39.7425 53.9106 41.6668C54.2403 42.3957 54.2549 43.4052 55.2916 43.489C56.3283 43.5729 56.6689 42.6873 56.984 41.9474C57.9877 39.5931 59.5115 38.2082 62.3028 38.7039C63.0721 38.8424 64.0575 38.8132 64.0502 37.5741C64.0502 36.4407 63.2296 36.2949 62.3505 36.2876C59.8083 36.2694 57.0646 35.6826 55.6359 39.338C54.5993 36.5063 53.83 34.3597 53.0168 32.2277C52.7311 31.4988 52.4966 30.4893 51.5222 30.4966C50.5478 30.5039 50.328 31.5025 49.991 32.2204C49.1705 33.977 48.7676 35.9341 47.3316 37.8401C46.0935 32.2532 44.9506 27.0271 43.7564 21.8046C43.5586 20.9481 43.7307 19.6179 42.2911 19.6872C40.9541 19.7491 41.0603 21.032 40.9211 21.8738C40.4009 25.1538 40.0823 28.4739 39.5181 31.7466C39.0383 34.5529 38.9686 37.4465 37.8587 40.8286C36.9429 36.5646 36.159 32.9675 35.4044 29.3668C35.2359 28.5505 35.1736 27.6539 34.093 27.5847C33.0124 27.5154 32.8549 28.4265 32.5765 29.1992C31.6424 31.8049 30.6863 34.4034 29.5287 37.5814C28.895 35.9633 28.5873 34.9209 28.0891 33.9734C27.6605 33.168 27.58 31.9033 26.4078 31.8195C25.3858 31.743 24.9205 32.7525 24.5249 33.5178C23.349 35.7883 21.5431 36.6047 19.0302 36.2694C17.9126 36.1637 16.7872 36.171 15.6711 36.2913C14.9605 36.3423 14.3634 36.6812 14.3963 37.5449C14.4293 38.3139 14.8579 38.8242 15.5172 38.7367Z" fill="white"/>
<path d="M67.9001 35.4528C69.1859 36.0979 70.5009 35.9412 71.3874 34.498C72.1337 33.3054 72.5681 31.9461 72.6512 30.5437C72.8673 27.2382 71.8636 24.0785 71.6622 20.8313C71.4607 17.5841 72.7904 15.5286 75.5158 14.5118C76.6425 14.0977 77.8692 14.0342 79.0331 14.3297C80.1969 14.6252 81.243 15.2657 82.0325 16.1664C83.9117 18.3057 84.0655 20.824 82.3732 23.5282C81.4757 24.9568 81.1021 26.4219 82.6955 27.3986C84.289 28.3753 85.5345 27.3986 86.4173 25.9991C88.5712 22.5916 88.8532 19.0419 87.0327 15.4302C85.0802 11.5671 81.8017 9.69022 78.2924 9.508C70.5009 9.46791 65.4055 15.955 67.0136 22.9414C67.7463 26.0866 68.3214 29.137 66.7023 32.2348C66.0173 33.5504 66.673 34.8369 67.9001 35.4528Z" fill="white"/>
<path d="M0 89.3585V69.5073C0 68.7784 0.201482 68.2827 0.604427 67.9803C1.00737 67.6778 1.65575 67.5283 2.54955 67.5283C3.44336 67.5283 4.05143 67.6814 4.43972 67.9803C4.82801 68.2791 5.02581 68.7929 5.02581 69.5073V77.4886H9.91978V69.5073C9.91978 68.7784 10.1212 68.2827 10.5242 67.9803C10.9271 67.6778 11.5719 67.5283 12.4657 67.5283C13.3595 67.5283 13.9675 67.6814 14.3595 67.9803C14.7515 68.2791 14.9456 68.7929 14.9456 69.5073V89.3585C14.9456 90.0874 14.7515 90.5831 14.3595 90.8856C13.9675 91.1881 13.3375 91.3375 12.4657 91.3375C11.5938 91.3375 10.8978 91.1844 10.5059 90.8856C10.1139 90.5867 9.91978 90.0729 9.91978 89.3585V81.3772H5.02581V89.3585C5.02581 90.0874 4.83168 90.5831 4.43972 90.8856C4.04777 91.1881 3.41772 91.3375 2.54955 91.3375C1.68139 91.3375 0.978049 91.1844 0.586093 90.8856C0.194137 90.5867 0 90.0729 0 89.3585Z" fill="white"/>
<path d="M25.2315 91.64C22.5647 91.64 20.7027 90.9633 19.6452 89.61C18.5878 88.2567 18.0591 86.0263 18.0591 82.9188V69.5073C18.0591 68.7784 18.2532 68.2827 18.6379 67.9803C19.0225 67.6778 19.6379 67.5283 20.4951 67.5283C21.3523 67.5283 21.9274 67.6814 22.301 67.9803C22.6746 68.2791 22.8615 68.7929 22.8615 69.5073V83.5238C22.8615 85.2901 23.0483 86.4855 23.4219 87.1099C23.624 87.4016 23.8943 87.64 24.2095 87.8047C24.5247 87.9695 24.8755 88.0555 25.2315 88.0555C25.5876 88.0555 25.9383 87.9695 26.2535 87.8047C26.5687 87.64 26.839 87.4016 27.0411 87.1099C27.4147 86.4855 27.6016 85.2901 27.6016 83.5238V69.5073C27.6016 68.7784 27.792 68.2827 28.1767 67.9803C28.5613 67.6778 29.1804 67.5283 30.0339 67.5283C30.8874 67.5283 31.4698 67.6814 31.8435 67.9803C32.2171 68.2791 32.4039 68.7929 32.4039 69.5073V83.0937C32.4039 86.0895 31.8007 88.264 30.5944 89.6173C29.388 90.9706 27.6003 91.6448 25.2315 91.64Z" fill="white"/>
<path d="M42.8076 91.1694H38.3056C37.4301 91.1694 36.8074 91.0164 36.4374 90.7175C36.0674 90.4187 35.877 89.9048 35.877 89.1905V69.6745C35.877 68.9456 36.0638 68.4318 36.4374 68.1329C36.811 67.8341 37.4338 67.6883 38.3056 67.6956H43.2545C45.4036 67.6956 47.0056 68.1706 48.0606 69.1205C49.1155 70.0705 49.6406 71.5514 49.6357 73.5631C49.6357 76.3815 48.7101 78.1588 46.859 78.8949C46.8051 78.9073 46.7569 78.9374 46.7223 78.9804C46.6878 79.0234 46.6688 79.0768 46.6686 79.1318C46.6686 79.2412 46.7308 79.3104 46.859 79.3323C47.3614 79.4393 47.8337 79.6556 48.2422 79.9656C48.6507 80.2756 48.9852 80.6716 49.2218 81.1253C49.7285 82.1282 49.98 83.2395 49.9544 84.3616C49.9544 86.7742 49.4061 88.5126 48.3096 89.5768C47.2131 90.641 45.3791 91.1719 42.8076 91.1694ZM40.5401 71.0667V77.8417H42.9029C44.434 77.8417 45.1996 76.6342 45.1996 74.2191C45.1996 73.0772 45.0299 72.2669 44.6905 71.7883C44.351 71.3096 43.6916 71.0667 42.7124 71.0594L40.5401 71.0667ZM40.5401 80.7573V87.7327H42.8369C43.7967 87.7327 44.4817 87.463 44.8993 86.9273C45.3169 86.3916 45.522 85.4695 45.522 84.1794C45.522 82.8893 45.3169 82.0438 44.9139 81.5299C44.6837 81.2624 44.393 81.0529 44.0658 80.9186C43.7385 80.7843 43.3839 80.729 43.0311 80.7573H40.5401Z" fill="white"/>
<path d="M59.8923 91.1694H55.383C54.5075 91.1694 53.8848 91.0164 53.5112 90.7175C53.1375 90.4187 52.9507 89.9048 52.9507 89.1905V69.6745C52.9507 68.9456 53.1375 68.4318 53.5112 68.1329C53.8848 67.8341 54.5087 67.6883 55.383 67.6956H60.3466C62.5054 67.6956 64.1123 68.1706 65.1673 69.1205C66.2222 70.0705 66.7497 71.5514 66.7497 73.5631C66.7497 76.3815 65.8217 78.1588 63.9657 78.8949C63.9114 78.9072 63.8628 78.9371 63.8276 78.9801C63.7924 79.023 63.7727 79.0764 63.7716 79.1318C63.7716 79.2412 63.8375 79.3104 63.9657 79.3323C64.4693 79.4386 64.943 79.6545 65.3528 79.9645C65.7626 80.2745 66.0983 80.671 66.3358 81.1253C66.8425 82.1282 67.0941 83.2395 67.0684 84.3616C67.0684 86.7742 66.519 88.5126 65.42 89.5768C64.3211 90.641 62.4785 91.1719 59.8923 91.1694ZM57.6249 71.0667V77.8417H59.9949C61.5334 77.8417 62.3015 76.6342 62.299 74.2191C62.299 73.0784 62.1305 72.2693 61.7862 71.7883C61.4418 71.3072 60.7861 71.0594 59.8044 71.0594L57.6249 71.0667ZM57.6249 80.7573V87.7327H59.9326C60.8924 87.7327 61.5798 87.4643 61.995 86.9273C62.4101 86.3904 62.6189 85.4744 62.6214 84.1794C62.6214 82.9257 62.4162 82.0438 62.0133 81.5299C61.7814 81.2625 61.4894 81.0531 61.161 80.9189C60.8326 80.7847 60.477 80.7293 60.1231 80.7573H57.6249Z" fill="white"/>
<path d="M76.2118 91.64C73.5451 91.64 71.6829 90.9633 70.6255 89.61C69.5681 88.2567 69.043 86.0263 69.0504 82.9188V69.5073C69.0504 68.7784 69.2445 68.2827 69.6292 67.9803C70.0138 67.6778 70.6292 67.5283 71.4827 67.5283C72.3362 67.5283 72.9186 67.6814 73.2923 67.9803C73.6659 68.2791 73.8527 68.7929 73.8527 69.5073V83.5238C73.8527 85.2901 74.0396 86.4855 74.4132 87.1099C74.6153 87.4016 74.8856 87.64 75.2008 87.8047C75.516 87.9695 75.8667 88.0555 76.2228 88.0555C76.5788 88.0555 76.9296 87.9695 77.2448 87.8047C77.56 87.64 77.8303 87.4016 78.0324 87.1099C78.406 86.4855 78.5929 85.2901 78.5929 83.5238V69.5073C78.5929 68.7784 78.7833 68.2827 79.1679 67.9803C79.5526 67.6778 80.1716 67.5283 81.0251 67.5283C81.8786 67.5283 82.4611 67.6814 82.8347 67.9803C83.2084 68.2791 83.3952 68.7929 83.3952 69.5073V83.0937C83.3952 86.0895 82.792 88.264 81.5856 89.6173C80.3792 90.9706 78.588 91.6448 76.2118 91.64Z" fill="white"/>
<path d="M92.8313 91.1694H88.3147C87.4392 91.1694 86.8164 91.0164 86.4428 90.7175C86.0692 90.4187 85.8823 89.9048 85.8823 89.1905V69.6745C85.8823 68.9456 86.0692 68.4318 86.4428 68.1329C86.8164 67.8341 87.4404 67.6883 88.3147 67.6956H93.2782C95.4321 67.6956 97.0391 68.1706 98.0989 69.1205C99.1588 70.0705 99.6863 71.5514 99.6814 73.5631C99.6814 76.3815 98.7534 78.1588 96.8974 78.8949C96.8431 78.9072 96.7944 78.9371 96.7592 78.9801C96.724 79.023 96.7043 79.0764 96.7032 79.1318C96.7032 79.2412 96.7692 79.3104 96.8974 79.3323C97.4007 79.4393 97.8741 79.6555 98.2837 79.9654C98.6934 80.2754 99.0293 80.6714 99.2674 81.1253C99.7741 82.1282 100.026 83.2395 100 84.3616C100 86.7742 99.4494 88.5126 98.348 89.5768C97.2466 90.641 95.4077 91.1719 92.8313 91.1694ZM90.5565 71.0667V77.8417H92.9266C94.4602 77.8417 95.2282 76.6342 95.2307 74.2191C95.2307 73.0772 95.0597 72.2669 94.7178 71.7883C94.3759 71.3096 93.7141 71.0667 92.7324 71.0594L90.5565 71.0667ZM90.5565 80.7573V87.7327H92.8606C93.8252 87.7327 94.5139 87.4643 94.9266 86.9273C95.3393 86.3904 95.5481 85.4744 95.553 84.1794C95.553 82.9257 95.3491 82.0425 94.9413 81.5299C94.7105 81.2621 94.4192 81.0524 94.0913 80.9181C93.7634 80.7838 93.4082 80.7287 93.0548 80.7573H90.5565Z" fill="white"/>
<path d="M1.25279 107.336L0.47987 109.239H0L2.23451 103.739H2.78764L5.11739 109.239H4.60457L3.81332 107.336H1.25279ZM3.65947 106.943C2.98179 105.31 2.63379 104.523 2.51291 104.155C2.36638 104.57 1.97443 105.547 1.41397 106.943H3.65947Z" fill="white"/>
<path d="M10.9893 109.238V103.447H11.4215V109.238H10.9893Z" fill="white"/>
<path d="M17.8319 107.322C17.8319 108.335 18.4034 108.965 19.2386 108.965C19.4977 108.993 19.7588 108.937 19.9836 108.805C20.2084 108.674 20.385 108.475 20.4877 108.237H20.9309C20.8097 108.583 20.5753 108.879 20.2652 109.077C19.9551 109.275 19.5872 109.364 19.2202 109.33C17.9015 109.33 17.3887 108.299 17.3887 107.304C17.3887 106.177 18.0041 105.212 19.2715 105.212C19.5088 105.201 19.7456 105.24 19.9666 105.326C20.1877 105.413 20.388 105.545 20.5545 105.713C20.721 105.881 20.8501 106.083 20.9332 106.304C21.0164 106.525 21.0518 106.762 21.0372 106.997C21.0428 107.104 21.0428 107.211 21.0372 107.318L17.8319 107.322ZM20.5829 106.957C20.598 106.777 20.5745 106.595 20.5142 106.425C20.4539 106.254 20.358 106.098 20.2329 105.966C20.1077 105.835 19.9561 105.731 19.7879 105.662C19.6197 105.593 19.4388 105.56 19.2569 105.565C18.3594 105.565 17.9528 106.134 17.8576 106.957H20.5829Z" fill="white"/>
<path d="M27.2173 106.377C27.2173 105.718 27.2173 105.434 27.2173 105.31H27.6422C27.6422 105.434 27.6422 105.674 27.6422 106.188C27.7727 105.897 27.9851 105.651 28.2536 105.478C28.5221 105.305 28.8353 105.214 29.1551 105.215V105.638C28.951 105.634 28.7483 105.672 28.5596 105.749C28.3709 105.827 28.2004 105.942 28.0584 106.088C27.9165 106.234 27.8063 106.408 27.7347 106.598C27.6631 106.788 27.6316 106.991 27.6422 107.194V109.238H27.2173V106.377Z" fill="white"/>
<path d="M34.3857 105.325H35.1916V104.097H35.6276V105.325H36.6606V105.689H35.6276V108.24C35.6276 108.681 35.7301 108.933 36.1477 108.933C36.2993 108.936 36.4507 108.92 36.5983 108.885V109.25C36.4238 109.302 36.2419 109.325 36.0598 109.319C35.503 109.319 35.1916 109.068 35.1916 108.441V105.689H34.3857V105.325Z" fill="white"/>
<path d="M45.4523 108.492C45.4504 108.736 45.47 108.98 45.5109 109.22H45.097C45.0429 109.023 45.0158 108.82 45.0164 108.615C44.8699 108.907 44.4889 109.315 43.5915 109.315C42.5841 109.315 42.1519 108.725 42.1519 108.138C42.1519 107.271 42.8845 106.877 44.1922 106.877H45.0164V106.48C45.0164 106.086 44.8882 105.558 43.8955 105.558C43.02 105.558 42.8882 105.977 42.7966 106.287H42.3643C42.4156 105.853 42.7306 105.193 43.9102 105.193C44.8992 105.193 45.456 105.558 45.456 106.436L45.4523 108.492ZM45.0274 107.234H44.1739C43.2105 107.234 42.6134 107.464 42.6134 108.138C42.6134 108.634 43.0017 108.973 43.6098 108.973C44.8516 108.973 45.0274 108.244 45.0274 107.376V107.234Z" fill="white"/>
<path d="M60.2294 106.669V109.221H59.7495V103.739H61.9474C63.1452 103.739 63.779 104.319 63.779 105.197C63.7829 105.514 63.6687 105.821 63.4584 106.06C63.248 106.298 62.9563 106.45 62.6397 106.487C63.2661 106.622 63.6837 106.99 63.6837 107.945V108.156C63.6459 108.53 63.6719 108.907 63.7607 109.272H63.2845C63.1885 108.897 63.1587 108.508 63.1965 108.124V107.981C63.1965 107.078 62.8998 106.702 61.7313 106.702L60.2294 106.669ZM60.2294 106.276H61.6946C62.7606 106.276 63.2551 105.911 63.2551 105.182C63.2551 104.454 62.768 104.118 61.8229 104.118H60.2257L60.2294 106.276Z" fill="white"/>
<path d="M73.3176 108.09C73.3176 108.477 73.3176 109.089 73.3176 109.238H72.9037C72.881 109.011 72.8724 108.782 72.878 108.553C72.6948 109.02 72.2516 109.333 71.4787 109.333C70.8523 109.333 70.0537 109.114 70.0537 107.912V105.324H70.4786V107.832C70.4786 108.404 70.6801 108.961 71.5373 108.961C72.5117 108.961 72.878 108.466 72.878 107.343V105.324H73.3103L73.3176 108.09Z" fill="white"/>
<path d="M79.6255 103.447H80.0578V104.209H79.6255V103.447ZM79.6255 105.31H80.0578V109.238H79.6255V105.31Z" fill="white"/>
<path d="M90.0034 103.447V108.109C90.0034 108.473 90.0034 108.837 90.0034 109.238H89.5895C89.5682 109.019 89.5584 108.799 89.5602 108.579C89.3441 109.056 88.8569 109.333 88.095 109.333C86.9667 109.333 86.2891 108.498 86.2891 107.321C86.2891 106.144 87.0217 105.215 88.2085 105.215C89.0767 105.215 89.4247 105.554 89.5529 105.805V103.447H90.0034ZM86.7652 107.307C86.7652 108.382 87.3806 108.965 88.1279 108.965C89.2745 108.965 89.5932 108.236 89.5932 107.179C89.5932 106.122 89.3258 105.583 88.2122 105.583C87.344 105.583 86.7652 106.206 86.7652 107.307Z" fill="white"/>
<path d="M100.004 107.267C100.004 108.36 99.3334 109.333 98.0404 109.333C96.8681 109.333 96.1392 108.462 96.1392 107.274C96.1392 106.151 96.8242 105.215 98.0843 105.215C99.2382 105.215 100.004 106.031 100.004 107.267ZM96.5971 107.267C96.5971 108.203 97.1539 108.958 98.0623 108.958C98.9708 108.958 99.5276 108.258 99.5276 107.267C99.5276 106.341 99.0074 105.576 98.0404 105.576C97.0733 105.576 96.5971 106.33 96.5971 107.274V107.267Z" fill="white"/>
</g>
<defs>
<clipPath id="clip0_389_1722">
<rect width="100" height="109.333" fill="white"/>
</clipPath>
</defs>
</svg>
