<svg xmlns="http://www.w3.org/2000/svg" viewBox="0 0 272.99 300"><defs><style>.cls-1{fill:#333;}</style></defs><g id="Capa_2" data-name="Capa 2"><g id="Capa_1-2" data-name="Capa 1"><path class="cls-1" d="M164.36,69.52c4.53-.71,6-4,5.13-8.1A36,36,0,0,1,169.88,47C173.7,28.19,189,14.5,208.55,12.61c17-1.64,35,9.56,41.89,26C258,56.73,253.53,76.23,238.11,88c-13.16,10.07-19.33,22.46-17.19,39.14,1.18,9.23-5.5,17.43-14.32,20.11s-22.33-2.45-24.68-15c-.82-4.35-4-6.09-8.22-5s-4.82,4.42-4.2,8.19c2.54,15.25,20.21,27.68,35.5,25,19.6-3.46,30.46-17.56,28.42-37.39-.87-8.44,1.93-15.16,7.91-20.79,2.22-2.09,4.68-3.94,7-6a55.28,55.28,0,0,0,14.85-60.71A54.32,54.32,0,0,0,211.83,0c-32.19-1.23-60.49,28.41-54.94,63.45C157.58,67.83,159.91,70.22,164.36,69.52Z"/><path class="cls-1" d="M42.36,106.29c9.61-1.25,21.08,5,28.2-6.73.09-.15.73,0,1.21.06,1.81,4.47,3.65,9,5.43,13.47.77,2,1.53,4.13,4,3.93,2-.16,2.74-2,3.31-3.9a85.39,85.39,0,0,1,3.86-10.9c1.17-2.52.52-6.22,4.49-7.62l3.87,18Q99,123.32,101.38,134c.36,1.64.83,3.16,3.07,3.05,2.08-.1,2.76-1.37,3.11-3.11.21-1,.58-2,.72-3,1.85-13.45,3.49-26.93,5.66-40.33.52-3.2-.12-7.13,3.19-10.26,2.75,12.27,5.36,23.9,8,35.52.41,1.82.83,3.72,3.16,3.91,2.6.22,3.32-1.68,4.12-3.68,2.42-6,5-11.9,7.75-18.45,3.7,5.54,4.62,11.47,7,16.75.9,2,.94,4.77,3.78,5s3.75-2.2,4.61-4.23c2.74-6.46,6.9-10.26,14.52-8.9,2.11.38,4.8.3,4.78-3.1,0-3.11-2.24-3.51-4.65-3.53-6.94,0-14.42-1.66-18.32,8.37-2.84-7.77-4.94-13.66-7.15-19.51-.78-2-1.43-4.77-4.09-4.75s-3.26,2.76-4.17,4.73c-2.24,4.82-3.35,10.19-7.26,15.42-3.39-15.33-6.5-29.67-9.77-44-.53-2.35-.06-6-4-5.81-3.65.17-3.37,3.69-3.74,6-1.43,9-2.3,18.11-3.83,27.09-1.31,7.7-1.51,15.64-4.53,24.92-2.5-11.7-4.64-21.57-6.7-31.45-.47-2.24-.63-4.7-3.58-4.89s-3.39,2.31-4.14,4.43c-2.55,7.15-5.16,14.28-8.33,23-1.72-4.44-2.57-7.3-3.93-9.9-1.16-2.21-1.39-5.68-4.58-5.91C69.3,87.27,68,90,67,92.14c-3.21,6.23-8.15,8.47-15,7.55a45.35,45.35,0,0,0-9.17.06c-1.93.14-3.56,1.07-3.48,3.44C39.38,105.13,40.56,106.53,42.36,106.29Z"/><path class="cls-1" d="M185.35,97.28c3.51,1.77,7.11,1.34,9.52-2.62a23.11,23.11,0,0,0,3.46-10.85c.59-9.07-2.15-17.74-2.7-26.65s3.08-14.55,10.51-17.34a16.19,16.19,0,0,1,17.8,4.54c5.12,5.87,5.55,12.78.92,20.2-2.44,3.92-3.47,7.94.89,10.62s7.75,0,10.15-3.84c5.88-9.35,6.66-19.09,1.68-29-5.33-10.6-14.27-15.75-23.85-16.25C192.45,26,178.55,43.79,182.94,63c2,8.63,3.56,17-.85,25.5C180.21,92.06,182,95.59,185.35,97.28Z"/><path class="cls-1" d="M0,245.19V190.72c0-2,.55-3.36,1.65-4.19s2.86-1.24,5.3-1.24,4.1.42,5.17,1.24,1.6,2.23,1.6,4.19v21.9H27.07v-21.9c0-2,.55-3.36,1.65-4.19s2.87-1.24,5.31-1.24,4.1.42,5.16,1.24,1.61,2.23,1.61,4.19v54.47c0,2-.54,3.36-1.61,4.19s-2.78,1.24-5.16,1.24-4.29-.42-5.35-1.24-1.61-2.23-1.61-4.19v-21.9H13.72v21.9c0,2-.53,3.36-1.6,4.19S9.33,250.62,7,250.62s-4.28-.42-5.35-1.24S0,247.15,0,245.19Z"/><path class="cls-1" d="M68.88,251.45q-10.93,0-15.26-5.57T49.3,227.52v-36.8c0-2,.52-3.36,1.57-4.19s2.74-1.24,5.07-1.24,3.92.42,4.94,1.24,1.53,2.23,1.53,4.19v38.46q0,7.27,1.53,9.84a5.3,5.3,0,0,0,4.94,2.58A5.31,5.31,0,0,0,73.82,239q1.53-2.57,1.53-9.84V190.72c0-2,.52-3.36,1.57-4.19s2.74-1.24,5.07-1.24,3.92.42,4.94,1.24,1.53,2.23,1.53,4.19V228q0,12.33-4.94,17.9T68.88,251.45Z"/><path class="cls-1" d="M116.85,250.16H104.56c-2.38,0-4.08-.42-5.1-1.24s-1.52-2.23-1.52-4.19V191.18c0-2,.5-3.43,1.52-4.23s2.72-1.2,5.1-1.2h13.51q8.81,0,13.12,3.91t4.32,12.19q0,11.6-7.59,14.63a.68.68,0,0,0-.52.65.54.54,0,0,0,.52.55,9.51,9.51,0,0,1,6.46,4.92,18.94,18.94,0,0,1,2,8.88q0,9.93-4.49,14.31T116.85,250.16ZM110.66,195v18.59h6.46q6.27,0,6.27-9.94,0-4.69-1.39-6.67c-.93-1.32-2.74-2-5.41-2Zm0,26.59v19.14h6.28q3.93,0,5.62-2.21c1.14-1.47,1.7-4,1.7-7.54s-.55-5.86-1.65-7.27a6.15,6.15,0,0,0-5.15-2.12Z"/><path class="cls-1" d="M163.51,250.16H151.19c-2.39,0-4.1-.42-5.11-1.24s-1.53-2.23-1.53-4.19V191.18q0-3,1.53-4.23c1-.8,2.72-1.2,5.11-1.2h13.55q8.82,0,13.15,3.91t4.33,12.19q0,11.6-7.61,14.63a.67.67,0,0,0-.52.65c0,.3.17.49.52.55a9.5,9.5,0,0,1,6.47,4.92,18.82,18.82,0,0,1,2,8.88q0,9.93-4.5,14.31T163.51,250.16ZM157.31,195v18.59h6.47q6.28,0,6.29-9.94,0-4.69-1.4-6.67t-5.42-2Zm0,26.59v19.14h6.29q3.93,0,5.64-2.21c1.14-1.47,1.7-4,1.7-7.54s-.55-5.86-1.66-7.27a6.15,6.15,0,0,0-5.15-2.12Z"/><path class="cls-1" d="M208.05,251.45q-10.94,0-15.26-5.57t-4.32-18.36v-36.8c0-2,.52-3.36,1.57-4.19s2.74-1.24,5.07-1.24,3.92.42,4.94,1.24,1.53,2.23,1.53,4.19v38.46q0,7.27,1.53,9.84a6,6,0,0,0,9.88,0q1.53-2.57,1.53-9.84V190.72c0-2,.52-3.36,1.57-4.19s2.74-1.24,5.07-1.24,3.92.42,4.94,1.24,1.53,2.23,1.53,4.19V228q0,12.33-4.94,17.9T208.05,251.45Z"/><path class="cls-1" d="M253.41,250.16H241.09c-2.39,0-4.1-.42-5.12-1.24s-1.52-2.23-1.52-4.19V191.18c0-2,.5-3.43,1.52-4.23s2.73-1.2,5.12-1.2h13.55q8.82,0,13.15,3.91t4.33,12.19q0,11.6-7.61,14.63a.67.67,0,0,0-.52.65c0,.3.17.49.52.55A9.52,9.52,0,0,1,271,222.6a18.82,18.82,0,0,1,2,8.88q0,9.93-4.5,14.31T253.41,250.16ZM247.21,195v18.59h6.46q6.3,0,6.3-9.94,0-4.69-1.4-6.67t-5.42-2Zm0,26.59v19.14h6.29q3.93,0,5.64-2.21t1.7-7.54q0-5.16-1.66-7.27a6.17,6.17,0,0,0-5.16-2.12Z"/><path class="cls-1" d="M3.41,294.52,1.3,299.74H0l6.09-15.09H7.61L14,299.74H12.57l-2.16-5.22ZM10,293.44c-1.85-4.48-2.8-6.64-3.13-7.65h0c-.41,1.14-1.47,3.82-3,7.65Z"/><path class="cls-1" d="M30,299.74V283.85h1.19v15.89Z"/><path class="cls-1" d="M48.67,294.48c0,2.78,1.57,4.51,3.85,4.51a3.35,3.35,0,0,0,3.41-2h1.21a4.51,4.51,0,0,1-4.67,3c-3.61,0-5-2.83-5-5.56,0-3.09,1.68-5.74,5.14-5.74a4.62,4.62,0,0,1,4.81,4.9c0,.3,0,.6,0,.88Zm7.52-1a3.54,3.54,0,0,0-3.63-3.82c-2.44,0-3.55,1.56-3.81,3.82Z"/><path class="cls-1" d="M74.3,291.89c0-1.81,0-2.59,0-2.93h1.16c0,.34,0,1,0,2.41a4.51,4.51,0,0,1,4.13-2.67v1.16a4.06,4.06,0,0,0-4.13,4.27v5.61H74.3Z"/><path class="cls-1" d="M93.86,289h2.21v-3.37h1.18V289h2.82v1H97.25v7c0,1.21.29,1.9,1.42,1.9a4.85,4.85,0,0,0,1.24-.13v.95a4.59,4.59,0,0,1-1.47.19c-1.52,0-2.37-.69-2.37-2.41V290H93.86Z"/><path class="cls-1" d="M124.07,297.69a11.2,11.2,0,0,0,.17,2.05H123.1a6.91,6.91,0,0,1-.21-1.66c-.4.8-1.45,1.92-3.89,1.92-2.75,0-3.94-1.62-3.94-3.23,0-2.38,2-3.46,5.58-3.46h2.25v-1.09c0-1.08-.36-2.53-3.06-2.53-2.39,0-2.75,1.15-3,2h-1.19c.15-1.19,1-3,4.22-3,2.71,0,4.22,1,4.22,3.41Zm-1.16-3.45h-2.32c-2.63,0-4.27.63-4.27,2.48,0,1.36,1.07,2.29,2.73,2.29,3.39,0,3.86-2.05,3.86-4.38Z"/><path class="cls-1" d="M164.41,292.69v7.05h-1.3V284.65h5.95c3.27,0,5,1.59,5,4a3.51,3.51,0,0,1-3.1,3.54c1.71.37,2.84,1.38,2.84,4v.58a9.08,9.08,0,0,0,.22,3.06h-1.31a9.19,9.19,0,0,1-.23-3.15v-.39c0-2.48-.81-3.51-4-3.51Zm0-1.08h4c2.92,0,4.27-1,4.27-3s-1.33-2.92-3.91-2.92h-4.37Z"/><path class="cls-1" d="M200.15,296.59c0,1.06,0,2.74,0,3.15H199a17.73,17.73,0,0,1-.07-1.88c-.5,1.28-1.71,2.14-3.82,2.14-1.7,0-3.88-.6-3.88-3.9V289h1.16v6.88c0,1.57.54,3.1,2.89,3.1,2.65,0,3.65-1.36,3.65-4.44V289h1.19Z"/><path class="cls-1" d="M217.36,283.85h1.19v2.09h-1.19Zm0,5.11h1.19v10.78h-1.19Z"/><path class="cls-1" d="M245.7,283.85v12.79c0,1,0,2,0,3.1h-1.14a17.77,17.77,0,0,1-.07-1.81c-.59,1.31-1.92,2.07-4,2.07-3.09,0-4.93-2.29-4.93-5.52s2-5.78,5.24-5.78c2.37,0,3.31.93,3.67,1.62v-6.47Zm-8.85,10.59c0,2.95,1.69,4.55,3.72,4.55,3.13,0,4-2,4-4.9,0-2.78-.74-4.38-3.77-4.38C238.44,289.71,236.85,291.42,236.85,294.44Z"/><path class="cls-1" d="M273,294.33c0,3-1.82,5.67-5.36,5.67-3.2,0-5.19-2.39-5.19-5.65,0-3.08,1.87-5.65,5.31-5.65C270.91,288.7,273,290.94,273,294.33Zm-9.29,0c0,2.57,1.52,4.64,4,4.64s4-1.92,4-4.64c0-2.54-1.43-4.64-4.06-4.64S263.7,291.76,263.7,294.35Z"/></g></g></svg>