<svg id="Capa_1" data-name="Capa 1" xmlns="http://www.w3.org/2000/svg" viewBox="0 0 227.17 160.9"><defs><style>.cls-1{fill:#fff102;}</style></defs><path class="cls-1" d="M125,69.6c4.5-.7,6-4,5.1-8.1a36.72,36.72,0,0,1,.4-14.4c3.8-18.8,19.1-32.5,38.7-34.4,17-1.6,35,9.6,41.9,26,7.6,18.1,3.1,37.6-12.3,49.4-13.2,10.1-19.3,22.5-17.2,39.1,1.2,9.2-5.5,17.4-14.3,20.1s-22.3-2.4-24.7-15c-.8-4.3-4-6.1-8.2-5s-4.8,4.4-4.2,8.2c2.5,15.2,20.2,27.7,35.5,25,19.6-3.5,30.5-17.6,28.4-37.4-.9-8.4,1.9-15.2,7.9-20.8,2.2-2.1,4.7-3.9,7-6a55.38,55.38,0,0,0,14.9-60.7A54.58,54.58,0,0,0,172.5,0C140.3-1.2,112,28.4,117.6,63.5,118.2,67.9,120.6,70.3,125,69.6Z" transform="translate(-0.25 0.04)"/><path class="cls-1" d="M3,106.3c9.6-1.2,21.1,5,28.2-6.7.1-.2.7,0,1.2.1,1.8,4.5,3.7,9,5.4,13.5.8,2,1.5,4.1,4,3.9,2-.2,2.7-2,3.3-3.9A70.77,70.77,0,0,1,49,102.3c1.2-2.5.5-6.2,4.5-7.6l3.9,18c1.5,7.1,3.1,14.3,4.7,21.4.4,1.6.8,3.2,3.1,3.1,2.1-.1,2.8-1.4,3.1-3.1.2-1,.6-2,.7-3,1.8-13.4,3.5-26.9,5.7-40.3.5-3.2-.1-7.1,3.2-10.3,2.8,12.3,5.4,23.9,8,35.5.4,1.8.8,3.7,3.2,3.9,2.6.2,3.3-1.7,4.1-3.7,2.4-6,5-11.9,7.8-18.5,3.7,5.5,4.6,11.5,7,16.8.9,2,.9,4.8,3.8,5s3.8-2.2,4.6-4.2c2.7-6.5,6.9-10.3,14.5-8.9,2.1.4,4.8.3,4.8-3.1,0-3.1-2.2-3.5-4.6-3.5-6.9,0-14.4-1.7-18.3,8.4-2.8-7.8-4.9-13.7-7.1-19.5-.8-2-1.4-4.8-4.1-4.8s-3.3,2.8-4.2,4.7C95.2,93.4,94,98.8,90.1,104c-3.4-15.3-6.5-29.7-9.8-44-.5-2.3-.1-6-4-5.8-3.7.2-3.4,3.7-3.7,6-1.4,9-2.3,18.1-3.8,27.1-1.3,7.7-1.5,15.6-4.5,24.9-2.5-11.7-4.6-21.6-6.7-31.4-.5-2.2-.6-4.7-3.6-4.9s-3.4,2.3-4.1,4.4c-2.6,7.2-5.2,14.3-8.3,23-1.7-4.4-2.6-7.3-3.9-9.9-1.2-2.2-1.4-5.7-4.6-5.9-2.8-.1-4.1,2.6-5.1,4.8-3.2,6.2-8.2,8.5-15,7.6a40.44,40.44,0,0,0-9.2.1c-1.9.1-3.6,1.1-3.5,3.4A2.32,2.32,0,0,0,3,106.3Z" transform="translate(-0.25 0.04)"/><path class="cls-1" d="M146,97.3c3.5,1.8,7.1,1.3,9.5-2.6A24.59,24.59,0,0,0,159,83.9c.6-9.1-2.1-17.7-2.7-26.6s3.1-14.5,10.5-17.3a16.31,16.31,0,0,1,17.8,4.5c5.1,5.9,5.6,12.8.9,20.2-2.4,3.9-3.5,7.9.9,10.6s7.8,0,10.1-3.8c5.9-9.3,6.7-19.1,1.7-29-5.3-10.6-14.3-15.8-23.9-16.2C153.1,26,139.2,43.8,143.6,63c2,8.6,3.6,17-.9,25.5C140.9,92.1,142.7,95.6,146,97.3Z" transform="translate(-0.25 0.04)"/></svg>