<?xml version="1.0" encoding="utf-8"?>
<!-- Generator: Adobe Illustrator 26.0.1, SVG Export Plug-In . SVG Version: 6.00 Build 0)  -->
<svg version="1.1" id="Capa_1" xmlns="http://www.w3.org/2000/svg" xmlns:xlink="http://www.w3.org/1999/xlink" x="0px" y="0px"
	 viewBox="0 0 227.4 160.8" style="enable-background:new 0 0 227.4 160.8;" xml:space="preserve">
<style type="text/css">
	.st0{fill:#FFF102;}
</style>
<g>
	<path class="st0" d="M125,69.6c4.5-0.7,6-4,5.1-8.1c-0.8-4.8-0.7-9.7,0.4-14.4c3.8-18.8,19.1-32.5,38.7-34.4c17-1.6,35,9.6,41.9,26
		c7.6,18.1,3.1,37.6-12.3,49.4c-13.2,10.1-19.3,22.5-17.2,39.1c1.2,9.2-5.5,17.4-14.3,20.1s-22.3-2.4-24.7-15c-0.8-4.3-4-6.1-8.2-5
		s-4.8,4.4-4.2,8.2c2.5,15.2,20.2,27.7,35.5,25c19.6-3.5,30.5-17.6,28.4-37.4c-0.9-8.4,1.9-15.2,7.9-20.8c2.2-2.1,4.7-3.9,7-6
		c17-15.2,22.9-39.3,14.9-60.7C215.9,14.1,195.4-0.1,172.5,0c-32.2-1.2-60.5,28.4-54.9,63.5C118.2,67.9,120.6,70.3,125,69.6z"/>
	<path class="st0" d="M3,106.3c9.6-1.2,21.1,5,28.2-6.7c0.1-0.2,0.7,0,1.2,0.1c1.8,4.5,3.7,9,5.4,13.5c0.8,2,1.5,4.1,4,3.9
		c2-0.2,2.7-2,3.3-3.9c1-3.7,2.3-7.4,3.9-10.9c1.2-2.5,0.5-6.2,4.5-7.6l3.9,18c1.5,7.1,3.1,14.3,4.7,21.4c0.4,1.6,0.8,3.2,3.1,3.1
		c2.1-0.1,2.8-1.4,3.1-3.1c0.2-1,0.6-2,0.7-3c1.8-13.4,3.5-26.9,5.7-40.3c0.5-3.2-0.1-7.1,3.2-10.3c2.8,12.3,5.4,23.9,8,35.5
		c0.4,1.8,0.8,3.7,3.2,3.9c2.6,0.2,3.3-1.7,4.1-3.7c2.4-6,5-11.9,7.8-18.5c3.7,5.5,4.6,11.5,7,16.8c0.9,2,0.9,4.8,3.8,5
		s3.8-2.2,4.6-4.2c2.7-6.5,6.9-10.3,14.5-8.9c2.1,0.4,4.8,0.3,4.8-3.1c0-3.1-2.2-3.5-4.6-3.5c-6.9,0-14.4-1.7-18.3,8.4
		c-2.8-7.8-4.9-13.7-7.1-19.5c-0.8-2-1.4-4.8-4.1-4.8s-3.3,2.8-4.2,4.7c-2.2,4.8-3.4,10.2-7.3,15.4c-3.4-15.3-6.5-29.7-9.8-44
		c-0.5-2.3-0.1-6-4-5.8c-3.7,0.2-3.4,3.7-3.7,6c-1.4,9-2.3,18.1-3.8,27.1c-1.3,7.7-1.5,15.6-4.5,24.9c-2.5-11.7-4.6-21.6-6.7-31.4
		c-0.5-2.2-0.6-4.7-3.6-4.9s-3.4,2.3-4.1,4.4c-2.6,7.2-5.2,14.3-8.3,23c-1.7-4.4-2.6-7.3-3.9-9.9c-1.2-2.2-1.4-5.7-4.6-5.9
		c-2.8-0.1-4.1,2.6-5.1,4.8c-3.2,6.2-8.2,8.5-15,7.6c-3.1-0.3-6.1-0.3-9.2,0.1c-1.9,0.1-3.6,1.1-3.5,3.4C0,105.2,1.2,106.6,3,106.3z
		"/>
	<path class="st0" d="M146,97.3c3.5,1.8,7.1,1.3,9.5-2.6c2-3.3,3.2-7,3.5-10.8c0.6-9.1-2.1-17.7-2.7-26.6s3.1-14.5,10.5-17.3
		c6.3-2.3,13.4-0.5,17.8,4.5c5.1,5.9,5.6,12.8,0.9,20.2c-2.4,3.9-3.5,7.9,0.9,10.6s7.8,0,10.1-3.8c5.9-9.3,6.7-19.1,1.7-29
		c-5.3-10.6-14.3-15.8-23.9-16.2C153.1,26,139.2,43.8,143.6,63c2,8.6,3.6,17-0.9,25.5C140.9,92.1,142.7,95.6,146,97.3z"/>
</g>
</svg>
