<svg width="20" height="20" viewBox="0 0 20 20" fill="none" xmlns="http://www.w3.org/2000/svg">
<path d="M10.0215 0.3125C4.55156 0.3125 0.3125 4.31016 0.3125 9.70977C0.3125 12.534 1.47305 14.9746 3.36211 16.6605C3.68828 16.9539 3.62109 17.1238 3.67656 18.9352C3.68093 19.062 3.71627 19.1859 3.77951 19.296C3.84275 19.4061 3.93196 19.499 4.03936 19.5667C4.14676 19.6344 4.2691 19.6748 4.39569 19.6843C4.52228 19.6939 4.64928 19.6723 4.76562 19.6215C6.83242 18.7113 6.85898 18.6395 7.20937 18.7348C13.1973 20.3828 19.6875 16.5508 19.6875 9.70977C19.6875 4.31016 15.4918 0.3125 10.0215 0.3125ZM15.8512 7.54414L12.9996 12.0586C12.8919 12.2284 12.7503 12.374 12.5837 12.4865C12.4171 12.599 12.2291 12.6759 12.0314 12.7123C11.8337 12.7487 11.6306 12.7439 11.4348 12.6981C11.2391 12.6524 11.0548 12.5667 10.8938 12.4465L8.625 10.7484C8.52358 10.6724 8.40022 10.6313 8.27344 10.6313C8.14666 10.6313 8.0233 10.6724 7.92188 10.7484L4.86055 13.0703C4.45195 13.3801 3.9168 12.8906 4.19219 12.4582L7.04375 7.94375C7.15139 7.77395 7.29296 7.62822 7.45957 7.5157C7.62618 7.40318 7.81424 7.3263 8.01196 7.28988C8.20968 7.25346 8.4128 7.25829 8.60856 7.30406C8.80433 7.34983 8.98853 7.43555 9.14961 7.55586L11.4176 9.25352C11.519 9.32958 11.6424 9.3707 11.7691 9.3707C11.8959 9.3707 12.0193 9.32958 12.1207 9.25352L15.1836 6.93398C15.5914 6.62227 16.1266 7.11133 15.8512 7.54414Z" fill="#333333"/>
</svg>
