<svg width="552" height="441" viewBox="0 0 552 441" fill="none" xmlns="http://www.w3.org/2000/svg">
<path d="M347.116 261.489C339.032 250.765 327.23 248.713 314.911 246.758C294.918 243.59 276.019 247.909 257.013 252.91C249.417 254.904 242.657 257.204 235.921 262.201C220.779 273.412 207.028 286.086 193.038 298.579C179.85 310.346 175.942 325.916 174.994 342.747C174.14 358.068 173.285 373.374 175.268 389.83C171.942 387.461 172.137 385.048 172.122 382.908C172 366.423 171.023 349.869 172.826 333.471C174.047 322.343 178.848 312.267 185.501 303C189.072 298.033 193.981 294.29 196.736 288.377C198.431 284.731 204.801 284.355 208.362 280.919C216.719 272.852 226.831 266.968 236.048 259.958C238.754 257.906 239.912 256.478 236.282 253.904C232.331 251.106 233.264 246.568 234.075 242.522C212.308 249.971 192.613 261.109 171.951 270.127C159.07 275.732 153.722 273.198 150.195 259.549C146.746 246.193 146.849 232.642 149.746 219.203C151.392 211.554 155.851 206.041 163.423 203.019C170.427 200.216 177.476 197.272 183.938 193.441C191.685 188.854 201.035 188.825 209.954 183C206.427 183.17 204.244 183.18 202.085 183.404C193.136 184.325 184.178 185.042 175.17 184.676C173.309 184.603 171.463 184.784 170.11 186.08C166.598 189.444 166.163 186.187 164.785 183.887C166.896 183.463 169.035 185.607 170.544 182.614C165.274 180.977 160.135 179.076 155.465 176.083C150.385 172.831 147.694 167.83 144.338 163.087C138.858 155.356 140.831 146.684 139.629 138.466C137.754 125.67 138.267 112.441 134.613 100.03C132.517 92.8989 130.495 85.6407 128.991 78.4849C124.282 56.0621 118.205 33.6735 120.437 10.3391C120.623 8.43319 120.437 6.3469 122.977 4.65544C119.07 35.8182 129.093 64.5438 135.883 93.7178C139.654 109.911 139.737 126.533 142.492 142.833C143.054 146.173 143.371 149.56 144.021 152.89C147.328 169.833 160.702 180.991 178.13 181.776C201.704 182.834 224.73 179.407 247.61 174.138C255.914 172.227 264.423 171.159 272.981 169.682C264.965 156.209 265.62 149.78 276.708 138.242C278.662 136.19 276.903 134.703 277.304 132.977C277.578 131.798 275.917 132.08 274.989 132.387C273.948 132.733 273.093 133.143 274.359 134.337C276.361 136.228 275.56 137.881 273.738 139.319C272.366 140.406 270.807 140.781 269.342 139.655C267.071 137.949 268.258 135.79 268.961 133.392C256.674 135.048 244.509 137.509 232.546 140.757C205.152 148.225 181.286 139.962 164.277 117.276C147.513 94.9121 139.522 69.2575 136.073 41.9699C134.72 31.2996 133.87 20.561 132.937 9.8468C132.708 7.23406 131.858 4.43608 133.861 1.30664C136.147 3.89014 135.292 6.54675 135.399 8.89627C136.659 37.1051 139.844 64.9533 151.519 91.1051C158.499 106.747 167.379 121.205 181.804 131.286C195.691 141.006 211.249 143.75 227.524 139.597C247.249 134.561 266.787 128.766 286.321 123.023C297.971 119.587 306.602 112.558 311.941 101.239C316.797 90.9442 325.13 83.7299 335.774 79.5476C342.529 76.891 347.687 72.6355 351.854 66.6837C366.908 45.1627 402.537 47.6731 411.32 72.9182C411.906 74.6097 413.02 76.189 413.274 77.9146C415.023 89.1748 422.301 94.0688 432.91 95.2972C433.504 95.3798 434.092 95.5036 434.669 95.6676C446.69 98.8458 446.602 98.8458 446.573 111.266C446.573 118.09 447.906 124.725 449.748 131.286C450.647 134.488 452.224 135.4 455.468 134.308C465.305 131.008 475.28 128.103 485.064 124.647C488.635 123.384 491.355 123.228 493.089 126.874C494.824 130.52 492.914 132.924 489.67 134.542C480.844 138.929 471.284 141.201 461.974 144.174C457.661 145.553 457.5 146.952 460.699 149.95C464.607 153.601 468.935 156.482 474.078 157.574C481.239 159.09 485.728 163.423 488.62 169.721C490.085 172.978 491.771 176.268 492.528 179.719C495.4 192.529 505.184 200.679 512.76 210.311C514.225 212.183 516.428 211.618 518.353 211.73C522.974 212.003 525.192 214.484 525.494 218.944C525.548 219.739 525.577 220.538 525.577 221.338C525.509 238.164 520.986 242.43 504.187 241.523C502.619 241.44 501.051 241.323 498.814 241.177C501.472 246.758 506.092 250.629 507.358 256.371C506.576 256.429 505.965 256.576 505.892 256.459C501.413 246.924 492.831 241.221 485.523 234.236C477.796 226.856 477.796 216.38 484.663 210.35C485.753 209.4 487.912 205.793 488.64 210.882C488.688 211.228 490.784 211.428 491.937 211.442C496.333 211.515 500.729 211.564 505.125 211.442C506.591 211.403 508.711 212.383 509.395 210.467C509.986 208.83 508.315 207.436 507.157 206.529C496.68 198.32 492.303 186.582 488.185 174.63C486.754 170.472 484.712 166.558 481.645 163.292C480.692 162.278 479.657 161.079 478.094 161.503C476.355 161.99 476.565 163.599 476.501 164.974C475.27 192.705 474.962 220.421 476.447 248.167C477.371 265.35 489.094 272.135 502.693 277.736C504.793 278.599 507.504 278.438 509.106 281.211C506.176 282.449 503.992 280.636 501.862 279.72C487.638 273.597 475.055 264.662 462.213 256.225C433.985 237.701 407.417 216.492 376.18 202.775C376.38 202.459 376.585 202.142 376.79 201.83C376.004 191.14 362.903 179.802 352.469 180.124C344.766 180.358 337.044 179.777 329.878 183.107C330.532 184.277 332.921 183.594 333.351 185.544L329.673 186.743C327.719 183.414 324.383 183.56 321.276 182.956C321.139 192.441 324.382 200.645 328.222 208.43C330.581 213.222 328.412 220.304 335.09 222.863C341.171 225.188 346.324 221.279 351.698 219.695C365.829 215.537 377.796 219.061 386.379 230.565C386.179 231.35 385.983 232.135 385.783 232.919C373.298 223.687 360.031 219.783 345.064 226.797C335.09 231.472 324.959 231.009 314.779 227.363C305.964 224.136 296.89 221.663 287.655 219.973C268.521 216.595 251.948 220.811 239.516 236.751C237.368 239.408 236.165 242.702 236.097 246.115C235.955 252.257 238.148 254.285 244.103 253.046C251.518 251.511 259.05 250.258 266.245 247.972C284.216 242.254 302.314 242.02 320.69 245.252C331.69 247.202 342.407 249.425 348.176 260.597L347.116 261.489ZM401.336 61.7166C391.605 55.4821 391.605 55.4821 387.243 60.844C386.013 60.3566 383.692 60.3176 384.313 58.6164C386.555 52.2795 381.035 54.3414 379.223 54.4535C369.268 55.0677 360.246 58.5091 354.477 66.9859C349.431 74.3952 343.057 79.2649 334.777 82.6429C324.617 86.7814 317.422 94.5465 312.796 104.52C312.102 106.016 309.616 108.244 312.498 109.419C314.618 110.291 317.647 110.764 319.337 107.717C325.301 97.1056 334.513 91.3342 346.354 88.8335C349.285 88.2193 354.707 86.9179 351.053 81.1513C350.564 80.3665 351.375 78.4459 351.947 78.714C357.09 81.2439 357.247 74.3952 360.822 74.1953C361.228 75.4968 362.117 76.8617 361.955 78.095C361.12 84.5732 353.52 92.9135 346.759 94.0639C338.201 95.5263 331.402 100.328 324.397 104.734C322.355 106.021 319.962 108.8 322.072 111.256C324.27 113.815 327.098 112.49 329.238 110.121C339.872 98.3535 344.815 97.1543 358.903 103.428C362.029 104.822 362.932 104.403 363.396 101.034C364.329 94.3417 365.546 87.6539 367.954 81.317C370.054 75.8039 373.85 71.6898 380.102 71.1049C386.564 70.5053 390.516 74.405 393.291 79.6207C395.884 84.4416 396.71 89.7451 397.233 95.146C397.394 96.8521 396.212 100.108 399.186 99.7622C401.966 99.4405 400.163 96.4817 400.237 94.6878C400.681 86.4548 396.187 79.4988 394.224 71.8848L396.021 70.052C398.854 71.8897 400.124 74.868 401.516 77.7196C403.553 81.8922 404.247 86.445 404.936 90.9735C405.493 94.5465 407.691 94.3856 410.201 93.3084C412.116 92.5041 416.703 93.1914 415.365 90.4129C411.33 82.0336 410.739 72.0457 403.705 65.0897L401.336 61.7166ZM442.235 157.34C445.254 157.759 445.269 160.679 446.568 162.531C447.335 163.628 447.325 165.139 448.741 165.944C455.927 169.97 467.87 167.279 473.653 159.953C467.587 158.115 462.096 155.293 458.188 150.447C455.629 147.274 453.079 146.792 449.396 147.918C445.801 149.019 441.942 150.984 438.464 147.43C435.568 138.861 435.568 138.861 444.243 136.487C444.434 136.426 444.63 136.382 444.829 136.355C447.638 136.102 448.629 135.029 447.491 132.046C445.537 126.894 444.966 121.376 444.125 114.985C441.195 119.582 438.156 122.785 433.584 124.247C427.234 126.25 423.444 131.783 418.315 135.458C412.707 139.499 421.29 141.683 419.453 145.29C419.028 146.124 420.322 146.826 421.407 146.987C424.416 147.425 427.391 145.222 430.531 146.987C431.02 147.25 431.953 143.511 433.887 144.895C435.822 146.28 432.568 147.888 433.198 149.648C432.07 149.921 430.922 150.496 429.823 150.413C421.719 149.819 421.71 149.78 424.592 157.676C424.811 158.276 424.968 158.69 424.43 159.207C421.221 162.317 424.396 164.203 426.145 165.714C429.857 168.927 434.693 169.98 439.397 170.433C443.793 170.857 445.713 167.63 444.252 163.423C443.574 161.41 441.874 159.719 442.255 157.34H442.235ZM352.411 146.036C356.607 148.161 360.607 147.718 365.223 145.032C361.252 143.082 358.033 139.343 355.088 145.495C354.838 146.021 353.285 145.924 352.342 146.114C353.598 140.659 349.866 139.134 345.856 137.34C340.116 134.791 339.637 129.867 341.156 124.076C322.106 126.348 303.247 128.58 284.401 130.852C281.817 131.164 280.87 132.553 281.959 135.068C294.757 131.12 295.504 131.091 311.125 133.82L314.437 135.834C321.378 137.593 325.833 143.74 333.146 146.894C329.526 139.997 325.061 134.444 326.468 127.113C327.934 129.487 328.696 132.075 329.599 134.62C330.366 136.779 330.825 139.87 333.458 139.88C335.603 139.88 337.215 137.593 337.366 134.586C342.583 138.983 346.613 143.711 352.43 146.036H352.411ZM400.544 207.109L400.466 207.016C402.215 212.178 405.815 215.751 410.387 218.486C422.017 225.442 433.018 233.329 444.14 241.04C445.503 241.986 446.582 243.712 449.469 242.81C449.469 237.828 449.347 232.695 449.469 227.572C449.958 210.292 450.793 193.031 452.224 175.8C452.757 169.4 451.57 168.381 446.118 169.95C435.343 176.736 421.324 169.868 419.81 157.155C419.551 155.005 420.786 151.676 417.856 151.028C415.457 150.486 412.888 152.066 411.173 154.279C410.324 155.366 409.22 156.253 408.433 157.389C405.859 161.176 404.286 159.709 402.572 156.585C400.798 153.362 401.028 149.682 399.777 146.246C397.701 146.811 395.635 148.166 393.608 146.304L392.949 145.631C390.506 142.677 392.69 140.757 394.492 138.783L394.375 138.846C396.295 137.769 397.946 140.518 399.719 139.48C401.497 135.512 397.907 131.91 399.636 126.543C404.227 136.779 402.357 146.792 406.435 155.38C407.041 155.064 407.779 154.225 408.389 152.875C411.364 146.09 413.533 138.598 417.983 132.914C421.954 127.844 427.42 123.36 434.483 121.585C439.29 120.377 444.741 110.252 444.575 105.012C444.492 102.692 443.759 101.6 441.307 102.355C432.92 104.934 424.577 107.654 416.122 109.984C413.152 110.803 414.065 112.104 414.856 113.757L414.959 113.65C413.982 115.141 413.166 117.116 410.954 116.574C408.414 115.926 410.299 113.464 409.488 111.978C403.465 113.294 397.452 114.591 391.449 115.921C389.73 116.301 387.341 115.994 388.85 119.251C389.515 120.689 388.616 122.541 386.75 122.965C384.65 123.452 383.966 121.941 383.756 120.196C383.643 119.28 384.078 118.246 382.745 117.759C380.2 116.784 369.385 120.684 368.418 123.121C367.851 124.554 367.177 125.661 365.585 125.743C363.792 125.846 363.142 124.671 363.142 123.082C363.142 121.264 362.092 121.317 360.754 121.527C355.727 122.321 350.691 123.058 345.567 123.828C346.476 126.791 348.298 126.523 350.398 126.699C355.527 127.123 360.627 126.021 365.824 127.503C373.112 129.58 363.523 134.498 367.778 136.999C368.457 137.394 367.246 139.143 366.161 139.763C365.077 140.382 363.65 139.792 363.812 138.944C364.486 135.375 360.759 135.697 359.489 134.21C359.938 132.919 360.661 132.607 361.486 132.748C362.996 133.002 364.793 132.894 364.842 131.286C364.911 128.907 362.551 129.648 361.179 129.56C358.37 129.375 355.542 129.507 352.948 129.507C353.842 132.241 357.833 130.15 358.321 133.777C355.127 134.425 352.611 132.704 349.949 131.661C348.078 130.93 346.07 130.925 345.274 132.831C344.449 134.82 346.535 135.463 347.971 135.98C350.564 136.911 353.256 137.584 355.864 138.485C360.563 140.104 365.546 141.152 369.258 144.822C367.153 146.835 368.691 148.351 369.937 149.936C371.402 151.827 372.252 153.884 370.044 155.712C367.837 157.54 365.883 156.131 364.139 154.737C362.527 153.445 362.835 148.688 358.585 151.963C358.145 152.305 355.132 149.941 353.124 149.063C349.812 147.601 348.85 150.116 347.79 151.988C346.051 155.044 349.446 154.63 350.574 155.083C357.251 157.735 363.987 160.192 369.986 164.257C371.271 165.13 372.311 165.719 374.231 164.715C377.953 162.736 379.218 164.598 378.705 168.459C378.334 171.286 385.724 180.46 387.942 179.67C393.769 177.623 393.701 183.112 393.066 184.745C390.345 191.715 395.591 192.905 399.631 194.864C403.925 196.95 408.57 197.891 413.367 198.505C419.228 199.251 424.792 196.829 430.571 197.491C429.901 198.925 428.548 199.188 427.195 199.617C418.935 202.21 410.792 201.615 402.699 198.905C401.463 198.491 400.085 197.209 398.932 198.72C397.853 200.143 397.081 201.84 398.268 203.672L400.544 207.109ZM300.599 215.396C299.551 214.522 298.549 213.596 297.595 212.622C289.218 203.195 280.562 193.611 278.169 180.938C277.011 174.776 274.534 174.703 269.938 175.425C233.409 181.057 197.946 192.18 164.756 208.415C159.871 210.809 156.823 214.211 155.578 219.417C152.516 232.044 152.339 245.197 155.06 257.901C157.18 267.928 160.16 269.244 169.778 265.174C185.765 258.408 200.693 249.22 217.091 243.483C227.519 239.836 235.54 234.221 241.753 225.023C248.069 215.683 257.648 211.71 269.015 211.374C279.756 211.057 289.96 213.29 300.619 215.386L300.599 215.396ZM473.35 164.832C468.549 168.103 463.347 170.443 457.368 170.297C455.131 170.238 455.004 171.803 454.828 173.514C452.552 195.936 452.605 218.457 451.272 240.919C451.091 243.931 451.877 246.558 454.413 248.23C461.974 253.261 469.624 258.155 477.341 263.166C469.77 230.516 475.021 197.764 473.37 164.822L473.35 164.832ZM328.647 225.525C326.204 213.923 321.872 203.078 317.852 192.144C317.422 190.974 316.113 189.843 314.921 189.273C304.731 184.363 294.503 179.54 284.235 174.805C281.016 173.319 279.683 174.922 280.039 178.086C280.238 179.867 280.675 181.613 281.339 183.277C290.087 204.862 304.551 220.192 328.647 225.525ZM433.091 97.9684C428.538 96.6571 425.393 95.3069 422.13 94.8974C416.146 94.1516 409.806 94.2394 405.141 98.3437C402.353 100.861 398.893 102.515 395.181 103.106C377.503 106.211 359.865 109.589 342.124 112.27C332.745 113.689 323.357 117.291 313.641 111.997C309.567 109.779 305.337 113.508 304.067 118.334C303.53 120.401 303.339 123.696 299.529 120.806C297.277 119.08 295.504 121.727 293.829 122.697C292.686 123.36 294.151 125.392 294.317 126.713C294.566 128.795 296.76 127.147 298.171 126.933C299.749 126.689 301.356 126.65 302.939 126.445C310.92 125.427 318.902 124.388 327.196 123.311C326.244 121.551 325.467 122.302 324.812 122.278C322.858 122.214 319.581 122.321 322.263 119.47C324.089 117.52 327.953 116.345 330.659 116.696C333.546 117.072 330.024 120.537 331.797 122.546C333.199 121.23 334.113 117.544 336.843 120.05C340.634 123.516 344.405 120.684 348.166 120.689C349.294 120.689 349.812 120.245 349.412 118.812C348.156 114.332 352.088 113.328 354.492 113.742C358.399 114.42 354.257 117.613 355.361 119.733C356.065 119.689 356.827 119.694 357.598 119.582C363.519 118.709 369.453 117.934 375.344 116.891C381.421 115.814 387.429 114.352 393.51 113.265C398.126 112.441 401.131 108.293 407.232 109.404C412.697 110.403 419.038 106.708 424.973 105.017C426.179 104.676 428.475 104.656 427.689 102.789C425.661 97.9976 430.126 99.8305 433.091 97.9538V97.9684ZM499.747 213.826V213.412C496.944 213.412 494.145 213.441 491.341 213.412C483.745 213.324 481.884 215.332 482.373 222.936C482.573 225.739 483.609 228.418 485.347 230.628C490.72 237.813 501.296 241.309 510.542 239.237C513.19 238.647 513.014 237.038 512.78 235.245C511.993 229.361 512.682 223.658 515.222 218.306C516.795 214.957 515.32 213.919 512.364 213.86C508.144 213.743 503.963 213.826 499.747 213.826ZM293.062 143.238C298.596 144.496 303.178 149.819 303.447 155.049C303.691 159.836 301.639 165.807 309.797 166.285C310.886 166.348 311.844 168.069 312.928 168.946C318.184 173.187 323.078 178.018 329.658 180.25C330.864 180.66 333.238 181.425 333.624 179.275C333.917 177.652 331.993 177.73 330.606 177.365C321.755 175.044 312.698 159.665 315.375 151.798C318.306 143.194 318.306 143.18 309.069 141.074C306.749 140.552 304.341 140.333 302.079 139.611C298.259 138.432 295.47 139.582 293.062 143.238ZM325.33 146.275C320.533 146.216 315.961 152.953 317.607 157.91C318.944 162.087 321.073 165.968 323.879 169.341C328.925 175.337 330.195 175.678 336.853 171.944C340.57 169.848 344.302 161.63 341.914 159.758C337.029 155.995 334.694 149.716 328.725 147.172C327.667 146.643 326.512 146.338 325.33 146.275V146.275ZM318.311 184.442C316.816 183.126 315.458 181.596 313.802 180.543C304.785 174.815 297.732 168.098 300.501 156.029C300.568 155.633 300.541 155.228 300.423 154.844C299.178 150.043 295.646 147.615 291.172 146.528C288.168 145.797 284.665 146.041 282.916 148.654C280.42 152.407 282.428 156.307 284.382 159.802C287.054 164.632 293.751 166.753 293.746 173.494C293.746 173.821 295.03 174.299 295.773 174.469C303.969 176.097 310.735 180.65 318.311 184.442ZM350.125 157.579C352.899 179.69 371.129 182.244 388.43 187.552C379.086 171.954 366.117 162.468 350.125 157.579ZM444.194 146.679C444.629 146.587 445.215 146.475 445.796 146.338C459.835 143.092 473.341 138.139 486.93 133.465C487.859 133.092 488.743 132.618 489.568 132.051C491.092 131.11 491.912 129.765 491.141 128.02C490.261 126.046 488.615 125.583 486.652 126.362C472.575 132.032 457.983 136.337 443.08 139.217C440.916 139.641 439.211 140.655 439.837 143.267C440.345 145.378 441.556 146.87 444.194 146.679V146.679ZM387.468 92.7965C387.346 95.5165 387.19 96.6961 387.268 97.905C387.366 99.4064 385.802 101.956 389.109 101.727C391.2 101.585 393.926 101.644 394.121 98.5972C394.61 90.8711 393.935 83.3497 388.289 77.3248C383.57 72.2894 377.513 72.2358 373.312 77.6709C367.719 84.9095 366.874 93.7812 366.117 102.531C366.005 103.828 366.508 104.934 368.105 104.871C369.571 104.812 370.123 103.818 370.284 102.507C370.523 100.528 370.772 98.5485 371.007 96.5645C371.534 92.002 372.086 87.4102 374.646 83.4472C376.199 81.0392 378.221 78.9041 381.484 79.455C384.747 80.0058 386.091 82.4187 386.55 85.3873C387.009 88.3558 387.283 91.3244 387.468 92.7965ZM399.123 211.135C394.238 198.237 388.538 185.749 372.565 185.734C376.961 197.964 384.557 208.435 399.123 211.135ZM384.469 93.1719C384.469 91.1831 384.63 89.1796 384.43 87.2103C384.2 85.0314 383.736 82.6234 381.235 81.9946C378.91 81.4096 377.489 83.3838 376.531 85.0119C373.503 90.1497 373.288 95.926 373.395 101.693C373.43 103.506 374.787 103.735 376.326 103.808C382.579 104.096 384.528 101.61 384.474 93.1719H384.469ZM272.287 154.644C274.153 162.185 277.797 167.986 284.895 171.15C286.536 171.886 288.573 172.997 289.779 171.349C291.245 169.351 288.91 168.313 287.66 167.216C283.718 163.755 280.22 160.006 280.162 154.367C280.127 151.227 279.507 148.517 275.736 148.854C272.073 149.17 273.831 153.036 272.287 154.644ZM239.702 231.823C255.636 216.712 266.973 213.373 288.876 217.579C299.163 219.529 309.054 223.029 319.185 225.622C307.223 221.211 295.328 216.6 282.619 214.742C264.98 212.169 249.647 215.464 239.702 231.823ZM333.199 110.974C341.176 107.561 349.651 107.415 359.435 107.366C347.888 100.43 338.861 101.712 333.199 110.974ZM314.926 139.499C315.014 139.085 315.097 138.676 315.18 138.261C312.952 137.744 310.613 137.506 308.512 136.667C300.296 133.372 292.246 138.758 284.089 136.999C283.112 136.794 282.111 137.574 282.702 138.885C283.537 140.728 282.477 143.511 285.388 144.33C287.718 144.988 289.433 143.804 290.405 142.034C292.808 137.647 296.682 136.833 301.068 137.359C305.689 137.915 310.295 138.758 314.926 139.499ZM344.107 166.655C343.311 167.708 342.202 168.537 342.021 169.536C341.381 173.08 335.07 173.328 336.599 176.614C337.576 178.715 342.49 176.672 345.743 177.735C348.278 178.564 351.746 179.115 354.829 176.546C343.037 174.869 343.037 174.869 344.102 166.655H344.107ZM322.741 180.479C307.99 167.601 307.99 167.601 303.295 169.473C309.792 173.168 313.949 179.924 322.741 180.479ZM153.731 216.38C149.482 225.812 148.705 240.265 151.778 252.257C149.887 240.148 150.835 228.22 153.731 216.38ZM517.879 235.04C521.298 229.707 521.914 224.95 520.942 218.808C517.699 224.145 516.912 228.874 517.86 235.04H517.879ZM237.401 179.441L264.755 174.25C255.259 174.703 245.93 176.044 237.401 179.441ZM273.489 129.643C273.533 129.814 273.572 129.984 273.611 130.13C277.866 129.672 282.12 129.248 286.37 128.736C288.036 128.532 288.964 127.303 288.49 125.812C287.879 123.896 286.629 125.422 285.691 125.714C281.617 127.011 277.558 128.337 273.489 129.643ZM227.935 181.654C220.215 182.72 212.73 185.068 205.787 188.6L227.935 181.654ZM352.469 222.196C358.443 220.246 364.52 221.255 371.876 221.927C364.442 218.847 358.399 219.227 352.469 222.191V222.196ZM340.536 225.442C337.195 225.359 334.264 225.808 331.299 223.599C333.048 228.937 333.048 228.937 340.536 225.437V225.442Z" fill="#333333" stroke="#333333"/>
<path d="M103.048 278.916C99.2673 276.215 98.0168 272.023 96.6003 267.997C93.4057 258.93 92.3702 249.376 90.641 239.993C88.6871 229.449 85.1115 219.52 79.3134 210.589C70.2523 196.643 69.2803 181.83 73.7351 166.417C75.2835 161.055 76.0309 155.395 79.5674 150.579C82.0097 147.235 82.1319 143.116 79.7335 139.29C69.6711 123.253 65.1674 105.446 62.5883 86.9229C61.4062 78.4071 56.7267 71.3245 50.9237 65.0705C48.8672 62.8623 46.4542 61.1318 43.1863 60.9564C39.3812 60.7565 37.2417 62.1896 38.1649 66.1672C45.0962 96.1211 35.7812 124.618 30.3494 153.45C28.7082 162.171 26.5247 170.789 24.2387 181.001C22.2848 175.522 24.1703 171.842 24.8932 168.215C28.801 148.717 33.2802 129.297 36.8558 109.721C39.3763 95.9067 38.8487 81.9363 36.3673 68.0585C36.1231 66.6839 36.0303 64.9876 34.5893 64.5684C33.0702 64.1199 32.147 65.6505 31.2726 66.7034C27.697 71.0369 26.3879 76.0625 26.0802 81.639C25.3328 95.3948 27.3111 109.087 26.4368 122.887C25.2791 141.21 22.5681 159.353 20.9806 177.618C19.7936 191.301 17.9912 204.969 20.5263 218.452C21.1662 207.372 19.2514 195.859 23.379 184.623C20.7901 212.5 21.2199 239.89 36.5139 264.96C33.8078 265.54 33.5 264.36 33.0946 263.644C20.0965 239.661 15.1825 214.201 17.7323 186.914C20.3212 159.158 25.3768 131.574 24.3168 103.526C23.9847 94.7904 22.1529 86.0796 24.2045 77.3055C24.8444 74.5709 25.5087 71.8899 26.7982 69.4039C33.5538 56.3792 46.0243 54.9802 55.1782 66.3525C62.1389 74.9999 65.6656 85.1194 66.7354 96.048C68.2008 111.071 73.9891 124.52 81.3894 137.433C82.4982 139.383 82.5617 139.339 85.7612 137.174C85.3118 143.292 83.1772 148.561 80.7837 153.694C74.4336 167.304 71.9913 181.357 75.3666 196.176C76.2165 199.9 77.4133 203.565 79.5967 206.665C88.9509 219.949 92.8733 234.977 94.8711 250.829C96.0923 260.5 99.0768 269.795 103.048 278.916Z" fill="#333333" stroke="#333333"/>
<path d="M385.778 232.92C385.979 232.135 386.174 231.35 386.374 230.565C389.247 231.501 390.893 234.109 393.325 235.64L396.554 241.323C394.234 241.918 391.747 237.097 390.58 240.032C388.318 245.735 384.298 252.101 387.234 258.131C390.477 264.799 395.65 270.551 400.139 276.591C401.116 277.931 402.582 279.359 404.594 277.497C408.502 273.9 410.905 269.269 412.796 264.531C414.051 261.387 410.519 259.437 409.01 257.015C408.17 255.669 407.193 254.373 407.545 252.627C408.893 253.778 410.553 254.709 411.53 256.113C418.76 266.481 425.852 276.942 432.984 287.378C433.564 288.801 434.142 290.226 434.718 291.653C434.352 291.979 433.985 292.306 433.614 292.628C425.53 287.5 423.977 277.897 418.603 270.922C417.539 269.537 416.948 266.081 414.784 267.509C412.83 268.772 410.934 271.594 412.234 274.709C413.118 276.834 414.144 278.901 415.428 281.694C412.009 280.368 412.131 277.102 409.635 275.547C410.26 279.827 414.056 282.635 414.334 287.475C410.661 285.077 410.856 281.022 407.603 278.116C409.371 284.775 413.895 289.328 414.979 296.391C411.359 293.466 411.252 289.299 407.496 285.574C432.793 338.268 457.178 389.553 486.139 439.019C482.72 437.352 482.72 437.372 480.766 434.067C461.94 402.08 445.498 368.846 429.101 335.602C420.899 318.975 412.952 302.221 404.98 285.487C402.01 279.247 394.581 276.854 392.309 269.947C390.434 280.159 392.715 289.976 392.539 299.837C392.387 308.48 390.971 310.147 382.13 310.478C380.532 310.542 378.93 310.556 377.333 310.512C366.533 310.23 363.074 307.324 362.019 296.732C360.906 285.521 362.303 273.583 350.394 266.461C348.87 265.555 348.215 263.2 347.16 261.514L348.225 260.622C351.395 264.136 354.477 267.743 357.77 271.146C361.062 274.548 363.954 273.973 366.289 269.995C368.086 266.929 369.791 263.81 371.632 260.773C373.098 258.336 375.345 255.474 377.934 255.845C384.992 256.849 384.699 251.891 385.72 247.694C386.227 245.381 386.88 243.102 387.674 240.87C388.841 237.711 388.514 235.074 385.778 232.92ZM389.393 281.139C389.393 276.61 389.632 272.603 389.344 268.635C388.807 261.363 381.578 255.24 377.269 258.633C370.714 263.8 366.298 271.336 363.915 278.994C362.141 284.707 363.094 291.575 364.564 297.907C365.18 300.554 365.746 301.168 368.34 300.344C374.236 298.321 380.64 298.321 386.536 300.344C390.771 301.807 391.191 299.598 390.404 296.688C388.958 291.331 389.706 285.969 389.393 281.139V281.139ZM371.124 305.511C375.975 306.311 380.83 307.12 385.617 305.224C380.781 304.273 375.985 303.064 371.124 305.521V305.511Z" fill="#333333" stroke="#333333"/>
<path d="M91.3738 43.0476C92.8392 27.7319 89.4199 14.4683 89.3418 1C91.32 1.21448 91.6571 2.18451 91.7353 3.17891C92.6585 15.1117 93.6207 27.0641 94.373 38.9774C94.5146 41.2392 94.8614 44.4856 92.1553 45.2363C89.2001 46.0649 88.5456 42.7405 87.4319 40.7907C80.0511 27.8635 70.5846 17.5831 55.193 14.2977C41.2961 11.334 29.8855 15.6284 20.6534 25.9283C5.9701 42.3116 1.28081 61.8535 3.80619 83.2088C6.35599 104.808 8.29032 126.446 9.33076 148.157C10.6692 176.224 10.7131 204.375 15.1924 232.228C18.2795 251.448 26.1438 268.86 35.708 285.535C45.663 302.879 55.2076 320.354 60.2144 339.896C60.4342 340.764 61.0058 341.539 61.8264 343.186C63.4481 337.079 64.2443 331.541 68.8457 327.422C60.9618 345.073 62.2757 361.68 78.5857 372.716C92.3409 382.022 107.816 382.616 121.703 369.382C116.442 374.398 114.913 379.682 119.143 385.838C118.512 385.921 117.875 385.956 117.238 385.946C115.187 378.746 110.888 379.677 104.411 380.398C85.2338 382.529 71.0144 375.885 63.9317 357.181C58.1482 341.909 54.5775 325.814 47.0942 311.195C41.2765 299.837 34.8581 288.772 28.845 277.522C15.8909 253.261 11.1576 227.202 9.6336 199.895C7.54296 162.707 7.23034 125.412 2.11608 88.3514C-1.02965 65.5776 1.8865 43.2523 18.4797 24.9241C34.2621 7.49774 58.6953 6.43997 76.1189 22.4869C82.0685 27.961 86.5428 34.4879 91.3738 43.0476Z" fill="#333333" stroke="#333333"/>
<path d="M396.553 241.324L393.324 235.64C396.108 235.279 397.852 237.137 399.45 238.838C403.543 243.196 407.9 247.412 411.349 252.257C432.309 281.67 453.259 311.103 473.77 340.832C484.292 356.08 495.712 370.801 503.566 387.759C507.504 396.241 509.511 405.366 512.774 414.126C513.056 413.216 513.168 412.263 513.106 411.313C512.618 389.865 516.794 369.758 529.099 351.659C538.184 338.298 541.213 322.645 544.857 307.252C542.59 311.454 540.773 315.85 538.722 320.13C536.045 325.712 533.348 331.317 528.537 335.49C522.866 340.437 517.962 340.618 512.584 335.548C494.999 318.975 477.57 302.216 460.083 285.531C460.401 285.16 460.713 284.785 461.031 284.41C464.064 287.008 467.205 289.484 470.106 292.209C484.23 305.497 498.314 318.821 512.359 332.18C518.939 338.4 523.779 338.181 529.416 331.088C534.941 324.132 538.404 316.079 541.047 307.661L540.959 307.739C544.168 304.58 545.135 300.111 547.558 296.489C548.09 295.689 548.442 294.539 549.697 294.817C551.295 295.192 550.909 296.601 550.972 297.742C550.984 297.942 550.956 298.142 550.889 298.331C544.051 315.719 543.074 335.212 532.254 351.103C519.842 369.319 515.045 389.402 515.744 411.157C515.856 414.681 517.546 420.711 513.565 421.189C509.457 421.676 510.239 415.398 509.472 412.098C504.265 389.587 491.936 370.815 478.879 352.326C464.489 331.946 450.368 311.38 436.094 290.907C435.201 289.621 433.999 288.543 432.939 287.369C425.807 276.932 418.715 266.471 411.485 256.103C410.509 254.699 408.848 253.768 407.5 252.618C403.859 248.855 400.21 245.09 396.553 241.324Z" fill="#333333" stroke="#333333"/>
<path d="M153.683 378.883C152.613 382.417 151.837 386.072 148.681 390.581C147.978 381.354 147.475 373.521 146.776 365.721C143.279 326.915 141.261 287.851 125.943 251.019C120.111 237 118.338 221.699 118.098 206.476C117.81 188.513 118.377 170.536 117.932 152.578C117.302 127.231 113.165 102.229 109.14 77.2278C105.426 53.9762 103.562 30.4677 103.566 6.92258C103.566 5.94767 103.757 5.01664 103.996 2.74512C106.072 6.55212 105.696 9.52558 105.589 12.2066C105.379 17.6173 107.621 22.4431 107.318 28.2925C106.614 41.7023 108.119 55.4387 110.356 68.9118C113.678 88.8974 117.033 108.834 118.616 129.034C118.987 133.801 119.212 138.613 120.082 143.302C120.638 146.334 120.961 149.273 124.722 151.467C127.296 152.973 124.155 157.804 124.561 162.844C121.269 158.549 124.453 153.758 120.018 151.398C121.635 163.463 120.111 175.41 121.615 187.212C121.952 189.858 120.57 194.601 126.432 194.904C127.55 194.962 126.744 199.539 126.988 203.156C123.384 199.7 122.739 195.761 119.749 191.794C120.238 214.592 122.509 235.776 129.934 256.201C134.907 269.879 139.366 283.708 142.243 298.009C142.571 299.637 141.877 301.909 144.085 302.689C146.293 303.469 146.136 300.12 148.139 299.764C147.734 303.664 147.362 307.295 146.977 310.976C144.896 310.561 145.961 307.827 143.635 307.563C144.92 325.653 146.478 343.635 149.692 361.437L149.375 361.924C148.129 368.529 150.889 375.007 149.463 382.85L152.653 378.049L153.683 378.883Z" fill="#333333" stroke="#333333"/>
<path d="M364.891 198.978C373.713 203.492 382.583 207.898 391.312 212.583C393.794 213.914 396.973 214.625 398.058 217.847C392.719 217.682 389.397 212.446 383.404 211.681C387.287 218.276 392.05 222.741 397.755 226.548C397.902 223.453 398.034 220.699 398.165 217.945C402.913 218.247 405.981 221.674 409.244 224.36C433.589 244.389 457.763 264.633 482.026 284.755C488.097 289.79 494.335 294.626 499.859 300.353C467 276.712 437.638 248.683 404.437 223.667C404.496 228.352 406.821 230.316 408.951 232.247C428.753 250.214 448.579 268.159 468.427 286.081C471.67 289.005 474.723 292.174 477.864 295.23L476.887 296.332L451.418 273.938L451.184 274.236C454.466 277.635 457.752 281.031 461.041 284.423C460.723 284.799 460.411 285.174 460.093 285.545C457.5 283.38 454.823 281.304 452.322 279.042C435.191 263.536 418.237 247.845 400.94 232.524C393.056 225.549 384.244 219.578 379.726 209.551C378.925 207.767 376.951 207.348 375.359 206.626C365.648 202.132 355.903 197.706 346.168 193.26C353.177 192.675 358.805 196.575 364.891 198.978Z" fill="#333333" stroke="#333333"/>
<path d="M98.8968 1.44336C99.3413 10.4515 99.9959 19.2646 100.182 28.0875C100.748 54.4879 105.779 80.3277 109.55 106.338C113.497 133.592 115.568 160.957 114.201 188.586C113.014 212.442 115.754 235.869 124.532 258.448C133.119 280.524 137.041 303.62 139.186 327.178C140.929 346.233 142.722 365.273 143.86 384.371C143.982 386.413 144.759 388.651 142.737 391.298C140.431 380.203 140.558 369.523 139.806 358.97C137.852 331.736 135.937 304.512 128.645 278.053C124.737 263.853 118.274 250.439 115.348 235.927C113.25 225.57 112.106 215.042 111.929 204.477C111.577 182.152 113.048 159.817 110.918 137.496C108.798 115.273 105.359 93.2452 101.823 71.2026C98.296 49.2673 97.6366 27.1662 96.8599 5.05538C96.8209 3.8075 96.4692 2.17941 98.8968 1.44336Z" fill="#333333" stroke="#333333"/>
<path d="M136.118 213.382C136.484 215.03 136.772 216.336 137.041 217.56C137.959 217.842 138.194 217.301 138.438 216.755C139.742 213.831 140.914 210.872 142.414 208.064C143.474 206.114 145.017 204.247 147.685 205.671C149.897 206.85 149.687 208.712 149.003 210.838C145.606 221.086 144.278 231.905 145.096 242.668C145.775 251.043 147.255 259.315 151.182 266.836C154.142 272.505 158.02 277.073 165.689 275.293C168.547 274.626 170.012 276.532 170.34 279.412C170.608 281.82 166.608 283.673 169.465 286.451C169.602 286.583 168.752 287.738 167.331 287.572C159.686 286.68 151.67 287.943 145.535 281.162C139.4 274.382 136.689 266.051 135.067 257.419C133.079 246.997 133.311 236.275 135.746 225.949C136.405 223.408 136.108 220.715 134.911 218.379C134.042 216.687 133.328 215.083 136.118 213.382ZM146.512 208.342C145.144 208.001 144.661 208.786 144.339 209.444C133.797 230.974 133.055 252.685 143.479 274.46C145.506 278.663 149.026 281.964 153.356 283.722C158.196 285.783 162.734 285.184 166.759 281.713C167.629 280.967 168.64 280.041 167.912 278.662C167.38 277.653 166.447 277.497 165.357 277.687C155.94 279.188 151.426 273.378 148.295 265.939C141.569 249.941 140.743 233.524 145.096 216.755C145.804 213.992 147.499 211.286 146.512 208.342Z" fill="#333333" stroke="#333333"/>
<path d="M434.693 291.658C455.589 322.285 478.108 351.859 496.479 384.123C503.445 396.358 507.279 410.026 509.385 424.216C506.796 424.216 507.211 422.651 507.02 421.662C502.199 396.845 490.002 375.51 475.758 355.056C462.208 335.558 448.951 315.885 435.592 296.27C434.815 295.129 434.239 293.832 433.564 292.633C433.96 292.307 434.326 291.985 434.693 291.658Z" fill="#333333" stroke="#333333"/>
<path d="M495.909 311.965C502 317.668 508.345 323.118 514.084 329.148C518.3 333.574 521.812 332.974 525.808 329.314C528.254 326.972 530.231 324.188 531.635 321.11C535.445 313.257 539.201 305.38 543.153 297.6C544.071 295.792 544.619 293.505 547.916 292.111C545.366 297.868 543.183 302.811 540.994 307.754L541.082 307.676C539.617 310.474 538.049 313.223 536.715 316.084C534.195 321.505 531.743 326.95 527.185 331.068C522.003 335.753 517.655 335.714 512.668 330.815C506.709 324.966 500.842 319.009 494.932 313.101L495.909 311.965Z" fill="#333333" stroke="#333333"/>
<path d="M176.797 144.223C179.538 144.613 182.566 145.646 182.83 149.151C182.981 151.154 183.079 152.885 184.11 154.664C185.141 156.443 184.554 158.252 182.747 159.217C181.028 160.133 178.947 160.001 178.058 158.164C177.075 156.069 175.378 154.392 173.271 153.431C171.205 152.392 170.403 150.15 171.419 147.815C172.333 145.695 173.92 144.281 176.797 144.223Z" fill="#333333" stroke="#333333"/>
<path d="M186.786 268.178C190.205 262.528 196.374 261.714 201.83 259.715C203.408 259.135 205.049 259.94 205.85 261.539C206.73 263.274 206.456 264.951 205.147 266.496C203.062 268.907 200.563 270.928 197.766 272.462C193.263 275.002 188.774 277.561 184.182 279.935C182.38 280.866 180.123 281.212 178.667 279.447C177.129 277.556 178.228 275.577 179.708 274.149C181.911 272.028 183.015 268.558 186.742 268.236C185.765 272.136 182.096 274.358 180.167 278.078C185.599 277.166 199.706 269.396 202.675 265.823C203.384 264.975 204.795 264.195 203.843 262.845C203.003 261.66 201.64 262.094 200.546 262.528C195.944 264.356 191.372 266.281 186.786 268.178Z" fill="#333333" stroke="#333333"/>
<path d="M59.1404 177.18C51.6375 197.077 50.9243 217.399 55.6673 238.067C48.5601 217.238 49.5224 196.946 59.1404 177.18Z" fill="#333333" stroke="#333333"/>
<path d="M204.151 157.55C207.571 157.677 210.428 158.286 210.15 162.078C209.871 165.871 206.77 167.806 203.556 167.518C200.659 167.25 196.434 166.114 196.434 162.478C196.414 157.564 201.318 158.461 204.151 157.55Z" fill="#333333" stroke="#333333"/>
<path d="M158.23 143.292C158.899 143.57 160.067 143.692 160.272 144.199C161.684 147.694 164.937 149.073 167.599 151.286C169.382 152.773 168.576 155.015 166.021 155.781C162.895 156.716 155.509 152.797 154.689 149.687C153.868 146.577 154.513 144.165 158.23 143.292Z" fill="#333333" stroke="#333333"/>
<path d="M170.139 141.722C170.188 144.291 169.294 146.017 167.208 146.719C165.122 147.42 163.696 146.231 163.183 144.311C162.67 142.39 161.386 141.347 160.252 140.001C158.25 137.637 159.451 135.424 161.322 133.84C163.545 131.963 165.997 132.617 167.404 134.951C168.683 137.111 169.328 139.66 170.139 141.722Z" fill="#333333" stroke="#333333"/>
<path d="M149.262 199.013C149.536 192.422 158.543 187.704 164.165 191.169C167.223 193.051 167.203 195.288 164.571 197.336C161.749 199.553 158.766 201.559 155.646 203.336C151.939 205.423 149.081 203.37 149.262 199.013ZM154.244 201.898C157.224 199.661 160.228 197.448 163.154 195.132C163.408 194.933 163.369 193.846 163.086 193.582C162.504 193.046 161.796 192.665 161.028 192.472C160.26 192.28 159.456 192.283 158.689 192.481C155.915 193.124 153.316 194.084 152.31 197.121C151.866 198.447 151.553 199.846 152.515 201.07C152.799 201.45 153.458 201.542 154.244 201.898V201.898Z" fill="#333333" stroke="#333333"/>
<path d="M241 169.956C238.558 169.858 236.79 168.493 237.171 165.954C237.659 162.58 239.843 160.241 243.521 160.104C246.476 160.002 247.917 162.093 247.854 164.637C247.736 168.761 244.288 169.298 241 169.956Z" fill="#333333" stroke="#333333"/>
<path d="M256.588 147.373C255.846 150.297 253.936 152.388 250.756 152.023C248.314 151.745 245.168 150.95 245.515 147.529C245.876 143.955 248.895 142.522 252.011 142.698C254.292 142.825 256.666 144.121 256.588 147.373Z" fill="#333333" stroke="#333333"/>
<path d="M364.892 198.978C358.805 196.575 353.168 192.676 346.179 193.231C346.176 193.199 346.176 193.166 346.179 193.134L344.068 188.63C355.337 192.164 366.455 196.049 376.796 201.82C376.59 202.132 376.385 202.449 376.185 202.766L364.892 198.978Z" fill="#333333" stroke="#333333"/>
<path d="M147.205 107.674C150.136 108.752 152.701 110.599 152.794 114.245C152.842 116.127 151.641 117.93 149.438 117.516C145.359 116.751 144.788 113.129 144.211 109.897C143.962 108.352 145.213 107.436 147.205 107.674Z" fill="#333333" stroke="#333333"/>
<path d="M194.328 156.833C194.421 159.846 192.745 161.25 189.931 161.279C187.768 161.279 185.77 160.392 185.877 157.911C185.994 155.21 187.01 152.739 190.376 152.666C193.146 152.607 194.274 154.279 194.328 156.833Z" fill="#333333" stroke="#333333"/>
<path d="M61.5275 304.098C52.8279 297.79 47.1519 289.23 43.1172 279.477C49.4868 287.5 55.0114 296.147 61.5275 304.098Z" fill="#333333" stroke="#333333"/>
<path d="M231.885 165.378C229.326 165.032 227.944 163.843 228.173 161.439C228.412 158.939 229.209 156.599 232.32 156.74C235.124 156.867 235.769 159.075 235.739 161.371C235.754 163.969 234.186 165.227 231.885 165.378Z" fill="#333333" stroke="#333333"/>
<path d="M220.964 160.178C223.705 160.865 225.151 162.493 224.911 164.891C224.652 167.528 222.908 169.118 220.09 169.079C217.159 169.044 216.427 166.992 216.519 164.692C216.637 161.825 218.835 160.86 220.964 160.178Z" fill="#333333" stroke="#333333"/>
<path d="M217.759 154.065C217.32 156.371 216.421 158.452 213.641 158.174C211.126 157.931 209.685 155.932 209.734 153.646C209.787 150.755 212.269 149.576 214.716 149.6C217.271 149.629 217.349 152.11 217.759 154.065Z" fill="#333333" stroke="#333333"/>
<path d="M190 167.519C189.566 170.419 187.412 171.233 184.93 171.418C182.268 171.599 181.667 169.746 181.628 167.582C181.579 164.911 183.015 163.59 185.614 163.6C188.213 163.609 189.536 165.082 190 167.519Z" fill="#333333" stroke="#333333"/>
<path d="M160.034 129.497C159.672 131.608 158.686 133.207 156.502 132.778C153.987 132.29 152.165 130.54 152.008 127.874C151.891 125.924 153.024 124.189 155.183 124.345C158.241 124.569 159.36 126.977 160.034 129.497Z" fill="#333333" stroke="#333333"/>
<path d="M265.101 140.777C264.755 141.999 264.058 143.095 263.096 143.928C262.135 144.761 260.951 145.295 259.689 145.466C257.559 145.807 256.304 144.033 256.431 142.132C256.631 139.075 259.112 137.823 261.726 137.384C263.86 137.028 264.969 138.466 265.101 140.777Z" fill="#333333" stroke="#333333"/>
<path d="M173.064 166.749C170.515 166.285 168.805 165.018 168.702 162.498C168.624 160.441 169.963 159.037 172.019 159.11C174.354 159.198 176.337 160.436 176.581 162.937C176.811 165.296 175.18 166.432 173.064 166.749Z" fill="#333333" stroke="#333333"/>
<path d="M221.33 154.669C222.117 151.647 224.549 150.55 227.475 150.282C229.307 150.102 230.811 150.872 230.406 152.953C229.751 156.19 226.689 156.955 224.168 157.779C222.331 158.354 221.418 156.697 221.33 154.669Z" fill="#333333" stroke="#333333"/>
<path d="M149.384 102.815C148.954 105.057 147.699 106.383 145.701 106.227C142.956 106.022 142.111 103.877 142.399 101.533C142.639 99.5827 144.026 98.3153 146.165 98.6517C148.583 99.0416 149.135 100.952 149.384 102.815Z" fill="#333333" stroke="#333333"/>
<path d="M241.064 159.154C238.915 158.667 237.386 157.594 237.572 155.922C237.855 153.353 239.584 151.535 242.369 151.452C244.171 151.384 245.602 152.427 245.436 154.338C245.192 157.107 242.789 158.018 241.064 159.154Z" fill="#333333" stroke="#333333"/>
<path d="M255.654 162.645C257.574 162.708 258.927 163.532 259 165.369C259.098 167.807 257.642 169.527 255.283 169.942C253.495 170.259 252.181 168.933 252.01 167.241C251.752 164.653 253.622 163.459 255.654 162.645Z" fill="#333333" stroke="#333333"/>
<path d="M477.859 295.23C484.463 300.183 490.212 306.052 495.932 311.979C495.605 312.359 495.273 312.735 494.955 313.115C488.589 307.917 482.57 302.311 476.936 296.332L477.859 295.23Z" fill="#333333" stroke="#333333"/>
<path d="M252.733 155.098C255.093 155.151 256.705 155.887 256.47 158.159C256.236 160.43 254.428 161.474 252.333 161.625C250.237 161.776 248.884 160.698 248.997 158.485C249.119 155.995 250.975 155.361 252.733 155.098Z" fill="#333333" stroke="#333333"/>
<path d="M149.696 361.437C151.333 361.924 153.824 360.705 153.287 364.576C152.769 368.339 152.671 372.453 155.109 376.031C155.915 377.215 154.542 378.102 153.682 378.882L152.657 378.059C151.562 372.684 150.47 367.309 149.379 361.934L149.696 361.437Z" fill="#333333" stroke="#333333"/>
<path d="M165.455 163.692C164.967 165.876 163.633 166.012 162.148 165.71C159.706 165.222 158.124 163.838 158.285 161.225C158.382 159.709 159.389 158.335 161.03 158.788C163.502 159.519 164.137 162.088 165.455 163.692Z" fill="#333333" stroke="#333333"/>
<path d="M148.032 138.588C148.183 136.765 149.165 135.313 151.236 135.376C151.633 135.384 152.024 135.475 152.383 135.643C152.743 135.811 153.063 136.052 153.323 136.351C153.584 136.65 153.779 137 153.895 137.379C154.012 137.757 154.048 138.156 154.001 138.549C153.854 140.582 152.33 141.508 150.313 141.474C148.545 141.44 148.012 140.319 148.032 138.588Z" fill="#333333" stroke="#333333"/>
<path d="M403.827 65.0948C403.695 67.2494 403.295 69.0481 400.408 68.1122C398.454 67.4833 397.086 68.3559 396.143 70.062L394.346 71.8948C387.698 68.4387 379.965 70.14 373.127 67.5077C372.751 67.3615 371.715 67.8392 371.622 68.1902C370.157 73.908 364.691 72.4164 360.998 74.0786C363.826 67.0105 370.382 65.6018 376.688 64.3637C380.522 63.613 384.611 64.1443 388.587 64.1004C394.009 69.4624 397.379 63.9103 401.394 61.7119L403.827 65.0948Z" fill="#333333" stroke="#333333"/>
<path d="M333.366 185.555C335.92 190.064 340.844 186.432 344.063 188.645L346.168 193.144C340.492 191.472 334.533 190.546 329.688 186.754L333.366 185.555Z" fill="#333333" stroke="#333333"/>
<path d="M311.146 133.835C309.881 131.452 309.593 129.141 312.573 127.986C314.614 127.181 316.759 127.83 317.57 129.96C318.669 132.846 317.457 134.942 314.414 135.843L311.146 133.835Z" fill="#333333" stroke="#333333"/>
<path d="M393.946 161.123C397.302 161.147 398.831 162.098 399.632 164.272C400.164 165.734 400.907 167.163 401.507 168.625C402.186 170.277 406.641 169.249 404.438 173.012C402.377 176.541 400.208 180.085 395.875 180.704C392.735 181.157 391.968 178.32 391.914 175.878C391.846 172.661 391.582 169.488 390.556 166.47C389.061 161.991 391.587 161.225 393.946 161.123Z" fill="#333333" stroke="#333333"/>
<path d="M437.824 192.321C437.336 196.771 434.014 197.254 430.541 197.551C428.148 195.523 425.432 194.46 422.281 195.114C419.839 195.601 418.432 194.626 417.831 192.35C417.196 189.961 418.505 188.66 420.528 187.738C426.975 184.814 431.411 186.047 434.625 191.706C435.441 193.144 436.74 192.194 437.824 192.321Z" fill="#333333" stroke="#333333"/>
<path d="M407.061 137.321C405.449 137.292 404.458 136.756 403.676 135.756C402.626 134.421 403.075 133.105 403.813 131.896C405.816 128.6 409.826 129.629 412.664 127.996C413.611 127.455 414.769 128.898 415.106 130.087C415.297 130.799 415.189 132.261 414.984 132.305C411.609 133.017 409.689 135.985 407.061 137.321Z" fill="#333333" stroke="#333333"/>
<path d="M410.357 121.78C410.171 124.856 408.183 126.455 405.335 126.46C402.844 126.46 400.338 125.168 400.539 122.287C400.739 119.406 403.357 117.9 406 117.725C408.325 117.578 410.093 119.06 410.357 121.78Z" fill="#333333" stroke="#333333"/>
<path d="M380.312 143.74C379.599 147.64 376.77 148.615 373.337 148.785C370.577 148.902 369.39 147.411 369.307 144.817C371.212 139.455 374.636 139.524 378.778 142.185L380.312 143.74Z" fill="#333333" stroke="#333333"/>
<path d="M408.56 162.473C412.428 162.561 415.359 164.311 415.657 166.777C415.872 168.556 412.238 169.765 409.962 169.785C407.49 169.785 403.973 168.712 403.783 166.519C403.602 164.457 406.156 162.073 408.56 162.473Z" fill="#333333" stroke="#333333"/>
<path d="M389.906 159.31C389.599 161.586 388.309 163.293 386.047 162.805C383.542 162.264 380.098 162.162 379.966 158.379C379.868 155.527 382.091 154.738 384.421 154.777C387.327 154.845 389.144 156.483 389.906 159.31Z" fill="#333333" stroke="#333333"/>
<path d="M416.254 191.018C415.682 193.835 414.422 195.893 411.164 195.585C408.937 195.366 407.256 194.206 407.789 191.754C408.336 189.224 409.405 186.621 412.581 186.602C415.306 186.582 416.073 188.678 416.254 191.018Z" fill="#333333" stroke="#333333"/>
<path d="M421.955 119.972C417.954 119.704 413.162 120.294 415.004 113.636L414.901 113.743C422.599 111.52 424.67 112.549 423.786 118.13L421.955 119.972Z" fill="#333333" stroke="#333333"/>
<path d="M380.312 143.741L378.773 142.196C378.94 140.441 378.954 138.637 380.488 137.365C382.325 135.844 384.147 136.283 385.905 137.457C387.444 138.496 388.616 139.831 388.045 141.845C387.444 143.98 385.715 144.282 383.824 144.131C382.652 144.053 381.484 143.882 380.312 143.741Z" fill="#333333" stroke="#333333"/>
<path d="M394.546 138.798C391.913 138.52 389.662 137.55 389.891 134.508C390.072 132.1 391.816 130.638 394.287 130.346C396.026 130.146 397.624 130.697 398.195 132.412C399.338 135.825 397.111 137.531 394.434 138.861L394.546 138.798Z" fill="#333333" stroke="#333333"/>
<path d="M420.576 177.809C420.63 180.134 419.468 181.645 417.157 181.679C414.715 181.718 412.888 180.134 412.761 177.779C412.609 175.152 414.402 173.076 416.991 173.046C419.658 173.007 419.946 175.747 420.576 177.809Z" fill="#333333" stroke="#333333"/>
<path d="M405.943 189.741C405.396 192.622 402.846 193.153 400.57 193.412C398.293 193.67 396.662 191.949 397.033 189.678C397.492 186.695 400.115 186.412 402.597 186.334C404.805 186.266 405.874 187.421 405.943 189.741Z" fill="#333333" stroke="#333333"/>
<path d="M375.358 121.26C377.937 121.655 379.046 123.351 379.1 125.754C379.154 128.157 377.752 129.478 375.402 129.249C372.96 129.01 371.416 127.553 371.534 124.945C371.636 122.615 373.077 121.474 375.358 121.26Z" fill="#333333" stroke="#333333"/>
<path d="M446.172 169.984C447.701 169.984 448.365 171.018 448.224 172.275C447.418 179.309 446.671 186.411 440.115 190.974C441.971 183.93 445.962 177.501 446.172 169.984Z" fill="#333333" stroke="#333333"/>
<path d="M421.953 119.972L423.785 118.149C424.175 118.098 424.558 118.005 424.928 117.872C426.833 116.95 426.994 113.114 430.355 114.64C431.332 115.083 432.274 116.458 431.674 116.858C428.972 118.676 428.118 122.673 424.537 123.194C422.559 123.477 422.046 121.698 421.953 119.972Z" fill="#333333" stroke="#333333"/>
<path d="M393.673 146.319C393.614 147.494 393.78 148.756 393.443 149.829C392.784 151.949 391.196 153.022 388.93 152.651C387.464 152.402 386.346 151.432 386.209 149.921C386.004 147.625 387.288 146.192 389.486 145.749C390.625 145.52 391.836 145.666 393.013 145.646L393.673 146.319Z" fill="#333333" stroke="#333333"/>
<path d="M430.234 184.028C427.869 182.483 433.956 181.294 430.121 179.88C427.884 179.056 427.4 177.681 428.685 175.829C429.735 174.313 431.533 173.948 432.774 175.2C434.014 176.453 436.139 178.067 434.727 180.148C433.624 181.761 432.495 183.853 430.234 184.028Z" fill="#333333" stroke="#333333"/>
<path d="M415.702 120.723C417.548 120.923 418.72 121.8 418.774 123.701C418.833 125.826 417.646 127.113 415.604 127.235C413.464 127.381 412.287 126.109 412.287 123.984C412.287 121.771 413.777 120.966 415.702 120.723Z" fill="#333333" stroke="#333333"/>
<path d="M434.87 112.948C433.116 112.783 431.743 111.974 431.792 110.107C431.851 108.157 433.497 107.669 435.153 107.625C436.999 107.582 438.216 108.522 438.157 110.419C438.098 112.437 436.609 112.924 434.87 112.948Z" fill="#333333" stroke="#333333"/>
<path d="M371.178 244.892C366.543 245.379 363.939 244.444 364.438 240.768C364.887 237.468 367.461 236.41 370.695 237.132C372.424 237.517 374.309 237.551 375.858 238.297C378.505 239.559 380.186 241.65 377.367 244.239C374.334 247.027 373.562 248.748 378.652 249.469C379.629 249.61 380.191 251.468 379.184 251.731C376.195 252.516 373.01 254.685 370.006 252.862C366.577 250.776 367.466 247.982 371.178 244.892Z" fill="#333333" stroke="#333333"/>
<path d="M287.571 236.186C280.625 235.986 277.587 232.627 277.89 226.247C277.992 224.107 277.797 221.582 280.952 221.435C284.108 221.289 292.734 230.015 292.539 232.973C292.29 237.009 289.188 235.966 287.571 236.186Z" fill="#333333" stroke="#333333"/>
<path d="M306.261 227.28C309.636 228.124 312.186 230.366 312.899 234.231C313.217 235.972 305.128 242.367 303.027 242.128C299.632 241.738 299.29 239.043 299.12 236.43C298.88 231.896 302.226 227.436 306.261 227.28Z" fill="#333333" stroke="#333333"/>
<path d="M356.118 241.836C353.329 240.861 350.461 240.095 347.77 238.911C346.114 238.18 344.873 236.712 345.235 234.626C345.567 232.676 346.91 231.594 348.708 230.941C354.081 228.991 356.181 233.378 358.619 236.381C360.783 239.023 357.74 240.373 356.084 241.86L356.118 241.836Z" fill="#333333" stroke="#333333"/>
<path d="M356.083 241.859C359.844 242.113 366.722 247.943 366.878 251.072C366.956 252.666 365.862 253.587 364.665 254.372C363.469 255.157 361.329 255.835 360.802 254.86C359.063 251.725 356.215 249.654 354.154 246.914C352.605 244.857 355.009 243.38 356.108 241.83L356.083 241.859Z" fill="#333333" stroke="#333333"/>
<path d="M339.246 244.439C337.024 241.104 332.525 242.976 329.477 240.822C327.44 239.389 326.649 237.297 328.114 235.099C329.579 232.901 331.983 232.325 333.663 234.397C335.465 236.61 337.61 236.591 339.959 236.946C342.309 237.302 343.139 239.223 342.924 241.411C342.768 243.2 341.557 244.205 339.246 244.439Z" fill="#333333" stroke="#333333"/>
<path d="M267.383 236.249C267.105 238.608 267.173 241.353 264.34 242.157C262.054 242.805 260.662 241.041 259.694 239.188C258.278 236.478 256.764 233.11 258.932 230.785C262.059 227.475 264.105 230.536 265.698 233.271L267.383 236.249Z" fill="#333333" stroke="#333333"/>
<path d="M267.384 236.249L265.699 233.27C265.699 233.071 265.699 232.871 265.699 232.671C265.777 230.131 265.211 227.28 268.303 225.983C269.827 225.344 271.048 226.28 271.932 227.416C273.808 229.824 275.254 232.222 273.769 235.591C271.878 239.924 269.729 238.125 267.384 236.249Z" fill="#333333" stroke="#333333"/>
<path d="M254.355 237.492C254.766 242.259 251.884 243.58 249.388 244.117C246.892 244.653 246.408 242.021 246.178 240.012C245.827 236.888 247.536 235.035 250.418 234.597C253.3 234.158 254.111 236.249 254.355 237.492Z" fill="#333333" stroke="#333333"/>
<path d="M322.492 240.417C319.86 239.768 318.243 238.223 318.511 235.376C318.707 233.324 320.016 231.993 322.121 232.31C324.822 232.715 326.376 234.504 326.166 237.292C326.014 239.359 324.622 240.402 322.492 240.417Z" fill="#333333" stroke="#333333"/>
<path d="M357.32 263.429C359.24 261.967 357.11 257.907 360.891 257.541C362.2 257.414 363.602 258.872 363.05 259.72C361.726 261.757 362.029 264.984 359.221 265.837C357.911 266.242 357.11 265.033 357.32 263.429Z" fill="#333333" stroke="#333333"/>
<path d="M349.29 246.563C351.415 246.841 352.255 248.387 352.45 250.19C352.631 251.808 351.474 252.681 349.915 252.754C347.82 252.852 346.496 251.779 346.447 249.683C346.394 247.919 347.458 246.822 349.29 246.563Z" fill="#333333" stroke="#333333"/>
<path d="M425.051 209.926C425.491 214.431 422.511 215.976 418.906 216.4C415.722 216.775 410.886 210.97 410.974 207.192C411.091 202.317 414.935 202.195 418.252 202.176C422.99 202.152 425.227 204.964 425.051 209.926Z" fill="#333333" stroke="#333333"/>
<path d="M438.841 219.554C438.641 222.596 436.814 223.161 434.645 222.966C430.322 222.62 428.192 219.92 428.207 215.859C428.207 213.071 429.892 210.497 432.931 210.751C438.509 211.219 436.457 217.078 438.841 219.554Z" fill="#333333" stroke="#333333"/>
<path d="M400.563 207.109C399.889 203.984 401.345 201.942 404.222 201.289C407.099 200.636 407.885 203.127 408.765 205.101C409.527 206.812 408.872 208.303 407.334 209.19C404.334 210.926 402.61 208.259 400.495 207.016L400.563 207.109Z" fill="#333333" stroke="#333333"/>
<path d="M433.345 206.71C431.181 206.71 429.779 205.735 429.745 203.62C429.701 200.904 431.245 199.086 433.907 198.667C436.178 198.311 437.937 199.359 437.771 201.894C437.6 204.565 435.88 206.11 433.345 206.71Z" fill="#333333" stroke="#333333"/>
<path d="M441.103 205.54C443.999 205.857 445.596 207.183 445.225 209.864C444.927 212.018 444.282 214.504 441.386 214.251C438.943 214.031 437.561 212.218 437.415 209.737C437.258 207.002 438.904 205.837 441.103 205.54Z" fill="#333333" stroke="#333333"/>
<path d="M441.884 228.962C441.781 231.004 440.765 232.374 438.582 232.194C436.589 232.047 435.329 230.775 435.162 228.738C434.987 226.588 436.281 225.223 438.24 225.116C440.604 224.984 441.732 226.612 441.884 228.962Z" fill="#333333" stroke="#333333"/>
<path d="M428.249 222.24C427.868 224.029 426.618 224.741 425.177 224.531C423.057 224.224 422.217 222.499 422.481 220.598C422.715 218.921 424.234 218.565 425.724 218.926C427.478 219.35 428.416 220.49 428.249 222.24Z" fill="#333333" stroke="#333333"/>
<path d="M425.588 100.699C425.447 101.762 424.968 102.752 424.221 103.524C423.475 104.296 422.501 104.809 421.441 104.988C419.199 105.403 417.435 103.887 417.533 101.654C417.631 99.3144 419.394 97.6863 421.793 97.4864C423.776 97.3256 425.065 98.5832 425.588 100.699Z" fill="#333333" stroke="#333333"/>
<path d="M370.665 112.738C369.2 115.434 366.108 115.799 363.265 116.297C361.614 116.584 360.486 115.458 360.862 113.757C361.799 109.492 365.912 111.705 368.35 110.379C369.635 109.692 370.489 110.866 370.665 112.738Z" fill="#333333" stroke="#333333"/>
<path d="M386.272 106.348C388.509 106.64 389.662 108.141 390.179 110.174C390.57 111.758 389.93 113.138 388.226 113.099C385.832 113.035 384.088 111.588 383.78 109.199C383.57 107.742 384.63 106.645 386.272 106.348Z" fill="#333333" stroke="#333333"/>
<path d="M413.596 101.966C412.282 99.4361 407.735 102.507 407.974 99.0754C408.34 94.079 414.153 98.9584 416.17 95.6096C416.532 95.01 417.978 96.1604 417.763 97.3059C417.309 99.5677 415.975 101.118 413.596 101.966Z" fill="#333333" stroke="#333333"/>
<path d="M375.823 60.4405C375.266 62.6681 373.439 63.1215 371.7 63.219C369.58 63.3359 367.641 62.4829 367.47 60.0651C367.343 58.2518 368.603 57.0868 370.489 57.2331C372.75 57.4037 374.489 58.6467 375.823 60.4405Z" fill="#333333" stroke="#333333"/>
<path d="M362.468 62.9897C363.596 62.9458 365.33 62.6144 364.935 64.3302C364.539 66.046 363.708 68.2298 361.452 68.61C359.596 68.9269 358.399 67.7277 358.311 65.9534C358.164 63.0238 360.69 63.4479 362.468 62.9897Z" fill="#333333" stroke="#333333"/>
<path d="M399.993 256.074C402.045 255.903 403.593 256.561 404.038 258.229C404.727 260.841 405.357 263.556 405.371 266.233C405.371 268.431 403.032 270.62 401.62 268.641C399.783 266.086 397.439 265.092 395.075 263.639C393.77 262.84 392.847 261.368 393.785 259.569C395.162 256.927 397.966 256.917 399.993 256.074Z" fill="#333333" stroke="#333333"/>
<path d="M397.277 250.629C397.11 253.841 396.563 255.43 394.458 255.016C391.923 254.528 391.361 252.164 390.985 250.068C390.933 249.771 390.954 249.466 391.048 249.18C391.141 248.893 391.304 248.634 391.522 248.425C391.739 248.216 392.005 248.063 392.296 247.981C392.586 247.899 392.893 247.889 393.188 247.953C395.474 248.274 397.364 249.264 397.277 250.629Z" fill="#333333" stroke="#333333"/>
</svg>
