<svg width="20" height="20" viewBox="0 0 20 20" fill="none" xmlns="http://www.w3.org/2000/svg">
<path d="M19.7024 4.11433C19.0066 4.42267 18.2591 4.631 17.4733 4.72517C18.2841 4.23999 18.8907 3.47639 19.1799 2.57683C18.4181 3.02932 17.5844 3.34783 16.7149 3.5185C16.1302 2.89422 15.3558 2.48044 14.5119 2.34139C13.6679 2.20235 12.8017 2.34583 12.0476 2.74954C11.2936 3.15326 10.6939 3.79463 10.3417 4.57409C9.98954 5.35354 9.90454 6.22746 10.0999 7.06017C8.55633 6.98266 7.04628 6.58146 5.66778 5.88259C4.28928 5.18372 3.07313 4.2028 2.09826 3.0035C1.76493 3.5785 1.57326 4.24517 1.57326 4.95517C1.57289 5.59433 1.73029 6.2237 2.03149 6.78744C2.3327 7.35118 2.7684 7.83186 3.29993 8.18683C2.68349 8.16722 2.08066 8.00065 1.5416 7.701V7.751C1.54153 8.64745 1.85162 9.51631 2.41925 10.2102C2.98687 10.904 3.77707 11.3801 4.65576 11.5577C4.08391 11.7124 3.48438 11.7352 2.90243 11.6243C3.15034 12.3957 3.63326 13.0702 4.28357 13.5534C4.93388 14.0367 5.71903 14.3045 6.5291 14.3193C5.15396 15.3988 3.45567 15.9844 1.70743 15.9818C1.39775 15.9819 1.08833 15.9638 0.780762 15.9277C2.55533 17.0686 4.62105 17.6742 6.73076 17.6718C13.8724 17.6718 17.7766 11.7568 17.7766 6.62683C17.7766 6.46017 17.7724 6.29183 17.7649 6.12517C18.5243 5.57598 19.1799 4.89591 19.7008 4.11683L19.7024 4.11433Z" fill="#333333"/>
</svg>
