<svg width="40" height="40" viewBox="0 0 40 40" fill="none" xmlns="http://www.w3.org/2000/svg">
<path fill-rule="evenodd" clip-rule="evenodd" d="M26.667 28.333H13.3337C12.4496 28.333 11.6018 27.9818 10.9766 27.3567C10.3515 26.7316 10.0003 25.8837 10.0003 24.9997V21.6663H30.0003V24.9997C30.0003 25.8837 29.6491 26.7316 29.024 27.3567C28.3989 27.9818 27.551 28.333 26.667 28.333ZM28.5508 33.2117C28.529 32.6132 28.3463 32.0315 28.022 31.528C29.5228 31.2161 30.8704 30.3967 31.8378 29.2077C32.8053 28.0186 33.3335 26.5326 33.3337 24.9997V9.99967C33.3337 8.23156 32.6313 6.53587 31.381 5.28563C30.1308 4.03539 28.4351 3.33301 26.667 3.33301H13.3337C11.5655 3.33301 9.86986 4.03539 8.61961 5.28563C7.36937 6.53587 6.66699 8.23156 6.66699 9.99967V24.9997C6.66719 26.5328 7.19568 28.019 8.16345 29.2081C9.13123 30.3972 10.4792 31.2165 11.9803 31.528C11.656 32.0315 11.4733 32.6132 11.4515 33.2117C11.4297 33.8103 11.5696 34.4037 11.8565 34.9294C12.1433 35.4552 12.5666 35.894 13.0817 36.1997C13.5968 36.5053 14.1847 36.6665 14.7837 36.6663H25.2187C25.8176 36.6665 26.4055 36.5053 26.9206 36.1997C27.4357 35.894 27.859 35.4552 28.1458 34.9294C28.4327 34.4037 28.5726 33.8103 28.5508 33.2117ZM30 10.0003V18.3337H10V10.0003C10 9.11627 10.3512 8.26842 10.9763 7.6433C11.6014 7.01818 12.4493 6.66699 13.3333 6.66699H26.6667C27.5507 6.66699 28.3986 7.01818 29.0237 7.6433C29.6488 8.26842 30 9.11627 30 10.0003ZM27.8452 8.82181C27.5326 8.50925 27.1087 8.33366 26.6667 8.33366C26.2246 8.33366 25.8007 8.50925 25.4882 8.82181C25.1756 9.13437 25 9.5583 25 10.0003V15.0003C25 15.4424 25.1756 15.8663 25.4882 16.1788C25.8007 16.4914 26.2246 16.667 26.6667 16.667C27.1087 16.667 27.5326 16.4914 27.8452 16.1788C28.1577 15.8663 28.3333 15.4424 28.3333 15.0003V10.0003C28.3333 9.5583 28.1577 9.13437 27.8452 8.82181Z" fill="#333333"/>
<path d="M13.3337 26.6663C12.8916 26.6663 12.4677 26.4907 12.1551 26.1782C11.8426 25.8656 11.667 25.4417 11.667 24.9997C11.667 24.5576 11.8426 24.1337 12.1551 23.8212C12.4677 23.5086 12.8916 23.333 13.3337 23.333C13.7757 23.333 14.1996 23.5086 14.5122 23.8212C14.8247 24.1337 15.0003 24.5576 15.0003 24.9997C15.0003 25.4417 14.8247 25.8656 14.5122 26.1782C14.1996 26.4907 13.7757 26.6663 13.3337 26.6663ZM26.667 26.6663C26.225 26.6663 25.801 26.4907 25.4885 26.1782C25.1759 25.8656 25.0003 25.4417 25.0003 24.9997C25.0003 24.5576 25.1759 24.1337 25.4885 23.8212C25.801 23.5086 26.225 23.333 26.667 23.333C27.109 23.333 27.5329 23.5086 27.8455 23.8212C28.1581 24.1337 28.3337 24.5576 28.3337 24.9997C28.3337 25.4417 28.1581 25.8656 27.8455 26.1782C27.5329 26.4907 27.109 26.6663 26.667 26.6663ZM14.782 33.333H25.2187L24.1087 31.6663H20.0003H15.892L14.782 33.333Z" fill="#333333"/>
</svg>
