<svg width="40" height="40" viewBox="0 0 40 40" fill="none" xmlns="http://www.w3.org/2000/svg">
<path fill-rule="evenodd" clip-rule="evenodd" d="M6.66612 20V22.0933C5.3323 22.5649 4.15906 23.4041 3.28185 24.514C2.40464 25.6239 1.85925 26.9593 1.70864 28.366C1.55803 29.7727 1.80836 31.1933 2.4307 32.4638C3.05305 33.7342 4.02205 34.8028 5.2258 35.546C6.42956 36.2893 7.81898 36.6769 9.23364 36.6641C10.6483 36.6514 12.0305 36.2388 13.2207 35.4739C14.4108 34.7091 15.3604 33.6233 15.9597 32.3418C16.5591 31.0603 16.7837 29.6354 16.6078 28.2317L21.4828 26.4583L21.4795 26.4483L21.4828 26.45L24.1195 16.6667H25.6978L27.7578 22.3233C26.077 23.0774 24.7325 24.4237 23.9807 26.1055C23.229 27.7874 23.1225 29.687 23.6815 31.4424C24.2406 33.1977 25.4262 34.6858 27.0121 35.6231C28.5981 36.5603 30.4736 36.881 32.2808 36.5241C34.0881 36.1672 35.7009 35.1576 36.8115 33.6879C37.9221 32.2181 38.453 30.391 38.3029 28.5549C38.1527 26.7189 37.3321 25.0023 35.9974 23.7325C34.6627 22.4627 32.9074 21.7285 31.0661 21.67L28.6395 15H33.3328V10H26.8195L24.9995 5H18.3328V8.33333H22.6661L24.4845 13.3333H18.6661L13.9411 16.6667H3.33279V20H6.66612ZM13.1154 22.7898C12.1695 22.2037 11.1052 21.8355 9.99946 21.7117V20H14.9995L19.7595 16.6667H20.6711L18.7295 23.9117L15.4678 25.1C14.8647 24.165 14.0612 23.3758 13.1154 22.7898ZM12.1129 32.1129C11.3315 32.8943 10.2717 33.3333 9.16667 33.3333C8.0616 33.3333 7.00179 32.8943 6.22039 32.1129C5.43899 31.3315 5 30.2717 5 29.1667C5 28.0616 5.43899 27.0018 6.22039 26.2204C7.00179 25.439 8.0616 25 9.16667 25C10.2717 25 11.3315 25.439 12.1129 26.2204C12.8943 27.0018 13.3333 28.0616 13.3333 29.1667C13.3333 30.2717 12.8943 31.3315 12.1129 32.1129ZM33.7796 32.1129C32.9982 32.8943 31.9384 33.3333 30.8333 33.3333C29.7283 33.3333 28.6685 32.8943 27.8871 32.1129C27.1057 31.3315 26.6667 30.2717 26.6667 29.1667C26.6667 28.0616 27.1057 27.0018 27.8871 26.2204C28.6685 25.439 29.7283 25 30.8333 25C31.9384 25 32.9982 25.439 33.7796 26.2204C34.561 27.0018 35 28.0616 35 29.1667C35 30.2717 34.561 31.3315 33.7796 32.1129Z" fill="#333333"/>
</svg>
