<svg width="30" height="53" viewBox="0 0 30 53" fill="none" xmlns="http://www.w3.org/2000/svg">
<g opacity="0.4">
<path d="M14.9941 0.0117188H11.2441V3.76172H14.9941V0.0117188ZM0 3.75996V7.50996H3.75V3.75996H0ZM7.5 0.0117188H3.75V3.76172H7.5V0.0117188ZM11.25 15.0059V18.7559H15V15.0059H11.25ZM0 11.257V15.007H3.75V11.257H0ZM22.4912 0.0117188H18.7412V3.76172H22.4912V0.0117188ZM29.9912 0.0117188H26.2412V3.76172H29.9912V0.0117188ZM7.5 15.0059H3.75V18.7559H7.5V15.0059ZM29.9883 26.25V22.5H26.2383V26.25H29.9883ZM29.9883 18.75V15H26.2383V18.75H29.9883ZM22.4912 30H26.2412V26.25H22.4912V30ZM29.9912 11.257V7.50703H26.2412V11.257H29.9912ZM7.5 30H11.25V26.25H7.5V30ZM0 30H3.75V26.25H0V30ZM14.9941 30H18.7441V26.25H14.9941V30ZM0 18.7541V22.5041H3.75V18.7541H0ZM18.743 7.50879V3.75879H14.993V7.50879H18.743ZM14.993 15.0088H18.743V11.2588H14.993V15.0088ZM11.243 22.5088V26.2588H14.993V22.5088H11.243ZM18.743 18.7588H22.493V15.0088H18.743V18.7588ZM18.743 11.2617H22.493V7.51172H18.743V11.2617ZM18.743 22.5076V26.2576H22.493V22.5076H18.743ZM3.75 22.5029V26.2529H7.5V22.5029H3.75ZM11.25 7.50879V3.75879H7.5V7.50879H11.25ZM22.4953 22.5029H26.2453V18.7529H22.4953V22.5029ZM14.9953 11.257V7.50703H11.2453V11.257H14.9953ZM22.4953 3.75996V7.50996H26.2453V3.75996H22.4953ZM14.9953 18.7541V22.5041H18.7453V18.7541H14.9953ZM11.2453 11.257H7.5V15.007H11.25L11.2453 11.257ZM22.4906 15.007H26.2406V11.257H22.4906V15.007ZM7.5 7.50879H3.75V11.2588H7.5V7.50879ZM7.5 18.7541V22.5041H11.25V18.7541H7.5Z" fill="#333333"/>
</g>
<path d="M5.66611 36.29V40H5.06611V39.655C4.96278 39.7817 4.83445 39.8767 4.68111 39.94C4.53111 40.0033 4.36445 40.035 4.18111 40.035C3.92445 40.035 3.69278 39.9783 3.48611 39.865C3.28278 39.7517 3.12278 39.5917 3.00611 39.385C2.88945 39.175 2.83111 38.935 2.83111 38.665C2.83111 38.395 2.88945 38.1567 3.00611 37.95C3.12278 37.7433 3.28278 37.5833 3.48611 37.47C3.69278 37.3567 3.92445 37.3 4.18111 37.3C4.35778 37.3 4.51945 37.33 4.66611 37.39C4.81278 37.45 4.93778 37.54 5.04111 37.66V36.29H5.66611ZM4.25611 39.5C4.40611 39.5 4.54111 39.4667 4.66111 39.4C4.78111 39.33 4.87611 39.2317 4.94611 39.105C5.01611 38.9783 5.05111 38.8317 5.05111 38.665C5.05111 38.4983 5.01611 38.3517 4.94611 38.225C4.87611 38.0983 4.78111 38.0017 4.66111 37.935C4.54111 37.865 4.40611 37.83 4.25611 37.83C4.10611 37.83 3.97111 37.865 3.85111 37.935C3.73111 38.0017 3.63611 38.0983 3.56611 38.225C3.49611 38.3517 3.46111 38.4983 3.46111 38.665C3.46111 38.8317 3.49611 38.9783 3.56611 39.105C3.63611 39.2317 3.73111 39.33 3.85111 39.4C3.97111 39.4667 4.10611 39.5 4.25611 39.5ZM8.99373 38.68C8.99373 38.7233 8.9904 38.785 8.98373 38.865H6.88873C6.9254 39.0617 7.0204 39.2183 7.17373 39.335C7.3304 39.4483 7.52373 39.505 7.75373 39.505C8.04706 39.505 8.28873 39.4083 8.47873 39.215L8.81373 39.6C8.69373 39.7433 8.54206 39.8517 8.35873 39.925C8.1754 39.9983 7.96873 40.035 7.73873 40.035C7.4454 40.035 7.18706 39.9767 6.96373 39.86C6.7404 39.7433 6.56706 39.5817 6.44373 39.375C6.32373 39.165 6.26373 38.9283 6.26373 38.665C6.26373 38.405 6.32206 38.1717 6.43873 37.965C6.55873 37.755 6.72373 37.5917 6.93373 37.475C7.14373 37.3583 7.3804 37.3 7.64373 37.3C7.90373 37.3 8.1354 37.3583 8.33873 37.475C8.5454 37.5883 8.7054 37.75 8.81873 37.96C8.9354 38.1667 8.99373 38.4067 8.99373 38.68ZM7.64373 37.8C7.44373 37.8 7.27373 37.86 7.13373 37.98C6.99706 38.0967 6.91373 38.2533 6.88373 38.45H8.39873C8.37206 38.2567 8.2904 38.1 8.15373 37.98C8.01706 37.86 7.84706 37.8 7.64373 37.8ZM10.4191 40.035C10.2024 40.035 9.99075 40.0067 9.78408 39.95C9.57742 39.8933 9.41242 39.8217 9.28908 39.735L9.52908 39.26C9.64908 39.34 9.79242 39.405 9.95908 39.455C10.1291 39.5017 10.2957 39.525 10.4591 39.525C10.8324 39.525 11.0191 39.4267 11.0191 39.23C11.0191 39.1367 10.9707 39.0717 10.8741 39.035C10.7807 38.9983 10.6291 38.9633 10.4191 38.93C10.1991 38.8967 10.0191 38.8583 9.87908 38.815C9.74242 38.7717 9.62242 38.6967 9.51908 38.59C9.41908 38.48 9.36908 38.3283 9.36908 38.135C9.36908 37.8817 9.47408 37.68 9.68408 37.53C9.89742 37.3767 10.1841 37.3 10.5441 37.3C10.7274 37.3 10.9107 37.3217 11.0941 37.365C11.2774 37.405 11.4274 37.46 11.5441 37.53L11.3041 38.005C11.0774 37.8717 10.8224 37.805 10.5391 37.805C10.3557 37.805 10.2157 37.8333 10.1191 37.89C10.0257 37.9433 9.97908 38.015 9.97908 38.105C9.97908 38.205 10.0291 38.2767 10.1291 38.32C10.2324 38.36 10.3907 38.3983 10.6041 38.435C10.8174 38.4683 10.9924 38.5067 11.1291 38.55C11.2657 38.5933 11.3824 38.6667 11.4791 38.77C11.5791 38.8733 11.6291 39.02 11.6291 39.21C11.6291 39.46 11.5207 39.66 11.3041 39.81C11.0874 39.96 10.7924 40.035 10.4191 40.035ZM13.3923 40.035C13.1157 40.035 12.8673 39.9767 12.6473 39.86C12.4273 39.7433 12.2557 39.5817 12.1323 39.375C12.009 39.165 11.9473 38.9283 11.9473 38.665C11.9473 38.4017 12.009 38.1667 12.1323 37.96C12.2557 37.7533 12.4257 37.5917 12.6423 37.475C12.8623 37.3583 13.1123 37.3 13.3923 37.3C13.6557 37.3 13.8857 37.3533 14.0823 37.46C14.2823 37.5667 14.4323 37.72 14.5323 37.92L14.0523 38.2C13.9757 38.0767 13.879 37.985 13.7623 37.925C13.649 37.8617 13.524 37.83 13.3873 37.83C13.154 37.83 12.9607 37.9067 12.8073 38.06C12.654 38.21 12.5773 38.4117 12.5773 38.665C12.5773 38.9183 12.6523 39.1217 12.8023 39.275C12.9557 39.425 13.1507 39.5 13.3873 39.5C13.524 39.5 13.649 39.47 13.7623 39.41C13.879 39.3467 13.9757 39.2533 14.0523 39.13L14.5323 39.41C14.429 39.61 14.2773 39.765 14.0773 39.875C13.8807 39.9817 13.6523 40.035 13.3923 40.035ZM16.0926 37.3C16.4859 37.3 16.7859 37.395 16.9926 37.585C17.2026 37.7717 17.3076 38.055 17.3076 38.435V40H16.7176V39.675C16.6409 39.7917 16.5309 39.8817 16.3876 39.945C16.2476 40.005 16.0776 40.035 15.8776 40.035C15.6776 40.035 15.5026 40.0017 15.3526 39.935C15.2026 39.865 15.0859 39.77 15.0026 39.65C14.9226 39.5267 14.8826 39.3883 14.8826 39.235C14.8826 38.995 14.9709 38.8033 15.1476 38.66C15.3276 38.5133 15.6093 38.44 15.9926 38.44H16.6826V38.4C16.6826 38.2133 16.6259 38.07 16.5126 37.97C16.4026 37.87 16.2376 37.82 16.0176 37.82C15.8676 37.82 15.7193 37.8433 15.5726 37.89C15.4293 37.9367 15.3076 38.0017 15.2076 38.085L14.9626 37.63C15.1026 37.5233 15.2709 37.4417 15.4676 37.385C15.6643 37.3283 15.8726 37.3 16.0926 37.3ZM16.0076 39.58C16.1643 39.58 16.3026 39.545 16.4226 39.475C16.5459 39.4017 16.6326 39.2983 16.6826 39.165V38.855H16.0376C15.6776 38.855 15.4976 38.9733 15.4976 39.21C15.4976 39.3233 15.5426 39.4133 15.6326 39.48C15.7226 39.5467 15.8476 39.58 16.0076 39.58ZM18.7047 37.72C18.8847 37.44 19.2014 37.3 19.6547 37.3V37.895C19.6014 37.885 19.553 37.88 19.5097 37.88C19.2664 37.88 19.0764 37.9517 18.9397 38.095C18.803 38.235 18.7347 38.4383 18.7347 38.705V40H18.1097V37.33H18.7047V37.72ZM22.8105 37.33V39.595C22.8105 40.535 22.3305 41.005 21.3705 41.005C21.1138 41.005 20.8705 40.9717 20.6405 40.905C20.4105 40.8417 20.2205 40.7483 20.0705 40.625L20.3505 40.155C20.4672 40.2517 20.6138 40.3283 20.7905 40.385C20.9705 40.445 21.1522 40.475 21.3355 40.475C21.6288 40.475 21.8438 40.4083 21.9805 40.275C22.1172 40.1417 22.1855 39.9383 22.1855 39.665V39.525C22.0788 39.6417 21.9488 39.73 21.7955 39.79C21.6422 39.85 21.4738 39.88 21.2905 39.88C21.0372 39.88 20.8072 39.8267 20.6005 39.72C20.3972 39.61 20.2355 39.4567 20.1155 39.26C19.9988 39.0633 19.9405 38.8383 19.9405 38.585C19.9405 38.3317 19.9988 38.1083 20.1155 37.915C20.2355 37.7183 20.3972 37.5667 20.6005 37.46C20.8072 37.3533 21.0372 37.3 21.2905 37.3C21.4838 37.3 21.6588 37.3317 21.8155 37.395C21.9755 37.4583 22.1088 37.555 22.2155 37.685V37.33H22.8105ZM21.3855 39.35C21.6222 39.35 21.8155 39.28 21.9655 39.14C22.1188 38.9967 22.1955 38.8117 22.1955 38.585C22.1955 38.3617 22.1188 38.18 21.9655 38.04C21.8155 37.9 21.6222 37.83 21.3855 37.83C21.1455 37.83 20.9488 37.9 20.7955 38.04C20.6455 38.18 20.5705 38.3617 20.5705 38.585C20.5705 38.8117 20.6455 38.9967 20.7955 39.14C20.9488 39.28 21.1455 39.35 21.3855 39.35ZM24.6522 37.3C25.0455 37.3 25.3455 37.395 25.5522 37.585C25.7622 37.7717 25.8672 38.055 25.8672 38.435V40H25.2772V39.675C25.2005 39.7917 25.0905 39.8817 24.9472 39.945C24.8072 40.005 24.6372 40.035 24.4372 40.035C24.2372 40.035 24.0622 40.0017 23.9122 39.935C23.7622 39.865 23.6455 39.77 23.5622 39.65C23.4822 39.5267 23.4422 39.3883 23.4422 39.235C23.4422 38.995 23.5305 38.8033 23.7072 38.66C23.8872 38.5133 24.1688 38.44 24.5522 38.44H25.2422V38.4C25.2422 38.2133 25.1855 38.07 25.0722 37.97C24.9622 37.87 24.7972 37.82 24.5772 37.82C24.4272 37.82 24.2788 37.8433 24.1322 37.89C23.9888 37.9367 23.8672 38.0017 23.7672 38.085L23.5222 37.63C23.6622 37.5233 23.8305 37.4417 24.0272 37.385C24.2238 37.3283 24.4322 37.3 24.6522 37.3ZM24.5672 39.58C24.7238 39.58 24.8622 39.545 24.9822 39.475C25.1055 39.4017 25.1922 39.2983 25.2422 39.165V38.855H24.5972C24.2372 38.855 24.0572 38.9733 24.0572 39.21C24.0572 39.3233 24.1022 39.4133 24.1922 39.48C24.2822 39.5467 24.4072 39.58 24.5672 39.58ZM27.2643 37.72C27.4443 37.44 27.7609 37.3 28.2143 37.3V37.895C28.1609 37.885 28.1126 37.88 28.0693 37.88C27.8259 37.88 27.6359 37.9517 27.4993 38.095C27.3626 38.235 27.2943 38.4383 27.2943 38.705V40H26.6693V37.33H27.2643V37.72ZM7.83074 45C8.43741 45 8.96408 45.1 9.41074 45.3C9.86408 45.5 10.2107 45.7867 10.4507 46.16C10.6907 46.5333 10.8107 46.9767 10.8107 47.49C10.8107 47.9967 10.6907 48.44 10.4507 48.82C10.2107 49.1933 9.86408 49.48 9.41074 49.68C8.96408 49.88 8.43741 49.98 7.83074 49.98H6.25074V52H4.95074V45H7.83074ZM7.77074 48.88C8.33741 48.88 8.76741 48.76 9.06074 48.52C9.35408 48.28 9.50074 47.9367 9.50074 47.49C9.50074 47.0433 9.35408 46.7 9.06074 46.46C8.76741 46.22 8.33741 46.1 7.77074 46.1H6.25074V48.88H7.77074ZM18.3289 45V52H17.2589L13.3989 47.26V52H12.1089V45H13.1789L17.0389 49.74V45H18.3289ZM24.9846 48.42H26.2146V51.21C25.8546 51.4967 25.4346 51.7167 24.9546 51.87C24.4746 52.0233 23.9813 52.1 23.4746 52.1C22.7613 52.1 22.118 51.9467 21.5446 51.64C20.9713 51.3267 20.5213 50.8967 20.1946 50.35C19.868 49.8033 19.7046 49.1867 19.7046 48.5C19.7046 47.8133 19.868 47.1967 20.1946 46.65C20.5213 46.1033 20.9713 45.6767 21.5446 45.37C22.1246 45.0567 22.7746 44.9 23.4946 44.9C24.0813 44.9 24.6146 44.9967 25.0946 45.19C25.5746 45.3833 25.978 45.6667 26.3046 46.04L25.4846 46.84C24.9513 46.3067 24.308 46.04 23.5546 46.04C23.0613 46.04 22.6213 46.1433 22.2346 46.35C21.8546 46.5567 21.5546 46.8467 21.3346 47.22C21.1213 47.5933 21.0146 48.02 21.0146 48.5C21.0146 48.9667 21.1213 49.3867 21.3346 49.76C21.5546 50.1333 21.8546 50.4267 22.2346 50.64C22.6213 50.8533 23.058 50.96 23.5446 50.96C24.0913 50.96 24.5713 50.84 24.9846 50.6V48.42Z" fill="#333333"/>
</svg>
