<svg width="30" height="53" viewBox="0 0 30 53" fill="none" xmlns="http://www.w3.org/2000/svg">
<path d="M5.66611 36.29V40H5.06611V39.655C4.96278 39.7817 4.83445 39.8767 4.68111 39.94C4.53111 40.0033 4.36445 40.035 4.18111 40.035C3.92445 40.035 3.69278 39.9783 3.48611 39.865C3.28278 39.7517 3.12278 39.5917 3.00611 39.385C2.88945 39.175 2.83111 38.935 2.83111 38.665C2.83111 38.395 2.88945 38.1567 3.00611 37.95C3.12278 37.7433 3.28278 37.5833 3.48611 37.47C3.69278 37.3567 3.92445 37.3 4.18111 37.3C4.35778 37.3 4.51945 37.33 4.66611 37.39C4.81278 37.45 4.93778 37.54 5.04111 37.66V36.29H5.66611ZM4.25611 39.5C4.40611 39.5 4.54111 39.4667 4.66111 39.4C4.78111 39.33 4.87611 39.2317 4.94611 39.105C5.01611 38.9783 5.05111 38.8317 5.05111 38.665C5.05111 38.4983 5.01611 38.3517 4.94611 38.225C4.87611 38.0983 4.78111 38.0017 4.66111 37.935C4.54111 37.865 4.40611 37.83 4.25611 37.83C4.10611 37.83 3.97111 37.865 3.85111 37.935C3.73111 38.0017 3.63611 38.0983 3.56611 38.225C3.49611 38.3517 3.46111 38.4983 3.46111 38.665C3.46111 38.8317 3.49611 38.9783 3.56611 39.105C3.63611 39.2317 3.73111 39.33 3.85111 39.4C3.97111 39.4667 4.10611 39.5 4.25611 39.5ZM8.99373 38.68C8.99373 38.7233 8.9904 38.785 8.98373 38.865H6.88873C6.9254 39.0617 7.0204 39.2183 7.17373 39.335C7.3304 39.4483 7.52373 39.505 7.75373 39.505C8.04706 39.505 8.28873 39.4083 8.47873 39.215L8.81373 39.6C8.69373 39.7433 8.54206 39.8517 8.35873 39.925C8.1754 39.9983 7.96873 40.035 7.73873 40.035C7.4454 40.035 7.18706 39.9767 6.96373 39.86C6.7404 39.7433 6.56706 39.5817 6.44373 39.375C6.32373 39.165 6.26373 38.9283 6.26373 38.665C6.26373 38.405 6.32206 38.1717 6.43873 37.965C6.55873 37.755 6.72373 37.5917 6.93373 37.475C7.14373 37.3583 7.3804 37.3 7.64373 37.3C7.90373 37.3 8.1354 37.3583 8.33873 37.475C8.5454 37.5883 8.7054 37.75 8.81873 37.96C8.9354 38.1667 8.99373 38.4067 8.99373 38.68ZM7.64373 37.8C7.44373 37.8 7.27373 37.86 7.13373 37.98C6.99706 38.0967 6.91373 38.2533 6.88373 38.45H8.39873C8.37206 38.2567 8.2904 38.1 8.15373 37.98C8.01706 37.86 7.84706 37.8 7.64373 37.8ZM10.4191 40.035C10.2024 40.035 9.99075 40.0067 9.78408 39.95C9.57742 39.8933 9.41242 39.8217 9.28908 39.735L9.52908 39.26C9.64908 39.34 9.79242 39.405 9.95908 39.455C10.1291 39.5017 10.2957 39.525 10.4591 39.525C10.8324 39.525 11.0191 39.4267 11.0191 39.23C11.0191 39.1367 10.9707 39.0717 10.8741 39.035C10.7807 38.9983 10.6291 38.9633 10.4191 38.93C10.1991 38.8967 10.0191 38.8583 9.87908 38.815C9.74242 38.7717 9.62242 38.6967 9.51908 38.59C9.41908 38.48 9.36908 38.3283 9.36908 38.135C9.36908 37.8817 9.47408 37.68 9.68408 37.53C9.89742 37.3767 10.1841 37.3 10.5441 37.3C10.7274 37.3 10.9107 37.3217 11.0941 37.365C11.2774 37.405 11.4274 37.46 11.5441 37.53L11.3041 38.005C11.0774 37.8717 10.8224 37.805 10.5391 37.805C10.3557 37.805 10.2157 37.8333 10.1191 37.89C10.0257 37.9433 9.97908 38.015 9.97908 38.105C9.97908 38.205 10.0291 38.2767 10.1291 38.32C10.2324 38.36 10.3907 38.3983 10.6041 38.435C10.8174 38.4683 10.9924 38.5067 11.1291 38.55C11.2657 38.5933 11.3824 38.6667 11.4791 38.77C11.5791 38.8733 11.6291 39.02 11.6291 39.21C11.6291 39.46 11.5207 39.66 11.3041 39.81C11.0874 39.96 10.7924 40.035 10.4191 40.035ZM13.3923 40.035C13.1157 40.035 12.8673 39.9767 12.6473 39.86C12.4273 39.7433 12.2557 39.5817 12.1323 39.375C12.009 39.165 11.9473 38.9283 11.9473 38.665C11.9473 38.4017 12.009 38.1667 12.1323 37.96C12.2557 37.7533 12.4257 37.5917 12.6423 37.475C12.8623 37.3583 13.1123 37.3 13.3923 37.3C13.6557 37.3 13.8857 37.3533 14.0823 37.46C14.2823 37.5667 14.4323 37.72 14.5323 37.92L14.0523 38.2C13.9757 38.0767 13.879 37.985 13.7623 37.925C13.649 37.8617 13.524 37.83 13.3873 37.83C13.154 37.83 12.9607 37.9067 12.8073 38.06C12.654 38.21 12.5773 38.4117 12.5773 38.665C12.5773 38.9183 12.6523 39.1217 12.8023 39.275C12.9557 39.425 13.1507 39.5 13.3873 39.5C13.524 39.5 13.649 39.47 13.7623 39.41C13.879 39.3467 13.9757 39.2533 14.0523 39.13L14.5323 39.41C14.429 39.61 14.2773 39.765 14.0773 39.875C13.8807 39.9817 13.6523 40.035 13.3923 40.035ZM16.0926 37.3C16.4859 37.3 16.7859 37.395 16.9926 37.585C17.2026 37.7717 17.3076 38.055 17.3076 38.435V40H16.7176V39.675C16.6409 39.7917 16.5309 39.8817 16.3876 39.945C16.2476 40.005 16.0776 40.035 15.8776 40.035C15.6776 40.035 15.5026 40.0017 15.3526 39.935C15.2026 39.865 15.0859 39.77 15.0026 39.65C14.9226 39.5267 14.8826 39.3883 14.8826 39.235C14.8826 38.995 14.9709 38.8033 15.1476 38.66C15.3276 38.5133 15.6093 38.44 15.9926 38.44H16.6826V38.4C16.6826 38.2133 16.6259 38.07 16.5126 37.97C16.4026 37.87 16.2376 37.82 16.0176 37.82C15.8676 37.82 15.7193 37.8433 15.5726 37.89C15.4293 37.9367 15.3076 38.0017 15.2076 38.085L14.9626 37.63C15.1026 37.5233 15.2709 37.4417 15.4676 37.385C15.6643 37.3283 15.8726 37.3 16.0926 37.3ZM16.0076 39.58C16.1643 39.58 16.3026 39.545 16.4226 39.475C16.5459 39.4017 16.6326 39.2983 16.6826 39.165V38.855H16.0376C15.6776 38.855 15.4976 38.9733 15.4976 39.21C15.4976 39.3233 15.5426 39.4133 15.6326 39.48C15.7226 39.5467 15.8476 39.58 16.0076 39.58ZM18.7047 37.72C18.8847 37.44 19.2014 37.3 19.6547 37.3V37.895C19.6014 37.885 19.553 37.88 19.5097 37.88C19.2664 37.88 19.0764 37.9517 18.9397 38.095C18.803 38.235 18.7347 38.4383 18.7347 38.705V40H18.1097V37.33H18.7047V37.72ZM22.8105 37.33V39.595C22.8105 40.535 22.3305 41.005 21.3705 41.005C21.1138 41.005 20.8705 40.9717 20.6405 40.905C20.4105 40.8417 20.2205 40.7483 20.0705 40.625L20.3505 40.155C20.4672 40.2517 20.6138 40.3283 20.7905 40.385C20.9705 40.445 21.1522 40.475 21.3355 40.475C21.6288 40.475 21.8438 40.4083 21.9805 40.275C22.1172 40.1417 22.1855 39.9383 22.1855 39.665V39.525C22.0788 39.6417 21.9488 39.73 21.7955 39.79C21.6422 39.85 21.4738 39.88 21.2905 39.88C21.0372 39.88 20.8072 39.8267 20.6005 39.72C20.3972 39.61 20.2355 39.4567 20.1155 39.26C19.9988 39.0633 19.9405 38.8383 19.9405 38.585C19.9405 38.3317 19.9988 38.1083 20.1155 37.915C20.2355 37.7183 20.3972 37.5667 20.6005 37.46C20.8072 37.3533 21.0372 37.3 21.2905 37.3C21.4838 37.3 21.6588 37.3317 21.8155 37.395C21.9755 37.4583 22.1088 37.555 22.2155 37.685V37.33H22.8105ZM21.3855 39.35C21.6222 39.35 21.8155 39.28 21.9655 39.14C22.1188 38.9967 22.1955 38.8117 22.1955 38.585C22.1955 38.3617 22.1188 38.18 21.9655 38.04C21.8155 37.9 21.6222 37.83 21.3855 37.83C21.1455 37.83 20.9488 37.9 20.7955 38.04C20.6455 38.18 20.5705 38.3617 20.5705 38.585C20.5705 38.8117 20.6455 38.9967 20.7955 39.14C20.9488 39.28 21.1455 39.35 21.3855 39.35ZM24.6522 37.3C25.0455 37.3 25.3455 37.395 25.5522 37.585C25.7622 37.7717 25.8672 38.055 25.8672 38.435V40H25.2772V39.675C25.2005 39.7917 25.0905 39.8817 24.9472 39.945C24.8072 40.005 24.6372 40.035 24.4372 40.035C24.2372 40.035 24.0622 40.0017 23.9122 39.935C23.7622 39.865 23.6455 39.77 23.5622 39.65C23.4822 39.5267 23.4422 39.3883 23.4422 39.235C23.4422 38.995 23.5305 38.8033 23.7072 38.66C23.8872 38.5133 24.1688 38.44 24.5522 38.44H25.2422V38.4C25.2422 38.2133 25.1855 38.07 25.0722 37.97C24.9622 37.87 24.7972 37.82 24.5772 37.82C24.4272 37.82 24.2788 37.8433 24.1322 37.89C23.9888 37.9367 23.8672 38.0017 23.7672 38.085L23.5222 37.63C23.6622 37.5233 23.8305 37.4417 24.0272 37.385C24.2238 37.3283 24.4322 37.3 24.6522 37.3ZM24.5672 39.58C24.7238 39.58 24.8622 39.545 24.9822 39.475C25.1055 39.4017 25.1922 39.2983 25.2422 39.165V38.855H24.5972C24.2372 38.855 24.0572 38.9733 24.0572 39.21C24.0572 39.3233 24.1022 39.4133 24.1922 39.48C24.2822 39.5467 24.4072 39.58 24.5672 39.58ZM27.2643 37.72C27.4443 37.44 27.7609 37.3 28.2143 37.3V37.895C28.1609 37.885 28.1126 37.88 28.0693 37.88C27.8259 37.88 27.6359 37.9517 27.4993 38.095C27.3626 38.235 27.2943 38.4383 27.2943 38.705V40H26.6693V37.33H27.2643V37.72ZM8.07289 52.1C7.53289 52.1 7.00956 52.0233 6.50289 51.87C6.00289 51.7167 5.60622 51.5133 5.31289 51.26L5.76289 50.25C6.04956 50.4767 6.39956 50.6633 6.81289 50.81C7.23289 50.95 7.65289 51.02 8.07289 51.02C8.59289 51.02 8.97956 50.9367 9.23289 50.77C9.49289 50.6033 9.62289 50.3833 9.62289 50.11C9.62289 49.91 9.54956 49.7467 9.40289 49.62C9.26289 49.4867 9.08289 49.3833 8.86289 49.31C8.64289 49.2367 8.34289 49.1533 7.96289 49.06C7.42956 48.9333 6.99622 48.8067 6.66289 48.68C6.33622 48.5533 6.05289 48.3567 5.81289 48.09C5.57956 47.8167 5.46289 47.45 5.46289 46.99C5.46289 46.6033 5.56622 46.2533 5.77289 45.94C5.98622 45.62 6.30289 45.3667 6.72289 45.18C7.14956 44.9933 7.66956 44.9 8.28289 44.9C8.70956 44.9 9.12956 44.9533 9.54289 45.06C9.95622 45.1667 10.3129 45.32 10.6129 45.52L10.2029 46.53C9.89622 46.35 9.57622 46.2133 9.24289 46.12C8.90956 46.0267 8.58622 45.98 8.27289 45.98C7.75956 45.98 7.37622 46.0667 7.12289 46.24C6.87622 46.4133 6.75289 46.6433 6.75289 46.93C6.75289 47.13 6.82289 47.2933 6.96289 47.42C7.10956 47.5467 7.29289 47.6467 7.51289 47.72C7.73289 47.7933 8.03289 47.8767 8.41289 47.97C8.93289 48.09 9.35956 48.2167 9.69289 48.35C10.0262 48.4767 10.3096 48.6733 10.5429 48.94C10.7829 49.2067 10.9029 49.5667 10.9029 50.02C10.9029 50.4067 10.7962 50.7567 10.5829 51.07C10.3762 51.3833 10.0596 51.6333 9.63289 51.82C9.20622 52.0067 8.68622 52.1 8.07289 52.1ZM18.592 45L15.542 52H14.262L11.202 45H12.612L14.942 50.4L17.292 45H18.592ZM24.0325 48.42H25.2625V51.21C24.9025 51.4967 24.4825 51.7167 24.0025 51.87C23.5225 52.0233 23.0292 52.1 22.5225 52.1C21.8092 52.1 21.1658 51.9467 20.5925 51.64C20.0192 51.3267 19.5692 50.8967 19.2425 50.35C18.9158 49.8033 18.7525 49.1867 18.7525 48.5C18.7525 47.8133 18.9158 47.1967 19.2425 46.65C19.5692 46.1033 20.0192 45.6767 20.5925 45.37C21.1725 45.0567 21.8225 44.9 22.5425 44.9C23.1292 44.9 23.6625 44.9967 24.1425 45.19C24.6225 45.3833 25.0258 45.6667 25.3525 46.04L24.5325 46.84C23.9992 46.3067 23.3558 46.04 22.6025 46.04C22.1092 46.04 21.6692 46.1433 21.2825 46.35C20.9025 46.5567 20.6025 46.8467 20.3825 47.22C20.1692 47.5933 20.0625 48.02 20.0625 48.5C20.0625 48.9667 20.1692 49.3867 20.3825 49.76C20.6025 50.1333 20.9025 50.4267 21.2825 50.64C21.6692 50.8533 22.1058 50.96 22.5925 50.96C23.1392 50.96 23.6192 50.84 24.0325 50.6V48.42Z" fill="#333333"/>
<path d="M22.8463 10C23.28 10.745 24.0775 11.25 25 11.25C25.663 11.25 26.2989 10.9866 26.7678 10.5178C27.2366 10.0489 27.5 9.41304 27.5 8.75C27.5 8.08696 27.2366 7.45107 26.7678 6.98223C26.2989 6.51339 25.663 6.25 25 6.25C24.0775 6.25 23.28 6.755 22.8463 7.5H20V5C20 4.66848 19.8683 4.35054 19.6339 4.11612C19.3995 3.8817 19.0815 3.75 18.75 3.75H11.25C10.9185 3.75 10.6005 3.8817 10.3661 4.11612C10.1317 4.35054 10 4.66848 10 5V7.5H7.15375C6.72 6.755 5.9225 6.25 5 6.25C4.33696 6.25 3.70107 6.51339 3.23223 6.98223C2.76339 7.45107 2.5 8.08696 2.5 8.75C2.5 9.41304 2.76339 10.0489 3.23223 10.5178C3.70107 10.9866 4.33696 11.25 5 11.25C5.9225 11.25 6.72 10.745 7.15375 10H10V10.4613C6.41625 12.3 5.3975 15.6675 5.11375 17.5H3.75C3.41848 17.5 3.10054 17.6317 2.86612 17.8661C2.6317 18.1005 2.5 18.4185 2.5 18.75V23.75C2.5 24.0815 2.6317 24.3995 2.86612 24.6339C3.10054 24.8683 3.41848 25 3.75 25H8.75C9.08152 25 9.39946 24.8683 9.63388 24.6339C9.8683 24.3995 10 24.0815 10 23.75V18.75C10 18.4185 9.8683 18.1005 9.63388 17.8661C9.39946 17.6317 9.08152 17.5 8.75 17.5H7.65375C7.9 16.3013 8.55125 14.4925 10.26 13.2275C10.3719 13.3867 10.52 13.5171 10.6921 13.6079C10.8642 13.6987 11.0554 13.7474 11.25 13.75H18.75C18.9448 13.7477 19.1362 13.699 19.3084 13.6079C19.4805 13.5168 19.6285 13.386 19.74 13.2263C21.4562 14.4925 22.1088 16.2987 22.3513 17.5H21.25C20.9185 17.5 20.6005 17.6317 20.3661 17.8661C20.1317 18.1005 20 18.4185 20 18.75V23.75C20 24.0815 20.1317 24.3995 20.3661 24.6339C20.6005 24.8683 20.9185 25 21.25 25H26.25C26.5815 25 26.8995 24.8683 27.1339 24.6339C27.3683 24.3995 27.5 24.0815 27.5 23.75V18.75C27.5 18.4185 27.3683 18.1005 27.1339 17.8661C26.8995 17.6317 26.5815 17.5 26.25 17.5H24.885C24.6013 15.6675 23.5825 12.2987 20 10.46V10H22.8463ZM7.5 22.5H5V20H7.5V22.5ZM25 22.5H22.5V20H25V22.5ZM17.5 11.25H12.5V6.25H17.5V11.25Z" fill="#333333"/>
</svg>
