<svg width="33" height="52" viewBox="0 0 33 52" fill="none" xmlns="http://www.w3.org/2000/svg">
<path d="M16 22.5C21.5228 22.5 26 18.0228 26 12.5C26 6.97715 21.5228 2.5 16 2.5C10.4772 2.5 6 6.97715 6 12.5C6 18.0228 10.4772 22.5 16 22.5Z" stroke="#333333" stroke-width="3" stroke-linecap="round" stroke-linejoin="round"/>
<path d="M16 16.25C18.0711 16.25 19.75 14.5711 19.75 12.5C19.75 10.4289 18.0711 8.75 16 8.75C13.9289 8.75 12.25 10.4289 12.25 12.5C12.25 14.5711 13.9289 16.25 16 16.25Z" stroke="#333333" stroke-width="3" stroke-linecap="round" stroke-linejoin="round"/>
<path d="M16 27.5V22.5V27.5ZM9.75 27.5H16H9.75ZM22.25 27.5H16H22.25Z" stroke="#333333" stroke-width="3" stroke-linecap="round" stroke-linejoin="round"/>
<path d="M6.66611 36.29V40H6.06611V39.655C5.96278 39.7817 5.83445 39.8767 5.68111 39.94C5.53111 40.0033 5.36445 40.035 5.18111 40.035C4.92445 40.035 4.69278 39.9783 4.48611 39.865C4.28278 39.7517 4.12278 39.5917 4.00611 39.385C3.88945 39.175 3.83111 38.935 3.83111 38.665C3.83111 38.395 3.88945 38.1567 4.00611 37.95C4.12278 37.7433 4.28278 37.5833 4.48611 37.47C4.69278 37.3567 4.92445 37.3 5.18111 37.3C5.35778 37.3 5.51945 37.33 5.66611 37.39C5.81278 37.45 5.93778 37.54 6.04111 37.66V36.29H6.66611ZM5.25611 39.5C5.40611 39.5 5.54111 39.4667 5.66111 39.4C5.78111 39.33 5.87611 39.2317 5.94611 39.105C6.01611 38.9783 6.05111 38.8317 6.05111 38.665C6.05111 38.4983 6.01611 38.3517 5.94611 38.225C5.87611 38.0983 5.78111 38.0017 5.66111 37.935C5.54111 37.865 5.40611 37.83 5.25611 37.83C5.10611 37.83 4.97111 37.865 4.85111 37.935C4.73111 38.0017 4.63611 38.0983 4.56611 38.225C4.49611 38.3517 4.46111 38.4983 4.46111 38.665C4.46111 38.8317 4.49611 38.9783 4.56611 39.105C4.63611 39.2317 4.73111 39.33 4.85111 39.4C4.97111 39.4667 5.10611 39.5 5.25611 39.5ZM9.99373 38.68C9.99373 38.7233 9.9904 38.785 9.98373 38.865H7.88873C7.9254 39.0617 8.0204 39.2183 8.17373 39.335C8.3304 39.4483 8.52373 39.505 8.75373 39.505C9.04706 39.505 9.28873 39.4083 9.47873 39.215L9.81373 39.6C9.69373 39.7433 9.54206 39.8517 9.35873 39.925C9.1754 39.9983 8.96873 40.035 8.73873 40.035C8.4454 40.035 8.18706 39.9767 7.96373 39.86C7.7404 39.7433 7.56706 39.5817 7.44373 39.375C7.32373 39.165 7.26373 38.9283 7.26373 38.665C7.26373 38.405 7.32206 38.1717 7.43873 37.965C7.55873 37.755 7.72373 37.5917 7.93373 37.475C8.14373 37.3583 8.3804 37.3 8.64373 37.3C8.90373 37.3 9.1354 37.3583 9.33873 37.475C9.5454 37.5883 9.7054 37.75 9.81873 37.96C9.9354 38.1667 9.99373 38.4067 9.99373 38.68ZM8.64373 37.8C8.44373 37.8 8.27373 37.86 8.13373 37.98C7.99706 38.0967 7.91373 38.2533 7.88373 38.45H9.39873C9.37206 38.2567 9.2904 38.1 9.15373 37.98C9.01706 37.86 8.84706 37.8 8.64373 37.8ZM11.4191 40.035C11.2024 40.035 10.9907 40.0067 10.7841 39.95C10.5774 39.8933 10.4124 39.8217 10.2891 39.735L10.5291 39.26C10.6491 39.34 10.7924 39.405 10.9591 39.455C11.1291 39.5017 11.2957 39.525 11.4591 39.525C11.8324 39.525 12.0191 39.4267 12.0191 39.23C12.0191 39.1367 11.9707 39.0717 11.8741 39.035C11.7807 38.9983 11.6291 38.9633 11.4191 38.93C11.1991 38.8967 11.0191 38.8583 10.8791 38.815C10.7424 38.7717 10.6224 38.6967 10.5191 38.59C10.4191 38.48 10.3691 38.3283 10.3691 38.135C10.3691 37.8817 10.4741 37.68 10.6841 37.53C10.8974 37.3767 11.1841 37.3 11.5441 37.3C11.7274 37.3 11.9107 37.3217 12.0941 37.365C12.2774 37.405 12.4274 37.46 12.5441 37.53L12.3041 38.005C12.0774 37.8717 11.8224 37.805 11.5391 37.805C11.3557 37.805 11.2157 37.8333 11.1191 37.89C11.0257 37.9433 10.9791 38.015 10.9791 38.105C10.9791 38.205 11.0291 38.2767 11.1291 38.32C11.2324 38.36 11.3907 38.3983 11.6041 38.435C11.8174 38.4683 11.9924 38.5067 12.1291 38.55C12.2657 38.5933 12.3824 38.6667 12.4791 38.77C12.5791 38.8733 12.6291 39.02 12.6291 39.21C12.6291 39.46 12.5207 39.66 12.3041 39.81C12.0874 39.96 11.7924 40.035 11.4191 40.035ZM14.3923 40.035C14.1157 40.035 13.8673 39.9767 13.6473 39.86C13.4273 39.7433 13.2557 39.5817 13.1323 39.375C13.009 39.165 12.9473 38.9283 12.9473 38.665C12.9473 38.4017 13.009 38.1667 13.1323 37.96C13.2557 37.7533 13.4257 37.5917 13.6423 37.475C13.8623 37.3583 14.1123 37.3 14.3923 37.3C14.6557 37.3 14.8857 37.3533 15.0823 37.46C15.2823 37.5667 15.4323 37.72 15.5323 37.92L15.0523 38.2C14.9757 38.0767 14.879 37.985 14.7623 37.925C14.649 37.8617 14.524 37.83 14.3873 37.83C14.154 37.83 13.9607 37.9067 13.8073 38.06C13.654 38.21 13.5773 38.4117 13.5773 38.665C13.5773 38.9183 13.6523 39.1217 13.8023 39.275C13.9557 39.425 14.1507 39.5 14.3873 39.5C14.524 39.5 14.649 39.47 14.7623 39.41C14.879 39.3467 14.9757 39.2533 15.0523 39.13L15.5323 39.41C15.429 39.61 15.2773 39.765 15.0773 39.875C14.8807 39.9817 14.6523 40.035 14.3923 40.035ZM17.0926 37.3C17.4859 37.3 17.7859 37.395 17.9926 37.585C18.2026 37.7717 18.3076 38.055 18.3076 38.435V40H17.7176V39.675C17.6409 39.7917 17.5309 39.8817 17.3876 39.945C17.2476 40.005 17.0776 40.035 16.8776 40.035C16.6776 40.035 16.5026 40.0017 16.3526 39.935C16.2026 39.865 16.0859 39.77 16.0026 39.65C15.9226 39.5267 15.8826 39.3883 15.8826 39.235C15.8826 38.995 15.9709 38.8033 16.1476 38.66C16.3276 38.5133 16.6093 38.44 16.9926 38.44H17.6826V38.4C17.6826 38.2133 17.6259 38.07 17.5126 37.97C17.4026 37.87 17.2376 37.82 17.0176 37.82C16.8676 37.82 16.7193 37.8433 16.5726 37.89C16.4293 37.9367 16.3076 38.0017 16.2076 38.085L15.9626 37.63C16.1026 37.5233 16.2709 37.4417 16.4676 37.385C16.6643 37.3283 16.8726 37.3 17.0926 37.3ZM17.0076 39.58C17.1643 39.58 17.3026 39.545 17.4226 39.475C17.5459 39.4017 17.6326 39.2983 17.6826 39.165V38.855H17.0376C16.6776 38.855 16.4976 38.9733 16.4976 39.21C16.4976 39.3233 16.5426 39.4133 16.6326 39.48C16.7226 39.5467 16.8476 39.58 17.0076 39.58ZM19.7047 37.72C19.8847 37.44 20.2014 37.3 20.6547 37.3V37.895C20.6014 37.885 20.553 37.88 20.5097 37.88C20.2664 37.88 20.0764 37.9517 19.9397 38.095C19.803 38.235 19.7347 38.4383 19.7347 38.705V40H19.1097V37.33H19.7047V37.72ZM23.8105 37.33V39.595C23.8105 40.535 23.3305 41.005 22.3705 41.005C22.1138 41.005 21.8705 40.9717 21.6405 40.905C21.4105 40.8417 21.2205 40.7483 21.0705 40.625L21.3505 40.155C21.4672 40.2517 21.6138 40.3283 21.7905 40.385C21.9705 40.445 22.1522 40.475 22.3355 40.475C22.6288 40.475 22.8438 40.4083 22.9805 40.275C23.1172 40.1417 23.1855 39.9383 23.1855 39.665V39.525C23.0788 39.6417 22.9488 39.73 22.7955 39.79C22.6422 39.85 22.4738 39.88 22.2905 39.88C22.0372 39.88 21.8072 39.8267 21.6005 39.72C21.3972 39.61 21.2355 39.4567 21.1155 39.26C20.9988 39.0633 20.9405 38.8383 20.9405 38.585C20.9405 38.3317 20.9988 38.1083 21.1155 37.915C21.2355 37.7183 21.3972 37.5667 21.6005 37.46C21.8072 37.3533 22.0372 37.3 22.2905 37.3C22.4838 37.3 22.6588 37.3317 22.8155 37.395C22.9755 37.4583 23.1088 37.555 23.2155 37.685V37.33H23.8105ZM22.3855 39.35C22.6222 39.35 22.8155 39.28 22.9655 39.14C23.1188 38.9967 23.1955 38.8117 23.1955 38.585C23.1955 38.3617 23.1188 38.18 22.9655 38.04C22.8155 37.9 22.6222 37.83 22.3855 37.83C22.1455 37.83 21.9488 37.9 21.7955 38.04C21.6455 38.18 21.5705 38.3617 21.5705 38.585C21.5705 38.8117 21.6455 38.9967 21.7955 39.14C21.9488 39.28 22.1455 39.35 22.3855 39.35ZM25.6522 37.3C26.0455 37.3 26.3455 37.395 26.5522 37.585C26.7622 37.7717 26.8672 38.055 26.8672 38.435V40H26.2772V39.675C26.2005 39.7917 26.0905 39.8817 25.9472 39.945C25.8072 40.005 25.6372 40.035 25.4372 40.035C25.2372 40.035 25.0622 40.0017 24.9122 39.935C24.7622 39.865 24.6455 39.77 24.5622 39.65C24.4822 39.5267 24.4422 39.3883 24.4422 39.235C24.4422 38.995 24.5305 38.8033 24.7072 38.66C24.8872 38.5133 25.1688 38.44 25.5522 38.44H26.2422V38.4C26.2422 38.2133 26.1855 38.07 26.0722 37.97C25.9622 37.87 25.7972 37.82 25.5772 37.82C25.4272 37.82 25.2788 37.8433 25.1322 37.89C24.9888 37.9367 24.8672 38.0017 24.7672 38.085L24.5222 37.63C24.6622 37.5233 24.8305 37.4417 25.0272 37.385C25.2238 37.3283 25.4322 37.3 25.6522 37.3ZM25.5672 39.58C25.7238 39.58 25.8622 39.545 25.9822 39.475C26.1055 39.4017 26.1922 39.2983 26.2422 39.165V38.855H25.5972C25.2372 38.855 25.0572 38.9733 25.0572 39.21C25.0572 39.3233 25.1022 39.4133 25.1922 39.48C25.2822 39.5467 25.4072 39.58 25.5672 39.58ZM28.2643 37.72C28.4443 37.44 28.7609 37.3 29.2143 37.3V37.895C29.1609 37.885 29.1126 37.88 29.0693 37.88C28.8259 37.88 28.6359 37.9517 28.4993 38.095C28.3626 38.235 28.2943 38.4383 28.2943 38.705V40H27.6693V37.33H28.2643V37.72ZM11.2442 45L8.92422 52H7.54422L5.81422 46.82L4.05422 52H2.66422L0.344219 45H1.69422L3.43422 50.32L5.24422 45H6.44422L8.21422 50.35L10.0042 45H11.2442ZM17.5533 50.91V52H12.3033V45H17.4133V46.09H13.6033V47.91H16.9833V48.98H13.6033V50.91H17.5533ZM23.9625 48.36C24.3492 48.4867 24.6558 48.7 24.8825 49C25.1092 49.2933 25.2225 49.66 25.2225 50.1C25.2225 50.7067 24.9892 51.1767 24.5225 51.51C24.0558 51.8367 23.3758 52 22.4825 52H19.0025V45H22.2825C23.1092 45 23.7458 45.1633 24.1925 45.49C24.6392 45.81 24.8625 46.2533 24.8625 46.82C24.8625 47.1667 24.7825 47.4733 24.6225 47.74C24.4625 48.0067 24.2425 48.2133 23.9625 48.36ZM20.3025 46.02V47.95H22.1425C22.5958 47.95 22.9425 47.87 23.1825 47.71C23.4292 47.5433 23.5525 47.3033 23.5525 46.99C23.5525 46.67 23.4292 46.43 23.1825 46.27C22.9425 46.1033 22.5958 46.02 22.1425 46.02H20.3025ZM22.4025 50.98C23.4092 50.98 23.9125 50.6433 23.9125 49.97C23.9125 49.2967 23.4092 48.96 22.4025 48.96H20.3025V50.98H22.4025ZM29.4899 45C30.0966 45 30.6233 45.1 31.0699 45.3C31.5233 45.5 31.8699 45.7867 32.1099 46.16C32.3499 46.5333 32.4699 46.9767 32.4699 47.49C32.4699 47.9967 32.3499 48.44 32.1099 48.82C31.8699 49.1933 31.5233 49.48 31.0699 49.68C30.6233 49.88 30.0966 49.98 29.4899 49.98H27.9099V52H26.6099V45H29.4899ZM29.4299 48.88C29.9966 48.88 30.4266 48.76 30.7199 48.52C31.0133 48.28 31.1599 47.9367 31.1599 47.49C31.1599 47.0433 31.0133 46.7 30.7199 46.46C30.4266 46.22 29.9966 46.1 29.4299 46.1H27.9099V48.88H29.4299Z" fill="#333333"/>
</svg>
