<svg width="250" height="250" viewBox="0 0 250 250" fill="none" xmlns="http://www.w3.org/2000/svg">
<circle cx="125" cy="125" r="125" fill="#FFC37C"/>
<g clip-path="url(#clip0_365_3673)">
<path d="M81.0793 128.788C81.633 132.925 80.9476 137.132 79.1099 140.879C77.2722 144.626 74.3647 147.744 70.7551 149.839C67.1454 151.934 62.9958 152.911 58.8307 152.647C54.6657 152.383 50.6724 150.891 47.3558 148.357C44.0392 145.824 41.548 142.364 40.1976 138.416C38.8473 134.467 38.6982 130.206 39.7692 126.172C40.8402 122.139 43.0833 118.513 46.2148 115.755C49.3462 112.996 53.2254 111.227 57.3618 110.673C60.109 110.302 62.9023 110.477 65.582 111.187C68.2617 111.897 70.775 113.128 72.9781 114.811C75.1812 116.494 77.0306 118.594 78.4207 120.993C79.8108 123.391 80.7144 126.04 81.0793 128.788Z" fill="#BC4A3F"/>
<path d="M85.9626 165.084C86.5206 169.221 85.8392 173.43 84.0046 177.18C82.17 180.929 79.2646 184.05 75.6559 186.148C72.0472 188.246 67.8976 189.227 63.7315 188.966C59.5655 188.705 55.5703 187.214 52.2516 184.683C48.9329 182.151 46.4395 178.692 45.087 174.743C43.7345 170.794 43.5838 166.532 44.6535 162.497C45.7233 158.463 47.9656 154.836 51.097 152.076C54.2283 149.315 58.108 147.546 62.2451 146.991C67.7892 146.247 73.4017 147.736 77.8491 151.128C82.2965 154.521 85.2148 159.541 85.9626 165.084Z" fill="#BC4A3F"/>
<path d="M90.8453 201.402C91.399 205.539 90.7136 209.747 88.8759 213.494C87.0382 217.241 84.1307 220.359 80.5211 222.453C76.9114 224.548 72.7618 225.525 68.5967 225.261C64.4317 224.998 60.4384 223.505 57.1218 220.972C53.8052 218.438 51.3143 214.979 49.9639 211.03C48.6135 207.081 48.4642 202.82 49.5352 198.787C50.6062 194.753 52.8493 191.128 55.9808 188.369C59.1122 185.61 62.9914 183.842 67.1278 183.287C69.875 182.916 72.6683 183.091 75.348 183.801C78.0277 184.511 80.541 185.742 82.7441 187.425C84.9472 189.108 86.7969 191.208 88.187 193.607C89.5771 196.005 90.4804 198.654 90.8453 201.402Z" fill="#BC4A3F"/>
<path d="M169.018 128.788C168.464 132.925 169.149 137.132 170.987 140.879C172.825 144.626 175.732 147.744 179.342 149.839C182.951 151.934 187.101 152.911 191.266 152.647C195.431 152.383 199.424 150.891 202.741 148.357C206.058 145.824 208.549 142.364 209.899 138.416C211.249 134.467 211.398 130.206 210.327 126.172C209.256 122.139 207.014 118.513 203.882 115.755C200.751 112.996 196.872 111.227 192.735 110.673C189.988 110.302 187.195 110.477 184.515 111.187C181.835 111.897 179.322 113.128 177.119 114.811C174.916 116.494 173.066 118.594 171.676 120.993C170.286 123.391 169.383 126.04 169.018 128.788Z" fill="#BC4A3F"/>
<path d="M164.046 165.084C163.488 169.221 164.17 173.43 166.004 177.18C167.839 180.929 170.744 184.05 174.353 186.148C177.962 188.246 182.111 189.227 186.277 188.966C190.443 188.705 194.439 187.214 197.757 184.683C201.076 182.151 203.569 178.692 204.922 174.743C206.274 170.794 206.425 166.532 205.355 162.497C204.286 158.463 202.043 154.836 198.912 152.076C195.781 149.315 191.901 147.546 187.764 146.991C182.22 146.247 176.607 147.736 172.16 151.128C167.712 154.521 164.794 159.541 164.046 165.084Z" fill="#BC4A3F"/>
<path d="M159.164 201.402C158.61 205.539 159.295 209.747 161.133 213.494C162.971 217.241 165.878 220.359 169.488 222.453C173.098 224.548 177.247 225.525 181.412 225.261C185.577 224.998 189.57 223.505 192.887 220.972C196.204 218.438 198.695 214.979 200.045 211.03C201.395 207.081 201.545 202.82 200.474 198.787C199.403 194.753 197.16 191.128 194.028 188.369C190.897 185.61 187.017 183.842 182.881 183.287C180.134 182.916 177.341 183.091 174.661 183.801C171.981 184.511 169.468 185.742 167.265 187.425C165.062 189.108 163.212 191.208 161.822 193.607C160.432 196.005 159.529 198.654 159.164 201.402Z" fill="#BC4A3F"/>
<path d="M195.678 102.127C195.419 99.111 194.945 96.117 194.261 93.1678C194.261 93.3422 194.261 93.4948 194.261 93.6474H145.976C142.918 93.6503 139.945 92.6337 137.529 90.7585C135.113 88.8833 133.391 86.2563 132.635 83.2928L125.005 53.21H123.24L115.61 83.2928C114.855 86.2527 113.136 88.877 110.724 90.7518C108.312 92.6267 105.345 93.6454 102.291 93.6474H53.9181C53.9181 93.4948 53.9181 93.3422 53.9181 93.1896C53.2359 96.1318 52.7626 99.1184 52.5013 102.127C52.3269 104.046 52.2397 105.986 52.2397 107.969V158.26C52.2397 196.365 84.5679 227.538 124.177 227.538C163.655 227.538 195.94 196.343 195.94 158.26V107.882C195.94 105.986 195.853 104.046 195.678 102.127Z" fill="#BC4A3F"/>
<path d="M183.12 310.028V310.289C181.812 310.921 180.505 311.575 179.153 312.164C161.17 320.274 141.617 324.31 121.892 323.982C102.168 323.654 82.7597 318.971 65.0562 310.267V310.028C65.0562 299.913 68.631 215.703 74.6039 208.356C78.3961 203.688 83.1313 199.873 88.4993 197.161C93.8674 194.449 99.7474 192.9 105.755 192.617H107.673H140.525H142.443C148.448 192.899 154.325 194.447 159.69 197.16C165.055 199.872 169.785 203.688 173.572 208.356C179.545 215.703 183.12 299.913 183.12 310.028Z" fill="#2173A5"/>
<path d="M124.111 222.983C119.243 222.983 114.575 221.049 111.132 217.607C107.69 214.165 105.756 209.496 105.756 204.628V170.752H142.445V204.628C142.445 209.492 140.514 214.157 137.076 217.599C133.639 221.041 128.976 222.977 124.111 222.983Z" fill="#F4946E"/>
<path d="M174.249 95.5672V134.217C174.249 163.515 151.687 187.473 124.111 187.473C96.5353 187.473 73.9731 163.493 73.9731 134.217V95.5672C73.9731 94.0413 73.9731 92.559 74.1693 91.0766C76.3492 64.547 96.9058 43.4018 122.127 42.3555H124.089H126.073C138.836 42.9676 150.847 48.5736 159.513 57.9637C167.995 67.0215 173.132 78.703 174.075 91.0766C174.206 92.559 174.249 94.0413 174.249 95.5672Z" fill="#F7C8A0"/>
<path d="M73.9295 138.096C70.7497 138.096 67.7002 136.833 65.4517 134.585C63.2032 132.336 61.9399 129.287 61.9399 126.107C61.9399 122.927 63.2032 119.877 65.4517 117.629C67.7002 115.38 70.7497 114.117 73.9295 114.117V138.096Z" fill="#F4946E"/>
<path d="M174.249 114.161C177.428 114.161 180.478 115.424 182.726 117.673C184.975 119.921 186.238 122.971 186.238 126.151C186.238 129.331 184.975 132.38 182.726 134.629C180.478 136.877 177.428 138.14 174.249 138.14V114.161Z" fill="#F4946E"/>
<path d="M158.598 110.761L137.583 104.984C137.07 104.814 136.638 104.458 136.372 103.986C136.106 103.515 136.025 102.962 136.145 102.434L136.515 101.039C136.686 100.525 137.042 100.093 137.513 99.8272C137.984 99.5612 138.538 99.4802 139.066 99.5998L160.08 105.398C160.593 105.565 161.027 105.915 161.296 106.382C161.566 106.849 161.653 107.4 161.541 107.927L161.148 109.322C160.978 109.836 160.622 110.268 160.151 110.534C159.679 110.8 159.126 110.881 158.598 110.761Z" fill="#BC4A3F"/>
<path d="M89.3418 110.761L110.356 104.984C110.87 104.814 111.302 104.458 111.568 103.986C111.834 103.515 111.915 102.962 111.795 102.434L111.424 101.039C111.254 100.525 110.898 100.093 110.427 99.8272C109.955 99.5612 109.402 99.4802 108.874 99.5998L87.8596 105.398C87.5966 105.467 87.3497 105.587 87.1334 105.751C86.9172 105.916 86.7358 106.122 86.5999 106.357C86.464 106.592 86.3763 106.852 86.3418 107.122C86.3073 107.391 86.3267 107.665 86.399 107.927L86.7915 109.322C86.9621 109.836 87.3177 110.268 87.7891 110.534C88.2605 110.8 88.814 110.881 89.3418 110.761Z" fill="#BC4A3F"/>
<path d="M119.011 161.139C120.317 161.206 121.604 160.795 122.629 159.983C123.05 159.665 123.563 159.493 124.09 159.493C124.617 159.493 125.13 159.665 125.551 159.983C126.587 160.791 127.878 161.201 129.191 161.139C129.797 161.153 130.401 161.046 130.965 160.823C131.529 160.601 132.043 160.267 132.476 159.842C132.909 159.417 133.252 158.91 133.485 158.35C133.719 157.79 133.837 157.189 133.834 156.583C133.485 152.419 129.256 149.105 124.09 149.105C118.924 149.105 114.717 152.419 114.368 156.583C114.365 157.189 114.483 157.79 114.717 158.35C114.95 158.91 115.293 159.417 115.726 159.842C116.159 160.267 116.673 160.601 117.237 160.823C117.801 161.046 118.405 161.153 119.011 161.139Z" fill="#EF7756"/>
<path d="M123.849 151.94C125.766 151.95 127.648 152.457 129.31 153.412C130.972 154.368 132.358 155.738 133.332 157.39C133.535 157.756 133.589 158.187 133.483 158.593C133.378 158.998 133.121 159.348 132.765 159.569C132.396 159.762 131.969 159.811 131.566 159.706C131.163 159.601 130.813 159.351 130.585 159.003C129.899 157.806 128.904 156.815 127.703 156.136C126.502 155.457 125.141 155.115 123.762 155.144C122.538 155.21 121.346 155.552 120.273 156.145C119.201 156.738 118.277 157.566 117.571 158.567C117.323 158.925 116.943 159.172 116.515 159.253C116.086 159.333 115.643 159.242 115.282 158.998C114.92 158.754 114.669 158.377 114.584 157.95C114.498 157.522 114.584 157.078 114.824 156.714C115.842 155.288 117.168 154.111 118.704 153.269C120.241 152.427 121.947 151.943 123.696 151.853L123.849 151.94Z" fill="#D15B3F"/>
<path d="M194.26 93.1903C194.172 79.7008 190.195 66.5229 182.807 55.2366C175.418 43.9504 164.93 35.0347 152.602 29.5585C148.203 27.5813 143.607 26.076 138.891 25.0679C134.034 24.0163 129.08 23.4829 124.111 23.4766C119.142 23.484 114.187 24.0174 109.331 25.0679C104.614 26.076 100.018 27.5813 95.619 29.5585C83.2881 35.0397 72.7986 43.959 65.4064 55.2482C58.0143 66.5375 54.0329 79.7183 53.939 93.2121V93.6699H102.246C105.301 93.6679 108.268 92.6492 110.68 90.7743C113.091 88.8995 114.81 86.2752 115.565 83.3153L123.195 53.2324H125.026L132.678 83.3153C133.426 86.2789 135.143 88.9075 137.556 90.7835C139.969 92.6596 142.94 93.6755 145.997 93.6699H194.304C194.282 93.4955 194.26 93.3429 194.26 93.1903Z" fill="#BC4A3F"/>
<path d="M140.155 123.579C140.097 122.456 140.269 121.334 140.658 120.281C141.048 119.227 141.648 118.263 142.422 117.449C143.196 116.634 144.127 115.985 145.16 115.542C146.192 115.099 147.304 114.87 148.428 114.87C149.551 114.87 150.663 115.099 151.696 115.542C152.728 115.985 153.66 116.634 154.433 117.449C155.207 118.263 155.807 119.227 156.197 120.281C156.587 121.334 156.758 122.456 156.7 123.579H140.155Z" fill="#18384D"/>
<path d="M92.7209 123.579C92.6632 122.456 92.8346 121.334 93.2243 120.281C93.6141 119.227 94.2139 118.263 94.9878 117.449C95.7617 116.634 96.6933 115.985 97.7257 115.542C98.7582 115.099 99.8701 114.87 100.994 114.87C102.117 114.87 103.229 115.099 104.261 115.542C105.294 115.985 106.226 116.634 106.999 117.449C107.773 118.263 108.373 119.227 108.763 120.281C109.153 121.334 109.324 122.456 109.266 123.579H92.7209Z" fill="#18384D"/>
<path d="M139.435 270.287C157.23 270.287 171.655 255.862 171.655 238.068C171.655 220.274 157.23 205.849 139.435 205.849C121.641 205.849 107.216 220.274 107.216 238.068C107.216 255.862 121.641 270.287 139.435 270.287Z" fill="white"/>
<path d="M131.173 238.678C130.829 239.504 130.199 240.179 129.399 240.579C128.598 240.979 127.681 241.078 126.813 240.858C125.258 240.531 123.818 239.795 122.641 238.726C121.465 237.657 120.595 236.293 120.121 234.776C119.21 231.719 119.068 228.484 119.707 225.359C120.331 222.247 120.782 219.103 121.058 215.941C120.943 214.856 121.256 213.769 121.931 212.911C122.716 212.377 123.673 212.16 124.612 212.301C125.224 212.254 125.836 212.382 126.377 212.671C127.533 213.391 127.358 215.069 127.293 216.443C127.031 222.067 130.781 227.015 132.372 232.421C132.815 233.732 132.95 235.127 132.765 236.498C132.662 237.18 132.399 237.828 131.998 238.389C131.596 238.95 131.067 239.408 130.454 239.724" fill="#3CA6BE"/>
<path d="M131.501 236.499C129.539 232.139 131.719 226.885 135.512 224.073C139.483 221.48 144.184 220.234 148.918 220.52L150.858 224.117C150.239 224.902 149.356 225.436 148.373 225.621C148.524 226.651 148.888 227.638 149.441 228.52C149.722 228.952 150.125 229.29 150.599 229.492C151.072 229.693 151.595 229.75 152.101 229.654C152.711 229.479 153.213 229.021 153.823 228.891C155.109 228.607 156.221 229.828 156.744 231.071C157.076 232.343 157.72 233.512 158.619 234.471C155.949 236 153.869 238.379 152.711 241.229C152.526 242.237 152.285 243.234 151.992 244.215C151.438 245.24 150.657 246.125 149.709 246.801C148.76 247.478 147.67 247.928 146.52 248.117C145.267 248.511 143.945 248.637 142.64 248.488C140.203 247.818 138.038 246.4 136.449 244.433L129.473 237.414" fill="#3CA6BE"/>
<path d="M158.532 246.09C158.657 242.669 157.52 239.322 155.337 236.685C153.155 234.048 150.079 232.306 146.695 231.789C143.491 231.375 139.959 228.214 134.771 227.669C133.485 227.517 131.85 227.953 131.479 228.956L131.218 228.52C132.068 233.403 127.011 235.604 126.64 241.294C126.48 243.343 126.748 245.404 127.428 247.344C128.107 249.284 129.182 251.062 130.586 252.564C132.563 254.399 134.804 255.928 137.234 257.098L142.444 259.954C144.706 261.314 147.13 262.384 149.66 263.137C150.678 263.482 151.766 263.572 152.826 263.397C153.887 263.222 154.889 262.788 155.742 262.134C156.45 261.299 156.944 260.304 157.18 259.235C158.378 254.962 158.835 250.516 158.532 246.09Z" fill="#BC4A3F"/>
<path d="M128.733 225.01C127.967 224.922 127.195 225.103 126.547 225.52C125.9 225.937 125.416 226.566 125.18 227.299C124.417 229.23 124.184 231.33 124.504 233.381C124.504 234.384 124.787 235.408 124.787 236.411C124.787 237.893 124.482 239.31 124.438 240.771C124.43 242.352 124.628 243.928 125.027 245.458C125.301 247.206 126.056 248.844 127.207 250.188C127.434 250.469 127.733 250.683 128.072 250.807C128.412 250.93 128.778 250.959 129.133 250.889C129.487 250.82 129.816 250.655 130.084 250.412C130.351 250.169 130.547 249.858 130.651 249.512C130.759 248.381 130.759 247.243 130.651 246.112C130.651 242.929 133.638 241.752 134.597 238.853C135.148 236.133 134.82 233.308 133.659 230.787C133.191 229.44 132.554 228.158 131.763 226.972C131.434 226.449 130.998 226.001 130.483 225.659C129.968 225.317 129.386 225.088 128.777 224.988" fill="#EA879C"/>
<path d="M148.461 227.364C147.53 226.535 146.348 226.043 145.104 225.969C144.46 225.94 143.819 226.063 143.232 226.328C142.645 226.593 142.128 226.993 141.725 227.495C141.262 228.228 141.06 229.096 141.151 229.958C141.242 230.82 141.621 231.627 142.226 232.247C144.406 234.623 148.155 234.907 150.946 236.607C151.51 236.982 152.109 237.303 152.733 237.566C153.364 237.767 154.047 237.713 154.638 237.416C155.229 237.118 155.68 236.601 155.894 235.975C155.89 235.506 155.775 235.044 155.559 234.627C155.343 234.211 155.033 233.851 154.652 233.577L148.352 227.321" fill="#EA879C"/>
<path d="M124.46 225.729C124.271 223.302 124.849 220.877 126.112 218.796C127.376 216.715 129.261 215.084 131.501 214.132C131.611 214.066 131.733 214.022 131.86 214.004C131.987 213.986 132.116 213.993 132.24 214.026C132.364 214.058 132.48 214.115 132.581 214.193C132.683 214.271 132.768 214.369 132.831 214.481C133.616 215.331 134.379 216.225 135.011 217.14C135.065 217.214 135.103 217.298 135.122 217.388C135.14 217.477 135.139 217.57 135.118 217.659C135.097 217.748 135.058 217.832 135.002 217.904C134.945 217.976 134.874 218.035 134.793 218.077C133.518 218.802 132.538 219.952 132.024 221.326C131.371 222.917 131.109 224.639 130.607 226.274C130.429 227.073 129.974 227.784 129.321 228.279C128.967 228.477 128.571 228.589 128.166 228.607C127.111 228.675 126.07 228.335 125.259 227.658C124.447 226.98 123.927 226.016 123.806 224.966" fill="#3CA6BE"/>
</g>
<defs>
<clipPath id="clip0_365_3673">
<rect width="250" height="250" rx="125" fill="white"/>
</clipPath>
</defs>
</svg>
