<svg width="250" height="250" viewBox="0 0 250 250" fill="none" xmlns="http://www.w3.org/2000/svg">
<circle cx="125" cy="125" r="125" fill="#FF7C7C"/>
<g clip-path="url(#clip0_365_3477)">
<path d="M260.598 251.302V318.745C237.032 330.716 211.044 337.1 184.634 337.405C158.224 337.71 132.097 331.927 108.263 320.503V251.249C108.328 237.06 113.812 223.438 123.586 213.189C133.359 202.94 146.676 196.847 160.792 196.165H163.259H205.707H208.175C222.295 196.854 235.613 202.958 245.382 213.217C255.151 223.476 260.626 237.109 260.678 251.302" fill="#18384D"/>
<path d="M184.43 235.506C178.156 235.498 172.141 232.993 167.704 228.539C163.268 224.085 160.772 218.045 160.765 211.746V167.85H208.095V211.746C208.095 218.047 205.602 224.091 201.164 228.547C196.726 233.002 190.706 235.506 184.43 235.506Z" fill="#AF7751"/>
<path d="M184.431 190.97C150.34 190.756 123.412 159.193 123.094 126.004V23.9873H245.689V125.951C245.503 159.139 218.443 190.703 184.352 190.916" fill="#D39667"/>
<path d="M123.094 125.551C118.999 125.551 115.072 123.918 112.176 121.011C109.281 118.104 107.654 114.161 107.654 110.049C107.654 105.938 109.281 101.995 112.176 99.0874C115.072 96.1802 118.999 94.5469 123.094 94.5469V125.551Z" fill="#AF7751"/>
<path d="M245.689 94.5469C249.785 94.5469 253.712 96.1802 256.608 99.0874C259.503 101.995 261.13 105.938 261.13 110.049C261.13 114.161 259.503 118.104 256.608 121.011C253.712 123.918 249.785 125.551 245.689 125.551V94.5469Z" fill="#AF7751"/>
<path d="M267.999 30.6993C268.015 36.113 266.431 41.4098 263.446 45.9188C260.462 50.4279 256.212 53.9465 251.235 56.0293C246.258 58.112 240.777 58.6651 235.486 57.6187C230.196 56.5722 225.334 53.9732 221.515 50.1507C217.697 46.3281 215.094 41.454 214.036 36.1454C212.978 30.8368 213.513 25.3325 215.573 20.3293C217.633 15.3261 221.125 11.049 225.608 8.03965C230.09 5.03026 235.361 3.42386 240.753 3.42384C244.33 3.42034 247.872 4.12463 251.178 5.49646C254.483 6.86829 257.487 8.88077 260.017 11.4188C262.548 13.9569 264.555 16.9708 265.925 20.2882C267.294 23.6056 267.999 27.1615 267.999 30.7526" fill="#18384D"/>
<path d="M234.812 17.382C234.817 23.4363 233.034 29.356 229.687 34.3925C226.341 39.429 221.582 43.3559 216.012 45.6764C210.443 47.9969 204.313 48.6067 198.398 47.4288C192.483 46.251 187.049 43.3382 182.783 39.0591C178.518 34.78 175.612 29.3267 174.433 23.3892C173.255 17.4517 173.857 11.2967 176.164 5.70282C178.47 0.108942 182.377 -4.67247 187.39 -8.03656C192.404 -11.4007 198.298 -13.1963 204.329 -13.1963C212.409 -13.1963 220.158 -9.97552 225.874 -4.24173C231.59 1.49206 234.805 9.26972 234.812 17.382Z" fill="#18384D"/>
<path d="M191.462 17.3821C191.467 23.4363 189.684 29.3561 186.337 34.3925C182.991 39.429 178.232 43.3559 172.662 45.6764C167.093 47.9969 160.963 48.6067 155.048 47.4288C149.133 46.251 143.699 43.3382 139.433 39.0591C135.168 34.78 132.262 29.3268 131.083 23.3892C129.905 17.4517 130.507 11.2967 132.813 5.70283C135.12 0.108952 139.027 -4.67245 144.04 -8.03655C149.054 -11.4006 154.949 -13.1963 160.979 -13.1963C164.98 -13.1998 168.944 -12.4114 172.642 -10.8763C176.34 -9.34116 179.701 -7.08933 182.532 -4.24952C185.363 -1.40971 187.608 1.9624 189.141 5.67408C190.673 9.38575 191.462 13.3642 191.462 17.3821Z" fill="#18384D"/>
<path d="M151.773 30.7003C151.783 36.1076 150.196 41.3966 147.211 45.8978C144.227 50.399 139.979 53.9101 135.006 55.9867C130.033 58.0633 124.559 58.6121 119.275 57.5636C113.991 56.5152 109.136 53.9166 105.324 50.0967C101.512 46.2768 98.9145 41.4074 97.86 36.1047C96.8054 30.802 97.3412 25.3044 99.3999 20.3076C101.459 15.3109 104.947 11.0395 109.425 8.03426C113.902 5.02897 119.167 3.42481 124.553 3.4248C131.772 3.4248 138.695 6.30406 143.8 11.4292C148.905 16.5543 151.773 23.5055 151.773 30.7535" fill="#18384D"/>
<path d="M168.752 84.559H143.389C142.685 84.559 142.01 84.2783 141.513 83.7788C141.015 83.2793 140.736 82.6018 140.736 81.8953V80.0308C140.736 79.3244 141.015 78.6469 141.513 78.1473C142.01 77.6478 142.685 77.3672 143.389 77.3672H168.752C169.455 77.3672 170.13 77.6478 170.627 78.1473C171.125 78.6469 171.405 79.3244 171.405 80.0308V81.8953C171.405 82.6018 171.125 83.2793 170.627 83.7788C170.13 84.2783 169.455 84.559 168.752 84.559Z" fill="#18384D"/>
<path d="M226.162 84.559H200.799C200.096 84.559 199.421 84.2783 198.923 83.7788C198.426 83.2793 198.146 82.6018 198.146 81.8953V80.0308C198.146 79.3244 198.426 78.6469 198.923 78.1473C199.421 77.6478 200.096 77.3672 200.799 77.3672H226.162C226.866 77.3672 227.541 77.6478 228.038 78.1473C228.536 78.6469 228.815 79.3244 228.815 80.0308V81.8953C228.815 82.6018 228.536 83.2793 228.038 83.7788C227.541 84.2783 226.866 84.559 226.162 84.559Z" fill="#18384D"/>
<path d="M124.951 110.689H119.645V46.043H138.454L133.308 102.512C133.311 103.598 133.101 104.675 132.689 105.68C132.277 106.685 131.672 107.598 130.908 108.368C130.144 109.137 129.236 109.748 128.237 110.164C127.237 110.581 126.165 110.796 125.083 110.796" fill="#18384D"/>
<path d="M244.018 110.689H249.324V46.043H230.514L235.661 102.512C235.657 103.598 235.868 104.675 236.279 105.68C236.691 106.685 237.296 107.598 238.06 108.368C238.824 109.137 239.732 109.748 240.732 110.164C241.731 110.581 242.803 110.796 243.885 110.796" fill="#18384D"/>
<path d="M163.949 103.603C163.955 105.338 163.447 107.036 162.49 108.482C161.532 109.927 160.169 111.054 158.573 111.721C156.977 112.387 155.22 112.563 153.525 112.226C151.829 111.888 150.271 111.053 149.049 109.826C147.827 108.599 146.995 107.035 146.659 105.333C146.323 103.63 146.498 101.866 147.162 100.264C147.826 98.6613 148.949 97.2929 150.388 96.332C151.828 95.3711 153.519 94.861 155.248 94.8663C157.555 94.8663 159.769 95.7867 161.401 97.4252C163.033 99.0636 163.949 101.286 163.949 103.603Z" fill="#18384D"/>
<path d="M222.342 103.603C222.347 105.338 221.839 107.036 220.882 108.482C219.925 109.927 218.562 111.054 216.966 111.721C215.37 112.387 213.612 112.563 211.917 112.226C210.221 111.888 208.663 111.053 207.441 109.826C206.219 108.599 205.387 107.035 205.051 105.333C204.715 103.63 204.89 101.866 205.554 100.264C206.218 98.6613 207.341 97.2929 208.781 96.332C210.22 95.3711 211.911 94.861 213.64 94.8663C215.947 94.8663 218.161 95.7867 219.793 97.4252C221.425 99.0636 222.342 101.286 222.342 103.603Z" fill="#18384D"/>
<path d="M202.444 149.923C202.457 150.11 202.457 150.297 202.444 150.483C202.362 153.086 201.281 155.557 199.427 157.379C197.573 159.2 195.089 160.232 192.495 160.258H192.336C190.789 160.276 189.261 159.919 187.879 159.22C186.433 158.513 184.845 158.146 183.236 158.146C181.628 158.146 180.04 158.513 178.594 159.22H178.355C176.959 159.899 175.422 160.237 173.871 160.205C172.153 160.184 170.469 159.723 168.979 158.865C167.489 158.008 166.241 156.782 165.355 155.304C164.401 153.692 163.897 151.852 163.896 149.977C163.896 142.439 172.518 139.322 183.21 139.322C193.902 139.322 202.444 142.226 202.444 149.923Z" fill="#18384D"/>
<path d="M199.341 149.924C199.276 151.18 198.892 152.4 198.227 153.466C197.507 154.544 196.537 155.43 195.4 156.048C194.263 156.665 192.993 156.995 191.701 157.009C190.516 157.016 189.346 156.751 188.278 156.236C187.163 155.724 185.95 155.458 184.723 155.458C183.496 155.458 182.284 155.724 181.168 156.236H180.982C182.867 153.182 185.747 150.879 189.134 149.718C192.52 148.557 196.202 148.611 199.553 149.87L199.341 149.924Z" fill="#F4946E"/>
<path d="M141.441 152.967L88.6815 142.882C86.2715 134.938 81.0995 128.127 74.1075 123.69C67.1155 119.253 58.7686 117.485 50.5872 118.708C42.4058 119.931 34.9342 124.064 29.5332 130.354C24.1322 136.644 21.1611 144.672 21.1611 152.977C21.1611 161.282 24.1322 169.31 29.5332 175.6C34.9342 181.89 42.4058 186.023 50.5872 187.246C58.7686 188.469 67.1155 186.701 74.1075 182.264C81.0995 177.827 86.2715 171.016 88.6815 163.072L141.441 152.967Z" fill="white"/>
<path d="M42.5791 139.832L68.7849 166.123" stroke="#BC4A3F" stroke-width="2.5" stroke-linecap="round" stroke-linejoin="round"/>
<path d="M68.7849 139.832L42.5791 166.123" stroke="#BC4A3F" stroke-width="2.5" stroke-linecap="round" stroke-linejoin="round"/>
</g>
<defs>
<clipPath id="clip0_365_3477">
<rect width="250" height="250" rx="125" fill="white"/>
</clipPath>
</defs>
</svg>
