<svg width="250" height="250" viewBox="0 0 250 250" fill="none" xmlns="http://www.w3.org/2000/svg">
<circle cx="125" cy="125" r="125" fill="#FFF87B"/>
<g clip-path="url(#clip0_365_1187)">
<path d="M270 72.1522V133.19C270 179.373 230.627 217.243 182.389 217.243C134.152 217.243 94.7783 179.399 94.7783 133.19V72.1522C94.7783 69.7746 94.8814 67.4142 95.0876 65.0708C98.7724 23.2241 134.77 -10.1814 178.859 -11.9004C180.019 -11.9004 181.152 -11.9004 182.312 -11.9004C183.471 -11.9004 184.605 -11.9004 185.739 -11.9004C207.584 -11.1283 228.375 -2.35794 244.129 12.7304C258.74 26.5045 267.825 45.0971 269.691 65.0452C269.923 67.38 270 69.7404 270 72.1265" fill="#3CA6BE"/>
<path d="M254.41 249.777V320.873C232.032 331.854 207.414 337.552 182.466 337.524C158.151 337.527 134.145 332.09 112.223 321.617L110.548 320.796V249.777C110.569 240.648 113.011 231.686 117.626 223.797C122.241 215.909 128.866 209.373 136.831 204.851C143.915 200.804 151.864 198.491 160.022 198.104H162.341H202.488H204.833C212.991 198.491 220.94 200.804 228.024 204.851C236.008 209.36 242.654 215.89 247.287 223.779C251.921 231.669 254.378 240.637 254.41 249.777Z" fill="#BC4A3F"/>
<path d="M182.492 234.896C176.567 234.896 170.885 232.552 166.695 228.38C162.505 224.209 160.151 218.551 160.151 212.651V171.6H204.833V212.651C204.833 218.551 202.479 224.209 198.289 228.38C194.1 232.552 188.417 234.896 182.492 234.896Z" fill="#F4946E"/>
<path d="M243.614 103.3H121.371C119.11 103.3 116.872 103.743 114.784 104.604C112.695 105.466 110.798 106.728 109.199 108.32C107.601 109.911 106.333 111.801 105.468 113.88C104.603 115.959 104.158 118.188 104.158 120.439C104.158 122.688 104.603 124.916 105.468 126.994C106.334 129.072 107.602 130.959 109.201 132.549C110.8 134.138 112.697 135.398 114.785 136.257C116.874 137.115 119.111 137.555 121.371 137.552H243.614C248.172 137.552 252.544 135.749 255.767 132.54C258.99 129.33 260.801 124.977 260.801 120.439C260.804 118.189 260.362 115.961 259.5 113.882C258.638 111.803 257.372 109.913 255.776 108.321C254.18 106.729 252.284 105.467 250.197 104.605C248.11 103.743 245.873 103.3 243.614 103.3Z" fill="#F4946E"/>
<path d="M243.613 80.4389V127.34C243.613 162.849 216.093 191.919 182.492 191.919C148.891 191.919 121.371 162.849 121.371 127.34V80.4389C121.371 78.5915 121.371 76.7955 121.577 74.9996C124.154 42.8256 149.277 17.1428 180.07 15.9883C180.869 15.9883 181.693 15.9883 182.492 15.9883C183.291 15.9883 184.09 15.9883 184.888 15.9883C200.444 16.714 215.088 23.5067 225.653 34.8976C235.986 45.8993 242.24 60.0821 243.382 75.1022C243.536 76.8982 243.613 78.6942 243.613 80.5415" fill="#F7C8A0"/>
<path d="M203.261 111.767C203.258 110.324 203.541 108.895 204.094 107.561C204.647 106.227 205.459 105.015 206.484 103.995C207.509 102.975 208.726 102.166 210.065 101.615C211.405 101.065 212.841 100.783 214.29 100.786C217.215 100.786 220.02 101.943 222.088 104.002C224.157 106.062 225.319 108.855 225.319 111.767H203.261Z" fill="#18384D"/>
<path d="M139.769 111.767C139.766 110.324 140.049 108.895 140.602 107.561C141.155 106.227 141.967 105.015 142.992 103.995C144.016 102.975 145.234 102.166 146.573 101.615C147.913 101.065 149.348 100.783 150.798 100.786C153.723 100.786 156.528 101.943 158.596 104.002C160.664 106.062 161.826 108.855 161.826 111.767H139.769Z" fill="#18384D"/>
<path d="M165.614 91.523L139.177 94.0887C138.513 94.1396 137.856 93.933 137.342 93.5122C136.828 93.0913 136.497 92.4889 136.419 91.8309L136.239 90.0862C136.188 89.4256 136.395 88.7709 136.818 88.2592C137.241 87.7475 137.846 87.4184 138.507 87.3409L164.97 84.7752C165.634 84.7242 166.291 84.9308 166.805 85.3517C167.319 85.7725 167.65 86.375 167.727 87.033L167.882 88.7777C167.933 89.4383 167.726 90.0929 167.303 90.6046C166.88 91.1164 166.275 91.4454 165.614 91.523Z" fill="#18384D"/>
<path d="M254.411 71.2547H204.911C201.779 71.2498 198.738 70.2088 196.266 68.2952C193.794 66.3817 192.031 63.7043 191.254 60.684L182.493 26.2522L173.706 60.684C172.933 63.7065 171.17 66.3864 168.697 68.3006C166.224 70.2148 163.181 71.2542 160.049 71.2547H110.497C110.497 61.8432 112.36 52.5239 115.978 43.8295C119.597 35.135 124.901 27.2358 131.587 20.5833C138.273 13.9307 146.21 8.6552 154.945 5.05825C163.68 1.46129 173.04 -0.386606 182.493 -0.379864C201.569 -0.373061 219.861 7.17714 233.348 20.6105C246.834 34.0438 254.411 52.2605 254.411 71.2547Z" fill="#3CA6BE"/>
<path d="M199.37 91.523L225.808 94.0887C226.471 94.1396 227.129 93.933 227.643 93.5122C228.157 93.0913 228.487 92.4889 228.565 91.8309L228.72 90.0862C228.771 89.4256 228.563 88.7709 228.141 88.2592C227.718 87.7475 227.113 87.4184 226.452 87.3409L200.014 84.7752C199.351 84.7242 198.693 84.9308 198.179 85.3517C197.665 85.7725 197.335 86.375 197.257 87.033L197.077 88.7777C197.026 89.4422 197.237 90.1004 197.665 90.6128C198.093 91.1251 198.705 91.4516 199.37 91.523Z" fill="#18384D"/>
<path d="M173.577 153.973C177.611 151.721 182.145 150.505 186.77 150.432C191.421 150.369 196.015 151.454 200.143 153.588" stroke="#18384D" stroke-width="2" stroke-miterlimit="10" stroke-linecap="round"/>
<path d="M47.5538 166.444C67.4035 166.444 83.4948 150.422 83.4948 130.658C83.4948 110.893 67.4035 94.8711 47.5538 94.8711C27.7041 94.8711 11.6128 110.893 11.6128 130.658C11.6128 150.422 27.7041 166.444 47.5538 166.444Z" fill="white"/>
<path d="M53.418 122.449L70.1401 139.099" stroke="#BC4A3F" stroke-width="1.7" stroke-linecap="round" stroke-linejoin="round"/>
<path d="M70.1401 122.449L53.418 139.099" stroke="#BC4A3F" stroke-width="1.7" stroke-linecap="round" stroke-linejoin="round"/>
<path d="M40.1407 111.329L26.5926 125.281H20.1283C19.615 125.281 19.1227 125.484 18.7597 125.846C18.3968 126.207 18.1929 126.697 18.1929 127.208V135.919C18.1929 136.43 18.3968 136.92 18.7597 137.282C19.1227 137.643 19.615 137.846 20.1283 137.846H26.5926L40.1407 151.798C40.2941 151.922 40.4797 152 40.6758 152.023C40.872 152.046 41.0707 152.014 41.2489 151.929C41.4272 151.844 41.5777 151.711 41.683 151.545C41.7883 151.378 41.8441 151.186 41.8439 150.989V112.061C41.8303 111.871 41.7645 111.689 41.6537 111.533C41.5429 111.378 41.3914 111.256 41.2157 111.18C41.04 111.104 40.8468 111.078 40.6572 111.105C40.4677 111.131 40.289 111.209 40.1407 111.329Z" fill="#18384D"/>
</g>
<defs>
<clipPath id="clip0_365_1187">
<rect width="250" height="250" rx="125" fill="white"/>
</clipPath>
</defs>
</svg>
