<svg width="250" height="250" viewBox="0 0 250 250" fill="none" xmlns="http://www.w3.org/2000/svg">
<circle cx="125" cy="125" r="125" fill="#FF7CBB"/>
<g clip-path="url(#clip0_365_3773)">
<path d="M214.132 110.862V173.24C214.132 220.531 174.022 259.199 125.006 259.199C75.9891 259.199 35.9053 220.583 35.9053 173.24V110.862C35.9053 108.287 35.9053 105.996 36.2142 103.628C39.9728 60.8152 76.6066 26.6786 121.504 24.9795C122.663 24.9795 123.847 24.9795 125.006 24.9795C126.164 24.9795 127.348 24.9795 128.507 24.9795C150.743 25.7762 171.906 34.7399 187.95 50.1572C202.71 64.2843 211.856 83.2789 213.694 103.628C213.926 105.996 214.029 108.416 214.029 110.862" fill="#18384D"/>
<path d="M213.952 149.143V298.922C208.883 302.158 203.641 305.114 198.248 307.778H198.12C175.35 318.973 150.315 324.795 124.942 324.795C99.569 324.795 74.5341 318.973 51.7645 307.778C46.3438 305.111 41.0753 302.146 35.9834 298.896V149.143H213.952Z" fill="#18384D"/>
<path d="M198.53 276.988C197.241 264.342 191.463 252.576 182.243 243.824C173.024 235.073 160.974 229.914 148.278 229.284H145.909H105.234H102.839C92.9495 229.781 83.3947 233.027 75.2492 238.657C67.1036 244.287 60.6907 252.079 56.7318 261.155C54.5053 266.218 53.1143 271.609 52.6128 277.117C52.4451 278.776 52.3675 280.443 52.3809 282.111V308.808L52.8702 309.039C75.0693 319.548 99.3241 324.999 123.885 324.999C148.446 324.999 172.701 319.548 194.9 309.039L198.839 307.108V282.111C198.839 280.438 198.839 278.764 198.607 277.117" fill="#3CA6BE"/>
<path d="M125.031 277.323C118.995 277.323 113.207 274.925 108.939 270.657C104.671 266.389 102.273 260.601 102.273 254.565V212.551H147.763V254.565C147.766 257.553 147.181 260.511 146.04 263.272C144.899 266.033 143.225 268.542 141.114 270.656C139.003 272.769 136.496 274.446 133.736 275.59C130.976 276.734 128.018 277.323 125.031 277.323Z" fill="#AF7751"/>
<path d="M187.229 119.255V167.216C187.229 203.541 159.245 233.275 125.006 233.275C90.7661 233.275 62.7822 203.541 62.7822 167.216V119.255C62.7822 117.367 62.8594 115.513 63.0138 113.694C65.5882 80.7929 91.3323 54.4824 122.56 53.2725C123.384 53.2725 124.207 53.2725 125.134 53.2725C126.061 53.2725 126.782 53.2725 127.709 53.2725C143.547 54.0047 158.458 60.9515 169.208 72.6063C179.719 83.891 186.075 98.4183 187.229 113.797C187.383 115.625 187.435 117.478 187.435 119.357" fill="#D39667"/>
<path d="M104.282 148.319C104.282 149.98 103.789 151.604 102.866 152.985C101.943 154.365 100.63 155.441 99.0954 156.076C97.5604 156.71 95.8716 156.875 94.2429 156.549C92.6143 156.223 91.1188 155.421 89.9461 154.245C88.7734 153.068 87.9761 151.571 87.6551 149.941C87.3342 148.311 87.5043 146.623 88.1435 145.09C88.7827 143.557 89.8623 142.248 91.2459 141.329C92.6294 140.41 94.2545 139.922 95.9154 139.927C98.1368 139.934 100.265 140.821 101.833 142.394C103.402 143.967 104.282 146.098 104.282 148.319Z" fill="#18384D"/>
<path d="M162.489 148.319C162.489 149.98 161.997 151.604 161.073 152.985C160.15 154.365 158.837 155.441 157.302 156.076C155.767 156.71 154.079 156.875 152.45 156.549C150.821 156.223 149.326 155.421 148.153 154.245C146.98 153.068 146.183 151.571 145.862 149.941C145.541 148.311 145.711 146.623 146.351 145.09C146.99 143.557 148.069 142.248 149.453 141.329C150.836 140.41 152.461 139.922 154.122 139.927C156.344 139.934 158.472 140.821 160.04 142.394C161.609 143.967 162.489 146.098 162.489 148.319Z" fill="#18384D"/>
<path d="M94.0353 169.842C94.0353 172.006 93.3935 174.121 92.1912 175.92C90.989 177.72 89.2802 179.122 87.281 179.95C85.2817 180.778 83.082 180.995 80.9596 180.573C78.8372 180.15 76.8875 179.108 75.3573 177.578C73.8272 176.048 72.7853 174.099 72.3631 171.976C71.9409 169.854 72.1575 167.654 72.9856 165.655C73.8138 163.655 75.2161 161.947 77.0154 160.744C78.8147 159.542 80.9301 158.9 83.0941 158.9C85.9959 158.9 88.7786 160.053 90.8305 162.105C92.8824 164.157 94.0353 166.94 94.0353 169.842Z" fill="#F28F75"/>
<path d="M177.884 169.842C177.889 172.012 177.25 174.135 176.048 175.942C174.846 177.748 173.135 179.158 171.131 179.992C169.128 180.826 166.922 181.047 164.793 180.627C162.664 180.207 160.707 179.164 159.171 177.631C157.635 176.099 156.588 174.145 156.162 172.016C155.737 169.888 155.953 167.682 156.782 165.676C157.611 163.671 159.017 161.957 160.821 160.751C162.625 159.544 164.746 158.9 166.917 158.9C168.356 158.897 169.781 159.178 171.112 159.726C172.442 160.274 173.651 161.08 174.67 162.096C175.689 163.112 176.497 164.32 177.048 165.649C177.6 166.978 177.884 168.403 177.884 169.842Z" fill="#F28F75"/>
<path d="M62.7816 172.03C58.842 172.03 55.0639 170.465 52.2782 167.679C49.4924 164.893 47.9272 161.115 47.9272 157.176C47.9272 153.236 49.4924 149.458 52.2782 146.672C55.0639 143.886 58.842 142.321 62.7816 142.321V172.03Z" fill="#AF7751"/>
<path d="M105.234 132.101L84.1243 136.529C83.793 136.597 83.4513 136.598 83.1193 136.534C82.7873 136.47 82.4715 136.341 82.1894 136.154C81.9073 135.968 81.6647 135.728 81.4754 135.447C81.2862 135.167 81.1539 134.852 81.0864 134.521C80.949 133.855 81.0802 133.163 81.4516 132.594C81.8229 132.025 82.4043 131.625 83.0687 131.483L104.179 127.055C104.844 126.918 105.537 127.049 106.106 127.42C106.675 127.792 107.074 128.373 107.217 129.037C107.288 129.369 107.294 129.711 107.233 130.045C107.172 130.378 107.046 130.696 106.862 130.981C106.678 131.266 106.439 131.511 106.16 131.703C105.88 131.896 105.566 132.031 105.234 132.101Z" fill="#18384D"/>
<path d="M143.026 132.101L164.136 136.529C164.467 136.597 164.809 136.598 165.141 136.534C165.473 136.47 165.789 136.341 166.071 136.154C166.353 135.968 166.596 135.728 166.785 135.447C166.974 135.167 167.107 134.852 167.174 134.521C167.311 133.855 167.18 133.163 166.809 132.594C166.437 132.025 165.856 131.625 165.192 131.483L144.081 127.055C143.416 126.918 142.723 127.049 142.154 127.42C141.585 127.792 141.186 128.373 141.044 129.037C140.972 129.369 140.966 129.711 141.027 130.045C141.088 130.378 141.214 130.696 141.398 130.981C141.582 131.266 141.821 131.511 142.1 131.703C142.38 131.896 142.694 132.031 143.026 132.101Z" fill="#18384D"/>
<path d="M187.229 142.321C191.168 142.321 194.947 143.886 197.732 146.672C200.518 149.458 202.083 153.236 202.083 157.176C202.083 161.115 200.518 164.893 197.732 167.679C194.947 170.465 191.168 172.03 187.229 172.03V142.321Z" fill="#AF7751"/>
<path d="M58.0458 149.607C57.8341 149.607 57.631 149.522 57.4814 149.373C57.3317 149.223 57.2476 149.02 57.2476 148.808V140.725C57.2476 140.513 57.3317 140.31 57.4814 140.161C57.631 140.011 57.8341 139.927 58.0458 139.927C58.2574 139.927 58.4602 140.011 58.6099 140.161C58.7595 140.31 58.8437 140.513 58.8437 140.725V148.808C58.8437 149.02 58.7595 149.223 58.6099 149.373C58.4602 149.522 58.2574 149.607 58.0458 149.607Z" fill="#484B4C"/>
<path d="M53.7465 153.057C53.6429 153.057 53.5402 153.036 53.4448 152.996C53.3494 152.955 53.2633 152.896 53.1912 152.821C53.1192 152.747 53.0625 152.659 53.0253 152.562C52.988 152.465 52.9706 152.362 52.9741 152.259V144.175C52.9706 144.071 52.988 143.968 53.0253 143.872C53.0625 143.775 53.1192 143.687 53.1912 143.612C53.2633 143.538 53.3494 143.479 53.4448 143.438C53.5402 143.398 53.6429 143.377 53.7465 143.377C53.9582 143.377 54.1613 143.461 54.3109 143.611C54.4606 143.76 54.5447 143.963 54.5447 144.175V152.259C54.5447 152.47 54.4606 152.673 54.3109 152.823C54.1613 152.973 53.9582 153.057 53.7465 153.057Z" fill="#484B4C"/>
<path d="M119.213 208.689C120.834 208.762 122.43 208.26 123.718 207.273C124.239 206.874 124.877 206.658 125.533 206.658C126.189 206.658 126.827 206.874 127.348 207.273C128.624 208.265 130.213 208.767 131.827 208.689C132.579 208.71 133.328 208.579 134.029 208.305C134.729 208.03 135.367 207.618 135.905 207.092C136.443 206.566 136.87 205.937 137.16 205.243C137.45 204.549 137.598 203.803 137.594 203.051C137.182 197.902 131.93 193.783 125.52 193.783C119.11 193.783 113.884 197.876 113.446 203.051C113.442 203.803 113.59 204.549 113.88 205.243C114.17 205.937 114.597 206.566 115.135 207.092C115.673 207.618 116.311 208.03 117.011 208.305C117.712 208.579 118.461 208.71 119.213 208.689Z" fill="#BC4A3F"/>
<path d="M196.858 112.561C197.064 113.307 197.244 114.054 197.424 114.826C197.295 95.8411 189.663 77.6777 176.192 64.2988C162.722 50.92 144.507 43.4117 125.521 43.4121C120.434 43.4173 115.36 43.9523 110.384 45.0082C105.549 46.0452 100.838 47.5898 96.3274 49.6164C83.7129 55.2431 72.9873 64.3866 65.4354 75.9518C57.8836 87.517 53.8254 101.014 53.7466 114.826C53.7466 115.006 53.7466 115.135 53.7466 115.315L103.227 108.081C106.359 108.082 109.404 107.04 111.879 105.12C114.354 103.199 116.119 100.509 116.897 97.4747L124.62 73.8931H126.499L134.223 97.4747C135.004 100.507 136.77 103.194 139.245 105.114C141.719 107.034 144.761 108.078 147.893 108.081L197.373 115.315C197.373 115.135 197.373 115.006 197.373 114.826C197.244 114.054 197.038 113.436 196.858 112.561Z" fill="#18384D"/>
<path d="M151.292 43.3438H98.6965C81.2652 43.3438 67.1343 57.4746 67.1343 74.906V97.0201C67.1343 114.451 81.2652 128.582 98.6965 128.582H151.292C168.723 128.582 182.854 114.451 182.854 97.0201V74.906C182.854 57.4746 168.723 43.3438 151.292 43.3438Z" fill="white"/>
<path d="M127.427 63.4503C127.432 63.1396 127.508 62.8341 127.649 62.5572C127.79 62.2803 127.992 62.0394 128.241 61.853C128.489 61.6665 128.777 61.5396 129.083 61.4817C129.388 61.4239 129.702 61.4368 130.002 61.5194C130.476 61.6804 130.969 61.7757 131.469 61.8026C131.982 61.8667 132.501 61.8667 133.014 61.8026C133.413 61.7513 133.776 61.5435 134.022 61.2249C134.268 60.9063 134.378 60.5029 134.327 60.1035C134.318 59.9037 134.267 59.7079 134.18 59.5281C134.092 59.3484 133.968 59.1885 133.816 59.0583C133.664 58.9281 133.487 58.8303 133.296 58.771C133.105 58.7117 132.904 58.6921 132.705 58.7134C131.855 58.8173 130.994 58.6394 130.254 58.2069C129.515 57.7744 128.938 57.1112 128.611 56.3192C128.13 55.5203 127.774 54.652 127.556 53.7447C127.462 53.4057 127.49 53.0441 127.636 52.7238C127.782 52.4035 128.036 52.1451 128.354 51.9941C130.748 50.8113 133.48 50.5017 136.077 51.1188C138.259 51.6912 140.299 52.7066 142.07 54.1018C143.842 55.497 145.307 57.242 146.375 59.2282C146.555 59.5629 146.71 59.9748 146.864 60.3352C147.019 60.6956 146.864 60.6441 147.019 60.8758C145.822 61.4294 144.508 61.6791 143.192 61.6028C141.876 61.5264 140.6 61.1264 139.476 60.4382C139.26 60.316 139.054 60.1783 138.858 60.0263C138.524 59.8004 138.115 59.7118 137.717 59.7789C137.319 59.846 136.963 60.0637 136.721 60.3867C136.472 60.7227 136.365 61.1428 136.423 61.5568C136.481 61.9708 136.699 62.3456 137.03 62.6007C137.667 63.0825 138.358 63.4886 139.089 63.8107C139.391 63.8787 139.668 64.0304 139.887 64.2483C139.06 65.4585 138.645 66.9028 138.703 68.3674C138.86 70.0559 139.657 71.6205 140.93 72.7406C142.203 73.8607 143.857 74.4513 145.551 74.3915C148.126 74.3915 149.464 73.1043 148.872 71.8171C148.486 70.9675 147.611 70.7358 146.478 71.1735C145.898 71.4281 145.257 71.5101 144.631 71.4097C144.006 71.3092 143.422 71.0306 142.951 70.6071C142.488 70.189 142.151 69.6486 141.981 69.0481C141.81 68.4476 141.813 67.8111 141.987 67.2118C142.162 66.6125 142.502 66.0745 142.968 65.6596C143.435 65.2448 144.009 64.9698 144.625 64.8662C145.871 64.6951 147.091 64.3664 148.254 63.8879C148.692 63.7077 148.975 63.8879 149.31 64.1453C151.464 65.4838 153.071 67.5468 153.841 69.9635C154.498 71.596 154.703 73.3752 154.436 75.1145C154.169 76.8538 153.439 78.4892 152.322 79.8492C151.447 81.0335 151.472 81.986 152.322 82.4236C153.172 82.8613 154.073 82.7068 154.896 81.5226C155.799 80.262 156.526 78.8851 157.059 77.4293C157.73 78.2369 158.245 79.1622 158.578 80.1582C160.008 83.7007 160.008 87.6598 158.578 91.2024C158.288 91.8572 157.868 92.4463 157.344 92.9337C156.819 93.421 156.201 93.7966 155.526 94.0374C154.852 94.2783 154.136 94.3793 153.421 94.3345C152.706 94.2897 152.008 94.1 151.369 93.7768L150.854 93.5451C150.665 93.4594 150.461 93.4121 150.254 93.4059C150.046 93.3997 149.839 93.4347 149.645 93.5089C149.452 93.5832 149.274 93.6951 149.124 93.8383C148.973 93.9815 148.853 94.1531 148.769 94.3431C148.602 94.7123 148.587 95.1324 148.726 95.5129C148.866 95.8933 149.149 96.2037 149.516 96.3769C151.555 97.4639 153.938 97.7132 156.158 97.072C157.179 99.5412 157.328 102.285 156.579 104.85C155.83 107.415 154.229 109.648 152.039 111.18C152.05 110.965 152.05 110.751 152.039 110.536C152.246 109.214 152.246 107.868 152.039 106.546C152.008 106.341 151.938 106.145 151.831 105.967C151.725 105.79 151.585 105.635 151.419 105.512C151.253 105.389 151.064 105.3 150.863 105.25C150.663 105.2 150.454 105.19 150.249 105.22C150.045 105.25 149.849 105.321 149.671 105.427C149.494 105.534 149.339 105.674 149.216 105.84C149.093 106.006 149.004 106.195 148.953 106.396C148.903 106.596 148.893 106.805 148.924 107.009C149.261 109.032 149.06 111.107 148.342 113.028C147.623 114.948 146.412 116.646 144.83 117.95C143.05 119.392 140.971 120.419 138.745 120.957C136.519 121.496 134.201 121.533 131.958 121.065C129.384 120.551 126.809 119.469 127.015 116.2C127.015 114.398 128.689 113.625 130.465 113.934C130.865 114.054 131.295 114.01 131.662 113.812C132.029 113.614 132.302 113.278 132.422 112.879C132.541 112.479 132.497 112.049 132.299 111.682C132.101 111.315 131.766 111.042 131.366 110.922C130.365 110.521 129.256 110.476 128.226 110.794L127.17 111.154C126.913 111 127.015 110.742 127.015 110.536V95.3729C127.019 94.9919 127.062 94.6122 127.144 94.2402C127.176 93.7121 127.358 93.204 127.668 92.7756C127.978 92.3472 128.405 92.0162 128.897 91.8216C129.389 91.627 129.926 91.5768 130.445 91.6768C130.965 91.7769 131.445 92.0231 131.829 92.3866C132.766 93.0144 133.541 93.8547 134.092 94.839C134.642 95.8232 134.952 96.9235 134.996 98.0503C134.996 98.3077 134.996 98.5909 134.996 98.8741C135.003 99.2749 135.165 99.6574 135.448 99.9408C135.732 100.224 136.114 100.386 136.515 100.393C136.72 100.4 136.924 100.366 137.116 100.293C137.308 100.22 137.483 100.11 137.632 99.9682C137.78 99.8268 137.899 99.6572 137.981 99.4694C138.064 99.2815 138.108 99.0792 138.111 98.8741C138.151 97.6726 137.994 96.4725 137.648 95.3214C137.648 95.064 137.39 94.8065 137.468 94.4976C138.639 94.4136 139.783 94.1078 140.84 93.5966C141.895 93.0817 142.282 92.2321 141.87 91.3568C141.458 90.4815 140.557 90.2498 139.501 90.7647C138.66 91.2125 137.703 91.4002 136.755 91.304C135.806 91.2077 134.907 90.8319 134.172 90.2241C133.222 89.3615 132.039 88.7986 130.77 88.6063C129.501 88.4139 128.204 88.6006 127.041 89.1428V77.6352C127.35 77.6352 127.505 77.6352 127.71 77.8669C128.983 78.5095 130.417 78.7619 131.832 78.5925C133.247 78.423 134.581 77.8392 135.665 76.9144C136.566 76.1421 136.747 75.2153 136.129 74.34C135.981 74.1378 135.787 73.9734 135.563 73.8601C135.34 73.7467 135.092 73.6877 134.842 73.6877C134.591 73.6877 134.344 73.7467 134.12 73.8601C133.896 73.9734 133.703 74.1378 133.554 74.34C132.97 74.8862 132.231 75.2386 131.438 75.3492C130.646 75.4598 129.838 75.3231 129.127 74.9579C128.405 74.6445 127.799 74.1141 127.393 73.4405C126.987 72.7668 126.801 71.9835 126.861 71.1992C127.453 68.5991 127.427 66.0247 127.427 63.4503ZM147.327 102.35C147.283 101.413 147.083 100.491 146.735 99.6207C146.591 99.2453 146.305 98.9411 145.94 98.7728C145.575 98.6046 145.158 98.5855 144.779 98.7196C144.41 98.8386 144.1 99.0942 143.914 99.434C143.727 99.7739 143.677 100.172 143.775 100.547C143.775 100.856 143.955 101.165 144.032 101.474C144.324 102.171 144.327 102.955 144.043 103.654C143.758 104.354 143.208 104.912 142.513 105.207C141.561 105.748 140.557 106.185 139.604 106.752C138.965 107.075 138.4 107.529 137.946 108.083C137.491 108.637 137.158 109.28 136.966 109.971C136.775 110.662 136.73 111.385 136.834 112.094C136.938 112.803 137.189 113.482 137.571 114.089C137.745 114.462 138.056 114.753 138.44 114.902C138.824 115.05 139.25 115.045 139.63 114.887C139.999 114.723 140.291 114.422 140.445 114.048C140.598 113.674 140.602 113.255 140.454 112.879L140.119 112.029C140.003 111.819 139.931 111.586 139.909 111.346C139.888 111.106 139.917 110.865 139.995 110.637C140.072 110.409 140.197 110.2 140.36 110.023C140.523 109.846 140.722 109.705 140.943 109.609C141.484 109.275 142.05 108.992 142.616 108.708C143.538 108.255 144.403 107.693 145.191 107.035C145.905 106.472 146.471 105.745 146.844 104.916C147.216 104.087 147.382 103.18 147.327 102.272V102.35ZM141.535 80.1582C140.27 80.1985 139.034 80.5429 137.931 81.1622C137.708 81.2375 137.505 81.3611 137.336 81.5241C137.167 81.687 137.035 81.8853 136.952 82.1048C136.868 82.3244 136.834 82.5596 136.851 82.7939C136.869 83.0282 136.938 83.2557 137.054 83.4602C137.17 83.6647 137.329 83.8411 137.521 83.9768C137.713 84.1125 137.932 84.2043 138.163 84.2454C138.395 84.2866 138.632 84.2762 138.859 84.2149C139.086 84.1536 139.297 84.0431 139.476 83.8911C139.923 83.6176 140.423 83.4421 140.943 83.3762C141.642 83.263 142.358 83.3047 143.039 83.4984C143.721 83.6921 144.351 84.033 144.887 84.497C145.422 84.961 145.849 85.5369 146.137 86.184C146.425 86.831 146.568 87.5335 146.555 88.2418C146.555 89.3745 147.147 90.0439 148.126 90.0181C149.104 89.9924 149.67 89.3488 149.696 88.2161C149.71 87.1417 149.508 86.0755 149.103 85.0805C148.697 84.0855 148.096 83.182 147.335 82.4235C146.574 81.6649 145.669 81.0668 144.673 80.6644C143.676 80.262 142.609 80.0636 141.535 80.0809V80.1582Z" fill="#EA879C"/>
<path d="M122.562 99.131V114.577C122.202 114.577 122.021 114.346 121.79 114.217C120.805 113.509 119.601 113.172 118.391 113.264C118.191 113.268 117.993 113.311 117.81 113.393C117.626 113.474 117.461 113.591 117.324 113.738C117.187 113.885 117.081 114.057 117.012 114.246C116.944 114.434 116.914 114.635 116.924 114.835C116.924 115.24 117.083 115.629 117.367 115.918C117.651 116.207 118.038 116.373 118.443 116.379C120.348 116.379 121.249 117.77 122.047 119.263C119.193 121.051 115.799 121.773 112.464 121.302C109.129 120.831 106.068 119.197 103.82 116.688C105.542 116.552 107.209 116.014 108.686 115.118C109.754 114.55 110.674 113.74 111.371 112.752C112.069 111.763 112.525 110.625 112.702 109.429C112.767 109.201 112.782 108.963 112.747 108.729C112.711 108.495 112.626 108.272 112.497 108.074C112.367 107.876 112.196 107.709 111.997 107.583C111.797 107.456 111.572 107.375 111.338 107.343C110.411 107.343 109.716 107.832 109.587 108.965C109.443 109.967 108.94 110.882 108.171 111.54C107.147 112.482 105.865 113.098 104.49 113.309C103.114 113.52 101.707 113.316 100.448 112.724C98.4932 111.904 96.7681 110.62 95.4222 108.982C94.0763 107.345 93.1503 105.404 92.7246 103.327C92.3028 101.034 92.6088 98.6669 93.5998 96.5566C93.8144 96.1357 93.8853 95.6562 93.8016 95.1914C93.7179 94.7265 93.4844 94.3018 93.1366 93.9822C91.7302 92.3465 90.7572 90.3837 90.3073 88.274C89.8575 86.1642 89.9452 83.9753 90.5622 81.9082C90.8936 80.2381 91.5781 78.6582 92.57 77.2743C93.159 79.1124 94.0273 80.849 95.1444 82.4231C95.3157 82.6853 95.5616 82.8903 95.8502 83.0117C96.1389 83.1331 96.4572 83.1655 96.7644 83.1046C97.0716 83.0437 97.3537 82.8924 97.5743 82.67C97.7948 82.4476 97.9436 82.1644 98.002 81.8567C98.0521 81.5889 98.0362 81.3129 97.9555 81.0527C97.8747 80.7925 97.7317 80.5559 97.5388 80.3636C95.7303 78.0894 94.8148 75.2331 94.9643 72.3314C95.2414 70.4186 95.9727 68.6001 97.0969 67.0279C98.2211 65.4558 99.7057 64.1759 101.426 63.2952L102.018 63.0378C102.623 63.9587 103.428 64.7312 104.373 65.2973C105.318 65.8635 106.379 66.2087 107.476 66.3073C109.253 66.5186 111.044 66.0414 112.48 64.9737C113.916 63.9061 114.889 62.329 115.199 60.5664C115.366 60.1357 115.366 59.6583 115.199 59.2277C115.057 58.9432 114.829 58.7106 114.547 58.5628C114.265 58.415 113.944 58.3594 113.629 58.4039C113.284 58.4245 112.957 58.564 112.703 58.7987C112.45 59.0335 112.286 59.3488 112.239 59.6911C112.138 60.4 111.845 61.0678 111.391 61.6216C110.937 62.1754 110.34 62.594 109.664 62.8319C108.878 63.16 108.008 63.2295 107.179 63.0305C106.351 62.8316 105.608 62.3743 105.056 61.7249C104.505 61.0676 104.177 60.2531 104.117 59.3978C104.056 58.5425 104.268 57.69 104.721 56.9622C106.407 54.4445 108.864 52.5416 111.724 51.5389C114.583 50.5363 117.69 50.4881 120.58 51.4015L121.017 51.5817C121.512 51.6875 121.947 51.9783 122.234 52.3947C122.522 52.8111 122.639 53.3215 122.562 53.8214C122.562 56.3958 122.562 58.9702 122.562 61.3902C122.65 62.6828 122.376 63.9744 121.772 65.1203C121.167 66.2661 120.255 67.2209 119.138 67.8777C118.178 68.4254 117.085 68.6962 115.981 68.6598C114.877 68.6235 113.804 68.2814 112.882 67.6717C112.526 67.4492 112.097 67.3758 111.688 67.4673C111.278 67.5589 110.921 67.8081 110.694 68.1609C110.581 68.3341 110.504 68.5281 110.467 68.7316C110.431 68.9352 110.436 69.1439 110.481 69.3456C110.527 69.5473 110.612 69.7377 110.733 69.9057C110.853 70.0736 111.007 70.2157 111.183 70.3234C112.205 71.0152 113.363 71.481 114.579 71.6896C115.796 71.8983 117.043 71.845 118.237 71.5333C119.816 71.2116 121.297 70.5238 122.562 69.5253V93.39C122.582 94.2728 122.275 95.1319 121.7 95.8019C121.125 96.472 120.323 96.9058 119.447 97.02C118.614 97.1531 117.761 97.0208 117.008 96.6419C116.255 96.263 115.64 95.6568 115.251 94.909C115.147 94.64 114.98 94.3996 114.765 94.2072C114.551 94.0148 114.294 93.8759 114.015 93.802C113.732 93.7394 113.436 93.7623 113.166 93.8677C112.895 93.9731 112.662 94.1562 112.496 94.3941C112.313 94.6542 112.215 94.9643 112.215 95.2822C112.215 95.6001 112.313 95.9103 112.496 96.1704C113.294 97.7954 114.675 99.0604 116.364 99.7139C118.052 100.367 119.925 100.361 121.609 99.6974L122.562 99.131ZM105.519 74.8801L105.159 75.1633C104.475 75.6745 103.9 76.3172 103.467 77.0538C103.035 77.7903 102.754 78.6059 102.642 79.4525C102.529 80.2991 102.587 81.1596 102.811 81.9836C103.036 82.8077 103.422 83.5785 103.949 84.2509C104.586 85.1695 105.463 85.8954 106.485 86.3494C107.506 86.8034 108.633 86.968 109.741 86.8253C110.092 86.8156 110.428 86.6804 110.688 86.4443C110.948 86.2081 111.114 85.8866 111.157 85.5381C111.223 85.2104 111.181 84.8701 111.037 84.5684C110.894 84.2667 110.655 84.0198 110.359 83.8647C109.985 83.7095 109.577 83.6562 109.175 83.7103C108.553 83.7468 107.934 83.6004 107.394 83.2894C106.854 82.9783 106.417 82.5161 106.137 81.9597C105.815 81.4097 105.67 80.7741 105.72 80.1388C105.771 79.5036 106.015 78.8991 106.42 78.407C106.772 77.8765 107.283 77.4711 107.88 77.2491C108.477 77.0271 109.128 76.9999 109.741 77.1713C110.956 77.4383 112.1 77.9595 113.098 78.7005C114.096 79.4415 114.927 80.3856 115.534 81.4706C115.902 82.2125 116.071 83.0377 116.023 83.8647C116.084 84.6973 115.905 85.5298 115.508 86.2642C115.112 86.9986 114.513 87.6042 113.783 88.0095C113.486 88.2095 113.275 88.5126 113.189 88.8599C113.104 89.2072 113.15 89.5739 113.32 89.8889C113.467 90.2184 113.726 90.4848 114.052 90.6405C114.377 90.7961 114.747 90.8308 115.096 90.7384C115.821 90.5583 116.47 90.1526 116.95 89.5799C118.002 88.4768 118.722 87.0995 119.027 85.606C119.332 84.1125 119.21 82.5632 118.675 81.1359C118.183 79.6612 117.355 78.3211 116.255 77.2219C115.156 76.1227 113.816 75.2945 112.342 74.8028C110.556 74.091 108.834 73.2298 107.193 72.2284C105.452 71.2082 104.143 69.5881 103.511 67.6717C103.472 67.4482 103.384 67.2359 103.254 67.0494C103.125 66.863 102.956 66.7069 102.76 66.5919C102.565 66.4769 102.346 66.4057 102.12 66.3832C101.894 66.3608 101.666 66.3875 101.452 66.4618C100.499 66.7707 100.165 67.646 100.551 68.753C101.242 70.879 102.573 72.74 104.361 74.082L105.519 74.8801ZM106.832 101.628L107.553 102.169C108.699 103.113 110.061 103.759 111.518 104.048C111.784 104.125 112.067 104.128 112.336 104.058C112.604 103.987 112.849 103.846 113.044 103.648C113.239 103.451 113.377 103.204 113.443 102.935C113.51 102.665 113.503 102.383 113.423 102.117C113.333 101.81 113.156 101.535 112.914 101.325C112.672 101.115 112.375 100.979 112.058 100.933C110.847 100.681 109.739 100.07 108.88 99.179C108.022 98.288 107.451 97.1588 107.244 95.9387C107.244 95.3724 107.013 94.806 106.858 94.2654C106.572 93.1203 105.997 92.0674 105.19 91.2067C104.382 90.346 103.368 89.706 102.243 89.3475C101.119 88.989 99.9212 88.9239 98.7644 89.1583C97.6076 89.3927 96.53 89.9189 95.6337 90.6869C95.4315 90.8352 95.2672 91.029 95.1538 91.2526C95.0405 91.4762 94.9813 91.7234 94.9813 91.9741C94.9813 92.2248 95.0405 92.472 95.1538 92.6957C95.2672 92.9193 95.4315 93.1131 95.6337 93.2613C95.9476 93.4663 96.3212 93.56 96.6947 93.5273C97.0681 93.4946 97.4196 93.3375 97.6931 93.0811C98.2276 92.6634 98.8606 92.3898 99.5312 92.2866C100.202 92.1834 100.887 92.254 101.523 92.4917C102.158 92.7293 102.722 93.1261 103.161 93.644C103.599 94.1619 103.897 94.7836 104.026 95.4496C104.426 96.997 104.428 98.6205 104.032 100.169C103.636 101.717 102.855 103.14 101.761 104.306C101.591 104.455 101.455 104.64 101.362 104.846C101.269 105.052 101.22 105.276 101.22 105.503C101.22 105.729 101.269 105.953 101.362 106.159C101.455 106.366 101.591 106.55 101.761 106.7C101.939 106.875 102.155 107.008 102.392 107.088C102.629 107.168 102.881 107.192 103.129 107.16C103.378 107.128 103.615 107.039 103.824 106.902C104.033 106.764 104.208 106.58 104.335 106.365C105.465 104.962 106.313 103.353 106.832 101.628Z" fill="#EA879C"/>
</g>
<defs>
<clipPath id="clip0_365_3773">
<rect width="250" height="250" rx="125" fill="white"/>
</clipPath>
</defs>
</svg>
