<svg width="250" height="250" viewBox="0 0 250 250" fill="none" xmlns="http://www.w3.org/2000/svg">
<circle cx="125" cy="125" r="125" fill="#97C1FF"/>
<g clip-path="url(#clip0_365_3579)">
<path d="M236.753 211.321L228.906 203.474C238.164 164.382 238.288 123.683 229.268 84.5359L236.753 77.051C238.243 75.4631 239.056 73.3576 239.021 71.1804C238.985 69.0033 238.103 66.9255 236.562 65.3874C235.021 63.8492 232.941 62.9716 230.764 62.9403C228.587 62.9091 226.483 63.7267 224.898 65.22V65.22L215.24 74.8779C156.193 68.7007 96.658 68.7897 37.6298 75.1435L27.6097 65.1234C26.014 63.6931 23.9309 62.9287 21.7888 62.9872C19.6467 63.0457 17.6085 63.9228 16.0933 65.438C14.5781 66.9533 13.7011 68.9915 13.6425 71.1336C13.584 73.2756 14.3484 75.3587 15.7787 76.9544V76.9544L25.4366 86.6124C17.073 124.332 17.1885 163.438 25.7747 201.108L15.7063 211.152C14.213 212.737 13.3954 214.841 13.4266 217.018C13.4579 219.195 14.3356 221.275 15.8737 222.816C17.4118 224.357 19.4896 225.239 21.6668 225.275C23.844 225.31 25.9494 224.497 27.5372 223.007V223.007L38.837 211.707L38.3542 211.224C96.6554 217.425 155.444 217.53 213.767 211.538L213.598 211.707L224.922 223.007C226.527 224.406 228.603 225.144 230.731 225.072C232.859 224.999 234.88 224.121 236.386 222.616C237.891 221.11 238.769 219.089 238.842 216.961C238.915 214.833 238.177 212.757 236.777 211.152L236.753 211.321Z" fill="white"/>
<path d="M193.436 277.164V304.883C171.749 315.542 147.906 321.084 123.742 321.084C99.577 321.084 75.7343 315.542 54.0474 304.883V277.164C54.088 264.224 59.0958 251.793 68.0371 242.438C76.9784 233.084 89.1703 227.52 102.096 226.895H104.365H143.118H145.412C158.333 227.526 170.519 233.092 179.455 242.446C188.391 251.8 193.396 264.228 193.436 277.164" fill="#9AB20D"/>
<path d="M123.754 262.823C117.991 262.823 112.463 260.533 108.388 256.458C104.313 252.383 102.023 246.856 102.023 241.092V201.108H145.339V241.092C145.339 246.856 143.05 252.383 138.975 256.458C134.899 260.533 129.372 262.823 123.609 262.823" fill="#AF7751"/>
<path d="M182.957 112.327V157.961C182.957 192.537 156.398 220.738 123.73 220.738C91.0617 220.738 64.5264 192.44 64.5264 157.961V112.327C64.5264 110.541 64.5989 108.778 64.7437 107.04C67.1582 75.6512 91.5687 50.7578 121.412 49.5264C122.184 49.5264 122.989 49.5264 123.826 49.5264C124.623 49.5264 125.396 49.5264 126.241 49.5264C141.305 50.2366 155.486 56.8454 165.718 67.9248C175.726 78.6309 181.79 92.4267 182.909 107.04C183.054 108.778 183.126 110.541 183.126 112.327" fill="#D39667"/>
<path d="M104.004 136.955C104.004 138.531 103.536 140.072 102.661 141.382C101.785 142.692 100.541 143.713 99.0849 144.316C97.6289 144.92 96.0268 145.077 94.4812 144.77C92.9356 144.462 91.5159 143.704 90.4016 142.589C89.2873 141.475 88.5284 140.055 88.221 138.51C87.9135 136.964 88.0714 135.362 88.6744 133.906C89.2775 132.45 90.2987 131.206 91.609 130.33C92.9193 129.455 94.4598 128.987 96.0357 128.987C98.1489 128.987 100.176 129.827 101.67 131.321C103.164 132.815 104.004 134.842 104.004 136.955" fill="#18384D"/>
<path d="M159.416 136.955C159.421 138.538 158.956 140.086 158.08 141.404C157.203 142.722 155.955 143.75 154.494 144.358C153.033 144.966 151.424 145.126 149.871 144.819C148.319 144.511 146.892 143.75 145.773 142.63C144.654 141.511 143.893 140.085 143.585 138.533C143.277 136.98 143.438 135.371 144.046 133.91C144.653 132.448 145.682 131.2 147 130.324C148.318 129.448 149.866 128.983 151.449 128.987C153.562 128.987 155.588 129.827 157.083 131.321C158.577 132.815 159.416 134.842 159.416 136.955" fill="#18384D"/>
<path d="M64.5265 162.549C60.8782 162.398 57.4295 160.843 54.9015 158.208C52.3735 155.574 50.9619 152.064 50.9619 148.412C50.9619 144.761 52.3735 141.251 54.9015 138.616C57.4295 135.982 60.8782 134.426 64.5265 134.275V162.549Z" fill="#AF7751"/>
<path d="M104.535 119.739H84.0121C83.3718 119.739 82.7577 119.485 82.3049 119.032C81.8521 118.579 81.5977 117.965 81.5977 117.325C81.5977 116.684 81.8521 116.07 82.3049 115.617C82.7577 115.165 83.3718 114.91 84.0121 114.91H104.535C105.176 114.91 105.79 115.165 106.243 115.617C106.695 116.07 106.95 116.684 106.95 117.325C106.95 117.965 106.695 118.579 106.243 119.032C105.79 119.485 105.176 119.739 104.535 119.739Z" fill="#18384D"/>
<path d="M161.71 119.739H141.187C140.547 119.739 139.932 119.485 139.48 119.032C139.027 118.579 138.772 117.965 138.772 117.325C138.772 116.684 139.027 116.07 139.48 115.617C139.932 115.165 140.547 114.91 141.187 114.91H161.71C162.35 114.91 162.965 115.165 163.417 115.617C163.87 116.07 164.125 116.684 164.125 117.325C164.125 117.965 163.87 118.579 163.417 119.032C162.965 119.485 162.35 119.739 161.71 119.739Z" fill="#18384D"/>
<path d="M104.535 149.075H84.0121C83.3718 149.075 82.7577 148.821 82.3049 148.368C81.8521 147.915 81.5977 147.301 81.5977 146.661C81.5977 146.02 81.8521 145.406 82.3049 144.953C82.7577 144.5 83.3718 144.246 84.0121 144.246H104.535C105.176 144.246 105.79 144.5 106.243 144.953C106.695 145.406 106.95 146.02 106.95 146.661C106.95 147.301 106.695 147.915 106.243 148.368C105.79 148.821 105.176 149.075 104.535 149.075Z" fill="#AF7751"/>
<path d="M161.71 149.075H141.187C140.547 149.075 139.932 148.821 139.48 148.368C139.027 147.915 138.772 147.301 138.772 146.661C138.772 146.02 139.027 145.406 139.48 144.953C139.932 144.5 140.547 144.246 141.187 144.246H161.71C162.35 144.246 162.965 144.5 163.417 144.953C163.87 145.406 164.125 146.02 164.125 146.661C164.125 147.301 163.87 147.915 163.417 148.368C162.965 148.821 162.35 149.075 161.71 149.075Z" fill="#AF7751"/>
<path d="M182.958 134.274C186.606 134.425 190.054 135.981 192.582 138.615C195.11 141.25 196.522 144.76 196.522 148.411C196.522 152.063 195.11 155.573 192.582 158.207C190.054 160.842 186.606 162.397 182.958 162.548V134.274Z" fill="#AF7751"/>
<path d="M123.633 173.486C125.952 173.499 128.227 174.113 130.238 175.268C132.248 176.424 133.924 178.081 135.102 180.078C135.422 180.59 135.526 181.209 135.39 181.797C135.254 182.386 134.89 182.897 134.378 183.217C133.865 183.537 133.247 183.641 132.658 183.505C132.07 183.369 131.559 183.005 131.239 182.492C130.461 181.164 129.351 180.06 128.017 179.29C126.684 178.519 125.173 178.109 123.633 178.098H123.44C122.044 178.18 120.684 178.575 119.459 179.251C118.235 179.928 117.178 180.871 116.366 182.009C116.026 182.503 115.505 182.841 114.916 182.949C114.328 183.058 113.72 182.928 113.227 182.589C112.734 182.25 112.396 181.728 112.287 181.14C112.178 180.551 112.308 179.943 112.647 179.45C113.859 177.716 115.455 176.284 117.31 175.267C119.165 174.249 121.23 173.673 123.344 173.583H123.633" fill="#18384D"/>
<path d="M84.5916 66.1623C82.6613 66.5587 80.6787 66.6321 78.7244 66.3796C74.9583 65.8878 71.4423 64.2244 68.6735 61.6246C65.9047 59.0248 64.0234 55.6203 63.2957 51.8926C63.0096 50.5114 62.8881 49.1012 62.9336 47.6914C68.1239 47.1292 73.3414 48.4757 77.6114 51.4794C81.8815 54.4831 84.9119 58.9385 86.1369 64.0134C86.1369 64.3031 86.2576 64.5687 86.3301 64.8343L86.4749 65.6794C85.8408 65.8772 85.1959 66.0384 84.5434 66.1623" fill="#BC4A3F"/>
<path d="M84.6884 63.5303C86.646 63.2481 88.5454 62.653 90.314 61.7677C93.6717 60.049 96.4081 57.3233 98.1399 53.9723C99.8717 50.6213 100.512 46.8127 99.972 43.0795C99.7808 41.682 99.4242 40.3123 98.9096 38.999C93.8287 40.1806 89.3503 43.1681 86.3078 47.4054C83.2653 51.6428 81.866 56.8412 82.3704 62.0333C82.3704 62.2989 82.3704 62.5886 82.3704 62.8542C82.3704 63.1198 82.3704 63.4095 82.4911 63.6993C83.1536 63.6789 83.8146 63.6225 84.471 63.5303" fill="#BC4A3F"/>
<path d="M95.1191 63.0958C96.252 68.7227 96.2643 74.5179 95.155 80.1496C94.0457 85.7812 91.8366 91.1388 88.6543 95.9157C85.4719 100.693 81.3786 104.795 76.6089 107.988C71.8392 111.181 66.4867 113.402 60.8575 114.524C57.5232 115.211 54.1186 115.495 50.7166 115.37C49.3284 102.851 52.5412 90.2541 59.756 79.9295C66.9708 69.6049 77.6949 62.2571 89.928 59.2567C90.5799 59.0877 91.256 58.9429 91.9079 58.8221C92.5598 58.7014 93.2357 58.5565 93.9118 58.46C94.3936 59.9835 94.7965 61.5308 95.1191 63.0958" fill="#BC4A3F"/>
<path d="M82.7803 68.07C89.1955 77.5557 97.6749 85.466 107.583 91.2079C117.49 96.9497 128.569 100.374 139.989 101.224C151.409 102.075 162.873 100.328 173.522 96.1171C184.17 91.9057 193.728 85.3382 201.477 76.907C187.7 59.9387 168.221 48.5627 146.673 44.9017C125.125 41.2408 102.981 45.5452 84.3739 57.0116C83.384 57.6152 82.394 58.2672 81.404 58.9191C80.4141 59.571 79.4724 60.247 78.5308 60.9472C79.8236 63.4322 81.242 65.8498 82.7803 68.1907" fill="#BC4A3F"/>
</g>
<defs>
<clipPath id="clip0_365_3579">
<rect width="250" height="250" rx="125" fill="white"/>
</clipPath>
</defs>
</svg>
