<svg width="200" height="200" viewBox="0 0 200 200" fill="none" xmlns="http://www.w3.org/2000/svg">
<g clip-path="url(#clip0_1692_2006)">
<path d="M100.008 200.015C155.24 200.015 200.015 155.24 200.015 100.008C200.015 44.775 155.24 0 100.008 0C44.775 0 0 44.775 0 100.008C0 155.24 44.775 200.015 100.008 200.015Z" fill="#FFA2A2"/>
<path d="M89.7269 53.2012H38.0586V138.593H89.7269V53.2012Z" fill="#D1E7F1"/>
<path d="M160.781 53.2012H85.7012V138.593H160.781V53.2012Z" fill="#E0EFF5"/>
<path d="M51.4202 46.6357H39.9469C37.3302 46.6357 35.209 48.757 35.209 51.3737V136.44C35.209 139.057 37.3302 141.178 39.9469 141.178H51.4202C54.0369 141.178 56.1581 139.057 56.1581 136.44V51.3737C56.1581 48.757 54.0369 46.6357 51.4202 46.6357Z" fill="#E0EFF5"/>
<path d="M132.957 98.2422H63.9004V119.47H132.957V98.2422Z" stroke="#647E87" stroke-miterlimit="10"/>
<path d="M132.957 119.455V75.9619H101.758V119.455H132.957Z" stroke="#647E87" stroke-miterlimit="10"/>
<path d="M155.191 159.852V104.111L99.3418 159.852H155.191ZM144.972 149.385H123.295L144.972 127.708V149.385Z" fill="#18384D"/>
<path d="M123.248 102.702H113.246V119.455H123.248V102.702Z" stroke="#647E87" stroke-miterlimit="10"/>
<path d="M123.248 75.9619H113.246V98.2426H123.248V75.9619Z" stroke="#647E87" stroke-miterlimit="10"/>
<path d="M132.957 98.2422H63.9004V102.701H132.957V98.2422Z" stroke="#647E87" stroke-miterlimit="10"/>
</g>
<defs>
<clipPath id="clip0_1692_2006">
<rect width="200" height="200" fill="white"/>
</clipPath>
</defs>
</svg>
