<svg width="200" height="200" viewBox="0 0 200 200" fill="none" xmlns="http://www.w3.org/2000/svg">
<g clip-path="url(#clip0_1692_1901)">
<path d="M100.008 200.015C155.24 200.015 200.015 155.24 200.015 100.008C200.015 44.775 155.24 0 100.008 0C44.775 0 0 44.775 0 100.008C0 155.24 44.775 200.015 100.008 200.015Z" fill="#E7E7E7"/>
<path d="M41.0784 105.303C46.4666 137.214 68.4222 160.254 90.6255 157.823L70.6363 39.4209C48.8666 44.3756 35.6901 73.3916 41.0784 105.303Z" fill="#D39667"/>
<path d="M72.3389 39.0802C71.766 39.1731 71.1931 39.2969 70.6357 39.4208L90.6249 157.823C91.1978 157.823 91.7707 157.699 92.3436 157.606C93.4465 157.417 94.5374 157.164 95.6106 156.847C98.2893 156.073 99.8066 152.915 99.2492 149.632C96.4622 133.127 106 117.117 121.561 109.793C122.586 109.262 123.437 108.446 124.011 107.444C124.585 106.442 124.858 105.295 124.797 104.142C124.715 99.8807 124.316 95.6318 123.605 91.4298C118.062 58.6513 95.1151 35.2248 72.3389 39.0802ZM100.952 115.692C96.5086 118.495 89.8972 115.971 86.1812 110.072C84.3077 107.099 84.416 102.748 84.1219 97.778C84.0905 96.8273 84.3086 95.8849 84.7543 95.0446C85.2001 94.2042 85.8581 93.4952 86.6628 92.9879C87.4675 92.4807 88.391 92.1928 89.3414 92.1531C90.2918 92.1133 91.2361 92.3231 92.0803 92.7614C96.4312 95.1923 100.41 96.9729 102.268 99.9457C105.985 105.845 105.396 112.905 100.952 115.692Z" fill="#E0AA85"/>
<path d="M60.5711 76.6432C64.7698 76.6432 68.1735 73.2395 68.1735 69.0409C68.1735 64.8422 64.7698 61.4385 60.5711 61.4385C56.3725 61.4385 52.9688 64.8422 52.9688 69.0409C52.9688 73.2395 56.3725 76.6432 60.5711 76.6432Z" fill="#BC4A3F"/>
<path d="M103.167 85.6237C107.366 85.6237 110.769 82.22 110.769 78.0213C110.769 73.8226 107.366 70.4189 103.167 70.4189C98.9682 70.4189 95.5645 73.8226 95.5645 78.0213C95.5645 82.22 98.9682 85.6237 103.167 85.6237Z" fill="#DD7C07"/>
<path d="M84.2606 64.9372C88.4593 64.9372 91.863 61.5335 91.863 57.3348C91.863 53.1361 88.4593 49.7324 84.2606 49.7324C80.0619 49.7324 76.6582 53.1361 76.6582 57.3348C76.6582 61.5335 80.0619 64.9372 84.2606 64.9372Z" fill="#9AB20D"/>
<path d="M55.8953 105.334C60.094 105.334 63.4977 101.93 63.4977 97.7313C63.4977 93.5326 60.094 90.1289 55.8953 90.1289C51.6967 90.1289 48.293 93.5326 48.293 97.7313C48.293 101.93 51.6967 105.334 55.8953 105.334Z" fill="#E9D635"/>
<path d="M66.9041 133.637C71.1028 133.637 74.5065 130.234 74.5065 126.035C74.5065 121.836 71.1028 118.433 66.9041 118.433C62.7055 118.433 59.3018 121.836 59.3018 126.035C59.3018 130.234 62.7055 133.637 66.9041 133.637Z" fill="#3CA6BE"/>
<path d="M158.628 107.518C158.405 111.446 157.168 115.25 155.036 118.557C152.906 121.88 149.979 124.616 146.52 126.516L148.456 138.593C148.578 139.35 148.619 140.118 148.579 140.884C148.451 142.618 147.921 144.299 147.031 145.793C146.168 147.271 145.039 148.578 143.702 149.648C142.357 150.728 140.832 151.561 139.196 152.11C137.575 152.665 135.859 152.892 134.149 152.776C132.327 152.674 130.546 152.2 128.915 151.382C127.341 150.601 125.932 149.524 124.766 148.208C123.611 146.881 122.718 145.347 122.134 143.687C121.512 141.962 121.259 140.127 121.39 138.299C121.438 137.53 121.638 136.778 121.978 136.087C122.318 135.396 122.792 134.779 123.372 134.273C123.947 133.762 124.619 133.371 125.348 133.124C126.076 132.876 126.847 132.777 127.615 132.833C129.166 132.951 130.613 133.661 131.656 134.815C132.146 135.39 132.524 136.052 132.771 136.766C133.037 137.504 133.142 138.29 133.08 139.073C133.04 139.864 132.823 140.637 132.446 141.333C132.086 142.006 131.603 142.605 131.021 143.099C130.438 143.586 129.772 143.963 129.055 144.213C128.316 144.478 127.53 144.584 126.748 144.523C127.572 145.768 128.67 146.807 129.959 147.561C131.247 148.316 132.691 148.765 134.18 148.874C135.464 148.959 136.753 148.79 137.973 148.378C139.173 147.986 140.291 147.377 141.271 146.582C142.239 145.798 143.049 144.837 143.656 143.749C144.276 142.625 144.636 141.376 144.709 140.095C144.767 139.098 144.741 138.099 144.631 137.106C144.523 136.085 144.368 135.063 144.198 134.01C144.027 132.957 143.841 131.966 143.609 130.913C143.377 129.86 143.207 128.916 143.052 127.971C141.254 128.607 139.379 129.003 137.478 129.148C135.576 129.279 133.667 129.279 131.764 129.148C128.383 128.948 125.079 128.058 122.056 126.531C116.153 123.582 111.636 118.442 109.468 112.209C108.352 109.005 107.899 105.607 108.137 102.222C108.28 100.129 108.627 98.0544 109.174 96.0287C109.711 93.977 110.442 91.981 111.357 90.0676C112.257 88.1508 113.341 86.3255 114.593 84.6174C115.832 82.9509 117.216 81.3966 118.727 79.9724C119.501 79.2601 120.276 78.5788 121.112 77.9285C121.948 77.2782 122.737 76.6125 123.512 75.9467L133.08 67.5392L130.975 54.8427C130.864 54.2143 130.833 53.5745 130.882 52.9383C130.959 51.632 131.307 50.3559 131.904 49.1912C132.489 48.0707 133.282 47.0722 134.242 46.2494C135.221 45.4336 136.345 44.8087 137.555 44.4069C138.792 43.9736 140.104 43.7996 141.411 43.8959C142.698 43.9651 143.956 44.3138 145.096 44.9178C146.195 45.5014 147.177 46.2837 147.991 47.2249C149.643 49.1625 150.476 51.6669 150.314 54.2079C150.219 56.2606 149.774 58.282 148.997 60.1845C148.297 61.8226 147.364 63.3507 146.226 64.7212C145.069 66.1234 143.784 67.4141 142.386 68.5766C140.946 69.7998 139.444 71.1158 137.865 72.5248L140.141 86.7541C142.777 86.911 145.356 87.5899 147.728 88.7515C149.999 89.8561 152.034 91.3917 153.72 93.2727C155.44 95.2052 156.755 97.4627 157.587 99.9121C158.42 102.361 158.752 104.953 158.566 107.533L158.628 107.518ZM134.164 123.481C135.542 123.574 136.905 123.605 138.267 123.574C139.619 123.558 140.96 123.339 142.247 122.924L137.803 96.0442C135.983 96.9548 134.439 98.3337 133.328 100.039C132.2 101.737 131.538 103.702 131.408 105.737C131.311 107.247 131.587 108.757 132.213 110.134C132.812 111.519 133.692 112.763 134.799 113.788C133.233 113.7 131.703 113.283 130.309 112.565C127.593 111.18 125.51 108.809 124.487 105.938C123.962 104.449 123.751 102.868 123.868 101.293C123.971 99.5926 124.363 97.9222 125.029 96.3539C125.685 94.7988 126.59 93.3608 127.708 92.096C128.819 90.8262 130.12 89.7347 131.563 88.8599C133.032 87.9669 134.646 87.3381 136.332 87.0019L134.458 75.5131C133.003 76.7983 131.532 78.0679 130.03 79.3066C128.528 80.5453 127.057 81.8149 125.602 83.1001C122.815 85.612 120.534 88.634 118.882 92.0031C117.19 95.3457 116.19 98.995 115.94 102.733C115.739 105.359 116.097 107.998 116.993 110.475C117.839 112.84 119.114 115.029 120.756 116.931C122.442 118.863 124.496 120.44 126.798 121.57C129.101 122.699 131.604 123.36 134.164 123.512V123.481ZM134.861 52.7989C134.797 53.7807 134.833 54.7664 134.969 55.7408C135.109 56.7317 135.279 57.7071 135.48 58.6826L136.131 61.609C136.36 62.5792 136.536 63.5614 136.657 64.5509C138.348 63.2348 139.763 61.5985 140.822 59.7355C141.885 57.8841 142.505 55.8122 142.634 53.6815C142.668 53.1738 142.598 52.6645 142.428 52.1851C142.257 51.7057 141.99 51.2664 141.643 50.8945C141.309 50.5092 140.901 50.1944 140.444 49.9684C139.986 49.7425 139.489 49.6098 138.98 49.5783C138.248 49.556 137.523 49.7206 136.873 50.0566C136.222 50.3925 135.669 50.8887 135.264 51.4982C135.016 51.8884 134.877 52.3373 134.861 52.7989ZM145.699 121.453C148.283 120.043 150.466 118.001 152.045 115.518C153.623 113.035 154.546 110.191 154.726 107.254C154.844 105.68 154.633 104.098 154.107 102.609C153.598 101.191 152.832 99.8786 151.846 98.7383C150.868 97.5968 149.674 96.6602 148.332 95.9823C146.937 95.2645 145.407 94.8478 143.841 94.7591C143.049 94.6788 142.25 94.6788 141.457 94.7591L145.699 121.453Z" fill="#18384D"/>
</g>
<defs>
<clipPath id="clip0_1692_1901">
<rect width="200" height="200" fill="white"/>
</clipPath>
</defs>
</svg>
