<svg width="200" height="200" viewBox="0 0 200 200" fill="none" xmlns="http://www.w3.org/2000/svg">
<g clip-path="url(#clip0_1692_3288)">
<path d="M100.008 200.015C155.24 200.015 200.015 155.24 200.015 100.008C200.015 44.775 155.24 0 100.008 0C44.775 0 0 44.775 0 100.008C0 155.24 44.775 200.015 100.008 200.015Z" fill="#BCEBFF"/>
<path d="M100.008 26.8389V171.269C119.16 171.269 137.529 163.66 151.071 150.117C164.614 136.574 172.223 118.206 172.223 99.0538C172.223 79.9012 164.614 61.5331 151.071 47.9901C137.529 34.4472 119.16 26.8389 100.008 26.8389Z" fill="#E0AA85"/>
<path d="M27.793 99.0073C27.793 118.16 35.4013 136.528 48.9442 150.071C62.4872 163.614 80.8553 171.222 100.008 171.222V26.8389C80.8634 26.8389 62.5022 34.4408 48.9606 47.9737C35.4191 61.5066 27.8053 79.8628 27.793 99.0073Z" fill="#D39667"/>
<path d="M96.1338 99.2959L102.834 105.996L72.0034 136.827C71.1149 137.716 69.9097 138.215 68.6531 138.215C67.3965 138.215 66.1915 137.716 65.3029 136.827C64.4144 135.939 63.9152 134.734 63.9152 133.477C63.9152 132.22 64.4144 131.015 65.3029 130.127L96.1338 99.2959Z" fill="#3B6275"/>
<path d="M135.153 136.84C134.264 137.728 133.059 138.227 131.802 138.227C130.546 138.227 129.341 137.728 128.452 136.84L97.6214 106.009L104.322 99.3082L135.153 130.139C135.593 130.579 135.942 131.101 136.18 131.676C136.418 132.251 136.54 132.867 136.54 133.489C136.54 134.111 136.418 134.728 136.18 135.302C135.942 135.877 135.593 136.4 135.153 136.84Z" fill="#3B6275"/>
<path d="M102.299 78.833V88.3089H58.6974C57.4408 88.3089 56.2357 87.8097 55.3471 86.9211C54.4586 86.0326 53.9594 84.8275 53.9594 83.5709C53.9594 82.3144 54.4586 81.1092 55.3471 80.2207C56.2357 79.3322 57.4408 78.833 58.6974 78.833H102.299Z" fill="#3B6275"/>
<path d="M146.582 83.571C146.582 84.8276 146.083 86.0327 145.194 86.9212C144.306 87.8097 143.101 88.3089 141.844 88.3089H98.2426V78.833H141.798C143.054 78.833 144.259 79.3322 145.148 80.2207C146.036 81.1093 146.536 82.3144 146.536 83.571H146.582Z" fill="#3B6275"/>
<path d="M94.8367 76.5725H106.155C107.633 76.5725 109.051 77.1598 110.097 78.2051C111.142 79.2505 111.729 80.6683 111.729 82.1466V121.753H88.7207V82.6885C88.7207 81.0459 89.3732 79.4706 90.5347 78.3091C91.6962 77.1476 93.2715 76.4951 94.9141 76.4951L94.8367 76.5725Z" fill="#18384D"/>
<path d="M88.7207 109.877H98.1966V153.478C98.1966 154.735 97.6974 155.94 96.8089 156.829C95.9203 157.717 94.7152 158.216 93.4586 158.216C92.2021 158.216 90.997 157.717 90.1084 156.829C89.2199 155.94 88.7207 154.735 88.7207 153.478V109.877Z" fill="#18384D"/>
<path d="M102.191 109.877H111.667V153.478C111.667 154.735 111.168 155.94 110.28 156.829C109.391 157.717 108.186 158.216 106.929 158.216C105.673 158.216 104.468 157.717 103.579 156.829C102.691 155.94 102.191 154.735 102.191 153.478V109.877Z" fill="#18384D"/>
<path d="M104.318 90.165L97.6179 83.4645L128.449 52.6337C129.337 51.7451 130.542 51.246 131.799 51.246C133.056 51.246 134.261 51.7451 135.149 52.6337C135.589 53.0736 135.938 53.5959 136.176 54.1707C136.414 54.7456 136.537 55.3617 136.537 55.9839C136.537 56.6061 136.414 57.2222 136.176 57.797C135.938 58.3719 135.589 58.8942 135.149 59.3342L104.318 90.165Z" fill="#18384D"/>
<path d="M65.2838 52.6215C66.1724 51.7329 67.3775 51.2338 68.6341 51.2338C69.8906 51.2338 71.0958 51.7329 71.9843 52.6215L102.815 83.4523L96.1147 90.1528L65.2839 59.3219C64.3953 58.4334 63.8961 57.2283 63.8961 55.9717C63.8961 54.7151 64.3953 53.51 65.2838 52.6215Z" fill="#18384D"/>
<path d="M100.225 73.708C105.475 73.708 109.731 69.4517 109.731 64.2012C109.731 58.9507 105.475 54.6943 100.225 54.6943C94.9741 54.6943 90.7178 58.9507 90.7178 64.2012C90.7178 69.4517 94.9741 73.708 100.225 73.708Z" fill="#18384D"/>
</g>
<defs>
<clipPath id="clip0_1692_3288">
<rect width="200" height="200" fill="white"/>
</clipPath>
</defs>
</svg>
