<svg width="200" height="200" viewBox="0 0 200 200" fill="none" xmlns="http://www.w3.org/2000/svg">
<g clip-path="url(#clip0_1692_1851)">
<path d="M100.008 200.015C155.24 200.015 200.015 155.24 200.015 100.008C200.015 44.775 155.24 0 100.008 0C44.775 0 0 44.775 0 100.008C0 155.24 44.775 200.015 100.008 200.015Z" fill="#FFB1D7"/>
<path d="M52.0703 80.7001V126.175H64.4571V80.7001C64.4571 62.7392 80.4051 48.1848 100.069 48.1848V35.798C73.5769 35.7361 52.0703 55.8955 52.0703 80.7001Z" fill="#18384D"/>
<path d="M100.008 35.7363V48.1231C119.61 48.1231 135.62 62.7395 135.62 80.6384V126.113H148.007V80.7003C147.96 55.8958 126.438 35.7363 100.008 35.7363Z" fill="#3B6275"/>
<path d="M63.1877 94.418C57.2169 94.418 51.4907 96.7899 47.2687 101.012C43.0467 105.234 40.6748 110.96 40.6748 116.931C40.6748 119.887 41.2572 122.815 42.3885 125.546C43.5199 128.278 45.1782 130.759 47.2687 132.85C49.3592 134.941 51.841 136.599 54.5724 137.73C57.3038 138.862 60.2313 139.444 63.1877 139.444H64.3336V94.418H63.1877Z" fill="#18384D"/>
<path d="M65.1391 94.418H64.334V139.444H65.1391C66.5454 139.446 67.9384 139.171 69.2382 138.634C70.5381 138.097 71.7193 137.309 72.7145 136.316C73.7096 135.322 74.4991 134.142 75.0377 132.843C75.5764 131.544 75.8537 130.151 75.8537 128.745V105.256C75.8701 103.839 75.605 102.432 75.0738 101.118C74.5427 99.8038 73.7561 98.608 72.7595 97.5999C71.763 96.5918 70.5763 95.7914 69.2682 95.2453C67.9601 94.6991 66.5566 94.4179 65.1391 94.418Z" fill="#3B6275"/>
<path d="M136.827 139.506C142.796 139.502 148.518 137.128 152.737 132.906C156.955 128.685 159.325 122.961 159.325 116.993C159.333 114.032 158.757 111.1 157.63 108.362C156.504 105.625 154.848 103.136 152.758 101.039C150.669 98.9423 148.186 97.2782 145.452 96.142C142.719 95.0058 139.788 94.42 136.827 94.418H135.682V139.444L136.827 139.506Z" fill="#18384D"/>
<path d="M134.877 139.506H135.682V94.418H134.877C132.038 94.418 129.315 95.5447 127.306 97.5507C125.297 99.5567 124.166 102.278 124.162 105.117V128.745C124.154 130.156 124.425 131.556 124.96 132.862C125.495 134.168 126.284 135.356 127.279 136.356C128.275 137.356 129.459 138.149 130.763 138.69C132.067 139.231 133.465 139.508 134.877 139.506Z" fill="#3B6275"/>
<path d="M86.8313 132.802C86.2153 132.802 85.6246 132.557 85.189 132.122C84.7535 131.686 84.5088 131.096 84.5088 130.48V108.354C84.5088 107.738 84.7535 107.147 85.189 106.711C85.6246 106.276 86.2153 106.031 86.8313 106.031C87.4473 106.031 88.038 106.276 88.4736 106.711C88.9092 107.147 89.1538 107.738 89.1538 108.354V130.433C89.16 130.742 89.1045 131.049 88.9905 131.336C88.8766 131.623 88.7065 131.885 88.4902 132.106C88.2739 132.326 88.0158 132.501 87.731 132.621C87.4461 132.741 87.1403 132.802 86.8313 132.802Z" fill="#18384D"/>
<path d="M100.008 141.983C99.3921 141.983 98.8013 141.739 98.3658 141.303C97.9302 140.868 97.6855 140.277 97.6855 139.661V99.218C97.6855 98.6021 97.9302 98.0113 98.3658 97.5757C98.8013 97.1402 99.3921 96.8955 100.008 96.8955C100.624 96.8955 101.215 97.1402 101.65 97.5757C102.086 98.0113 102.331 98.6021 102.331 99.218V139.661C102.331 140.277 102.086 140.868 101.65 141.303C101.215 141.739 100.624 141.983 100.008 141.983Z" fill="#18384D"/>
<path d="M113.184 132.802C112.569 132.798 111.981 132.552 111.546 132.117C111.111 131.683 110.865 131.094 110.861 130.48V108.354C110.861 107.738 111.106 107.147 111.542 106.711C111.977 106.276 112.568 106.031 113.184 106.031C113.8 106.031 114.391 106.276 114.826 106.711C115.262 107.147 115.506 107.738 115.506 108.354V130.433C115.513 130.742 115.457 131.049 115.343 131.336C115.229 131.623 115.059 131.885 114.843 132.106C114.626 132.326 114.368 132.501 114.084 132.621C113.799 132.741 113.493 132.802 113.184 132.802Z" fill="#18384D"/>
</g>
<defs>
<clipPath id="clip0_1692_1851">
<rect width="200" height="200" fill="white"/>
</clipPath>
</defs>
</svg>
