<svg width="200" height="200" viewBox="0 0 200 200" fill="none" xmlns="http://www.w3.org/2000/svg">
<g clip-path="url(#clip0_1692_6637)">
<path d="M100.008 200.015C155.24 200.015 200.015 155.24 200.015 100.008C200.015 44.775 155.24 0 100.008 0C44.775 0 0 44.775 0 100.008C0 155.24 44.775 200.015 100.008 200.015Z" fill="#C4B8FF"/>
<path d="M59.6892 34.915C57.9137 34.9516 56.2253 35.6912 54.9945 36.9713C53.7637 38.2515 53.091 39.9677 53.1242 41.7433V157.869C53.091 159.645 53.7637 161.361 54.9945 162.641C56.2253 163.921 57.9137 164.661 59.6892 164.698H99.9463V34.915H59.6892Z" fill="#AF7751"/>
<path d="M140.312 34.915H100.055V164.713H140.312C141.193 164.701 142.063 164.515 142.872 164.165C143.681 163.816 144.413 163.31 145.026 162.677C145.638 162.044 146.12 161.296 146.443 160.477C146.766 159.657 146.924 158.781 146.908 157.9V41.7742C146.928 40.8899 146.774 40.0102 146.453 39.1859C146.132 38.3617 145.651 37.6091 145.038 36.9715C144.425 36.3339 143.691 35.8239 142.88 35.471C142.069 35.118 141.196 34.9291 140.312 34.915Z" fill="#D39667"/>
<path d="M66.0524 41.9756C64.5133 42.0518 63.0672 42.7351 62.0311 43.8757C60.9949 45.0164 60.4533 46.5213 60.5248 48.0606V151.568C60.4533 153.107 60.9949 154.612 62.0311 155.752C63.0672 156.893 64.5133 157.576 66.0524 157.653H100.008V41.9756H66.0524Z" fill="#D1E7F1"/>
<path d="M133.963 41.9756H100.008V157.653H133.963C135.502 157.576 136.948 156.893 137.984 155.752C139.021 154.612 139.562 153.107 139.491 151.568V48.0606C139.562 46.5213 139.021 45.0164 137.984 43.8757C136.948 42.7351 135.502 42.0518 133.963 41.9756Z" fill="#E0EFF5"/>
<path d="M110.119 30.5337C110.119 30.1603 110.045 29.7906 109.901 29.4458C109.758 29.101 109.548 28.788 109.283 28.5246C109.018 28.2613 108.704 28.0529 108.359 27.9115C108.013 27.77 107.643 27.6982 107.27 27.7002H92.7151C91.9636 27.7002 91.2429 27.9987 90.7115 28.5301C90.1801 29.0615 89.8816 29.7822 89.8816 30.5337C89.8816 31.2893 89.5815 32.0139 89.0472 32.5482C88.5129 33.0825 87.7882 33.3826 87.0326 33.3826H80.4057C79.6542 33.3826 78.9335 33.6812 78.4021 34.2126C77.8708 34.744 77.5723 35.4647 77.5723 36.2161V42.4095C77.5723 43.161 77.8708 43.8817 78.4021 44.4131C78.9335 44.9445 79.6542 45.243 80.4057 45.243H119.563C119.937 45.245 120.307 45.1733 120.653 45.0318C120.998 44.8903 121.312 44.6819 121.577 44.4186C121.842 44.1553 122.052 43.8422 122.195 43.4975C122.339 43.1527 122.412 42.7829 122.412 42.4095V36.2161C122.412 35.8427 122.339 35.473 122.195 35.1282C122.052 34.7834 121.842 34.4704 121.577 34.2071C121.312 33.9438 120.998 33.7354 120.653 33.5939C120.307 33.4524 119.937 33.3806 119.563 33.3826H112.937C112.564 33.3806 112.196 33.3054 111.853 33.1611C111.51 33.0168 111.199 32.8064 110.937 32.5418C110.676 32.2773 110.469 31.9638 110.328 31.6192C110.188 31.2747 110.116 30.9058 110.119 30.5337Z" fill="#18384D"/>
<path d="M130.463 58.1562H69.5514C68.1747 58.1562 67.0586 59.2723 67.0586 60.6491C67.0586 62.0258 68.1747 63.1419 69.5514 63.1419H130.463C131.84 63.1419 132.956 62.0258 132.956 60.6491C132.956 59.2723 131.84 58.1562 130.463 58.1562Z" fill="#A3CFE2"/>
<path d="M130.463 70.3105H69.5514C68.1747 70.3105 67.0586 71.4266 67.0586 72.8034C67.0586 74.1801 68.1747 75.2962 69.5514 75.2962H130.463C131.84 75.2962 132.956 74.1801 132.956 72.8034C132.956 71.4266 131.84 70.3105 130.463 70.3105Z" fill="#A3CFE2"/>
<path d="M130.463 82.4492H69.5514C68.1747 82.4492 67.0586 83.5653 67.0586 84.9421C67.0586 86.3188 68.1747 87.4349 69.5514 87.4349H130.463C131.84 87.4349 132.956 86.3188 132.956 84.9421C132.956 83.5653 131.84 82.4492 130.463 82.4492Z" fill="#A3CFE2"/>
<path d="M130.463 94.5889H69.5514C68.1747 94.5889 67.0586 95.7049 67.0586 97.0817C67.0586 98.4585 68.1747 99.5745 69.5514 99.5745H130.463C131.84 99.5745 132.956 98.4585 132.956 97.0817C132.956 95.7049 131.84 94.5889 130.463 94.5889Z" fill="#A3CFE2"/>
<path d="M130.463 106.743H69.5514C68.1747 106.743 67.0586 107.859 67.0586 109.236C67.0586 110.613 68.1747 111.729 69.5514 111.729H130.463C131.84 111.729 132.956 110.613 132.956 109.236C132.956 107.859 131.84 106.743 130.463 106.743Z" fill="#A3CFE2"/>
<path d="M130.463 118.882H69.5514C68.1747 118.882 67.0586 119.998 67.0586 121.375C67.0586 122.751 68.1747 123.868 69.5514 123.868H130.463C131.84 123.868 132.956 122.751 132.956 121.375C132.956 119.998 131.84 118.882 130.463 118.882Z" fill="#A3CFE2"/>
<path d="M130.463 131.021H69.5514C68.1747 131.021 67.0586 132.138 67.0586 133.514C67.0586 134.891 68.1747 136.007 69.5514 136.007H130.463C131.84 136.007 132.956 134.891 132.956 133.514C132.956 132.138 131.84 131.021 130.463 131.021Z" fill="#A3CFE2"/>
<path d="M130.463 143.176H69.5514C68.1747 143.176 67.0586 144.292 67.0586 145.669C67.0586 147.045 68.1747 148.161 69.5514 148.161H130.463C131.84 148.161 132.956 147.045 132.956 145.669C132.956 144.292 131.84 143.176 130.463 143.176Z" fill="#A3CFE2"/>
</g>
<defs>
<clipPath id="clip0_1692_6637">
<rect width="200" height="200" fill="white"/>
</clipPath>
</defs>
</svg>
