<svg width="200" height="200" viewBox="0 0 200 200" fill="none" xmlns="http://www.w3.org/2000/svg">
<g clip-path="url(#clip0_1692_1812)">
<path d="M100.008 200.015C155.24 200.015 200.015 155.24 200.015 100.008C200.015 44.775 155.24 0 100.008 0C44.775 0 0 44.775 0 100.008C0 155.24 44.775 200.015 100.008 200.015Z" fill="#B1F2EA"/>
<path d="M107.145 39.9941H71.75V98.4752H107.145V39.9941Z" fill="#D1E7F1"/>
<path d="M155.826 39.9941H104.39V98.4752H155.826V39.9941Z" fill="#E0EFF5"/>
<path d="M63.3585 62.5218C63.3566 64.2597 62.9068 65.9677 62.0524 67.4811C61.1981 68.9945 59.9681 70.2621 58.4811 71.1616C57.8116 71.5588 57.1002 71.8808 56.3599 72.1216L56.0347 72.23C55.1322 72.4801 54.1997 72.6051 53.2632 72.6016C52.0853 72.6104 50.9155 72.4059 49.8104 71.9978L49.4079 71.8429C48.6769 71.5472 47.9852 71.1623 47.3485 70.6972C45.9477 69.6844 44.8304 68.329 44.1036 66.7607C43.3769 65.1924 43.065 63.4636 43.1978 61.7402C43.3307 60.0168 43.9038 58.3564 44.8623 56.918C45.8208 55.4795 47.1327 54.3113 48.6721 53.5252C50.2116 52.7391 51.9271 52.3615 53.6544 52.4285C55.3816 52.4954 57.0627 53.0047 58.5366 53.9076C60.0106 54.8106 61.228 56.0768 62.0723 57.5852C62.9166 59.0935 63.3595 60.7933 63.3585 62.5218Z" fill="#18384D"/>
<path d="M47.8597 75.8691H59.1781C60.6564 75.8691 62.0742 76.4564 63.1196 77.5017C64.1649 78.5471 64.7522 79.9649 64.7522 81.4432V121.065H41.8057V82.0625C41.8053 80.4438 42.4386 78.8892 43.5701 77.7317C44.7016 76.5741 46.2414 75.9056 47.8597 75.8691Z" fill="#18384D"/>
<path d="M41.8057 114.764H51.2815V158.365C51.2817 158.995 51.1561 159.619 50.9122 160.2C50.6683 160.781 50.311 161.307 49.8611 161.749C49.4113 162.19 48.878 162.537 48.2924 162.769C47.7068 163.002 47.0807 163.115 46.4507 163.103C45.2103 163.079 44.0289 162.569 43.1604 161.683C42.2918 160.797 41.8054 159.606 41.8057 158.365V114.764Z" fill="#18384D"/>
<path d="M55.291 114.764H64.7669V158.365C64.7669 159.622 64.2677 160.827 63.3792 161.715C62.4907 162.604 61.2855 163.103 60.029 163.103C58.7724 163.103 57.5673 162.604 56.6787 161.715C55.7902 160.827 55.291 159.622 55.291 158.365V114.764Z" fill="#18384D"/>
<path d="M29.2947 124.239C28.5674 124.238 27.8505 124.066 27.2018 123.737C26.5531 123.408 25.9907 122.932 25.5599 122.346C25.1291 121.76 24.8418 121.081 24.7214 120.364C24.6009 119.646 24.6506 118.911 24.8663 118.216L32.6081 93.3343L42.7498 78.8263C43.0996 78.3261 43.5444 77.8996 44.0589 77.5713C44.5734 77.2431 45.1475 77.0193 45.7485 76.9129C46.3495 76.8065 46.9656 76.8196 47.5616 76.9513C48.1575 77.083 48.7217 77.3308 49.2219 77.6805C49.7221 78.0302 50.1485 78.475 50.4768 78.9896C50.8051 79.5041 51.0288 80.0782 51.1352 80.6792C51.2416 81.2802 51.2286 81.8963 51.0969 82.4922C50.9652 83.0882 50.7174 83.6524 50.3677 84.1526L41.0776 97.4683L33.8313 120.957C33.5351 121.923 32.932 122.766 32.1133 123.359C31.2946 123.951 30.305 124.26 29.2947 124.239Z" fill="#18384D"/>
<path d="M107.146 170.612C107.152 171.165 107.126 171.718 107.068 172.269C106.18 172.987 105.243 173.644 104.266 174.235C102.541 175.278 100.702 176.12 98.7848 176.744L97.9177 177.007C95.5894 177.661 93.1828 177.994 90.7644 177.998C87.7242 178.003 84.7064 177.479 81.8459 176.449L80.8394 176.047C78.9537 175.274 77.1659 174.282 75.5131 173.089C75.157 172.826 74.8009 172.563 74.4757 172.3C74.4131 171.745 74.382 171.186 74.3828 170.628C74.3828 166.283 76.1087 162.116 79.1809 159.044C82.253 155.972 86.4197 154.246 90.7644 154.246C95.109 154.246 99.2756 155.972 102.348 159.044C105.42 162.116 107.146 166.283 107.146 170.628V170.612Z" fill="#18384D"/>
<path d="M99.4036 143.47C99.4024 144.958 99.0186 146.42 98.2892 147.716C97.5598 149.012 96.5092 150.099 95.2385 150.871C94.6696 151.216 94.0614 151.492 93.427 151.692L93.1328 151.785C92.3624 152.004 91.5649 152.114 90.7639 152.11C89.7563 152.108 88.7563 151.935 87.8065 151.599L87.4659 151.46C86.8456 151.196 86.2541 150.869 85.7008 150.484C84.5027 149.618 83.5471 148.458 82.9253 147.117C82.3035 145.776 82.0363 144.297 82.1493 142.823C82.2623 141.349 82.7518 139.928 83.5708 138.697C84.3899 137.467 85.5111 136.466 86.8272 135.793C88.1433 135.119 89.6103 134.794 91.0877 134.85C92.5652 134.905 94.0037 135.339 95.2657 136.109C96.5276 136.88 97.5706 137.961 98.2952 139.25C99.0197 140.539 99.4013 141.992 99.4036 143.47Z" fill="#18384D"/>
<path d="M146.489 170.612C146.49 171.166 146.459 171.719 146.396 172.269C145.51 172.99 144.574 173.648 143.594 174.235C141.874 175.279 140.04 176.121 138.128 176.744L137.261 177.007C134.933 177.661 132.526 177.994 130.108 177.998C127.067 178.004 124.049 177.48 121.189 176.449L120.167 176.047C118.281 175.274 116.494 174.282 114.841 173.089L113.819 172.3C113.749 171.745 113.717 171.186 113.726 170.628C113.726 166.283 115.452 162.116 118.524 159.044C121.596 155.972 125.763 154.246 130.108 154.246C134.452 154.246 138.619 155.972 141.691 159.044C144.763 162.116 146.489 166.283 146.489 170.628V170.612Z" fill="#18384D"/>
<path d="M138.747 143.47C138.746 144.958 138.362 146.42 137.633 147.716C136.904 149.012 135.853 150.099 134.582 150.871C134.008 151.216 133.395 151.492 132.755 151.692L132.476 151.785C131.706 152.003 130.909 152.113 130.108 152.11C129.1 152.109 128.1 151.936 127.15 151.599L126.81 151.46C126.186 151.203 125.594 150.875 125.044 150.484C123.846 149.618 122.891 148.458 122.269 147.117C121.647 145.776 121.38 144.297 121.493 142.823C121.606 141.349 122.096 139.928 122.915 138.697C123.734 137.467 124.855 136.466 126.171 135.793C127.487 135.119 128.954 134.794 130.431 134.85C131.909 134.905 133.347 135.339 134.609 136.109C135.871 136.88 136.914 137.961 137.639 139.25C138.363 140.539 138.745 141.992 138.747 143.47Z" fill="#18384D"/>
<path d="M143.238 49.9189H82.3258C80.9491 49.9189 79.833 51.035 79.833 52.4118C79.833 53.7885 80.9491 54.9046 82.3258 54.9046H143.238C144.615 54.9046 145.731 53.7885 145.731 52.4118C145.731 51.035 144.615 49.9189 143.238 49.9189Z" fill="#A3CFE2"/>
<path d="M143.238 64.2568H82.3258C80.9491 64.2568 79.833 65.3729 79.833 66.7497C79.833 68.1264 80.9491 69.2425 82.3258 69.2425H143.238C144.615 69.2425 145.731 68.1264 145.731 66.7497C145.731 65.3729 144.615 64.2568 143.238 64.2568Z" fill="#A3CFE2"/>
<path d="M116.556 65.7239L84.9043 97.376L87.094 99.5657L118.746 67.9136L116.556 65.7239Z" fill="#D39667"/>
<path d="M86.0101 104.653H70.635L56.9476 83.2388C56.5281 82.7341 56.2204 82.1462 56.0446 81.5139C55.8689 80.8815 55.8291 80.2191 55.928 79.5703C56.0269 78.9215 56.2622 78.301 56.6183 77.7497C56.9744 77.1984 57.4433 76.7288 57.994 76.3719C58.5448 76.015 59.165 75.7788 59.8137 75.679C60.4624 75.5792 61.1248 75.618 61.7574 75.7928C62.39 75.9676 62.9784 76.2746 63.4838 76.6933C63.9891 77.1121 64.4 77.6331 64.6893 78.2222L75.6517 95.3624H85.9326C87.1646 95.3624 88.3461 95.8518 89.2172 96.7229C90.0883 97.594 90.5777 98.7755 90.5777 100.007C90.5777 101.239 90.0883 102.421 89.2172 103.292C88.3461 104.163 87.1646 104.653 85.9326 104.653H86.0101Z" fill="#18384D"/>
</g>
<defs>
<clipPath id="clip0_1692_1812">
<rect width="200" height="200" fill="white"/>
</clipPath>
</defs>
</svg>
