<svg width="200" height="200" viewBox="0 0 200 200" fill="none" xmlns="http://www.w3.org/2000/svg">
<g clip-path="url(#clip0_1692_6733)">
<path d="M100.008 200.015C155.24 200.015 200.015 155.24 200.015 100.008C200.015 44.775 155.24 0 100.008 0C44.775 0 0 44.775 0 100.008C0 155.24 44.775 200.015 100.008 200.015Z" fill="#AED8FF"/>
<path d="M92.9011 61.5626C87.2669 55.8829 79.6532 52.6041 71.6553 52.4131C63.6573 52.2222 55.8959 55.134 49.9971 60.5384C44.0983 65.9428 40.5199 73.4204 40.0118 81.4044C39.5037 89.3885 42.1052 97.2594 47.2713 103.368L99.9925 160.997V69.3198L92.9011 61.5626Z" fill="#FF5959"/>
<path d="M150.84 59.6582C144.787 54.1172 136.782 51.2055 128.583 51.5626C120.385 51.9197 112.663 55.5164 107.115 61.5627L100.008 69.3044V160.998L152.745 103.415C155.493 100.417 157.624 96.9066 159.016 93.085C160.407 89.2634 161.033 85.2052 160.856 81.1419C160.679 77.0787 159.703 73.0901 157.985 69.4039C156.266 65.7177 153.839 62.4061 150.84 59.6582Z" fill="#FF7C7C"/>
<path d="M44 102.375H71.2707L81.1542 81L91.3448 111.875L101.842 85.75L112.34 119L121.609 102.375H156" stroke="#AED8FF" stroke-width="5" stroke-linecap="round" stroke-linejoin="round"/>
</g>
<defs>
<clipPath id="clip0_1692_6733">
<rect width="200" height="200" fill="white"/>
</clipPath>
</defs>
</svg>
