<svg width="200" height="200" viewBox="0 0 200 200" fill="none" xmlns="http://www.w3.org/2000/svg">
<g clip-path="url(#clip0_1692_106)">
<path d="M100.008 200.015C155.24 200.015 200.015 155.24 200.015 100.008C200.015 44.775 155.24 0 100.008 0C44.775 0 0 44.775 0 100.008C0 155.24 44.775 200.015 100.008 200.015Z" fill="#FFEE5F"/>
<path d="M23.9063 103.119C23.8991 109.435 25.3151 115.672 28.0493 121.365C30.7835 127.059 34.7655 132.063 39.6994 136.006C40.2413 136.44 40.7987 136.858 41.3716 137.276C44.0422 139.196 46.9258 140.802 49.965 142.06C50.5069 142.277 51.0488 142.509 51.6062 142.71C56.2237 144.378 61.0966 145.226 66.0058 145.219V61.0195C54.8403 61.0195 44.1322 65.455 36.237 73.3502C28.3418 81.2454 23.9063 91.9536 23.9063 103.119Z" fill="#D1E7F1"/>
<path d="M66.0059 61.0195V145.219C69.9146 145.244 73.8077 144.723 77.572 143.67C78.0365 143.562 78.501 143.407 78.9655 143.268C82.0541 142.255 85.0196 140.899 87.8066 139.227C95.6739 134.465 101.767 127.259 105.154 118.71C108.541 110.161 109.037 100.737 106.566 91.8795C104.095 83.0217 98.7928 75.2162 91.4688 69.655C84.1448 64.0938 75.2019 61.0826 66.0059 61.0814V61.0195Z" fill="#E0EFF5"/>
<path d="M85.1121 126.841C85.1121 127.491 85.1121 128.126 85.0192 128.761C83.9874 129.605 82.9012 130.381 81.7677 131.083C79.7519 132.294 77.607 133.276 75.373 134.01L74.3666 134.304C68.1908 136.054 61.6216 135.821 55.5852 133.638C55.1981 133.499 54.7955 133.344 54.4084 133.174C52.2182 132.264 50.14 131.106 48.215 129.721L47.0228 128.792C46.9348 128.151 46.8934 127.504 46.8989 126.856C46.8989 121.781 48.9152 116.913 52.5042 113.324C56.0932 109.735 60.9609 107.719 66.0365 107.719C71.1121 107.719 75.9798 109.735 79.5688 113.324C83.1578 116.913 85.1741 121.781 85.1741 126.856L85.1121 126.841Z" fill="#18384D"/>
<path d="M76.1013 94.5578C76.1003 96.3033 75.646 98.0187 74.7829 99.5359C73.9198 101.053 72.6774 102.32 71.1776 103.213C70.5088 103.616 69.7974 103.943 69.0563 104.189L68.7157 104.281C66.6792 104.857 64.5136 104.781 62.5223 104.065L62.1352 103.91C61.4055 103.611 60.7142 103.227 60.0759 102.764C58.6727 101.754 57.5525 100.4 56.8228 98.832C56.0931 97.2643 55.7783 95.5355 55.9086 93.8113C56.0388 92.087 56.6098 90.4252 57.5667 88.985C58.5237 87.5447 59.8345 86.3744 61.3736 85.5862C62.9127 84.7981 64.6284 84.4185 66.3564 84.4838C68.0843 84.5491 69.7665 85.0571 71.2417 85.9592C72.7169 86.8612 73.9357 88.1272 74.7812 89.6355C75.6267 91.1439 76.0706 92.8441 76.0703 94.5733L76.1013 94.5578Z" fill="#18384D"/>
<path d="M105.891 103.119C105.896 109.097 104.554 114.999 101.964 120.387C99.375 125.775 95.605 130.51 90.9344 134.241C89.5815 135.35 88.1536 136.364 86.6609 137.276C84.0263 138.875 81.2154 140.163 78.2844 141.116L76.9683 141.503C68.8855 143.81 60.2807 143.506 52.3805 140.636L50.8322 140.032C47.9477 138.847 45.2138 137.324 42.6879 135.495C42.1614 135.108 41.6195 134.705 41.1395 134.303C35.8714 130.089 31.758 124.608 29.1842 118.373C26.6104 112.137 25.6602 105.35 26.4225 98.6477C27.1848 91.945 29.6347 85.5451 33.5431 80.0467C37.4515 74.5483 42.6906 70.131 48.7704 67.2081C54.8502 64.2851 61.5721 62.952 68.3073 63.3333C75.0424 63.7147 81.5708 65.798 87.2818 69.3886C92.9928 72.9792 97.6998 77.9597 100.963 83.8641C104.225 89.7686 105.937 96.4042 105.938 103.15L105.891 103.119Z" stroke="#18384D" stroke-width="4" stroke-miterlimit="10"/>
<path d="M109.097 57.7064C109.093 61.1158 109.857 64.4823 111.331 67.5565C112.805 70.6307 114.952 73.334 117.613 75.466L118.511 76.1473C119.952 77.1882 121.511 78.056 123.156 78.733L124.038 79.0736C126.52 79.9736 129.14 80.4347 131.78 80.4361V34.9922C125.761 35.0004 119.992 37.3972 115.739 41.656C111.486 45.9149 109.097 51.6876 109.097 57.7064Z" fill="#D1E7F1"/>
<path d="M131.826 34.9922V80.4361C133.92 80.4307 136.004 80.139 138.019 79.5691L138.778 79.3524C140.444 78.8058 142.044 78.0734 143.547 77.1691C144.396 76.646 145.213 76.0721 145.993 75.4505C149.663 72.5061 152.329 68.4955 153.622 63.9719C154.916 59.4483 154.774 54.6347 153.216 50.1952C151.658 45.7557 148.761 41.9091 144.924 39.186C141.087 36.4629 136.5 34.9976 131.795 34.9922H131.826Z" fill="#E0EFF5"/>
<path d="M153.349 57.7079C153.353 60.9342 152.629 64.1199 151.233 67.0283C149.836 69.9367 147.802 72.4931 145.282 74.5075C144.539 75.0682 143.763 75.5852 142.96 76.0559C141.535 76.9147 140.019 77.6107 138.438 78.1306L137.757 78.4403C135.839 78.9899 133.853 79.2662 131.858 79.2609C129.345 79.268 126.85 78.833 124.488 77.9758L123.652 77.6506C122.098 77.0046 120.623 76.1839 119.254 75.2042L118.403 74.5539C115.563 72.279 113.346 69.3212 111.959 65.9569C110.573 62.5926 110.062 58.9317 110.475 55.3164C110.887 51.701 112.21 48.2493 114.318 45.2839C116.427 42.3184 119.253 39.936 122.533 38.3594C125.812 36.7828 129.438 36.0635 133.071 36.2686C136.704 36.4737 140.226 37.5966 143.307 39.5324C146.388 41.4681 148.928 44.1535 150.69 47.3374C152.451 50.5214 153.377 54.1001 153.38 57.7389L153.349 57.7079Z" stroke="#18384D" stroke-width="3" stroke-miterlimit="10"/>
<path d="M120.461 133.933C120.459 137.34 121.223 140.704 122.697 143.775C124.171 146.847 126.318 149.547 128.977 151.677L129.875 152.358C131.317 153.399 132.876 154.267 134.52 154.944L135.402 155.3C137.887 156.188 140.506 156.644 143.144 156.647V111.203C137.123 111.211 131.351 113.61 127.097 117.872C122.844 122.135 120.457 127.911 120.461 133.933Z" fill="#D1E7F1"/>
<path d="M143.175 111.203V156.647C145.27 156.649 147.355 156.357 149.369 155.78L150.127 155.563C151.794 155.017 153.394 154.284 154.896 153.38C155.746 152.857 156.563 152.283 157.343 151.661C161.013 148.716 163.679 144.704 164.973 140.179C166.266 135.654 166.123 130.839 164.563 126.399C163.003 121.959 160.103 118.112 156.264 115.39C152.425 112.668 147.835 111.205 143.129 111.203H143.175Z" fill="#E0EFF5"/>
<path d="M154.448 145.53C154.471 145.906 154.471 146.283 154.448 146.66C153.834 147.158 153.188 147.613 152.512 148.022C151.326 148.735 150.064 149.311 148.75 149.741L148.161 149.911C144.526 150.937 140.661 150.802 137.106 149.524L136.409 149.246C135.116 148.714 133.89 148.034 132.755 147.217L132.043 146.675C132.019 146.294 132.019 145.911 132.043 145.53C131.987 144.015 132.237 142.505 132.777 141.089C133.318 139.674 134.139 138.382 135.19 137.29C136.242 136.199 137.503 135.331 138.897 134.738C140.292 134.145 141.792 133.84 143.307 133.84C144.823 133.84 146.323 134.145 147.717 134.738C149.112 135.331 150.373 136.199 151.424 137.29C152.476 138.382 153.296 139.674 153.837 141.089C154.378 142.505 154.628 144.015 154.572 145.53H154.448Z" fill="#18384D"/>
<path d="M149.121 126.81C149.12 127.833 148.855 128.839 148.354 129.731C147.852 130.623 147.13 131.371 146.257 131.904C145.862 132.139 145.441 132.326 145.002 132.461H144.817C144.284 132.617 143.731 132.696 143.175 132.693C142.484 132.695 141.797 132.574 141.147 132.337L140.915 132.244C140.483 132.073 140.077 131.844 139.707 131.563C138.886 130.967 138.232 130.171 137.807 129.251C137.382 128.33 137.2 127.316 137.279 126.305C137.357 125.294 137.694 124.32 138.256 123.476C138.818 122.632 139.588 121.946 140.49 121.485C141.393 121.023 142.399 120.8 143.413 120.838C144.426 120.876 145.413 121.173 146.278 121.701C147.144 122.229 147.86 122.97 148.358 123.854C148.855 124.737 149.118 125.734 149.121 126.748V126.81Z" fill="#18384D"/>
<path d="M143.083 68.7C143.107 69.0816 143.107 69.4642 143.083 69.8458C142.476 70.3399 141.834 70.7901 141.163 71.1928C139.974 71.9084 138.706 72.4851 137.385 72.9115L136.797 73.0973C133.167 74.1228 129.307 73.9874 125.757 72.7102L125.06 72.4315C123.76 71.8984 122.528 71.2123 121.391 70.3877L120.678 69.8613C120.655 69.4745 120.655 69.0868 120.678 68.7C120.787 65.7848 122.021 63.0251 124.121 61.0009C126.222 58.9767 129.026 57.8457 131.943 57.8457C134.86 57.8457 137.663 58.9767 139.764 61.0009C141.865 63.0251 143.099 65.7848 143.207 68.7H143.083Z" fill="#18384D"/>
<path d="M137.756 49.9961C137.757 51.0176 137.493 52.022 136.991 52.9117C136.489 53.8015 135.766 54.5465 134.892 55.0746C134.498 55.315 134.077 55.5074 133.638 55.6476H133.452C132.947 55.7835 132.427 55.8563 131.904 55.8643C131.207 55.8673 130.515 55.7467 129.86 55.5082L129.627 55.4308C129.202 55.247 128.797 55.0186 128.42 54.7495C127.592 54.155 126.931 53.3575 126.5 52.4338C126.069 51.5101 125.883 50.4911 125.959 49.4747C126.035 48.4583 126.372 47.4786 126.936 46.6297C127.5 45.7808 128.273 45.091 129.18 44.6269C130.088 44.1627 131.099 43.9396 132.118 43.9791C133.136 44.0185 134.128 44.3191 134.997 44.852C135.865 45.3849 136.583 46.1322 137.08 47.0222C137.576 47.9122 137.836 48.9149 137.834 49.9342L137.756 49.9961Z" fill="#18384D"/>
<path d="M164.697 133.931C164.7 137.155 163.976 140.338 162.579 143.243C161.183 146.149 159.149 148.703 156.63 150.715C154.601 152.357 152.286 153.612 149.802 154.415L149.09 154.617C144.73 155.873 140.083 155.71 135.821 154.152L134.985 153.827C133.429 153.185 131.953 152.364 130.587 151.381L129.736 150.73C126.892 148.457 124.672 145.499 123.282 142.134C121.893 138.768 121.38 135.106 121.791 131.488C122.203 127.871 123.525 124.417 125.635 121.449C127.744 118.482 130.572 116.099 133.854 114.522C137.136 112.945 140.764 112.226 144.399 112.433C148.033 112.64 151.557 113.766 154.638 115.705C157.719 117.644 160.259 120.333 162.018 123.521C163.777 126.708 164.699 130.29 164.697 133.931Z" stroke="#18384D" stroke-width="3" stroke-miterlimit="10"/>
<path d="M95.1465 75.8996L111.466 64.7051" stroke="#18384D" stroke-width="3" stroke-miterlimit="10"/>
<path d="M105.892 116.961L122.382 124.78" stroke="#18384D" stroke-width="3" stroke-miterlimit="10"/>
</g>
<defs>
<clipPath id="clip0_1692_106">
<rect width="200" height="200" fill="white"/>
</clipPath>
</defs>
</svg>
